<svg width="20" height="16" viewBox="0 0 20 16" fill="none" xmlns="http://www.w3.org/2000/svg">
<mask id="mask0_859_1198" style="mask-type:luminance" maskUnits="userSpaceOnUse" x="0" y="0" width="20" height="11">
<path d="M1 1H19.4492V9.92219H1V1Z" fill="white" stroke="white" stroke-width="0.2"/>
</mask>
<g mask="url(#mask0_859_1198)">
<path d="M18.0926 1H2.35608C2.26733 1 2.17915 1.00904 2.0921 1.02657C2.00448 1.04409 1.91969 1.06953 1.83773 1.10401C1.7552 1.13793 1.67719 1.17976 1.60314 1.22893C1.52909 1.27868 1.46069 1.33464 1.39795 1.39738C1.3352 1.46013 1.27868 1.52853 1.2295 1.60258C1.17976 1.67663 1.13793 1.75463 1.10401 1.8366C1.06953 1.91856 1.04409 2.00335 1.02657 2.0904C1.00904 2.17745 1 2.26564 1 2.35438V7.71934C1 7.8584 1.01413 7.99632 1.04126 8.13312C1.0684 8.26991 1.1091 8.40275 1.16223 8.53107C1.21593 8.65995 1.2815 8.78205 1.35895 8.89793C1.43639 9.01381 1.52457 9.12121 1.62349 9.21956C1.72185 9.31849 1.82925 9.4061 1.94513 9.48354C2.06157 9.56099 2.18367 9.62656 2.31255 9.67969C2.44143 9.73339 2.57484 9.77353 2.71163 9.80066C2.84843 9.82836 2.98635 9.84192 3.12597 9.84192H17.3232C17.4629 9.84192 17.6008 9.82836 17.7376 9.80066C17.8744 9.77353 18.0072 9.73339 18.1361 9.67969C18.265 9.62656 18.3876 9.56099 18.5035 9.48354C18.62 9.4061 18.7268 9.31849 18.8257 9.21956C18.9247 9.12121 19.0128 9.01381 19.0903 8.89793C19.1677 8.78205 19.2333 8.65995 19.2864 8.53107C19.3401 8.40275 19.3808 8.26991 19.408 8.13312C19.4351 7.99632 19.4492 7.8584 19.4492 7.71934V2.35438C19.4492 2.26564 19.4402 2.17745 19.4227 2.0904C19.4051 2.00335 19.3797 1.91856 19.3452 1.8366C19.3113 1.75463 19.2695 1.67663 19.2197 1.60258C19.1705 1.52853 19.114 1.46013 19.0513 1.39738C18.9885 1.33464 18.9196 1.27868 18.8455 1.22893C18.772 1.17976 18.6935 1.13793 18.6115 1.10401C18.529 1.06953 18.4447 1.04409 18.3571 1.02657C18.2701 1.00904 18.1819 1 18.0926 1ZM2.35608 1.73711H18.0926C18.1333 1.73711 18.1734 1.74107 18.2135 1.74898C18.2531 1.75689 18.2916 1.76876 18.3294 1.78403C18.3667 1.79985 18.4023 1.81851 18.4363 1.84112C18.4696 1.86373 18.5013 1.88917 18.5295 1.918C18.5584 1.94682 18.5844 1.97791 18.607 2.01126C18.629 2.04518 18.6482 2.08079 18.6641 2.1181C18.6793 2.15541 18.6912 2.19441 18.6991 2.23398C18.707 2.27355 18.711 2.31368 18.711 2.35438V6.15807H1.73768V2.35438C1.73824 2.31368 1.7422 2.27355 1.75011 2.23398C1.75802 2.19441 1.7699 2.15541 1.78516 2.1181C1.80099 2.08079 1.81964 2.04518 1.84225 2.01126C1.86486 1.97791 1.8903 1.94682 1.91913 1.918C1.94795 1.88917 1.97904 1.86373 2.01296 1.84112C2.04688 1.81851 2.08249 1.79985 2.1198 1.78403C2.1571 1.76876 2.19611 1.75689 2.23568 1.74898C2.27581 1.74107 2.31594 1.73711 2.35608 1.73711ZM4.69007 9.10538V8.36827H15.7592V9.10538H4.69007ZM17.3232 9.10538H16.4974V7.99972C16.4974 7.9511 16.4878 7.90419 16.4691 7.85896C16.4505 7.81374 16.4239 7.77417 16.3894 7.73969C16.3544 7.70521 16.3148 7.67808 16.2696 7.65942C16.2244 7.64077 16.1775 7.63173 16.1283 7.63173H4.32095C4.27177 7.63173 4.22486 7.64077 4.17963 7.65942C4.13441 7.67808 4.09428 7.70521 4.0598 7.73969C4.02532 7.77417 3.99875 7.81374 3.98009 7.85896C3.96144 7.90419 3.95183 7.9511 3.95183 7.99972V9.10538H3.12597C3.03497 9.10538 2.94452 9.09634 2.85521 9.07825C2.7659 9.06072 2.67941 9.03416 2.59519 8.99911C2.51096 8.96463 2.43069 8.92167 2.35495 8.87136C2.2792 8.82049 2.20911 8.76339 2.14467 8.69895C2.08023 8.63451 2.02314 8.56442 1.97226 8.48867C1.92195 8.41349 1.87899 8.33322 1.84395 8.24956C1.8089 8.16534 1.7829 8.07885 1.76481 7.98954C1.74728 7.90023 1.73824 7.81035 1.73768 7.71934V6.89462H18.711V7.71934C18.711 7.81035 18.7019 7.90023 18.6844 7.98954C18.6663 8.07885 18.6398 8.16534 18.6053 8.24956C18.5702 8.33322 18.5273 8.41349 18.477 8.48867C18.4261 8.56442 18.3684 8.63451 18.304 8.69895C18.2395 8.76339 18.1695 8.82049 18.0937 8.87136C18.018 8.92167 17.9383 8.96463 17.854 8.99911C17.7698 9.03416 17.6833 9.06072 17.594 9.07825C17.5041 9.09634 17.4143 9.10538 17.3232 9.10538Z" fill="#F69F17" stroke="#F69F17" stroke-width="0.2"/>
</g>
<mask id="mask1_859_1198" style="mask-type:luminance" maskUnits="userSpaceOnUse" x="5" y="10" width="2" height="6">
<path d="M5.11133 10.501H6.269V14.9999H5.11133V10.501Z" fill="white" stroke="white" stroke-width="0.2"/>
</mask>
<g mask="url(#mask1_859_1198)">
<path d="M5.90746 11.5989L6.04821 11.0376C6.06235 10.9896 6.0663 10.9404 6.06065 10.8906C6.055 10.8409 6.03917 10.7945 6.0143 10.751C5.98943 10.7075 5.95721 10.6702 5.91707 10.6402C5.87694 10.6097 5.83285 10.5888 5.78423 10.5763C5.73562 10.5639 5.68644 10.5616 5.6367 10.5696C5.58752 10.5775 5.54117 10.5944 5.49877 10.621C5.45638 10.6476 5.42077 10.6815 5.39194 10.7227C5.36311 10.7634 5.34333 10.8087 5.33315 10.8578L5.19127 11.4203C5.12739 11.678 5.1093 11.9386 5.1387 12.2026C5.16753 12.4666 5.24158 12.717 5.36028 12.9544C5.43999 13.1133 5.48973 13.2811 5.50895 13.4575C5.52873 13.6339 5.5163 13.808 5.47334 13.9804L5.33258 14.5423C5.32071 14.5897 5.31845 14.6378 5.32524 14.6858C5.33258 14.7345 5.34898 14.7797 5.37385 14.8215C5.39929 14.8633 5.43151 14.8984 5.47108 14.9278C5.51008 14.9566 5.5536 14.977 5.60109 14.9888C5.63048 14.9962 5.66044 15.0001 5.69096 15.0001C5.73223 15.0001 5.77236 14.9933 5.81137 14.9798C5.84981 14.9668 5.88542 14.947 5.9182 14.9221C5.95042 14.8967 5.97812 14.8667 6.00017 14.8322C6.02278 14.7978 6.03917 14.7605 6.04878 14.7209L6.18897 14.1596C6.25284 13.9012 6.27036 13.6407 6.24097 13.3767C6.21158 13.1127 6.13696 12.8617 6.01769 12.6243C5.93855 12.4655 5.88994 12.2981 5.87072 12.1218C5.8515 11.9449 5.86394 11.7708 5.90746 11.5989Z" fill="#F69F17" stroke="#F69F17" stroke-width="0.2"/>
</g>
<mask id="mask2_859_1198" style="mask-type:luminance" maskUnits="userSpaceOnUse" x="7" y="10" width="2" height="6">
<path d="M7.42676 10.501H8.72914V14.9999H7.42676V10.501Z" fill="white" stroke="white" stroke-width="0.2"/>
</mask>
<g mask="url(#mask2_859_1198)">
<path d="M8.33395 11.5988L8.47527 11.0363C8.48658 10.9888 8.4894 10.9413 8.48205 10.8927C8.4747 10.8447 8.45831 10.7995 8.43344 10.7576C8.408 10.7152 8.37578 10.6802 8.33621 10.6508C8.29721 10.622 8.25368 10.6016 8.2062 10.5897C8.15872 10.5779 8.11067 10.5756 8.06206 10.5824C8.01345 10.5897 7.96822 10.6061 7.92639 10.6316C7.88456 10.6564 7.84895 10.6887 7.82012 10.7282C7.79073 10.7672 7.77038 10.8108 7.75851 10.8583L7.61832 11.4196C7.55388 11.6773 7.53636 11.9379 7.56519 12.2019C7.59402 12.4659 7.66807 12.7169 7.78621 12.9543C7.86591 13.1131 7.91565 13.2804 7.93544 13.4574C7.95466 13.6337 7.94279 13.8078 7.90039 13.9802L7.75908 14.5415C7.7472 14.589 7.74494 14.6371 7.75173 14.6851C7.75908 14.7337 7.7749 14.779 7.80034 14.8208C7.82521 14.8626 7.85743 14.8982 7.897 14.9271C7.936 14.9564 7.97953 14.9768 8.02701 14.9887C8.05641 14.996 8.08637 15 8.11689 15C8.15815 15 8.19829 14.9932 8.23673 14.9796C8.27573 14.9666 8.31134 14.9468 8.34356 14.922C8.37578 14.8965 8.40348 14.8666 8.42553 14.8327C8.44814 14.7982 8.46396 14.7609 8.47414 14.7213L8.61602 14.1583C8.68046 13.9011 8.69799 13.6399 8.66859 13.3765C8.63976 13.1125 8.56571 12.8616 8.44701 12.6241C8.3673 12.4659 8.31756 12.298 8.29834 12.1216C8.27912 11.9453 8.29099 11.7706 8.33395 11.5988Z" fill="#F69F17" stroke="#F69F17" stroke-width="0.2"/>
</g>
<mask id="mask3_859_1198" style="mask-type:luminance" maskUnits="userSpaceOnUse" x="9" y="10" width="2" height="6">
<path d="M9.74219 10.501H10.8999V14.9999H9.74219V10.501Z" fill="white" stroke="white" stroke-width="0.2"/>
</mask>
<g mask="url(#mask3_859_1198)">
<path d="M10.5484 11.5988L10.6891 11.0363C10.701 10.9888 10.7033 10.9413 10.6959 10.8927C10.6886 10.8447 10.6727 10.7995 10.6473 10.7576C10.6219 10.7152 10.5897 10.6802 10.5506 10.6508C10.5111 10.622 10.4676 10.6016 10.4201 10.5897C10.3726 10.5779 10.3245 10.5756 10.2765 10.5824C10.2279 10.5897 10.1827 10.6061 10.1408 10.6316C10.0984 10.6564 10.0634 10.6887 10.034 10.7282C10.0052 10.7672 9.98425 10.8108 9.97238 10.8583L9.83219 11.4196C9.76775 11.6773 9.75023 11.9379 9.77906 12.2019C9.80845 12.4659 9.88193 12.7169 10.0006 12.9543C10.0803 13.1131 10.1301 13.2804 10.1493 13.4574C10.1691 13.6337 10.1572 13.8078 10.1143 13.9802L9.97351 14.5415C9.96164 14.589 9.95881 14.6371 9.96616 14.6851C9.97351 14.7337 9.98934 14.779 10.0142 14.8208C10.0396 14.8626 10.0719 14.8982 10.1109 14.9271C10.1504 14.9564 10.194 14.9768 10.2414 14.9887C10.2708 14.996 10.3008 15 10.3313 15C10.372 15 10.4122 14.9932 10.4512 14.9796C10.4896 14.9666 10.5252 14.9468 10.5574 14.922C10.5902 14.8965 10.6173 14.8666 10.64 14.8327C10.662 14.7982 10.6784 14.7609 10.6886 14.7213L10.8299 14.1583C10.8943 13.9011 10.9119 13.6399 10.883 13.3765C10.8536 13.1125 10.7801 12.8616 10.6609 12.6241C10.5817 12.4659 10.532 12.298 10.5128 12.1216C10.493 11.9453 10.5049 11.7706 10.5484 11.5988Z" fill="#F69F17" stroke="#F69F17" stroke-width="0.2"/>
</g>
<mask id="mask4_859_1198" style="mask-type:luminance" maskUnits="userSpaceOnUse" x="11" y="10" width="3" height="6">
<path d="M11.9121 10.501H13.2145V14.9999H11.9121V10.501Z" fill="white" stroke="white" stroke-width="0.2"/>
</mask>
<g mask="url(#mask4_859_1198)">
<path d="M12.7607 11.5986L12.902 11.0362C12.9133 10.9887 12.9156 10.9412 12.9088 10.8926C12.9015 10.8445 12.8851 10.7993 12.8596 10.7575C12.8348 10.7157 12.8025 10.6801 12.763 10.6512C12.7234 10.6218 12.6804 10.6015 12.633 10.5896C12.5855 10.5777 12.5374 10.5755 12.4888 10.5828C12.4408 10.5902 12.3955 10.6066 12.3532 10.6314C12.3113 10.6563 12.2757 10.6885 12.2469 10.7281C12.2175 10.7671 12.1971 10.8106 12.1853 10.8581L12.0451 11.4194C11.9806 11.6772 11.9631 11.9378 11.9919 12.2018C12.0208 12.4657 12.0948 12.7167 12.2135 12.9541C12.2927 13.113 12.3424 13.2803 12.3622 13.4572C12.3814 13.6336 12.3701 13.8077 12.3272 13.9801L12.1858 14.5414C12.174 14.5889 12.1717 14.6369 12.1785 14.685C12.1858 14.7336 12.2022 14.7788 12.2271 14.8206C12.252 14.8625 12.2842 14.8981 12.3238 14.9269C12.3628 14.9563 12.4063 14.9767 12.4538 14.9885C12.4832 14.9959 12.5137 14.9998 12.5436 14.9998C12.5849 14.9998 12.625 14.9931 12.6635 14.9795C12.7025 14.9665 12.7381 14.9467 12.7703 14.9218C12.8025 14.8964 12.8302 14.8664 12.8523 14.8325C12.8749 14.798 12.8913 14.7607 12.9009 14.7212L13.0428 14.1581C13.1072 13.901 13.1247 13.6398 13.0953 13.3764C13.0665 13.1124 12.9925 12.8614 12.8738 12.624C12.7941 12.4657 12.7443 12.2979 12.7251 12.1215C12.7059 11.9451 12.7178 11.7705 12.7607 11.5986Z" fill="#F69F17" stroke="#F69F17" stroke-width="0.2"/>
</g>
<mask id="mask5_859_1198" style="mask-type:luminance" maskUnits="userSpaceOnUse" x="13" y="10" width="3" height="6">
<path d="M14.082 10.501H15.3844V14.9999H14.082V10.501Z" fill="white" stroke="white" stroke-width="0.2"/>
</mask>
<g mask="url(#mask5_859_1198)">
<path d="M14.975 11.5986L15.1158 11.0362C15.1277 10.9887 15.1299 10.9412 15.1226 10.8926C15.1152 10.8445 15.0988 10.7993 15.074 10.7575C15.0485 10.7157 15.0163 10.6801 14.9767 10.6512C14.9377 10.6218 14.8942 10.6015 14.8467 10.5896C14.7992 10.5777 14.7512 10.5755 14.7031 10.5828C14.6545 10.5902 14.6093 10.6066 14.5675 10.6314C14.5256 10.6563 14.49 10.6885 14.4606 10.7281C14.4318 10.7671 14.4115 10.8106 14.399 10.8581L14.2588 11.4194C14.195 11.6772 14.1769 11.9378 14.2057 12.2018C14.2351 12.4657 14.3086 12.7167 14.4273 12.9541C14.507 13.113 14.5567 13.2803 14.576 13.4572C14.5957 13.6336 14.5839 13.8077 14.5409 13.9801L14.4002 14.5414C14.3883 14.5889 14.3855 14.6369 14.3928 14.685C14.4002 14.7336 14.416 14.7788 14.4414 14.8206C14.4663 14.8625 14.4985 14.8981 14.5375 14.9269C14.5771 14.9563 14.6206 14.9767 14.6681 14.9885C14.6975 14.9959 14.7274 14.9998 14.758 14.9998C14.7992 14.9998 14.8388 14.9931 14.8778 14.9795C14.9162 14.9665 14.9519 14.9467 14.9846 14.9218C15.0169 14.8964 15.044 14.8664 15.0666 14.8325C15.0887 14.798 15.105 14.7607 15.1152 14.7212L15.2565 14.1581C15.321 13.901 15.3385 13.6398 15.3097 13.3764C15.2808 13.1124 15.2068 12.8614 15.0881 12.624C15.0084 12.4657 14.9586 12.2979 14.9394 12.1215C14.9196 11.9451 14.9315 11.7705 14.975 11.5986Z" fill="#F69F17" stroke="#F69F17" stroke-width="0.2"/>
</g>
<path d="M4.32125 4.68447C4.32125 4.73309 4.31164 4.78 4.29298 4.82522C4.27433 4.87045 4.24776 4.91001 4.21328 4.94506C4.17824 4.97954 4.13867 5.00611 4.09345 5.02476C4.04822 5.04342 4.00131 5.05246 3.95213 5.05246C3.90295 5.05246 3.85603 5.04342 3.81081 5.02476C3.76559 5.00611 3.72602 4.97954 3.69097 4.94506C3.65649 4.91001 3.62993 4.87045 3.61127 4.82522C3.59262 4.78 3.58301 4.73309 3.58301 4.68447C3.58301 4.63529 3.59262 4.58838 3.61127 4.54316C3.62993 4.49793 3.65649 4.45837 3.69097 4.42388C3.72602 4.3894 3.76559 4.36284 3.81081 4.34418C3.85603 4.32496 3.90295 4.31592 3.95213 4.31592C4.00131 4.31592 4.04822 4.32496 4.09345 4.34418C4.13867 4.36284 4.17824 4.3894 4.21328 4.42388C4.24776 4.45837 4.27433 4.49793 4.29298 4.54316C4.31164 4.58838 4.32125 4.63529 4.32125 4.68447Z" fill="#F69F17" stroke="#F69F17" stroke-width="0.2"/>
<path d="M5.79683 4.68447C5.79683 4.73309 5.78722 4.78 5.76857 4.82522C5.74992 4.87045 5.72335 4.91001 5.68887 4.94506C5.65382 4.97954 5.61425 5.00611 5.56903 5.02476C5.52381 5.04342 5.47689 5.05246 5.42771 5.05246C5.37854 5.05246 5.33162 5.04342 5.2864 5.02476C5.24118 5.00611 5.20161 4.97954 5.16656 4.94506C5.13208 4.91001 5.10551 4.87045 5.08686 4.82522C5.0682 4.78 5.05859 4.73309 5.05859 4.68447C5.05859 4.63529 5.0682 4.58838 5.08686 4.54316C5.10551 4.49793 5.13208 4.45837 5.16656 4.42388C5.20161 4.3894 5.24118 4.36284 5.2864 4.34418C5.33162 4.32496 5.37854 4.31592 5.42771 4.31592C5.47689 4.31592 5.52381 4.32496 5.56903 4.34418C5.61425 4.36284 5.65382 4.3894 5.68887 4.42388C5.72335 4.45837 5.74992 4.49793 5.76857 4.54316C5.78722 4.58838 5.79683 4.63529 5.79683 4.68447Z" fill="#F69F17" stroke="#F69F17" stroke-width="0.2"/>
<path d="M7.27242 4.68447C7.27242 4.73309 7.26281 4.78 7.24416 4.82522C7.2255 4.87045 7.19894 4.91001 7.16445 4.94506C7.12941 4.97954 7.08984 5.00611 7.04462 5.02476C6.9994 5.04342 6.95248 5.05246 6.9033 5.05246C6.85469 5.05246 6.8072 5.04342 6.76198 5.02476C6.71676 5.00611 6.67719 4.97954 6.64215 4.94506C6.60766 4.91001 6.5811 4.87045 6.56244 4.82522C6.54379 4.78 6.53418 4.73309 6.53418 4.68447C6.53418 4.63529 6.54379 4.58838 6.56244 4.54316C6.5811 4.49793 6.60766 4.45837 6.64215 4.42388C6.67719 4.3894 6.71676 4.36284 6.76198 4.34418C6.8072 4.32496 6.85469 4.31592 6.9033 4.31592C6.95248 4.31592 6.9994 4.32496 7.04462 4.34418C7.08984 4.36284 7.12941 4.3894 7.16445 4.42388C7.19894 4.45837 7.2255 4.49793 7.24416 4.54316C7.26281 4.58838 7.27242 4.63529 7.27242 4.68447Z" fill="#F69F17" stroke="#F69F17" stroke-width="0.2"/>
</svg>
