<svg width="13" height="15" viewBox="0 0 13 15" fill="none" xmlns="http://www.w3.org/2000/svg">
<path d="M4.22451 14.0628C4.07791 14.0628 3.92466 14.0362 3.78473 13.9762C3.47156 13.8429 3.23168 13.5831 3.12507 13.2566L2.83189 12.377C2.69862 11.9772 2.81856 11.4775 3.11174 11.1776L4.6243 9.65842C4.6443 9.63843 4.67095 9.56513 4.67095 9.53181V7.88599L1.6325 9.19865C1.22604 9.3719 0.812918 9.35191 0.499744 9.14535C0.186571 8.93878 0 8.56564 0 8.13253V7.27297C0 6.61997 0.466428 5.92033 1.05946 5.68709L4.66428 4.12789V2.23552C4.66428 1.42927 5.23064 0.503076 5.95027 0.129934C6.29676 -0.0433112 6.69656 -0.0433112 7.03638 0.129934C7.76268 0.503076 8.32905 1.42261 8.32905 2.22886V4.12123L11.9539 5.68043C12.5469 5.93365 13 6.61331 13 7.27297V8.13253C13 8.5723 12.8201 8.93878 12.5003 9.14535C12.1804 9.35191 11.774 9.3719 11.3675 9.20532L8.32905 7.89265V9.53848C8.32905 9.56513 8.35571 9.63176 8.3757 9.65175L9.89492 11.1776C10.1881 11.4708 10.308 11.9839 10.1748 12.377L9.88159 13.2566C9.76832 13.5831 9.52844 13.8429 9.2086 13.9695C8.89543 14.0961 8.54894 14.0828 8.2491 13.9362C8.21578 13.9162 8.18246 13.8963 8.14915 13.8696L6.59661 12.5636C6.5433 12.517 6.43669 12.5236 6.39005 12.5636L4.83753 13.8696C4.81087 13.8963 4.77756 13.9162 4.74424 13.9296C4.58432 14.0229 4.40441 14.0628 4.22451 14.0628ZM4.87751 6.79321C5.03077 6.79321 5.17733 6.83319 5.30394 6.91982C5.53715 7.07307 5.67041 7.33294 5.67041 7.63945V9.53848C5.67041 9.825 5.53049 10.1648 5.33059 10.3647L3.81805 11.8839C3.79139 11.9173 3.76474 12.0172 3.77807 12.0572L4.07125 12.9434C4.09125 13.01 4.13788 13.0367 4.16454 13.05C4.18453 13.0567 4.21784 13.07 4.25782 13.0567L5.75037 11.7973C6.17016 11.4375 6.82982 11.4375 7.24961 11.7973L8.73551 13.05C8.78216 13.0567 8.81547 13.05 8.83546 13.0434C8.86212 13.03 8.91542 13.0034 8.93541 12.9367L9.22859 12.0572C9.24192 12.0105 9.21527 11.9106 9.18861 11.8839L7.67606 10.3647C7.47616 10.1782 7.32957 9.83166 7.32957 9.53848V7.63945C7.32957 7.3396 7.45617 7.07973 7.68272 6.92648C7.90927 6.77322 8.20245 6.75324 8.48231 6.87317L11.7606 8.28578C11.8606 8.32576 11.9272 8.32576 11.9472 8.31244C11.9672 8.29911 11.9938 8.23914 11.9938 8.13253V7.27297C11.9938 7.01977 11.7806 6.69327 11.5541 6.59998L7.83597 4.99411C7.54279 4.86751 7.33623 4.54768 7.33623 4.22784V2.22886C7.33623 1.78909 6.98974 1.22271 6.58994 1.02281C6.53664 0.996158 6.47001 0.996158 6.41004 1.02281C6.02357 1.22271 5.67041 1.80241 5.67041 2.23552V4.2345C5.67041 4.54768 5.46385 4.87418 5.17067 5.00078L1.45259 6.60664C1.21938 6.69993 1.00615 7.02643 1.00615 7.27297V8.13253C1.00615 8.23914 1.03281 8.29911 1.0528 8.31244C1.07278 8.32576 1.13942 8.32576 1.23937 8.28578L4.51103 6.87317C4.63097 6.81987 4.75757 6.79321 4.87751 6.79321Z" fill="#F69F17"/>
</svg>
