<svg width="7" height="7" viewBox="0 0 7 7" fill="none" xmlns="http://www.w3.org/2000/svg">
<path d="M3.91011 0.138272L6.8764 3.18025C6.92134 3.22635 6.95325 3.27628 6.97213 3.33005C6.991 3.38382 7.00029 3.44144 6.99999 3.50289C6.99999 3.56434 6.99055 3.62196 6.97168 3.67573C6.9528 3.7295 6.92104 3.77943 6.8764 3.82552L3.91011 6.86751C3.82771 6.95201 3.72464 6.9961 3.6009 6.99979C3.47715 7.00347 3.37048 6.95938 3.2809 6.86751C3.19101 6.78301 3.14412 6.67731 3.14022 6.5504C3.13633 6.4235 3.17947 6.31411 3.26966 6.22224L5.4719 3.9638H0.44944C0.322099 3.9638 0.215283 3.91955 0.128991 3.83105C0.0426989 3.74256 -0.000297546 3.63317 1.90735e-06 3.50289C1.90735e-06 3.3723 0.0429983 3.26276 0.128991 3.17426C0.214983 3.08577 0.321799 3.04168 0.44944 3.04198H5.4719L3.26966 0.783541C3.18726 0.699042 3.14412 0.591496 3.14022 0.460907C3.13633 0.330317 3.17947 0.222772 3.26966 0.138272C3.35206 0.0460911 3.45693 0 3.58427 0C3.71161 0 3.82022 0.0460911 3.91011 0.138272Z" fill="#F69F17"/>
</svg>
