<svg width="17" height="16" viewBox="0 0 17 16" fill="none" xmlns="http://www.w3.org/2000/svg">
<path d="M8.99497 1.04219L15.3235 3.57357C15.5696 3.67202 15.7665 3.96735 15.7665 4.22752V6.56206C15.7665 6.9488 15.45 7.26523 15.0633 7.26523H2.40629C2.01955 7.26523 1.70312 6.9488 1.70312 6.56206V4.22752C1.70312 3.96735 1.90001 3.67202 2.14612 3.57357L8.47463 1.04219C8.61526 0.985937 8.85434 0.985937 8.99497 1.04219Z" stroke="#F69F17" stroke-miterlimit="10" stroke-linecap="round" stroke-linejoin="round"/>
<path d="M15.7665 15.0002H1.70312V12.8907C1.70312 12.5039 2.01955 12.1875 2.40629 12.1875H15.0633C15.45 12.1875 15.7665 12.5039 15.7665 12.8907V15.0002Z" stroke="#F69F17" stroke-miterlimit="10" stroke-linecap="round" stroke-linejoin="round"/>
<path d="M3.10938 12.1873V7.26514" stroke="#F69F17" stroke-miterlimit="10" stroke-linecap="round" stroke-linejoin="round"/>
<path d="M5.92188 12.1873V7.26514" stroke="#F69F17" stroke-miterlimit="10" stroke-linecap="round" stroke-linejoin="round"/>
<path d="M8.73486 12.1873V7.26514" stroke="#F69F17" stroke-miterlimit="10" stroke-linecap="round" stroke-linejoin="round"/>
<path d="M11.5479 12.1873V7.26514" stroke="#F69F17" stroke-miterlimit="10" stroke-linecap="round" stroke-linejoin="round"/>
<path d="M14.3604 12.1873V7.26514" stroke="#F69F17" stroke-miterlimit="10" stroke-linecap="round" stroke-linejoin="round"/>
<path d="M1 15H16.4697" stroke="#F69F17" stroke-miterlimit="10" stroke-linecap="round" stroke-linejoin="round"/>
<path d="M8.73493 5.50696C9.31743 5.50696 9.78968 5.03474 9.78968 4.45221C9.78968 3.86969 9.31743 3.39746 8.73493 3.39746C8.15242 3.39746 7.68018 3.86969 7.68018 4.45221C7.68018 5.03474 8.15242 5.50696 8.73493 5.50696Z" stroke="#F69F17" stroke-miterlimit="10" stroke-linecap="round" stroke-linejoin="round"/>
</svg>
