<svg width="16" height="17" viewBox="0 0 16 17" fill="none" xmlns="http://www.w3.org/2000/svg">
<path d="M15.2105 8.89474V11.2632C15.2105 12.1007 14.8778 12.9039 14.2856 13.4961C13.6934 14.0883 12.8902 14.4211 12.0526 14.4211H4.15789C3.32037 14.4211 2.51715 14.0883 1.92493 13.4961C1.33271 12.9039 1 12.1007 1 11.2632V9.36842C1 9.24279 1.04991 9.12231 1.13874 9.03348C1.22757 8.94464 1.34806 8.89474 1.47368 8.89474H15.2105ZM15.2105 8.89474V4.15789C15.2105 3.32037 14.8778 2.51715 14.2856 1.92493C13.6934 1.33271 12.8902 1 12.0526 1H8.10526M11.2632 14.4211L12.0526 16M4.94737 14.4211L4.15789 16" stroke="black" stroke-width="1.2" stroke-linecap="round" stroke-linejoin="round"/>
<path d="M10.7897 4.94737H5.42126C5.15994 4.94737 4.95073 4.73579 4.97915 4.47526C5.09442 3.42763 5.62889 1 8.10547 1C10.582 1 11.1165 3.42763 11.2318 4.47526C11.2602 4.73579 11.051 4.94737 10.7897 4.94737Z" stroke="black" stroke-width="1.2" stroke-linecap="round" stroke-linejoin="round"/>
</svg>
