<svg width="17" height="13" viewBox="0 0 17 13" fill="none" xmlns="http://www.w3.org/2000/svg">
<path d="M1.75 10.5V12M15.25 10.5V12M2.5 1.875C2.5 1.57663 2.61853 1.29048 2.8295 1.0795C3.04048 0.868526 3.32663 0.75 3.625 0.75H13.375C13.6734 0.75 13.9595 0.868526 14.1705 1.0795C14.3815 1.29048 14.5 1.57663 14.5 1.875V6H2.5V1.875Z" stroke="black" stroke-linecap="round" stroke-linejoin="round"/>
<path d="M10.375 4.125H6.625C6.32663 4.125 6.04048 4.24353 5.8295 4.4545C5.61853 4.66548 5.5 4.95163 5.5 5.25V6H11.5V5.25C11.5 4.95163 11.3815 4.66548 11.1705 4.4545C10.9595 4.24353 10.6734 4.125 10.375 4.125ZM1 7.125C1 6.82663 1.11853 6.54048 1.3295 6.3295C1.54048 6.11853 1.82663 6 2.125 6H14.875C15.1734 6 15.4595 6.11853 15.6705 6.3295C15.8815 6.54048 16 6.82663 16 7.125V10.5H1V7.125Z" stroke="black" stroke-linecap="round" stroke-linejoin="round"/>
</svg>
