<svg width="330" height="264" viewBox="0 0 330 264" fill="none" xmlns="http://www.w3.org/2000/svg">
<path d="M306.082 113.783H281.734V143.305H275.467V126.59H244.501V153.054H240.403V90.9463H213.492V107.999H199.698V129.205H195.523V115.864H171.055V155.676H163.902V123.308H141.525V98.7344H126.309V84.7397H108.714V146.82H102.799V120.911H73.8043V157.996H69.798V127.729H40.3945V100.457H23.9185V227.47H306.082V113.783Z" fill="#EBEBEB"/>
<path d="M298.977 123.139H303.096V117.495H298.977V123.139Z" fill="white"/>
<path d="M291.838 123.139H295.957V117.495H291.838V123.139Z" fill="white"/>
<path d="M284.691 123.139H288.81V117.495H284.691V123.139Z" fill="white"/>
<path d="M298.977 131.63H303.096V125.986H298.977V131.63Z" fill="white"/>
<path d="M291.838 131.63H295.957V125.986H291.838V131.63Z" fill="white"/>
<path d="M284.691 131.63H288.81V125.986H284.691V131.63Z" fill="white"/>
<path d="M298.977 140.121H303.096V134.477H298.977V140.121Z" fill="white"/>
<path d="M291.838 140.121H295.957V134.477H291.838V140.121Z" fill="white"/>
<path d="M284.691 140.121H288.81V134.477H284.691V140.121Z" fill="white"/>
<path d="M298.977 148.619H303.096V142.975H298.977V148.619Z" fill="white"/>
<path d="M291.838 148.619H295.957V142.975H291.838V148.619Z" fill="white"/>
<path d="M284.691 148.619H288.81V142.975H284.691V148.619Z" fill="white"/>
<path d="M156.346 132.059H160.466V127.35H156.346V132.059Z" fill="white"/>
<path d="M149.207 132.059H153.326V127.35H149.207V132.059Z" fill="white"/>
<path d="M142.06 132.059H146.179V127.35H142.06V132.059Z" fill="white"/>
<path d="M156.346 139.137H160.466V134.428H156.346V139.137Z" fill="white"/>
<path d="M149.207 139.137H153.326V134.428H149.207V139.137Z" fill="white"/>
<path d="M142.06 139.137H146.179V134.428H142.06V139.137Z" fill="white"/>
<path d="M156.346 146.222H160.466V141.513H156.346V146.222Z" fill="white"/>
<path d="M149.207 146.222H153.326V141.513H149.207V146.222Z" fill="white"/>
<path d="M142.06 146.222H146.179V141.513H142.06V146.222Z" fill="white"/>
<path d="M156.346 153.308H160.466V148.598H156.346V153.308Z" fill="white"/>
<path d="M149.207 153.308H153.326V148.598H149.207V153.308Z" fill="white"/>
<path d="M142.06 153.308H146.179V148.598H142.06V153.308Z" fill="white"/>
<path d="M156.346 160.569H160.466V155.859H156.346V160.569Z" fill="white"/>
<path d="M149.207 160.569H153.326V155.859H149.207V160.569Z" fill="white"/>
<path d="M142.06 160.569H146.179V155.859H142.06V160.569Z" fill="white"/>
<path d="M156.346 167.83H160.466V163.12H156.346V167.83Z" fill="white"/>
<path d="M149.207 167.83H153.326V163.12H149.207V167.83Z" fill="white"/>
<path d="M142.06 167.83H146.179V163.12H142.06V167.83Z" fill="white"/>
<path d="M156.346 175.083H160.466V170.374H156.346V175.083Z" fill="white"/>
<path d="M149.207 175.083H153.326V170.374H149.207V175.083Z" fill="white"/>
<path d="M142.06 175.083H146.179V170.374H142.06V175.083Z" fill="white"/>
<path d="M156.346 182.344H160.466V177.635H156.346V182.344Z" fill="white"/>
<path d="M149.207 182.344H153.326V177.635H149.207V182.344Z" fill="white"/>
<path d="M142.06 182.344H146.179V177.635H142.06V182.344Z" fill="white"/>
<path d="M248.232 133.739H271.947V130.21H248.232V133.739Z" fill="white"/>
<path d="M248.232 140.592H271.947V137.064H248.232V140.592Z" fill="white"/>
<path d="M248.232 147.438H271.947V143.91H248.232V147.438Z" fill="white"/>
<path d="M248.232 154.285H271.947V150.756H248.232V154.285Z" fill="white"/>
<path d="M248.232 161.138H271.947V157.609H248.232V161.138Z" fill="white"/>
<path d="M248.232 167.984H271.947V164.455H248.232V167.984Z" fill="white"/>
<path d="M248.232 174.837H271.947V171.308H248.232V174.837Z" fill="white"/>
<path d="M248.232 181.677H271.947V178.148H248.232V181.677Z" fill="white"/>
<path d="M77.4798 127.729H99.2859V124.201H77.4798V127.729Z" fill="white"/>
<path d="M77.4798 134.583H99.2859V131.054H77.4798V134.583Z" fill="white"/>
<path d="M77.4798 141.436H99.2859V137.907H77.4798V141.436Z" fill="white"/>
<path d="M77.4798 148.282H99.2859V144.753H77.4798V148.282Z" fill="white"/>
<path d="M77.4798 155.128H99.2859V151.599H77.4798V155.128Z" fill="white"/>
<path d="M77.4798 161.981H99.2859V158.453H77.4798V161.981Z" fill="white"/>
<path d="M77.4798 168.828H99.2859V165.299H77.4798V168.828Z" fill="white"/>
<path d="M77.4798 175.681H99.2859V172.152H77.4798V175.681Z" fill="white"/>
<path d="M77.4798 182.183H99.2859V178.654H77.4798V182.183Z" fill="white"/>
<path d="M77.4798 188.691H99.2859V185.163H77.4798V188.691Z" fill="white"/>
<path d="M77.4798 195.2H99.2859V191.672H77.4798V195.2Z" fill="white"/>
<path d="M77.4798 201.702H99.2859V198.174H77.4798V201.702Z" fill="white"/>
<path d="M77.4798 208.211H99.2859V204.682H77.4798V208.211Z" fill="white"/>
<path d="M42.2323 136.002H65.2635V132.473H42.2323V136.002Z" fill="white"/>
<path d="M42.2323 142.855H65.2635V139.327H42.2323V142.855Z" fill="white"/>
<path d="M42.2323 149.708H65.2635V146.18H42.2323V149.708Z" fill="white"/>
<path d="M42.2323 156.555H65.2635V153.027H42.2323V156.555Z" fill="white"/>
<path d="M42.2323 163.401H65.2635V159.872H42.2323V163.401Z" fill="white"/>
<path d="M42.2323 170.254H65.2635V166.726H42.2323V170.254Z" fill="white"/>
<path d="M42.2323 177.101H65.2635V173.572H42.2323V177.101Z" fill="white"/>
<path d="M42.2323 183.954H65.2635V180.426H42.2323V183.954Z" fill="white"/>
<path d="M42.2323 190.083H65.2635V186.554H42.2323V190.083Z" fill="white"/>
<path d="M42.2323 196.212H65.2635V192.684H42.2323V196.212Z" fill="white"/>
<path d="M42.2323 202.342H65.2635V198.813H42.2323V202.342Z" fill="white"/>
<path d="M181.04 122.471H188.362V119.062H181.04V122.471Z" fill="white"/>
<path d="M181.04 129.086H188.362V125.677H181.04V129.086Z" fill="white"/>
<path d="M181.04 135.7H188.362V132.291H181.04V135.7Z" fill="white"/>
<path d="M181.04 142.314H188.362V138.905H181.04V142.314Z" fill="white"/>
<path d="M181.04 148.929H188.362V145.52H181.04V148.929Z" fill="white"/>
<path d="M181.04 155.542H188.362V152.133H181.04V155.542Z" fill="white"/>
<path d="M181.04 162.157H188.362V158.748H181.04V162.157Z" fill="white"/>
<path d="M181.04 168.771H188.362V165.362H181.04V168.771Z" fill="white"/>
<path d="M171.076 122.471H178.399V119.062H171.076V122.471Z" fill="white"/>
<path d="M171.076 129.086H178.399V125.677H171.076V129.086Z" fill="white"/>
<path d="M171.076 135.7H178.399V132.291H171.076V135.7Z" fill="white"/>
<path d="M171.076 142.314H178.399V138.905H171.076V142.314Z" fill="white"/>
<path d="M171.076 148.929H178.399V145.52H171.076V148.929Z" fill="white"/>
<path d="M171.076 155.542H178.399V152.133H171.076V155.542Z" fill="white"/>
<path d="M171.076 162.157H178.399V158.748H171.076V162.157Z" fill="white"/>
<path d="M171.076 168.771H178.399V165.362H171.076V168.771Z" fill="white"/>
<path d="M228.686 99.9014H236.319V94.5242H228.686V99.9014Z" fill="white"/>
<path d="M217.315 99.9014H224.948V94.5242H217.315V99.9014Z" fill="white"/>
<path d="M228.686 107.795H236.319V102.418H228.686V107.795Z" fill="white"/>
<path d="M217.315 107.795H224.948V102.418H217.315V107.795Z" fill="white"/>
<path d="M228.686 115.695H236.319V110.318H228.686V115.695Z" fill="white"/>
<path d="M217.315 115.695H224.948V110.318H217.315V115.695Z" fill="white"/>
<path d="M228.686 123.589H236.319V118.212H228.686V123.589Z" fill="white"/>
<path d="M217.315 123.589H224.948V118.212H217.315V123.589Z" fill="white"/>
<path d="M228.686 131.49H236.319V126.113H228.686V131.49Z" fill="white"/>
<path d="M217.315 131.49H224.948V126.113H217.315V131.49Z" fill="white"/>
<path d="M228.686 139.39H236.319V134.013H228.686V139.39Z" fill="white"/>
<path d="M217.315 139.39H224.948V134.013H217.315V139.39Z" fill="white"/>
<path d="M228.686 147.284H236.319V141.907H228.686V147.284Z" fill="white"/>
<path d="M217.315 147.284H224.948V141.907H217.315V147.284Z" fill="white"/>
<path d="M228.686 155.185H236.319V149.807H228.686V155.185Z" fill="white"/>
<path d="M217.315 155.185H224.948V149.807H217.315V155.185Z" fill="white"/>
<path d="M203.212 115.695H210.844V110.318H203.212V115.695Z" fill="white"/>
<path d="M203.212 123.589H210.844V118.212H203.212V123.589Z" fill="white"/>
<path d="M203.212 131.49H210.844V126.113H203.212V131.49Z" fill="white"/>
<path d="M203.212 139.39H210.844V134.013H203.212V139.39Z" fill="white"/>
<path d="M203.212 147.284H210.844V141.907H203.212V147.284Z" fill="white"/>
<path d="M203.212 155.185H210.844V149.807H203.212V155.185Z" fill="white"/>
<path d="M228.686 162.986H236.319V157.609H228.686V162.986Z" fill="white"/>
<path d="M217.315 162.986H224.948V157.609H217.315V162.986Z" fill="white"/>
<path d="M203.212 162.986H210.844V157.609H203.212V162.986Z" fill="white"/>
<path d="M228.686 170.782H236.319V165.405H228.686V170.782Z" fill="white"/>
<path d="M217.315 170.782H224.948V165.405H217.315V170.782Z" fill="white"/>
<path d="M203.212 170.782H210.844V165.405H203.212V170.782Z" fill="white"/>
<path d="M228.686 178.583H236.319V173.206H228.686V178.583Z" fill="white"/>
<path d="M217.315 178.583H224.948V173.206H217.315V178.583Z" fill="white"/>
<path d="M203.212 178.583H210.844V173.206H203.212V178.583Z" fill="white"/>
<path d="M228.686 186.386H236.319V181.009H228.686V186.386Z" fill="white"/>
<path d="M217.315 186.386H224.948V181.009H217.315V186.386Z" fill="white"/>
<path d="M203.212 186.386H210.844V181.009H203.212V186.386Z" fill="white"/>
<path d="M228.686 194.188H236.319V188.811H228.686V194.188Z" fill="white"/>
<path d="M217.315 194.188H224.948V188.811H217.315V194.188Z" fill="white"/>
<path d="M203.212 194.188H210.844V188.811H203.212V194.188Z" fill="white"/>
<path d="M134.301 106.902H138.42V102.193H134.301V106.902Z" fill="white"/>
<path d="M127.161 106.902H131.28V102.193H127.161V106.902Z" fill="white"/>
<path d="M134.301 113.987H138.42V109.278H134.301V113.987Z" fill="white"/>
<path d="M127.161 113.987H131.28V109.278H127.161V113.987Z" fill="white"/>
<path d="M134.301 121.073H138.42V116.363H134.301V121.073Z" fill="white"/>
<path d="M127.161 121.073H131.28V116.363H127.161V121.073Z" fill="white"/>
<path d="M134.301 128.165H138.42V123.456H134.301V128.165Z" fill="white"/>
<path d="M127.161 128.165H131.28V123.456H127.161V128.165Z" fill="white"/>
<path d="M134.301 135.426H138.42V130.716H134.301V135.426Z" fill="white"/>
<path d="M127.161 135.426H131.28V130.716H127.161V135.426Z" fill="white"/>
<path d="M134.301 142.68H138.42V137.97H134.301V142.68Z" fill="white"/>
<path d="M127.161 142.68H131.28V137.97H127.161V142.68Z" fill="white"/>
<path d="M134.301 149.94H138.42V145.231H134.301V149.94Z" fill="white"/>
<path d="M127.161 149.94H131.28V145.231H127.161V149.94Z" fill="white"/>
<path d="M134.301 157.202H138.42V152.492H134.301V157.202Z" fill="white"/>
<path d="M127.161 157.202H131.28V152.492H127.161V157.202Z" fill="white"/>
<path d="M134.301 164.54H138.42V159.831H134.301V164.54Z" fill="white"/>
<path d="M127.161 164.54H131.28V159.831H127.161V164.54Z" fill="white"/>
<path d="M134.301 171.871H138.42V167.162H134.301V171.871Z" fill="white"/>
<path d="M127.161 171.871H131.28V167.162H127.161V171.871Z" fill="white"/>
<path d="M134.301 179.209H138.42V174.5H134.301V179.209Z" fill="white"/>
<path d="M127.161 179.209H131.28V174.5H127.161V179.209Z" fill="white"/>
<path d="M134.301 186.555H138.42V181.845H134.301V186.555Z" fill="white"/>
<path d="M127.161 186.555H131.28V181.845H127.161V186.555Z" fill="white"/>
<path d="M33.6914 108.505H37.8104V102.959H33.6914V108.505Z" fill="white"/>
<path d="M26.5588 108.505H30.6779V102.959H26.5588V108.505Z" fill="white"/>
<path d="M33.6914 116.855H37.8104V111.31H33.6914V116.855Z" fill="white"/>
<path d="M26.5588 116.855H30.6779V111.31H26.5588V116.855Z" fill="white"/>
<path d="M33.6914 125.199H37.8104V119.653H33.6914V125.199Z" fill="white"/>
<path d="M26.5588 125.199H30.6779V119.653H26.5588V125.199Z" fill="white"/>
<path d="M33.6914 133.549H37.8104V128.003H33.6914V133.549Z" fill="white"/>
<path d="M26.5588 133.549H30.6779V128.003H26.5588V133.549Z" fill="white"/>
<path d="M33.6914 142.104H37.8104V136.558H33.6914V142.104Z" fill="white"/>
<path d="M26.5588 142.104H30.6779V136.558H26.5588V142.104Z" fill="white"/>
<path d="M33.6914 150.658H37.8104V145.112H33.6914V150.658Z" fill="white"/>
<path d="M26.5588 150.658H30.6779V145.112H26.5588V150.658Z" fill="white"/>
<path d="M33.6914 159.205H37.8104V153.659H33.6914V159.205Z" fill="white"/>
<path d="M26.5588 159.205H30.6779V153.659H26.5588V159.205Z" fill="white"/>
<path d="M33.6914 167.766H37.8104V162.22H33.6914V167.766Z" fill="white"/>
<path d="M26.5588 167.766H30.6779V162.22H26.5588V167.766Z" fill="white"/>
<path d="M33.6914 176.412H37.8104V170.866H33.6914V176.412Z" fill="white"/>
<path d="M26.5588 176.412H30.6779V170.866H26.5588V176.412Z" fill="white"/>
<path d="M33.6914 185.05H37.8104V179.504H33.6914V185.05Z" fill="white"/>
<path d="M26.5588 185.05H30.6779V179.504H26.5588V185.05Z" fill="white"/>
<path d="M33.6914 193.696H37.8104V188.15H33.6914V193.696Z" fill="white"/>
<path d="M26.5588 193.696H30.6779V188.15H26.5588V193.696Z" fill="white"/>
<path d="M33.6914 202.342H37.8104V196.796H33.6914V202.342Z" fill="white"/>
<path d="M26.5588 202.342H30.6779V196.796H26.5588V202.342Z" fill="white"/>
<path d="M119.022 106.902H123.141V102.193H119.022V106.902Z" fill="white"/>
<path d="M111.882 106.902H116.001V102.193H111.882V106.902Z" fill="white"/>
<path d="M119.022 99.6411H123.141V94.9317H119.022V99.6411Z" fill="white"/>
<path d="M111.882 99.6411H116.001V94.9317H111.882V99.6411Z" fill="white"/>
<path d="M119.022 92.3804H123.141V87.671H119.022V92.3804Z" fill="white"/>
<path d="M111.882 92.3804H116.001V87.671H111.882V92.3804Z" fill="white"/>
<path d="M119.022 113.987H123.141V109.278H119.022V113.987Z" fill="white"/>
<path d="M111.882 113.987H116.001V109.278H111.882V113.987Z" fill="white"/>
<path d="M119.022 121.073H123.141V116.363H119.022V121.073Z" fill="white"/>
<path d="M111.882 121.073H116.001V116.363H111.882V121.073Z" fill="white"/>
<path d="M119.022 128.165H123.141V123.456H119.022V128.165Z" fill="white"/>
<path d="M111.882 128.165H116.001V123.456H111.882V128.165Z" fill="white"/>
<path d="M119.022 135.426H123.141V130.716H119.022V135.426Z" fill="white"/>
<path d="M111.882 135.426H116.001V130.716H111.882V135.426Z" fill="white"/>
<path d="M119.022 142.68H123.141V137.97H119.022V142.68Z" fill="white"/>
<path d="M111.882 142.68H116.001V137.97H111.882V142.68Z" fill="white"/>
<path d="M119.022 149.94H123.141V145.231H119.022V149.94Z" fill="white"/>
<path d="M111.882 149.94H116.001V145.231H111.882V149.94Z" fill="white"/>
<path d="M119.022 157.202H123.141V152.492H119.022V157.202Z" fill="white"/>
<path d="M111.882 157.202H116.001V152.492H111.882V157.202Z" fill="white"/>
<path d="M119.022 164.54H123.141V159.831H119.022V164.54Z" fill="white"/>
<path d="M111.882 164.54H116.001V159.831H111.882V164.54Z" fill="white"/>
<path d="M119.022 171.871H123.141V167.162H119.022V171.871Z" fill="white"/>
<path d="M111.882 171.871H116.001V167.162H111.882V171.871Z" fill="white"/>
<path d="M119.022 179.209H123.141V174.5H119.022V179.209Z" fill="white"/>
<path d="M111.882 179.209H116.001V174.5H111.882V179.209Z" fill="white"/>
<path d="M119.022 186.555H123.141V181.845H119.022V186.555Z" fill="white"/>
<path d="M111.882 186.555H116.001V181.845H111.882V186.555Z" fill="white"/>
<path d="M303.082 74.6186H227.271C227.271 74.6186 234.791 54.1221 246.359 54.1221C257.928 54.1221 261.547 68.2714 261.547 68.2714C261.547 68.2714 269.356 60.5817 275.77 60.5817C282.184 60.5817 287.74 70.7386 287.74 70.7386C287.74 70.7386 296.816 65.2771 303.082 74.6186Z" fill="#EBEBEB"/>
<path d="M260.653 34.082H225.222C225.222 34.082 233.136 22.6318 239.375 22.6318C245.613 22.6318 247.458 30.2653 247.458 30.2653C247.458 30.2653 251.859 26.7016 255.907 27.3412C259.956 27.9809 260.653 34.082 260.653 34.082Z" fill="#EBEBEB"/>
<path d="M95.9274 68.5166H26.925C26.925 68.5166 36.3741 47.4297 46.4851 46.1364C56.596 44.843 61.4262 61.7829 61.4262 61.7829C61.4262 61.7829 67.9462 55.7872 73.0721 55.7872C78.198 55.7872 82.1621 63.6877 82.1621 63.6877C82.1621 63.6877 92.4068 58.2754 95.9274 68.5166Z" fill="#EBEBEB"/>
<path d="M161.515 16.3829H114.896C114.896 16.3829 122.902 1.12297 131.59 0.919125C140.279 0.715285 144.842 12.4677 144.842 12.4677C144.842 12.4677 158.353 1.62202 161.515 16.3829Z" fill="#EBEBEB"/>
<path d="M193.347 264C256.748 264 308.145 260.604 308.145 256.415C308.145 252.227 256.748 248.831 193.347 248.831C129.947 248.831 78.55 252.227 78.55 256.415C78.55 260.604 129.947 264 193.347 264Z" fill="#EBEBEB"/>
<path d="M330 227.47L288.746 227.639L247.5 227.702L165 227.815L82.5 227.702L41.2535 227.639L0 227.47L41.2535 227.294L82.5 227.231L165 227.119L247.5 227.231L288.746 227.294L330 227.47Z" fill="#263238"/>
<path d="M159.853 118.753C171.767 131.124 207.556 186.182 210.344 187.827C210.344 187.827 210.344 223.837 190.411 216.646C170.478 209.455 152.206 144.852 148.306 124.257C146.25 113.383 150.122 108.66 159.853 118.753Z" fill="#D3766A"/>
<path d="M156.818 161.321L193.347 157.174C193.347 157.174 170.689 127.167 158.98 116.455C146.771 105.293 140.786 106.86 146.447 128.003C152.136 149.273 156.818 161.321 156.818 161.321Z" fill="#72CBD0"/>
<path d="M155.1 141.457C154.699 142.463 154.443 143.521 154.34 144.599C155.614 142.841 156.408 140.782 156.642 138.624C155.991 139.487 155.471 140.442 155.1 141.457ZM175.618 142.279C174.613 141.878 173.555 141.622 172.478 141.52C174.235 142.794 176.296 143.586 178.456 143.819C177.592 143.167 176.636 142.648 175.618 142.279ZM170.175 156.464C169.745 155.472 169.176 154.547 168.485 153.715C168.647 154.783 168.96 155.822 169.415 156.801C169.831 157.799 170.396 158.728 171.091 159.557C170.933 158.488 170.625 157.447 170.175 156.464ZM148.742 110.775C148.559 110.389 148.376 110.009 148.165 109.63C147.914 109.605 147.662 109.605 147.412 109.63C147.581 110.143 147.771 110.635 147.982 111.127C148.405 112.123 148.972 113.051 149.665 113.882C149.506 112.808 149.196 111.762 148.742 110.775ZM190.841 153.891L190.137 154.172C189.14 154.6 188.209 155.166 187.37 155.852C188.443 155.693 189.488 155.383 190.475 154.931C190.756 154.805 191.031 154.671 191.305 154.524L190.841 153.891ZM162.677 124.925C161.682 125.35 160.753 125.914 159.916 126.598C160.99 126.444 162.036 126.136 163.022 125.684C164.017 125.257 164.946 124.692 165.782 124.004C164.703 124.159 163.652 124.469 162.662 124.925H162.677ZM160.226 124.988C160.185 125.016 160.145 125.047 160.107 125.079H160.233C160.233 125.079 160.212 125.009 160.212 124.988H160.226Z" fill="white"/>
<path d="M158.572 154.763C159.424 154.566 160.318 154.489 161.184 154.369L163.874 153.997C165.683 153.744 167.5 153.519 169.316 153.294C172.949 152.872 176.583 152.429 180.223 152.071C181.223 151.972 182.23 151.874 183.229 151.797C184.229 151.719 185.342 151.719 186.398 151.642C186.461 151.642 186.461 151.733 186.398 151.741C185.504 151.874 184.617 152.078 183.722 152.218C182.828 152.359 181.878 152.486 180.955 152.598C179.146 152.83 177.322 153.041 175.505 153.245C171.929 153.631 168.345 154.039 164.754 154.355L161.754 154.608C160.705 154.7 159.642 154.854 158.586 154.847C158.578 154.844 158.57 154.839 158.565 154.833C158.559 154.826 158.556 154.818 158.554 154.809C158.553 154.801 158.554 154.792 158.557 154.784C158.56 154.776 158.565 154.768 158.572 154.763Z" fill="#263238"/>
<path opacity="0.1" d="M174.541 159.31L156.825 161.321C156.825 161.321 152.143 149.273 146.447 128.003C144.046 119.034 143.743 113.587 145.123 111.134L174.541 159.31Z" fill="black"/>
<path d="M166.95 236.32H111.39C110.932 234.534 110.488 232.805 110.045 231.048C109.538 229.059 109.038 227.119 108.559 225.228C108.453 224.806 108.341 224.385 108.235 223.97C107.869 222.522 107.51 221.116 107.158 219.752C106.947 218.916 106.735 218.094 106.531 217.278C106.327 216.463 106.109 215.634 105.905 214.839C105.848 214.628 105.799 214.418 105.743 214.214L105.574 213.511L105.362 212.688C105.285 212.4 105.215 212.119 105.144 211.838C105.003 211.304 104.869 210.776 104.743 210.263C104.546 209.504 104.355 208.759 104.172 208.035C104.095 207.719 104.01 207.403 103.933 207.093C103.799 206.587 103.673 206.095 103.553 205.61C103.468 205.287 103.391 204.971 103.313 204.661C102.985 203.387 102.68 202.192 102.398 201.077C102.321 200.781 102.25 200.493 102.173 200.212C102.053 199.727 101.933 199.263 101.821 198.806C101.741 198.525 101.671 198.251 101.609 197.984C101.363 197.028 101.138 196.156 100.948 195.39C100.891 195.186 100.842 194.989 100.793 194.8C100.666 194.294 100.546 193.844 100.448 193.443C100.405 193.281 100.37 193.127 100.328 192.986L100.215 192.543C100.215 192.445 100.166 192.347 100.145 192.262L100.046 191.883C100.046 191.822 100.032 191.765 100.004 191.714L99.8774 191.215H153.96C153.96 191.215 155.741 197.344 158.593 207.227C159.17 209.237 159.797 211.444 160.466 213.715C162.36 220.308 164.571 227.997 166.95 236.32Z" fill="#37474F"/>
<path d="M120.487 236.32H119.078C117.022 227.824 115.03 219.312 113.101 210.784C112.631 208.708 112.162 206.632 111.692 204.556L111.566 203.973C111.563 203.952 111.568 203.932 111.58 203.915C111.591 203.898 111.608 203.886 111.628 203.881C111.648 203.876 111.669 203.878 111.687 203.887C111.705 203.896 111.72 203.912 111.728 203.93C111.728 203.994 111.763 204.057 111.784 204.12C112.408 206.351 113.03 208.584 113.65 210.819C116.03 219.296 118.309 227.796 120.487 236.32Z" fill="#263238"/>
<path d="M152.206 191.222L149.82 203.171L147.862 212.955L144.532 229.628L144.187 231.336L143.616 234.183L143.173 236.32H111.382C110.932 234.527 110.481 232.805 110.045 231.048C109.538 229.059 109.038 227.119 108.559 225.228C108.453 224.806 108.341 224.385 108.235 223.97C107.869 222.522 107.51 221.116 107.158 219.752C106.947 218.916 106.735 218.094 106.531 217.278C106.327 216.463 106.109 215.634 105.905 214.839C105.848 214.628 105.799 214.418 105.743 214.214L105.574 213.511L105.362 212.688C105.285 212.4 105.215 212.119 105.144 211.838C105.003 211.304 104.869 210.776 104.743 210.263C104.546 209.504 104.355 208.759 104.172 208.035C104.088 207.712 104.01 207.403 103.933 207.093C103.799 206.587 103.673 206.095 103.553 205.61C103.468 205.287 103.391 204.971 103.313 204.661C102.985 203.387 102.68 202.192 102.398 201.077C102.321 200.781 102.25 200.493 102.173 200.212C102.053 199.727 101.933 199.263 101.821 198.806C101.741 198.525 101.671 198.251 101.609 197.984C101.363 197.028 101.138 196.156 100.948 195.39C100.891 195.186 100.842 194.989 100.793 194.8C100.666 194.294 100.546 193.844 100.448 193.443C100.405 193.281 100.37 193.127 100.328 192.986L100.215 192.543C100.215 192.445 100.166 192.347 100.145 192.262L100.046 191.883C100.046 191.822 100.032 191.765 100.004 191.714L99.8774 191.215L152.206 191.222Z" fill="#263238"/>
<path d="M152.214 191.201C152.214 191.496 151.988 194.716 151.467 199.636C151.319 201.042 151.143 202.644 150.939 204.331C150.622 206.995 150.235 209.955 149.742 213.04C148.911 218.46 147.827 224.371 146.419 230.149C145.919 232.258 145.37 234.289 144.785 236.306H74.9732C75.797 225.685 76.5504 216.077 77.1489 208.507C77.9868 197.851 78.5571 191.18 78.5571 191.18H141.884L152.214 191.201Z" fill="#37474F"/>
<path d="M152.066 197.604C151.988 200.1 151.883 202.588 151.721 205.069C151.552 207.761 151.305 210.446 150.953 213.131C150.953 213.23 150.953 213.328 150.918 213.427C150.589 215.943 150.211 218.452 149.784 220.955C149.383 223.288 149.08 225.805 148.052 227.984C147.662 228.819 147.106 229.568 146.419 230.184C145.79 230.758 145.02 231.156 144.187 231.337C144.05 231.371 143.911 231.394 143.771 231.407H143.652C143.677 231.421 143.698 231.443 143.712 231.469C143.726 231.495 143.732 231.525 143.729 231.554C143.729 232.391 143.729 233.241 143.63 234.071C143.63 234.106 143.63 234.141 143.63 234.176C143.546 234.879 143.412 235.617 143.278 236.334H142.081V236.292C142.293 235.505 142.469 234.71 142.666 233.916C142.863 233.122 143.145 232.314 143.335 231.491C143.345 231.46 143.365 231.433 143.391 231.414C142.631 231.45 141.879 231.254 141.234 230.85C140.59 230.447 140.084 229.856 139.786 229.158C139.486 228.089 139.466 226.961 139.73 225.882C139.948 224.476 140.159 223.028 140.377 221.601C140.786 218.98 141.314 216.386 141.786 213.778L141.997 212.59C142.933 207.283 143.912 201.977 145.088 196.719C145.13 196.501 145.179 196.283 145.229 196.065C145.278 195.847 145.496 195.96 145.482 196.1C145.447 196.452 145.412 196.803 145.37 197.162C145.163 199.181 144.928 201.192 144.665 203.193C144.328 205.547 144.095 207.916 143.764 210.271C143.652 211.072 143.539 211.873 143.419 212.675C142.877 216.548 142.314 220.406 141.652 224.279C141.342 226.072 140.244 229.284 142.807 229.839C143.399 229.97 144.018 229.893 144.56 229.621C145.701 228.935 146.554 227.859 146.961 226.592C147.595 224.482 148.054 222.324 148.334 220.139C148.756 217.796 149.132 215.432 149.46 213.047C149.883 210.09 150.324 207.136 150.784 204.184C151.014 202.679 151.249 201.175 151.488 199.671L151.826 197.562C151.833 197.415 152.066 197.457 152.066 197.604Z" fill="#263238"/>
<path d="M90.2875 216.132C93.1949 216.102 96.0873 215.713 98.8987 214.973C100.194 214.642 101.476 214.228 102.75 213.813C104.013 213.465 105.195 212.873 106.228 212.07C108.186 210.383 109.094 207.733 109.946 205.371C110.871 202.712 111.621 199.995 112.192 197.239C112.192 197.105 112.418 197.154 112.425 197.281C112.492 200.398 112.096 203.508 111.249 206.51C110.545 209.061 109.601 211.901 107.538 213.686C105.475 215.472 102.426 216.231 99.6451 216.568C96.5265 216.93 93.3741 216.888 90.2664 216.442C90.2253 216.439 90.187 216.42 90.16 216.389C90.1329 216.358 90.1193 216.318 90.1221 216.277C90.1249 216.236 90.1439 216.197 90.1749 216.17C90.2059 216.143 90.2464 216.13 90.2875 216.132Z" fill="#263238"/>
<path d="M85.4362 197.323C85.2813 201.222 85.117 205.125 84.9433 209.033C84.5443 218.129 84.1054 227.224 83.6266 236.32H82.317C82.9179 227.206 83.5492 218.096 84.2111 208.991C84.4974 205.097 84.7931 201.205 85.0982 197.316C85.0992 197.271 85.1179 197.229 85.1502 197.198C85.1826 197.167 85.2259 197.15 85.2707 197.151C85.3155 197.152 85.3582 197.171 85.3892 197.203C85.4202 197.235 85.4371 197.278 85.4362 197.323Z" fill="#263238"/>
<path d="M164.233 220.069L69.5234 212.899C69.5234 212.899 88.5765 137.513 126.197 109.798C135.815 102.72 146.341 107.261 151.08 112.553C163.12 126.035 164.514 219.766 164.233 220.069Z" fill="#72CBD0"/>
<path d="M130.576 113.229C130.179 114.234 129.923 115.289 129.816 116.364C130.464 115.505 130.986 114.558 131.365 113.552C131.762 112.547 132.018 111.492 132.125 110.417C131.48 111.277 130.958 112.224 130.576 113.229ZM120.296 153.899C119.892 154.903 119.638 155.962 119.543 157.04C120.811 155.28 121.602 153.222 121.838 151.066C121.192 151.932 120.673 152.886 120.296 153.899ZM86.4571 171.337C86.0564 172.344 85.8004 173.401 85.6967 174.479C86.971 172.721 87.7645 170.662 87.9991 168.505C87.3581 169.374 86.8393 170.327 86.4571 171.337ZM113.769 197.028C113.361 198.03 113.104 199.086 113.009 200.163C114.277 198.403 115.068 196.344 115.304 194.189C114.659 195.057 114.142 196.013 113.769 197.028ZM155.1 141.443C154.699 142.449 154.443 143.507 154.34 144.585C155.614 142.827 156.408 140.768 156.642 138.61C155.989 139.478 155.47 140.437 155.1 141.457V141.443ZM138.244 192.579C137.835 193.58 137.576 194.637 137.477 195.714C138.124 194.856 138.643 193.909 139.019 192.902C139.419 191.898 139.675 190.843 139.779 189.767C139.134 190.626 138.617 191.573 138.244 192.579ZM104.116 139.531C103.715 140.535 103.459 141.59 103.356 142.666C104.632 140.91 105.423 138.849 105.651 136.692C105.003 137.558 104.485 138.515 104.116 139.531ZM141.955 126.036C140.951 125.631 139.893 125.375 138.814 125.277C139.675 125.919 140.624 126.435 141.631 126.809C142.637 127.215 143.697 127.471 144.778 127.568C143.916 126.924 142.965 126.408 141.955 126.036ZM152.685 159.922C151.681 159.519 150.623 159.263 149.545 159.163C150.404 159.808 151.353 160.325 152.361 160.696C153.366 161.101 154.423 161.359 155.502 161.462C154.641 160.824 153.693 160.315 152.685 159.95V159.922ZM155.565 200.423C154.56 200.023 153.502 199.767 152.425 199.664C153.283 200.312 154.232 200.83 155.241 201.204C156.247 201.603 157.304 201.858 158.381 201.963C157.518 201.33 156.57 200.821 155.565 200.451V200.423ZM88.147 197.092C87.1419 196.69 86.0844 196.434 85.0066 196.332C86.7643 197.606 88.8251 198.398 90.9845 198.631C90.1159 197.994 89.1603 197.485 88.147 197.12V197.092ZM112.516 171.084C111.511 170.681 110.454 170.423 109.376 170.318C110.236 170.965 111.184 171.486 112.192 171.865C113.199 172.261 114.256 172.517 115.332 172.624C114.471 171.986 113.522 171.475 112.516 171.105V171.084ZM148.742 110.755C148.644 110.544 148.545 110.34 148.439 110.136C148.094 109.876 147.735 109.623 147.348 109.377C147.522 109.966 147.734 110.544 147.982 111.106C148.405 112.102 148.972 113.03 149.665 113.861C149.504 112.795 149.194 111.756 148.742 110.776V110.755ZM121.064 132.615C120.639 131.62 120.072 130.692 119.381 129.859C119.72 132.003 120.618 134.021 121.986 135.708C121.831 134.637 121.521 133.595 121.064 132.615ZM145.503 215.789C145.079 214.795 144.514 213.868 143.828 213.033C143.983 214.103 144.292 215.144 144.743 216.126C145.144 217.05 145.662 217.92 146.285 218.713H146.398C146.235 217.702 145.934 216.718 145.503 215.789ZM136.512 166.804C136.084 165.811 135.517 164.883 134.829 164.048C135.179 166.188 136.074 168.201 137.427 169.896C137.271 168.827 136.963 167.786 136.512 166.804ZM72.0018 204.156C71.9596 204.303 71.9173 204.451 71.868 204.592C71.9596 204.69 72.0441 204.795 72.1286 204.894C72.1004 204.653 72.058 204.413 72.0018 204.177V204.156ZM100.166 185.402C99.7386 184.411 99.172 183.486 98.4832 182.654C98.8236 184.795 99.722 186.81 101.088 188.495C100.921 187.432 100.603 186.398 100.145 185.423L100.166 185.402ZM106.207 212.464C105.78 211.47 105.213 210.543 104.524 209.709C104.873 211.852 105.771 213.869 107.13 215.564C106.964 214.5 106.646 213.466 106.186 212.492L106.207 212.464ZM153.572 179.906C152.578 180.334 151.649 180.899 150.812 181.586C151.884 181.428 152.927 181.118 153.91 180.665C154.909 180.241 155.841 179.675 156.678 178.985C155.595 179.146 154.542 179.463 153.551 179.927L153.572 179.906ZM78.8668 184.011L78.5078 184.981C79.2671 184.615 79.9769 184.154 80.6201 183.61C80.0156 183.689 79.421 183.83 78.8457 184.032L78.8668 184.011ZM127.154 207.431C126.159 207.854 125.229 208.418 124.394 209.104C125.467 208.948 126.513 208.64 127.499 208.19C128.494 207.76 129.423 207.192 130.259 206.503C129.176 206.663 128.122 206.983 127.133 207.452L127.154 207.431ZM83.9716 213.701L83.4858 213.933L85.1404 214.06C85.832 213.711 86.4797 213.282 87.0697 212.78C85.9905 212.945 84.9402 213.262 83.9505 213.722L83.9716 213.701ZM100.56 155.902C99.5684 156.335 98.6399 156.9 97.8002 157.582C99.9464 157.236 101.967 156.342 103.665 154.988C102.583 155.146 101.53 155.461 100.539 155.923L100.56 155.902ZM124.838 182.823C123.842 183.252 122.913 183.82 122.078 184.51C124.226 184.165 126.247 183.269 127.943 181.909C126.862 182.07 125.809 182.385 124.817 182.844L124.838 182.823ZM137.512 145.815C136.519 146.246 135.59 146.811 134.752 147.495C136.898 147.155 138.917 146.261 140.61 144.901C139.523 145.061 138.466 145.376 137.47 145.836L137.512 145.815Z" fill="white"/>
<path d="M145.715 128.305C140.251 127.497 134.702 116.49 133.745 108.983C133.681 108.463 142.194 92.2468 143.525 88.8659C143.799 88.163 162.782 102.474 162.782 102.474C162.782 102.474 157.853 108.744 155.551 114.669C155.389 115.161 150.995 129.079 145.715 128.305Z" fill="#D3766A"/>
<path d="M162.81 102.474C162.81 102.474 157.881 108.744 155.572 114.662C155.53 114.782 155.248 115.653 154.783 116.897C145.025 111.977 141.046 103.191 139.441 97.3921C141.286 93.7018 143.004 90.2366 143.553 88.8659C143.828 88.17 162.81 102.474 162.81 102.474Z" fill="#263238"/>
<path d="M147.911 62.5287C142.356 68.9461 136.801 92.0926 139.976 99.2059C144.588 109.51 156.875 115.703 166.817 109.117C176.484 102.727 183.187 72.4325 179.195 65.4879C173.323 55.2537 156.107 53.0536 147.911 62.5287Z" fill="#D3766A"/>
<path d="M162.754 81.3308C162.05 81.387 161.346 81.3308 160.642 81.3308C159.894 81.4324 159.134 81.2841 158.48 80.909C158.298 80.7508 158.172 80.537 158.124 80.3006C158.076 80.0643 158.107 79.8186 158.212 79.6016C158.487 79.2053 158.863 78.8894 159.302 78.6867C159.74 78.4841 160.224 78.402 160.705 78.4489C161.692 78.3909 162.666 78.7016 163.437 79.3205C163.6 79.4738 163.716 79.6708 163.77 79.8878C163.824 80.1049 163.814 80.3329 163.742 80.5447C163.671 80.7565 163.539 80.9433 163.364 81.0826C163.189 81.222 162.977 81.3081 162.754 81.3308Z" fill="#263238"/>
<path d="M162.134 84.7261C162.134 84.6629 161.994 84.7754 161.979 84.8456C161.719 86.4272 161.149 88.1985 159.621 88.4374C159.571 88.4374 159.557 88.5218 159.621 88.5288C161.402 88.6272 162.134 86.2725 162.134 84.7261Z" fill="#263238"/>
<path d="M161.05 82.8003C158.55 82.0974 157.339 87.1512 159.642 87.7909C161.944 88.4305 163.141 83.3837 161.05 82.8003Z" fill="#263238"/>
<path d="M171.217 86.6728C171.217 86.6166 171.323 86.7783 171.309 86.8415C170.886 88.3879 170.661 90.2365 171.95 91.0589C171.992 91.0589 171.95 91.1643 171.914 91.1432C170.246 90.5247 170.57 88.0786 171.217 86.6728Z" fill="#263238"/>
<path d="M173.006 85.3795C175.569 85.7872 174.562 90.8692 172.189 90.4896C169.816 90.11 170.858 85.0351 173.006 85.3795Z" fill="#263238"/>
<path d="M175.604 82.8776C174.957 82.5775 174.327 82.2419 173.717 81.8725C173.001 81.6085 172.394 81.1138 171.992 80.4667C171.904 80.2405 171.893 79.9915 171.962 79.7587C172.031 79.526 172.175 79.3226 172.372 79.1804C173.238 78.6181 174.238 78.8781 175.125 79.3139C176.03 79.7252 176.75 80.4564 177.146 81.3664C177.229 81.5804 177.248 81.8141 177.199 82.0385C177.151 82.263 177.038 82.4683 176.874 82.6291C176.709 82.79 176.502 82.8992 176.276 82.9434C176.05 82.9876 175.817 82.9647 175.604 82.8776Z" fill="#263238"/>
<path d="M156.896 98.2568C157.177 98.7136 157.431 99.3041 157.987 99.4868C158.574 99.6132 159.181 99.6132 159.769 99.4868C159.78 99.4857 159.792 99.4884 159.803 99.4945C159.813 99.5006 159.821 99.5097 159.826 99.5207C159.83 99.5316 159.831 99.5437 159.829 99.5554C159.826 99.567 159.82 99.5774 159.811 99.5852C159.514 99.838 159.155 100.006 158.771 100.072C158.387 100.137 157.992 100.098 157.628 99.9578C157.328 99.8 157.082 99.5566 156.922 99.2586C156.761 98.9606 156.693 98.6216 156.727 98.2849C156.727 98.1935 156.854 98.1865 156.896 98.2568Z" fill="#263238"/>
<path d="M159.656 93.9762C159.907 94.688 160.302 95.3406 160.817 95.8932C161.332 96.4459 161.955 96.8868 162.648 97.1884C163.25 97.4598 163.888 97.6444 164.542 97.7367C164.665 97.7642 164.79 97.7784 164.916 97.7789C165.035 97.7864 165.155 97.7864 165.275 97.7789C165.362 97.7842 165.448 97.76 165.52 97.7102C165.591 97.6605 165.644 97.5881 165.669 97.5048C165.672 97.4486 165.672 97.3922 165.669 97.3361V97.1955C165.986 96.0005 166.31 94.1449 166.31 94.1449C166.697 94.4682 168.697 96.0146 168.816 95.375C169.753 90.1032 170.788 84.2411 170.605 78.7936C170.605 78.7545 170.589 78.7169 170.561 78.6892C170.534 78.6615 170.496 78.646 170.457 78.646C170.418 78.646 170.38 78.6615 170.352 78.6892C170.325 78.7169 170.309 78.7545 170.309 78.7936C169.211 83.8263 169.006 89.0208 167.978 94.0957C167.29 93.5309 166.524 93.067 165.704 92.718C165.521 92.718 165.148 96.3169 164.958 96.837C164.959 96.8557 164.959 96.8745 164.958 96.8932C162.845 96.6683 161.494 95.6913 159.853 93.8708C159.747 93.7513 159.592 93.8286 159.656 93.9762Z" fill="#263238"/>
<path d="M163.979 96.9565C163.111 97.6552 162.079 98.1199 160.98 98.3061C160.378 98.3897 159.765 98.2841 159.226 98.0039C158.058 97.3783 158.297 96.2255 158.762 95.2977C159.015 94.8087 159.324 94.351 159.684 93.9341C160.755 95.3738 162.261 96.4331 163.979 96.9565Z" fill="#263238"/>
<path d="M160.98 98.3058C160.378 98.3894 159.765 98.2837 159.226 98.0035C158.058 97.3779 158.297 96.2252 158.762 95.2974C160.071 95.7542 161.177 96.9843 160.98 98.3058Z" fill="#FF97B8"/>
<path d="M181.321 74.4987C171.464 78.6177 161.494 67.2237 161.494 67.2237C160.364 68.953 158.705 70.2717 156.764 70.9836C154.823 71.6954 152.703 71.7622 150.721 71.174C150.721 71.174 145.989 85.4218 142.131 84.5642C136.266 83.3131 138.61 63.0274 141.265 59.4989C143.919 55.9703 149.13 55.9844 149.13 55.9844C149.13 55.9844 150.122 53.0252 154.333 51.0079C158.98 48.7727 171.936 55.7806 171.936 55.7806C173.112 54.097 174.667 52.7126 176.477 51.7389C176.914 51.4938 177.396 51.3397 177.895 51.2861C178.393 51.2325 178.897 51.2804 179.376 51.427C179.855 51.5735 180.3 51.8156 180.683 52.1387C181.065 52.4617 181.378 52.859 181.603 53.3064C180.641 54.23 179.902 55.3596 179.441 56.61C177.857 60.743 181.356 61.467 182.138 57.58C182.478 56.1374 182.288 54.6211 181.603 53.3064C183.856 51.1274 186.848 50.8884 188.278 52.6035C190.904 55.7454 189.524 71.0826 181.321 74.4987Z" fill="#263238"/>
<path d="M157.142 92.5493C155.929 92.1611 154.85 91.4407 154.027 90.4701C153.204 89.4995 152.671 88.3178 152.488 87.0595C152.305 85.8011 152.479 84.5168 152.991 83.3526C153.504 82.1884 154.333 81.1912 155.385 80.4746C156.438 79.758 157.67 79.3506 158.943 79.2991C160.215 79.2475 161.477 79.5536 162.584 80.1828C163.691 80.8119 164.599 81.7386 165.204 82.8575C165.809 83.9763 166.087 85.2424 166.007 86.5114C165.94 87.5419 165.639 88.5438 165.127 89.4408C164.615 90.3379 163.904 91.1067 163.05 91.6887C162.195 92.2707 161.219 92.6507 160.195 92.7998C159.172 92.9489 158.128 92.8632 157.142 92.5493ZM161.029 80.4946C160.572 80.347 160.099 80.2549 159.621 80.2204C158.12 80.1141 156.635 80.5834 155.469 81.5327C154.303 82.4819 153.544 83.8395 153.346 85.3284C153.149 86.8174 153.528 88.3255 154.406 89.5451C155.284 90.7647 156.595 91.6038 158.072 91.8912C159.549 92.1787 161.08 91.8929 162.352 91.092C163.625 90.2912 164.544 89.0357 164.921 87.5817C165.298 86.1277 165.106 84.5848 164.382 83.2678C163.659 81.9508 162.46 80.9589 161.029 80.4946Z" fill="#72CBD0"/>
<path d="M172.147 95.3887C169.711 94.475 168.443 91.1714 169.33 87.7201C169.708 86.069 170.598 84.5786 171.872 83.4606C172.387 82.9425 173.028 82.5666 173.732 82.3697C174.436 82.1729 175.179 82.1617 175.888 82.3374C176.598 82.513 177.25 82.8695 177.78 83.3719C178.31 83.8743 178.701 84.5055 178.913 85.2037C179.51 86.7897 179.596 88.522 179.16 90.1592C178.258 93.7861 175.322 96.1971 172.612 95.5223C172.453 95.4918 172.297 95.4471 172.147 95.3887ZM175.956 83.334L175.625 83.2356C175.056 83.1209 174.468 83.1447 173.91 83.305C173.353 83.4653 172.842 83.7573 172.421 84.1564C171.297 85.1529 170.512 86.4748 170.175 87.938C169.394 91.087 170.556 94.0954 172.788 94.6437C175.02 95.1919 177.456 93.0832 178.237 89.9413C178.629 88.4909 178.555 86.9544 178.026 85.5482C177.856 85.0548 177.584 84.6026 177.227 84.2212C176.87 83.8397 176.437 83.5374 175.956 83.334Z" fill="#72CBD0"/>
<path d="M165.634 87.2422L165.197 86.448C166.373 85.7943 168.936 85.1195 170.225 87.1509L169.45 87.6288C168.302 85.8083 165.739 87.179 165.634 87.2422Z" fill="#72CBD0"/>
<path d="M135.583 83.0953L134.878 82.5329C135.146 82.2026 137.519 79.2996 139.568 79.3699C141.49 79.4402 153.22 82.8844 153.72 83.0601L153.46 83.9317C150.094 82.9336 141.025 80.3258 139.54 80.2766C138.174 80.2274 136.223 82.294 135.583 83.0953Z" fill="#72CBD0"/>
<path d="M144.644 83.2432C144.644 83.2432 142.75 74.1899 138.835 74.5765C134.921 74.9631 134.259 86.6101 137.392 89.5834C137.766 89.9921 138.219 90.321 138.724 90.5504C139.229 90.7797 139.775 90.9047 140.33 90.9178C140.884 90.931 141.436 90.832 141.951 90.6268C142.466 90.4216 142.934 90.1145 143.328 89.7239L144.644 83.2432Z" fill="#D3766A"/>
<path d="M138.73 77.922C138.674 77.8868 138.624 77.9641 138.667 78.0133C140.828 80.1783 141.159 83.1796 141.054 86.0896C140.687 84.7963 139.857 83.8122 138.167 84.1848C138.082 84.1848 138.103 84.3324 138.167 84.3535C138.688 84.4016 139.181 84.611 139.578 84.9525C139.974 85.294 140.254 85.7505 140.378 86.2583C140.584 87.1059 140.7 87.973 140.723 88.845C140.723 89.1332 141.215 89.1894 141.244 88.845C141.24 88.8217 141.24 88.798 141.244 88.7747C142.75 85.5273 142.159 79.7776 138.73 77.922Z" fill="#263238"/>
<path d="M192.918 146.785C194.699 142.104 236.002 150.581 234.354 157.757C228.306 184.046 211.45 207.536 207.19 212.907C201.599 219.936 190.475 218.375 186.419 214.116C180.54 207.937 191.158 151.424 192.918 146.785Z" fill="#D3766A"/>
<path d="M190.01 159.69C189.092 162.21 188.365 164.794 187.834 167.422C187.236 170.023 186.715 172.638 186.292 175.266C185.457 180.584 184.987 185.953 184.884 191.335C184.807 194.343 184.884 197.344 184.884 200.353C184.884 200.423 184.997 200.416 184.997 200.353C184.997 197.689 185.159 195.004 185.377 192.347C185.595 189.69 185.863 186.984 186.208 184.32C186.877 179.083 187.616 173.854 188.566 168.659C188.829 167.202 189.104 165.749 189.39 164.301C189.693 162.797 190.038 161.3 190.235 159.775C190.235 159.662 190.059 159.564 190.01 159.69Z" fill="#263238"/>
<path d="M182.955 72.6921C182.683 76.2717 182.146 79.8264 181.349 83.327C181.216 83.9244 181.068 84.5359 180.92 85.1404C180.328 87.5443 179.624 89.9623 178.808 92.2889C178.62 92.8512 178.423 93.4065 178.216 93.9548C175.717 100.696 172.414 106.494 168.697 108.955C167.753 109.587 166.751 110.128 165.704 110.571C160.375 107.468 155.924 103.063 152.771 97.769C149.617 92.4753 147.865 86.4677 147.679 80.3115L146.553 80.0022C146.729 79.7281 146.912 79.447 147.088 79.1517C147.264 78.8565 147.482 78.484 147.672 78.1325C147.954 69.0829 151.616 60.4657 157.938 53.9739C166.789 51.5981 177.385 54.9931 181.842 62.7461C182.927 64.665 183.258 68.2779 182.955 72.6921Z" fill="#D3766A"/>
<path d="M164.402 79.5246C163.653 79.5632 162.904 79.5632 162.155 79.5246C161.289 79.5246 160.599 79.5878 159.86 79.0747C159.661 78.9065 159.525 78.6761 159.474 78.4208C159.423 78.1656 159.459 77.9006 159.578 77.6689C160.121 76.713 161.177 76.4669 162.219 76.4459C163.264 76.384 164.296 76.7122 165.113 77.3667C165.294 77.5269 165.424 77.7366 165.487 77.9698C165.55 78.203 165.543 78.4495 165.468 78.679C165.392 78.9085 165.251 79.1108 165.061 79.2611C164.872 79.4114 164.643 79.5029 164.402 79.5246Z" fill="#263238"/>
<path d="M163.747 83.1586C163.747 83.0953 163.599 83.2148 163.585 83.2781C163.31 84.958 162.705 86.8347 161.085 87.0878C161.036 87.0878 161.022 87.1791 161.085 87.1862C162.972 87.2565 163.747 84.7612 163.747 83.1586Z" fill="#263238"/>
<path d="M162.599 81.0849C159.952 80.3469 158.67 85.6889 161.12 86.3707C163.571 87.0526 164.817 81.7035 162.599 81.0849Z" fill="#263238"/>
<path d="M173.372 85.1832C173.372 85.1269 173.485 85.2956 173.463 85.3659C173.013 87.0037 172.759 88.9577 174.168 89.8644C174.21 89.8644 174.168 89.9769 174.132 89.9558C172.344 89.26 172.682 86.6733 173.372 85.1832Z" fill="#263238"/>
<path d="M175.266 83.8122C177.977 84.248 176.907 89.6322 174.393 89.2316C171.879 88.8309 172.992 83.4467 175.266 83.8122Z" fill="#263238"/>
<path d="M178.012 81.1625C177.308 80.8602 176.695 80.4596 176.019 80.1011C175.265 79.8245 174.621 79.3084 174.189 78.632C174.096 78.3934 174.086 78.1309 174.158 77.8856C174.231 77.6402 174.383 77.4257 174.59 77.2754C175.512 76.678 176.569 76.9521 177.505 77.416C178.454 77.8541 179.207 78.628 179.617 79.588C179.697 79.8104 179.712 80.0511 179.659 80.2815C179.606 80.5119 179.488 80.7224 179.319 80.888C179.15 81.0536 178.938 81.1675 178.706 81.2162C178.474 81.2648 178.233 81.2462 178.012 81.1625Z" fill="#263238"/>
<path d="M158.198 97.4554C158.501 97.9334 158.769 98.559 159.36 98.7558C159.979 98.8927 160.621 98.8927 161.24 98.7558C161.253 98.7554 161.265 98.7586 161.275 98.7651C161.286 98.7716 161.294 98.781 161.3 98.7922C161.305 98.8035 161.307 98.816 161.305 98.8283C161.303 98.8405 161.298 98.852 161.289 98.8612C160.975 99.1298 160.594 99.3082 160.186 99.3775C159.778 99.4468 159.359 99.4044 158.973 99.2548C158.657 99.0867 158.397 98.8286 158.228 98.5133C158.059 98.1979 157.987 97.8396 158.022 97.4835C158.015 97.3851 158.149 97.3851 158.198 97.4554Z" fill="#263238"/>
<path d="M161.128 92.9148C161.39 93.6701 161.807 94.3629 162.351 94.9496C162.895 95.5363 163.555 96.0042 164.289 96.3238C164.927 96.611 165.603 96.8051 166.296 96.9002C166.427 96.93 166.562 96.9465 166.697 96.9494C166.821 96.9572 166.946 96.9572 167.07 96.9494C167.163 96.9553 167.255 96.9302 167.331 96.878C167.408 96.8257 167.465 96.7494 167.493 96.6612C167.5 96.6052 167.5 96.5485 167.493 96.4925V96.3449C167.831 95.0797 168.197 93.1116 168.197 93.1116C168.605 93.456 170.724 95.0938 170.844 94.419C171.837 88.7958 172.956 82.6173 172.745 76.8465C172.745 76.8055 172.729 76.7662 172.7 76.7372C172.671 76.7082 172.631 76.6919 172.59 76.6919C172.549 76.6919 172.51 76.7082 172.481 76.7372C172.452 76.7662 172.435 76.8055 172.435 76.8465C171.267 82.1745 171.027 87.6782 169.964 93.0132C169.21 92.4314 168.378 91.9582 167.493 91.6074C167.303 91.6074 166.901 95.4171 166.704 95.9724C166.707 95.991 166.707 96.01 166.704 96.0286C164.5 95.7896 163.036 94.7634 161.304 92.8234C161.219 92.6828 161.057 92.7601 161.128 92.9148Z" fill="#263238"/>
<path d="M165.704 96.0779C164.785 96.8116 163.691 97.2958 162.529 97.4837C161.893 97.5748 161.244 97.4615 160.677 97.1603C159.431 96.4996 159.691 95.2766 160.184 94.2995C160.45 93.7804 160.776 93.2943 161.156 92.8516C162.288 94.3845 163.882 95.5152 165.704 96.0779Z" fill="#263238"/>
<path d="M162.522 97.5044C161.886 97.5955 161.237 97.4823 160.67 97.1811C159.424 96.5204 159.684 95.2973 160.177 94.3203C161.557 94.8053 162.733 96.0986 162.522 97.5044Z" fill="#FF97B8"/>
<path d="M184.067 72.2916C183.694 72.4463 183.321 72.5798 182.955 72.6923C172.872 75.8131 163.064 64.5808 163.064 64.5808C161.873 66.4182 160.118 67.8217 158.063 68.5818C156.007 69.3419 153.76 69.4178 151.657 68.7982C150.564 72.0146 149.225 75.1423 147.651 78.1538C147.84 72.1768 149.505 66.3389 152.497 61.1583C155.489 55.9777 159.716 51.6146 164.803 48.4564C168.015 49.5814 171.14 50.9393 174.153 52.5191C175.402 50.7361 177.051 49.27 178.97 48.2385C179.432 47.9785 179.942 47.8148 180.469 47.7574C180.997 47.7 181.531 47.7501 182.038 47.9045C182.546 48.0589 183.016 48.3145 183.422 48.6558C183.828 48.9972 184.16 49.4171 184.398 49.8903C183.382 50.8764 182.6 52.0773 182.11 53.4048C180.434 57.7768 184.138 58.5429 184.961 54.431C185.325 52.9013 185.125 51.2919 184.398 49.8973C186.785 47.5988 189.954 47.3458 191.439 49.1944C194.213 52.4418 192.763 68.6717 184.067 72.2916Z" fill="#263238"/>
<path d="M165.261 79.0395C164.089 78.0646 162.636 77.4884 161.113 77.3947C160.655 77.365 160.195 77.3815 159.74 77.4439C158.599 77.5912 157.51 78.0095 156.564 78.6638C155.618 79.3181 154.844 80.1894 154.305 81.2044C154.149 81.4882 154.017 81.7845 153.91 82.09C153.666 82.7393 153.521 83.4218 153.481 84.1144C153.383 85.7094 153.818 87.2919 154.719 88.6127C155.621 89.9335 156.936 90.9177 158.459 91.4105C159.031 91.5898 159.621 91.7007 160.219 91.7408H160.67C162.396 91.7441 164.066 91.1297 165.377 90.009C166.688 88.8884 167.554 87.3357 167.816 85.6326C167.816 85.4288 167.866 85.225 167.88 85.0141C167.894 84.8032 167.88 84.7048 167.88 84.5572C167.878 83.5016 167.642 82.4596 167.189 81.5057C166.736 80.5519 166.077 79.7097 165.261 79.0395ZM160.276 90.7779C158.762 90.6811 157.335 90.0371 156.263 88.9662C155.19 87.8953 154.545 86.471 154.448 84.9598C154.352 83.4485 154.81 81.9539 155.737 80.7555C156.665 79.5572 157.998 78.7372 159.487 78.449C160.004 78.349 160.532 78.3159 161.057 78.3506C161.574 78.3843 162.085 78.4811 162.578 78.6388C163.207 78.8406 163.799 79.142 164.331 79.5315C165.426 80.3225 166.233 81.4472 166.631 82.736C167.03 84.0249 166.997 85.4081 166.54 86.6772C166.082 87.9463 165.224 89.0325 164.094 89.7721C162.964 90.5117 161.624 90.8647 160.276 90.7779Z" fill="#72CBD0"/>
<path d="M181.476 83.6294L181.349 83.3272C180.918 82.3389 180.177 81.5174 179.237 80.9865C178.934 80.8181 178.609 80.6904 178.272 80.6069C177.782 80.4878 177.274 80.4592 176.773 80.5226C175.752 80.6651 174.795 81.1024 174.02 81.7808C173.437 82.2758 172.934 82.8565 172.527 83.5029C172.217 83.9818 171.955 84.4904 171.745 85.0211C171.602 85.3633 171.484 85.7157 171.393 86.0755C171.368 86.1468 171.347 86.2196 171.33 86.2934C170.913 87.8872 170.957 89.5665 171.457 91.1363C171.665 91.8634 172.033 92.535 172.534 93.1027C173.034 93.6704 173.655 94.12 174.351 94.4189C174.498 94.4751 174.646 94.5173 174.801 94.5595C175.384 94.6916 175.988 94.7062 176.577 94.6024C177.166 94.4986 177.728 94.2785 178.23 93.955C180.023 92.7849 181.287 90.9609 181.751 88.873C182.21 87.1394 182.114 85.3057 181.476 83.6294ZM180.772 88.6411C180.452 90.012 179.768 91.272 178.794 92.2891C178.334 92.8232 177.743 93.2277 177.078 93.462C176.413 93.6964 175.699 93.7524 175.005 93.6246C172.64 93.0412 171.407 89.8571 172.238 86.5253C172.593 84.9763 173.423 83.5761 174.611 82.5188C175.058 82.0964 175.601 81.7873 176.192 81.6173C176.784 81.4473 177.408 81.4214 178.012 81.5418C178.129 81.5695 178.244 81.6048 178.357 81.6472C178.867 81.8642 179.325 82.1851 179.704 82.5894C180.082 82.9937 180.372 83.4724 180.554 83.9949C180.704 84.3647 180.817 84.7485 180.892 85.1406C181.117 86.3002 181.085 87.4948 180.8 88.6411H180.772Z" fill="#72CBD0"/>
<path d="M167.45 85.7873L166.993 84.9438C168.239 84.2409 170.957 83.538 172.316 85.717L171.499 86.2231C170.281 84.269 167.57 85.724 167.45 85.7873Z" fill="#72CBD0"/>
<path d="M154.826 81.3592L154.551 82.2799L153.91 82.0902C152.326 81.6263 149.989 80.9515 147.658 80.3048L146.531 79.9955C146.707 79.7214 146.89 79.4402 147.066 79.145L147.637 79.3067C150.453 80.0799 153.178 80.8742 154.305 81.2045L154.826 81.3592Z" fill="#72CBD0"/>
<g opacity="0.3">
<path d="M191.756 114.641C184.741 116.184 177.425 115.615 170.734 113.006C164.043 110.398 158.277 105.868 154.165 99.9876C150.053 94.1078 147.781 87.1428 147.634 79.9734C147.488 72.804 149.475 65.7523 153.343 59.71C157.211 53.6678 162.787 48.9064 169.367 46.028C175.946 43.1496 183.232 42.2835 190.304 43.5392C197.376 44.7949 203.917 48.1161 209.098 53.0826C214.28 58.0492 217.869 64.438 219.413 71.4413C220.439 76.0908 220.538 80.8965 219.703 85.584C218.868 90.2715 217.117 94.7489 214.549 98.7605C211.98 102.772 208.646 106.239 204.735 108.964C200.824 111.689 196.414 113.618 191.756 114.641Z" fill="white"/>
<path d="M152.094 96.6401C156.694 105.024 164.423 111.255 173.601 113.981C182.779 116.707 192.664 115.707 201.107 111.197L152.094 96.6401Z" fill="#EBEBEB"/>
<path d="M153.136 60.0683L220.265 80.0095C220.324 77.1301 220.04 74.254 219.42 71.4412C218.718 68.2143 217.569 65.101 216.005 62.191L166.45 47.4653C161.006 50.4604 156.421 54.7997 153.136 60.0683Z" fill="#EBEBEB"/>
<path d="M147.897 83.4679L211.837 102.446C213.361 100.62 214.703 98.6492 215.843 96.5629L147.756 76.3335C147.56 78.7102 147.607 81.1008 147.897 83.4679Z" fill="#EBEBEB"/>
<path d="M150.812 64.4545L219.815 84.958C219.885 84.5222 219.949 84.0864 219.998 83.6506L151.362 63.2666C151.172 63.6532 150.981 64.0468 150.812 64.4545Z" fill="#EBEBEB"/>
<path d="M177.942 43.4869L208.57 52.5824C207.775 51.8443 206.937 51.1766 206.071 50.4737L181.195 43.0933C180.104 43.1687 179.018 43.3001 177.942 43.4869Z" fill="#EBEBEB"/>
</g>
<path d="M196.755 159.46L206.079 157.41L197.049 116.477L187.725 118.527L196.755 159.46Z" fill="#EBEBEB"/>
<path d="M223.384 70.5694C221.667 62.7845 217.676 55.6829 211.916 50.1624C206.156 44.6419 198.885 40.9505 191.023 39.555C183.162 38.1596 175.062 39.1227 167.749 42.3226C160.435 45.5225 154.237 50.8155 149.937 57.5323C145.636 64.249 143.428 72.0879 143.591 80.0576C143.753 88.0272 146.28 95.7698 150.85 102.306C155.421 108.843 161.83 113.879 169.268 116.779C176.706 119.679 184.838 120.312 192.636 118.598C203.092 116.297 212.204 109.944 217.97 100.938C223.736 91.9319 225.683 81.0086 223.384 70.5694ZM191.756 114.641C184.741 116.185 177.425 115.617 170.733 113.01C164.041 110.403 158.275 105.873 154.162 99.9933C150.049 94.1139 147.775 87.149 147.628 79.9794C147.48 72.8098 149.466 65.7576 153.334 59.7147C157.202 53.6718 162.778 48.9097 169.357 46.0306C175.936 43.1514 183.222 42.2847 190.295 43.5399C197.367 44.7951 203.908 48.1159 209.09 53.0823C214.272 58.0486 217.862 64.4376 219.406 71.441C220.432 76.09 220.531 80.8952 219.697 85.5823C218.863 90.2694 217.112 94.7466 214.544 98.7581C211.977 102.77 208.643 106.237 204.733 108.962C200.823 111.687 196.413 113.617 191.756 114.641Z" fill="#455A64"/>
<path d="M200.607 188.263L214.71 185.163L206.711 148.873L192.601 151.972L200.607 188.263Z" fill="#263238"/>
<path d="M206.761 74.4849C206.746 74.4437 206.734 74.4014 206.725 74.3584C206.556 73.7539 206.908 74.9418 206.782 74.5482C206.655 74.1545 206.472 73.5992 206.296 73.1424C205.68 71.5117 204.926 69.9362 204.043 68.4329C203.923 68.2221 203.789 68.0112 203.67 67.8003C203.627 67.73 203.979 68.2924 203.67 67.8495L203.423 67.47C203.099 66.985 202.768 66.507 202.423 66.0642C201.661 65.0356 200.83 64.0587 199.938 63.1401L199.29 62.4935C198.994 62.2053 199.635 62.8098 199.227 62.4372L198.818 62.0647C198.29 61.6078 197.748 61.165 197.185 60.7432C196.621 60.3215 195.952 59.8576 195.312 59.4569C195.016 59.2742 194.72 59.0985 194.418 58.9298C193.897 58.6275 194.643 59.0352 194.256 58.8384L193.699 58.5572C192.017 57.731 190.258 57.0718 188.447 56.5891H188.355L188.158 56.5469L187.348 56.3712C186.82 56.2658 186.299 56.1744 185.764 56.0971C184.646 55.9373 183.52 55.8341 182.391 55.7878C182.078 55.7523 181.775 55.6554 181.499 55.5029C181.223 55.3503 180.98 55.1449 180.783 54.8985C180.386 54.4009 180.204 53.7663 180.276 53.1344C180.348 52.5024 180.668 51.9248 181.166 51.5287C181.665 51.1326 182.301 50.9504 182.934 51.0222C190.128 51.2444 197.008 54.0179 202.339 58.8454C205.881 62.1566 208.65 66.2048 210.45 70.7033C210.862 71.7076 211.205 72.7385 211.478 73.789C211.575 74.417 211.42 75.0579 211.045 75.5716C210.67 76.0853 210.107 76.43 209.478 76.5303C208.851 76.6146 208.216 76.454 207.704 76.0822C207.193 75.7103 206.845 75.1558 206.732 74.5341L206.761 74.4849Z" fill="white"/>
<path d="M207.746 81.5489C207.818 82.0111 208.025 82.4417 208.342 82.7862C208.659 83.1307 209.071 83.3735 209.526 83.4839C209.981 83.5943 210.459 83.5672 210.899 83.4062C211.339 83.2452 211.721 82.9575 211.997 82.5795C212.272 82.2015 212.43 81.7502 212.448 81.2829C212.467 80.8156 212.346 80.3533 212.101 79.9546C211.857 79.5559 211.499 79.2387 211.073 79.0433C210.647 78.8478 210.173 78.7829 209.711 78.8568C209.093 78.9554 208.54 79.2939 208.172 79.7983C207.804 80.3027 207.651 80.9321 207.746 81.5489Z" fill="white"/>
<path d="M231.58 165.974C231.58 165.974 241.663 149.427 229.109 133.64C223.941 127.146 211.746 115.499 187.003 117.122C181.131 117.509 173.041 122.211 182.856 125.058C189.827 127.082 194.861 126.26 198.706 128.172C198.706 128.172 189.123 135.377 189.742 141.232C190.017 143.846 190.221 149.561 191.735 155.001C191.735 155.001 193.721 156.407 195.333 156.168C195.333 156.168 199.677 168.68 215.301 172.525L231.58 165.974Z" fill="#D3766A"/>
<path d="M223.807 131.518C219.765 129.908 211.133 126.647 203.141 126.422C194.263 126.176 177.09 128.095 176.984 134.639C176.899 139.44 183.518 139.278 183.518 139.278C183.518 139.278 176.59 141.562 177.47 145.913C178.265 149.878 183.377 149.428 183.377 149.428C183.377 149.428 179.413 151.536 180.92 155.206C182.729 159.62 190.735 154.503 196.41 157.37C197.72 158.045 223.807 131.518 223.807 131.518Z" fill="#D3766A"/>
<path d="M204.43 135.827C200.381 134.941 190.658 135.278 183.602 139.123C183.441 139.208 183.419 139.376 183.602 139.327C190.381 137.354 197.375 136.207 204.43 135.911C204.493 135.911 204.493 135.876 204.43 135.827Z" fill="#263238"/>
<path d="M203.937 144.767C200.36 144.36 190.355 145.154 183.342 149.294C183.18 149.385 183.173 149.554 183.342 149.498C190.014 147.177 196.928 145.618 203.951 144.852C203.962 144.85 203.972 144.844 203.979 144.834C203.986 144.825 203.988 144.814 203.986 144.803C203.985 144.791 203.978 144.781 203.969 144.775C203.96 144.768 203.948 144.766 203.937 144.767Z" fill="#263238"/>
<path d="M218.35 173.601C214.766 172.751 211.306 171.445 208.056 169.713C204.783 167.946 201.887 165.558 199.529 162.685C198.825 161.806 198.121 160.892 197.509 159.957C196.896 159.022 196.22 157.961 195.495 157.033C195.439 156.963 195.305 157.033 195.347 157.096C196.163 159.047 197.167 160.914 198.346 162.67C199.403 164.313 200.667 165.813 202.106 167.134C204.948 169.658 208.314 171.52 211.964 172.588C214.036 173.164 216.158 173.548 218.301 173.734C218.406 173.762 218.449 173.622 218.35 173.601Z" fill="#263238"/>
<path d="M115.572 120.651C97.4342 144.964 67.1647 208.331 62.7147 217.651C59.6941 223.977 92.8082 240.636 94.2094 236.039C96.0119 230.149 125.619 152.394 129.767 124.046C132.034 108.505 121.845 112.238 115.572 120.651Z" fill="#D3766A"/>
<path d="M95.1035 232.876C94.3361 238.604 90.4353 250.146 87.5344 251.91C84.6335 253.675 69.3896 253.316 61.7078 253.316C54.026 253.316 52.5545 251.172 52.646 248.536C52.7375 245.901 68.8897 245.394 68.8897 245.394C68.8897 245.394 47.3582 251.524 41.9436 252.557C36.529 253.59 24.0593 256.704 22.2287 252.227C21.4189 250.202 24.8338 248.157 24.8338 248.157C24.8338 248.157 19.6023 249.682 18.7645 247.088C17.821 244.129 21.9822 242.506 21.9822 242.506C21.9822 242.506 18.7081 243.159 18.6307 240.748C18.4899 235.336 38.9652 232.693 38.9652 232.693C38.9652 232.693 23.2919 240.312 22.7708 235.912C22.0667 229.832 54.2021 223.162 57.5466 220.512C59.98 218.487 62.2561 216.28 64.3553 213.912L95.1035 232.876Z" fill="#D3766A"/>
<path d="M52.7587 249.844C52.7044 249.47 52.7399 249.089 52.8624 248.733C52.9848 248.376 53.1906 248.053 53.4628 247.791C54.0149 247.286 54.648 246.878 55.3357 246.582C56.7562 245.98 58.2293 245.509 59.7364 245.176C62.764 244.41 65.8691 243.869 68.9602 243.068C65.7739 243.02 62.5943 243.374 59.497 244.122C57.9143 244.484 56.3904 245.066 54.9696 245.851C54.2339 246.255 53.5893 246.805 53.0755 247.468C52.823 247.803 52.6612 248.198 52.6057 248.614C52.5502 249.03 52.6029 249.454 52.7587 249.844Z" fill="#263238"/>
<path d="M24.8832 248.129C27.1011 247.588 29.2838 246.969 31.4595 246.336C33.6352 245.704 35.8038 245.043 37.9725 244.389L44.4573 242.365C46.6189 241.662 48.7805 241.016 50.9632 240.362C48.6973 240.611 46.4507 241.012 44.239 241.564C42.0141 242.07 39.8313 242.702 37.6556 243.363C35.48 244.024 33.3254 244.769 31.199 245.556C29.0726 246.343 26.9251 247.173 24.8832 248.129Z" fill="#263238"/>
<path d="M45.7387 234.984C43.6501 235.115 41.5743 235.402 39.5285 235.842C37.4757 236.249 35.4471 236.77 33.4521 237.402C31.4523 238.021 29.4893 238.754 27.5728 239.595C25.6495 240.416 23.7881 241.374 22.0034 242.463C23.9819 241.76 25.9111 241.022 27.8756 240.355C29.84 239.687 31.7975 239.026 33.776 238.422C35.7545 237.817 37.7331 237.22 39.7257 236.636C41.7183 236.053 43.718 235.547 45.7387 234.984Z" fill="#263238"/>
<path d="M42.5702 229.867C39.2063 230.138 35.8923 230.847 32.7127 231.976C29.5022 233.037 26.4459 234.517 23.6227 236.376C26.8053 235.244 29.9034 234.049 33.0648 232.995C36.2262 231.941 39.3595 230.9 42.5702 229.867Z" fill="#263238"/>
<path d="M123.282 162.326L86.5275 161.314C86.5275 161.314 106.559 129.487 117.29 117.812C128.492 105.652 134.59 106.699 130.766 128.243C126.915 149.934 123.282 162.326 123.282 162.326Z" fill="#72CBD0"/>
<path d="M100.539 155.922C99.5474 156.355 98.6189 156.92 97.7792 157.602C99.9253 157.256 101.946 156.363 103.644 155.009C102.571 155.162 101.525 155.47 100.539 155.922ZM121.064 132.614C120.639 131.62 120.073 130.691 119.381 129.859C119.72 132.003 120.618 134.02 121.986 135.707C121.831 134.637 121.521 133.595 121.064 132.614ZM104.116 139.531C103.715 140.534 103.459 141.59 103.356 142.666C104.632 140.909 105.423 138.849 105.651 136.691C105.003 137.557 104.485 138.514 104.116 139.531ZM120.311 153.898C119.906 154.903 119.652 155.961 119.557 157.04C120.826 155.279 121.616 153.221 121.853 151.065C121.201 151.931 120.677 152.885 120.296 153.898H120.311ZM131.083 112.111C130.907 112.476 130.745 112.849 130.59 113.228C130.193 114.233 129.937 115.288 129.83 116.363C130.478 115.505 131 114.558 131.379 113.552C131.414 113.46 131.442 113.376 131.471 113.285C131.37 112.883 131.236 112.49 131.069 112.111H131.083Z" fill="white"/>
<path d="M120.979 155.944C120.106 155.817 119.212 155.817 118.339 155.775L115.628 155.628C113.807 155.539 111.979 155.466 110.143 155.41C106.482 155.297 102.828 155.171 99.1733 155.122C98.1664 155.122 97.1595 155.122 96.1527 155.122C95.1458 155.122 94.0404 155.227 92.9842 155.234C92.9208 155.234 92.9279 155.332 92.9842 155.332C93.8855 155.389 94.7867 155.522 95.695 155.578C96.6033 155.635 97.5468 155.691 98.4762 155.726C100.307 155.796 102.138 155.86 103.968 155.902C107.566 155.986 111.171 156.085 114.769 156.092H117.825C118.874 156.092 119.937 156.148 120.993 156.056C121.022 156.035 121.036 155.951 120.979 155.944Z" fill="#263238"/>
<path d="M130.407 138.463C130.407 138.392 130.323 138.35 130.288 138.421C129.606 139.674 129.022 140.978 128.542 142.322C128.668 141.682 128.816 141.042 128.936 140.396C129.337 138.329 129.703 136.249 130.112 134.182C130.107 134.17 130.099 134.159 130.089 134.151C130.078 134.144 130.065 134.14 130.052 134.14C130.039 134.14 130.026 134.144 130.015 134.151C130.004 134.159 129.996 134.17 129.992 134.182C129.041 137.739 127.936 141.26 127.091 144.845C126.246 148.43 125.394 152.015 124.606 155.613C124.176 157.603 123.789 160.084 123.352 162.066C122.289 162.193 120.923 162.066 119.775 162.214C119.677 162.214 119.705 162.389 119.775 162.389C120.986 162.425 122.43 162.699 123.704 162.621C123.866 162.621 126.95 149.836 128.232 143.713C129.02 141.97 129.753 140.227 130.407 138.463Z" fill="#263238"/>
<path d="M156.551 118.585C156.037 120.265 155.452 121.923 154.783 123.547C154.225 125.01 153.539 126.421 152.735 127.765C151.214 130.161 148.876 132.144 145.912 132.137C143.095 132.137 140.518 130.506 138.716 128.425C136.744 126.155 135.435 123.308 134.259 120.567C133.555 118.873 132.851 117.144 132.287 115.393C131.999 114.508 131.696 113.622 131.442 112.722C131.189 111.823 130.971 110.916 130.661 110.037C130.661 109.967 130.506 109.974 130.527 110.037C131.048 112.062 132.562 118.472 133.167 120.103C134.28 123.09 135.533 126.176 137.54 128.692C139.441 131.068 142.025 132.868 145.116 133.163C148.207 133.458 150.855 131.834 152.559 129.388C153.56 127.847 154.342 126.175 154.882 124.419C155.537 122.493 156.086 120.518 156.586 118.542C156.614 118.571 156.551 118.564 156.551 118.585Z" fill="#263238"/>
<path d="M271.926 255.017H221.434L219.181 210.706H271.926V255.017Z" fill="#DBDBDB"/>
<path d="M271.925 210.706L290.063 188.038L304.497 210.706L302.244 255.017H271.925V210.706Z" fill="#C7C7C7"/>
<path d="M236.805 180.84H290.704L310.144 212.498H303.885L290.704 190.582L275.502 215.113H214.731L236.805 180.84Z" fill="#A6A6A6"/>
<path d="M243.05 190.856H231.461L225.279 198.251H238.657L243.05 190.856Z" fill="#C7C7C7"/>
<path d="M234.27 196.986V205.99H227.82V196.986L231.045 192.958L234.27 196.986Z" fill="#DBDBDB"/>
<path d="M234.27 196.979H239.34L234.27 205.99V196.979Z" fill="#C7C7C7"/>
<path d="M232.714 197.126H229.045V203.304H232.714V197.126Z" fill="#FBFAFF"/>
<path d="M230.679 197.555H229.496V199.544H230.679V197.555Z" fill="#EBEBEB"/>
<path d="M232.256 197.555H231.073V199.544H232.256V197.555Z" fill="#EBEBEB"/>
<path d="M230.679 199.903H229.496V202.848H230.679V199.903Z" fill="#EBEBEB"/>
<path d="M232.256 199.903H231.073V202.848H232.256V199.903Z" fill="#EBEBEB"/>
<path d="M271.426 190.856H259.836L254.034 198.251H267.004L271.426 190.856Z" fill="#C7C7C7"/>
<path d="M262.645 196.986V205.99H256.196V196.986L259.421 192.958L262.645 196.986Z" fill="#DBDBDB"/>
<path d="M262.645 196.979H267.722L262.645 205.99V196.979Z" fill="#C7C7C7"/>
<path d="M261.089 197.126H257.421V203.304H261.089V197.126Z" fill="#FBFAFF"/>
<path d="M259.054 197.555H257.872V199.544H259.054V197.555Z" fill="#EBEBEB"/>
<path d="M260.639 197.555H259.456V199.544H260.639V197.555Z" fill="#EBEBEB"/>
<path d="M259.054 199.903H257.872V202.848H259.054V199.903Z" fill="#EBEBEB"/>
<path d="M260.639 199.903H259.456V202.848H260.639V199.903Z" fill="#EBEBEB"/>
<path d="M281.037 179.561H274.587V188.037H281.037V179.561Z" fill="#DBDBDB"/>
<path d="M281.037 179.561H286.106V180.924L281.037 188.037V179.561Z" fill="#C7C7C7"/>
<path d="M281.037 176.679H273.862V179.561H281.037V176.679Z" fill="#C7C7C7"/>
<path d="M286.662 176.679H281.037V179.561H286.662V176.679Z" fill="#A6A6A6"/>
<path d="M234.756 218.74H226.771V232.201H234.756V218.74Z" fill="#FBFAFF"/>
<path d="M230.327 219.675H227.757V224.012H230.327V219.675Z" fill="#EBEBEB"/>
<path d="M233.77 219.675H231.2V224.012H233.77V219.675Z" fill="#EBEBEB"/>
<path d="M230.327 224.792H227.757V231.216H230.327V224.792Z" fill="#EBEBEB"/>
<path d="M233.77 224.792H231.2V231.216H233.77V224.792Z" fill="#EBEBEB"/>
<path d="M264.413 218.74H256.428V232.201H264.413V218.74Z" fill="#FBFAFF"/>
<path d="M259.984 219.675H257.414V224.012H259.984V219.675Z" fill="#EBEBEB"/>
<path d="M263.427 219.675H260.857V224.012H263.427V219.675Z" fill="#EBEBEB"/>
<path d="M259.984 224.792H257.414V231.216H259.984V224.792Z" fill="#EBEBEB"/>
<path d="M263.427 224.792H260.857V231.216H263.427V224.792Z" fill="#EBEBEB"/>
<path d="M234.756 237.444H226.771V250.905H234.756V237.444Z" fill="#FBFAFF"/>
<path d="M230.327 238.379H227.757V242.716H230.327V238.379Z" fill="#EBEBEB"/>
<path d="M233.77 238.379H231.2V242.716H233.77V238.379Z" fill="#EBEBEB"/>
<path d="M230.327 243.496H227.757V249.921H230.327V243.496Z" fill="#EBEBEB"/>
<path d="M233.77 243.496H231.2V249.921H233.77V243.496Z" fill="#EBEBEB"/>
<path d="M264.413 237.444H256.428V250.905H264.413V237.444Z" fill="#FBFAFF"/>
<path d="M259.984 238.379H257.414V242.716H259.984V238.379Z" fill="#EBEBEB"/>
<path d="M263.427 238.379H260.857V242.716H263.427V238.379Z" fill="#EBEBEB"/>
<path d="M259.984 243.496H257.414V249.921H259.984V243.496Z" fill="#EBEBEB"/>
<path d="M263.427 243.496H260.857V249.921H263.427V243.496Z" fill="#EBEBEB"/>
<path d="M249.542 218.74H241.557V232.201H249.542V218.74Z" fill="#FBFAFF"/>
<path d="M245.113 219.675H242.543V224.012H245.113V219.675Z" fill="#EBEBEB"/>
<path d="M248.563 219.675H245.993V224.012H248.563V219.675Z" fill="#EBEBEB"/>
<path d="M245.113 224.792H242.543V231.216H245.113V224.792Z" fill="#EBEBEB"/>
<path d="M248.563 224.792H245.993V231.216H248.563V224.792Z" fill="#EBEBEB"/>
<path d="M249.542 237.536H241.557V250.996H249.542V237.536Z" fill="#FBFAFF"/>
<path d="M245.113 238.463H242.543V242.8H245.113V238.463Z" fill="#EBEBEB"/>
<path d="M248.563 238.463H245.993V242.8H248.563V238.463Z" fill="#EBEBEB"/>
<path d="M245.113 243.588H242.543V250.012H245.113V243.588Z" fill="#EBEBEB"/>
<path d="M248.563 243.588H245.993V250.012H248.563V243.588Z" fill="#EBEBEB"/>
<path d="M286.275 232.201H294.26V218.74H286.275V232.201Z" fill="#FBFAFF"/>
<path d="M293.274 219.675H290.704V224.012H293.274V219.675Z" fill="#EBEBEB"/>
<path d="M289.824 219.675H287.254V224.012H289.824V219.675Z" fill="#EBEBEB"/>
<path d="M293.274 224.792H290.704V231.216H293.274V224.792Z" fill="#EBEBEB"/>
<path d="M289.824 224.792H287.254V231.216H289.824V224.792Z" fill="#EBEBEB"/>
<path d="M286.275 211.395H294.26V200.001H286.275V211.395Z" fill="#FBFAFF"/>
<path d="M293.274 200.929H290.704V205.266H293.274V200.929Z" fill="#EBEBEB"/>
<path d="M289.824 200.929H287.254V205.266H289.824V200.929Z" fill="#EBEBEB"/>
<path d="M293.274 206.095H290.704V210.432H293.274V206.095Z" fill="#EBEBEB"/>
<path d="M289.824 206.095H287.254V210.432H289.824V206.095Z" fill="#EBEBEB"/>
<path d="M285.139 255.099L294.82 255.145L294.903 237.594L285.222 237.548L285.139 255.099Z" fill="#FBFAFF"/>
<path d="M289.007 238.763L288.994 241.392L291.078 241.402L291.091 238.773L289.007 238.763Z" fill="#EBEBEB"/>
<path d="M286.283 238.749L286.271 241.378L288.355 241.388L288.367 238.759L286.283 238.749Z" fill="#EBEBEB"/>
<path d="M287.797 250.937L292.198 250.958L292.201 250.325L287.8 250.304L287.797 250.937Z" fill="#EBEBEB"/>
<path d="M290.31 237.423V240.052H292.394V237.423H290.31Z" fill="#EBEBEB"/>
<path d="M288.999 242.083L288.987 244.711L291.071 244.721L291.084 242.092L288.999 242.083Z" fill="#EBEBEB"/>
<path d="M286.255 242.062L286.242 244.69L288.327 244.7L288.339 242.071L286.255 242.062Z" fill="#EBEBEB"/>
<path d="M291.73 242.097L291.718 244.726L293.802 244.735L293.814 242.107L291.73 242.097Z" fill="#EBEBEB"/>
<path d="M288.985 245.409L288.973 248.038L291.057 248.047L291.069 245.419L288.985 245.409Z" fill="#EBEBEB"/>
<path d="M286.247 245.395L286.235 248.023L288.319 248.033L288.332 245.404L286.247 245.395Z" fill="#EBEBEB"/>
<path d="M291.716 245.423L291.704 248.052L293.788 248.062L293.8 245.433L291.716 245.423Z" fill="#EBEBEB"/>
<path d="M132.963 255.136H88.1118L86.1051 233.438H132.963V255.136Z" fill="#DBDBDB"/>
<path d="M132.949 233.41L149.059 213.279L161.888 233.41L159.881 255.108H132.949V233.41Z" fill="#C7C7C7"/>
<path d="M101.497 206.91H150.214L168.26 237.353H163.338L149.552 214.438L136.308 237.353H82.3312L101.497 206.91Z" fill="#A6A6A6"/>
<path d="M100.053 241.493H92.9561V251.615H100.053V241.493Z" fill="#FBFAFF"/>
<path d="M96.1104 242.322H93.8291V246.174H96.1104V242.322Z" fill="#DBDBDB"/>
<path d="M99.1734 242.322H96.8921V246.174H99.1734V242.322Z" fill="#DBDBDB"/>
<path d="M96.1104 246.905H93.8291V250.757H96.1104V246.905Z" fill="#DBDBDB"/>
<path d="M99.1734 246.905H96.8921V250.757H99.1734V246.905Z" fill="#DBDBDB"/>
<path d="M126.119 241.493H119.022V251.615H126.119V241.493Z" fill="#FBFAFF"/>
<path d="M122.176 242.322H119.895V246.174H122.176V242.322Z" fill="#DBDBDB"/>
<path d="M125.239 242.322H122.958V246.174H125.239V242.322Z" fill="#DBDBDB"/>
<path d="M122.176 246.905H119.895V250.757H122.176V246.905Z" fill="#DBDBDB"/>
<path d="M125.239 246.905H122.958V250.757H125.239V246.905Z" fill="#DBDBDB"/>
<path d="M113.129 240.952H105.306V255.136H113.129V240.952Z" fill="#FBFAFF"/>
<path d="M110.059 241.929H108.376V244.051H110.059V241.929Z" fill="#DBDBDB"/>
<path d="M112.27 241.929H110.587V244.051H112.27V241.929Z" fill="#DBDBDB"/>
<path d="M110.995 251.242H107.44V251.755H110.995V251.242Z" fill="#DBDBDB"/>
<path d="M107.848 241.929H106.165V244.051H107.848V241.929Z" fill="#DBDBDB"/>
<path d="M110.059 244.614H108.376V246.737H110.059V244.614Z" fill="#DBDBDB"/>
<path d="M112.27 244.614H110.587V246.737H112.27V244.614Z" fill="#DBDBDB"/>
<path d="M107.848 244.614H106.165V246.737H107.848V244.614Z" fill="#DBDBDB"/>
<path d="M110.059 247.299H108.376V249.422H110.059V247.299Z" fill="#DBDBDB"/>
<path d="M112.27 247.299H110.587V249.422H112.27V247.299Z" fill="#DBDBDB"/>
<path d="M107.848 247.299H106.165V249.422H107.848V247.299Z" fill="#DBDBDB"/>
<path d="M111.805 205.694H106.073V213.222H111.805V205.694Z" fill="#DBDBDB"/>
<path d="M111.805 205.694H116.311V206.903L111.805 213.222V205.694Z" fill="#C7C7C7"/>
<path d="M111.805 203.129H105.433V205.687H111.805V203.129Z" fill="#C7C7C7"/>
<path d="M116.804 203.129H111.805V205.687H116.804V203.129Z" fill="#A6A6A6"/>
<path d="M150.693 255.143H165.239L166.627 240.179H150.693V255.143Z" fill="#C7C7C7"/>
<path d="M150.693 240.179L143.504 236.938L143.666 255.144H150.693V240.179Z" fill="#DBDBDB"/>
<path d="M161.832 244.052H155.713V255.136H161.832V244.052Z" fill="#FBFAFF"/>
<path d="M159.431 244.811H158.114V246.469H159.431V244.811Z" fill="#DBDBDB"/>
<path d="M161.156 244.811H159.839V246.469H161.156V244.811Z" fill="#DBDBDB"/>
<path d="M160.163 251.348H157.382V251.748H160.163V251.348Z" fill="#DBDBDB"/>
<path d="M157.706 244.811H156.389V246.469H157.706V244.811Z" fill="#DBDBDB"/>
<path d="M142.406 236.193H163.543L170.373 241.381H150.08L142.406 236.193Z" fill="#A6A6A6"/>
<path d="M150.08 241.381H142.406V236.193L150.08 241.381Z" fill="#C7C7C7"/>
<path d="M145.539 228.609C145.539 229.325 145.751 230.025 146.15 230.621C146.549 231.216 147.116 231.68 147.779 231.954C148.442 232.228 149.171 232.299 149.875 232.159C150.578 232.018 151.224 231.673 151.731 231.166C152.238 230.659 152.583 230.013 152.722 229.311C152.861 228.608 152.788 227.88 152.513 227.219C152.237 226.557 151.771 225.992 151.174 225.595C150.577 225.199 149.875 224.987 149.158 224.989C148.197 224.991 147.277 225.373 146.598 226.052C145.92 226.73 145.539 227.65 145.539 228.609Z" fill="#FBFAFF"/>
<path d="M146.348 228.609C146.348 229.354 146.645 230.07 147.173 230.597C147.702 231.124 148.418 231.42 149.165 231.42C149.403 231.422 149.64 231.391 149.869 231.329C150.525 231.151 151.094 230.743 151.472 230.179C151.85 229.615 152.011 228.934 151.925 228.261C151.839 227.588 151.513 226.968 151.005 226.517C150.498 226.066 149.844 225.812 149.165 225.804C148.927 225.803 148.69 225.834 148.461 225.896C148.133 225.975 147.824 226.118 147.552 226.317C147.183 226.575 146.88 226.918 146.671 227.317C146.461 227.715 146.351 228.158 146.348 228.609Z" fill="#C7C7C7"/>
<path d="M148.771 231.913H149.552V225.249H148.771V231.913Z" fill="#FBFAFF"/>
<path d="M152.502 228.968V228.188H145.827V228.968H152.502Z" fill="#FBFAFF"/>
<path d="M171.422 255.143H148.756L147.207 238.407H171.422V255.143Z" fill="#72CBD0"/>
<path opacity="0.2" d="M171.422 255.143H148.756L147.207 238.407H171.422V255.143Z" fill="black"/>
<path d="M171.422 238.407L183.849 222.873L193.742 238.407L192.2 255.143H171.422V238.407Z" fill="#72CBD0"/>
<path d="M172.921 240.453H142.166L160.874 216.969H183.976L197.861 240.453H194.333L183.976 224.364L172.921 240.453Z" fill="#72CBD0"/>
<path opacity="0.4" d="M172.921 240.453H142.166L160.874 216.969H183.976L197.861 240.453H194.333L183.976 224.364L172.921 240.453Z" fill="black"/>
<path d="M203.958 196.198H197.551V204.619H203.958V196.198Z" fill="#72CBD0"/>
<path opacity="0.2" d="M203.958 196.198H197.551V204.619H203.958V196.198Z" fill="black"/>
<path d="M209 196.198H203.958V204.619H209V196.198Z" fill="#72CBD0"/>
<path d="M203.958 193.33H196.833V196.191H203.958V193.33Z" fill="#72CBD0"/>
<path opacity="0.5" d="M203.958 193.33H196.833V196.191H203.958V193.33Z" fill="black"/>
<path d="M209.549 193.33H203.958V196.191H209.549V193.33Z" fill="#72CBD0"/>
<path opacity="0.4" d="M209.549 193.33H203.958V196.191H209.549V193.33Z" fill="black"/>
<path d="M226.476 255.122H176.308L174.062 230.851H226.476V255.122Z" fill="#72CBD0"/>
<path opacity="0.2" d="M226.476 255.122H176.308L174.062 230.851H226.476V255.122Z" fill="black"/>
<path d="M226.476 230.851L244.494 208.323L258.843 230.851L256.597 255.122H226.476V230.851Z" fill="#72CBD0"/>
<path d="M244.275 209.75L259.09 232.622H264.265L244.719 201.175H191.355L164.317 235.23H229.496L244.275 209.75Z" fill="#72CBD0"/>
<path opacity="0.5" d="M244.275 209.75L259.09 232.622H264.265L244.719 201.175H191.355L164.317 235.23H229.496L244.275 209.75Z" fill="black"/>
<path d="M239.811 234.26H247.747V222.937H239.811V234.26Z" fill="#FBFAFF"/>
<path d="M246.768 223.857H244.212V228.166H246.768V223.857Z" fill="#72CBD0"/>
<path d="M243.346 223.857H240.79V228.166H243.346V223.857Z" fill="#72CBD0"/>
<path d="M246.768 228.988H244.212V233.297H246.768V228.988Z" fill="#72CBD0"/>
<path d="M243.346 228.988H240.79V233.297H243.346V228.988Z" fill="#72CBD0"/>
<path d="M189.658 239.855H181.723V251.179H189.658V239.855Z" fill="#FBFAFF"/>
<path d="M185.257 240.783H182.701V245.092H185.257V240.783Z" fill="#72CBD0"/>
<path d="M188.686 240.783H186.13V245.092H188.686V240.783Z" fill="#72CBD0"/>
<path d="M185.257 245.915H182.701V250.223H185.257V245.915Z" fill="#72CBD0"/>
<path d="M188.686 245.915H186.13V250.223H188.686V245.915Z" fill="#72CBD0"/>
<path d="M204.24 239.855H196.305V251.179H204.24V239.855Z" fill="#FBFAFF"/>
<path d="M199.832 240.783H197.276V245.092H199.832V240.783Z" fill="#72CBD0"/>
<path d="M203.261 240.783H200.705V245.092H203.261V240.783Z" fill="#72CBD0"/>
<path d="M199.832 245.915H197.276V250.223H199.832V245.915Z" fill="#72CBD0"/>
<path d="M203.261 245.915H200.705V250.223H203.261V245.915Z" fill="#72CBD0"/>
<path d="M218.815 239.855H210.88V251.179H218.815V239.855Z" fill="#FBFAFF"/>
<path d="M214.414 240.783H211.858V245.092H214.414V240.783Z" fill="#72CBD0"/>
<path d="M217.836 240.783H215.28V245.092H217.836V240.783Z" fill="#72CBD0"/>
<path d="M214.414 245.915H211.858V250.223H214.414V245.915Z" fill="#72CBD0"/>
<path d="M217.836 245.915H215.28V250.223H217.836V245.915Z" fill="#72CBD0"/>
<path d="M239.403 255.115H248.155V239.251H239.403V255.115Z" fill="#FBFAFF"/>
<path d="M244.726 240.348H242.839V242.723H244.726V240.348Z" fill="#72CBD0"/>
<path d="M242.255 240.348H240.368V242.723H242.255V240.348Z" fill="#72CBD0"/>
<path d="M241.79 251.34H245.768V250.764H241.79V251.34Z" fill="#72CBD0"/>
<path d="M247.19 240.348H245.303V242.723H247.19V240.348Z" fill="#72CBD0"/>
<path d="M244.726 243.349H242.839V245.724H244.726V243.349Z" fill="#72CBD0"/>
<path d="M242.255 243.349H240.368V245.724H242.255V243.349Z" fill="#72CBD0"/>
<path d="M247.19 243.349H245.303V245.724H247.19V243.349Z" fill="#72CBD0"/>
<path d="M244.726 246.35H242.839V248.726H244.726V246.35Z" fill="#72CBD0"/>
<path d="M242.255 246.35H240.368V248.726H242.255V246.35Z" fill="#72CBD0"/>
<path d="M247.19 246.35H245.303V248.726H247.19V246.35Z" fill="#72CBD0"/>
<path d="M212.013 209.329H200.494L194.573 216.709H207.613L212.013 209.329Z" fill="#72CBD0"/>
<path opacity="0.4" d="M212.013 209.329H200.494L194.573 216.709H207.613L212.013 209.329Z" fill="black"/>
<path d="M203.289 215.416V224.363H196.875V215.416L200.086 211.416L203.289 215.416Z" fill="#72CBD0"/>
<path opacity="0.2" d="M203.289 215.416V224.363H196.875V215.416L200.086 211.416L203.289 215.416Z" fill="black"/>
<path d="M203.289 215.416H208.331L203.289 224.363V215.416Z" fill="#72CBD0"/>
<path d="M201.733 215.556H198.093V221.692H201.733V215.556Z" fill="#FBFAFF"/>
<path d="M199.72 215.978H198.544V217.953H199.72V215.978Z" fill="#72CBD0"/>
<path d="M201.29 215.978H200.114V217.953H201.29V215.978Z" fill="#72CBD0"/>
<path d="M199.72 218.318H198.544V221.249H199.72V218.318Z" fill="#72CBD0"/>
<path d="M201.29 218.318H200.114V221.249H201.29V218.318Z" fill="#72CBD0"/>
<path d="M278.798 123.87C281.934 126.532 284.267 130.012 285.536 133.921C286.806 137.83 286.962 142.014 285.988 146.006C285.014 149.999 282.947 153.642 280.019 156.53C277.091 159.418 273.416 161.437 269.405 162.361L264.476 172.433L259.695 162.431C256.12 161.667 252.793 160.024 250.014 157.652C247.792 155.764 245.964 153.459 244.635 150.866C243.305 148.274 242.501 145.446 242.266 142.543C241.793 136.68 243.672 130.87 247.49 126.39C251.308 121.91 256.752 119.128 262.624 118.656C268.497 118.183 274.317 120.059 278.805 123.87H278.798Z" fill="white"/>
<path d="M278.798 123.87C281.933 126.533 284.27 130.009 285.55 133.915C285.871 134.886 286.129 135.877 286.324 136.881C286.493 137.89 286.599 138.909 286.641 139.931C286.737 141.982 286.545 144.035 286.071 146.033C285.605 148.035 284.863 149.962 283.867 151.761C283.363 152.658 282.796 153.518 282.17 154.334C281.565 155.167 280.897 155.952 280.171 156.682C277.234 159.634 273.53 161.708 269.475 162.67L269.693 162.502L264.821 172.602L264.469 173.34L264.117 172.602L259.301 162.621L259.597 162.853C255.401 161.945 251.553 159.856 248.509 156.834C245.465 153.812 243.352 149.983 242.42 145.799C241.487 141.616 241.774 137.253 243.247 133.227C244.72 129.202 247.318 125.681 250.732 123.083C253.44 121.057 256.567 119.659 259.885 118.992C263.202 118.322 266.628 118.413 269.904 119.258C273.18 120.103 276.221 121.68 278.798 123.87ZM278.798 123.87C276.239 121.69 273.213 120.125 269.952 119.296C266.692 118.467 263.285 118.397 259.993 119.09C256.701 119.783 253.613 121.222 250.966 123.295C248.319 125.368 246.184 128.02 244.726 131.047C243.272 134.039 242.521 137.323 242.529 140.648C242.57 143.958 243.329 147.219 244.754 150.208C246.199 153.182 248.3 155.789 250.901 157.834C253.506 159.87 256.535 161.296 259.766 162.009L259.977 162.059L260.061 162.248L264.814 172.265H264.11L269.116 162.227L269.179 162.087H269.327C273.308 161.217 276.966 159.255 279.889 156.421C280.615 155.715 281.286 154.953 281.896 154.144C282.526 153.35 283.098 152.511 283.607 151.635C284.627 149.876 285.395 147.983 285.888 146.012C286.398 144.039 286.617 142.002 286.536 139.967C286.499 138.95 286.403 137.936 286.247 136.93C286.057 135.929 285.805 134.941 285.494 133.971C284.239 130.051 281.921 126.555 278.798 123.87Z" fill="#263238"/>
<path d="M270.44 135.131C270.194 134.88 269.92 134.659 269.623 134.47C269.23 134.216 268.818 133.993 268.391 133.802C267.357 133.334 266.249 133.049 265.117 132.959V139.285L265.701 139.404C266.71 139.645 267.704 139.94 268.68 140.29C269.483 140.572 270.241 140.972 270.926 141.478C271.522 141.936 272.004 142.525 272.334 143.2C272.687 143.981 272.858 144.832 272.834 145.688C272.862 146.639 272.664 147.584 272.256 148.444C271.88 149.198 271.33 149.854 270.651 150.356C269.933 150.879 269.123 151.265 268.264 151.494C267.314 151.756 266.335 151.895 265.349 151.909V155.114H263.765V151.846C262.323 151.759 260.9 151.468 259.54 150.981C258.23 150.511 257.004 149.834 255.907 148.978L257.463 146.054C257.758 146.355 258.086 146.622 258.442 146.848C258.919 147.158 259.418 147.433 259.935 147.671C260.543 147.951 261.171 148.186 261.815 148.373C262.505 148.577 263.212 148.721 263.927 148.802V142.476C263.807 142.441 263.673 142.399 263.547 142.371C263.418 142.344 263.291 142.309 263.166 142.265C262.211 142.019 261.271 141.718 260.35 141.366C259.625 141.096 258.949 140.709 258.35 140.22C257.835 139.795 257.423 139.259 257.146 138.652C256.85 137.963 256.708 137.217 256.731 136.466C256.712 135.556 256.889 134.652 257.252 133.816C257.59 133.053 258.09 132.372 258.716 131.82C259.364 131.247 260.114 130.801 260.927 130.506C261.833 130.176 262.782 129.978 263.744 129.915V126.83H265.328V129.915C266.586 129.979 267.825 130.247 268.996 130.71C270.049 131.119 271.045 131.66 271.961 132.319L270.44 135.131ZM260.357 135.918C260.332 136.289 260.402 136.66 260.559 136.997C260.717 137.334 260.957 137.625 261.258 137.844C262.098 138.371 263.022 138.752 263.99 138.969V132.959C263.001 132.935 262.032 133.241 261.237 133.83C260.944 134.091 260.713 134.414 260.561 134.775C260.409 135.136 260.339 135.527 260.357 135.918ZM269.208 146.047C269.226 145.645 269.137 145.245 268.949 144.889C268.761 144.533 268.48 144.234 268.137 144.022C267.203 143.468 266.192 143.051 265.138 142.785V148.823C266.188 148.874 267.232 148.631 268.152 148.12C268.494 147.898 268.772 147.589 268.958 147.225C269.143 146.861 269.229 146.455 269.208 146.047Z" fill="#72CBD0"/>
</svg>
