<svg width="315" height="278" viewBox="0 0 315 278" fill="none" xmlns="http://www.w3.org/2000/svg">
<path d="M306.185 153.193C306.185 153.29 238.952 153.374 156.031 153.374C73.11 153.374 5.86328 153.29 5.86328 153.193C5.86328 153.095 73.0891 152.983 156.031 152.983C238.973 152.983 306.185 153.088 306.185 153.193Z" fill="#E0E0E0"/>
<path d="M97.0653 127.811C93.8649 126.916 90.88 125.379 88.2921 123.293C85.7041 121.207 83.5673 118.617 82.0115 115.679C80.4557 112.741 79.5136 109.516 79.2423 106.203C78.971 102.889 79.3763 99.5542 80.4335 96.402C82.0758 91.5074 85.2484 87.1793 86.6041 82.1868C88.1484 76.5231 87.226 70.5168 86.2756 64.7063C85.3252 58.8957 84.3539 52.9244 85.8004 47.2257C87.247 41.527 91.7962 36.192 97.6802 35.7864C103.103 35.4158 108.12 39.4364 110.385 44.3869C112.649 49.3373 112.67 55.015 112.139 60.469C111.608 65.9229 110.58 71.2999 110.902 76.7399C111.559 87.7386 117.715 98.1011 116.995 109.1C116.618 114.827 114.403 118.49 110.608 122.798C107.338 126.511 101.908 128.958 97.0932 127.818" fill="#F0F0F0"/>
<path d="M98.1066 155.171C98.0228 155.171 97.9529 135.313 97.9529 110.826C97.9529 86.3397 98.0228 66.4678 98.1066 66.4678C98.1905 66.4678 98.2534 86.3257 98.2534 110.826C98.2534 135.327 98.1835 155.171 98.1066 155.171Z" fill="#E0E0E0"/>
<path d="M107.953 101.639C108.002 101.702 105.856 103.471 103.152 105.576C100.448 107.68 98.2184 109.351 98.1695 109.281C98.1206 109.212 100.266 107.456 102.97 105.345C105.675 103.233 107.904 101.576 107.953 101.639Z" fill="#E0E0E0"/>
<path d="M98.1134 100.36C97.0504 99.8073 96.0359 99.1664 95.0806 98.4436C94.0742 97.8 93.1187 97.08 92.2224 96.29C93.2862 96.8381 94.3009 97.4767 95.2553 98.1989C96.2662 98.8386 97.2222 99.5613 98.1134 100.36Z" fill="#E0E0E0"/>
<path d="M37.4914 68.8667L25.5208 93.0248L29.0917 93.1577L18.9519 112.358H24.2769L15.968 129.419H62.4181L52.1945 112.358L57.0931 112.149L47.2888 92.9549L50.9156 92.7451L37.4914 68.8667Z" fill="#F0F0F0"/>
<path d="M37.9457 96.8076C38.0435 96.8076 37.9457 109.352 37.7919 124.818C37.6382 140.285 37.3727 152.829 37.2748 152.829C37.177 152.829 37.2748 140.285 37.4286 124.811C37.5823 109.338 37.8409 96.8006 37.9457 96.8076Z" fill="#E0E0E0"/>
<path d="M44.8502 104.037C43.7982 105.144 42.6602 106.166 41.4469 107.093C40.3115 108.12 39.0964 109.055 37.8131 109.89C38.8662 108.784 40.0041 107.762 41.2163 106.834C42.3526 105.808 43.5676 104.873 44.8502 104.037Z" fill="#E0E0E0"/>
<path d="M24.9619 22.2283H59.029C59.029 22.2283 59.029 14.425 55.0039 14.425C53.5626 14.3785 52.1502 14.8362 51.0099 15.7194C49.8696 16.6026 49.0727 17.8559 48.7565 19.2636C48.7565 19.2636 48.7565 4.74778 41.4329 6.84545C34.5077 8.87319 33.746 18.1938 33.746 18.1938C33.746 18.1938 32.4951 13.502 28.7425 16.1451C24.9899 18.7882 24.9619 22.2283 24.9619 22.2283Z" fill="#F0F0F0"/>
<path d="M314.794 267.319C314.794 267.417 244.319 267.501 157.408 267.501C70.4962 267.501 0 267.417 0 267.319C0 267.222 70.4613 267.138 157.408 267.138C244.354 267.138 314.794 267.215 314.794 267.319Z" fill="#263238"/>
<path d="M134.144 58.4477V186.825H278.442V58.4477H262.83L231.23 18.8228L204.577 58.0631L134.144 58.4477Z" fill="#72CBD0"/>
<g opacity="0.5">
<path d="M134.144 58.4477V186.825H278.442V58.4477H262.83L231.23 18.8228L204.577 58.0631L134.144 58.4477Z" fill="white"/>
</g>
<path d="M162.67 11.2574C161.971 12.2083 121.223 60.3078 121.223 60.3078H203.641L231.23 18.823L262.831 58.4479L291.733 58.4129L256.45 10.0757L162.67 11.2574Z" fill="#263238"/>
<path d="M190.049 181.504H155.856V186.832H190.049V181.504Z" fill="#E6E6E6"/>
<path d="M193.606 189.476H147.981V193.608H193.606V189.476Z" fill="#E6E6E6"/>
<path d="M158.128 129.887L158.407 181.217H187.778V129.887H158.128Z" fill="#72CBD0"/>
<g opacity="0.2">
<path d="M158.128 129.887L158.407 181.217H187.778V129.887H158.128Z" fill="black"/>
</g>
<g opacity="0.4">
<path d="M181.195 156.85C181.909 156.85 182.488 156.271 182.488 155.556C182.488 154.842 181.909 154.263 181.195 154.263C180.481 154.263 179.902 154.842 179.902 155.556C179.902 156.271 180.481 156.85 181.195 156.85Z" fill="black"/>
</g>
<path d="M173.054 112.26L145.968 134.6V140.782L173.292 118.574L198.316 139.096V132.643L173.054 112.26Z" fill="#263238"/>
<path d="M187.736 4.62158H181.405V13.3968H187.736V4.62158Z" fill="#72CBD0"/>
<path d="M198.687 0H192.013V13.3971H198.687V0Z" fill="#72CBD0"/>
<g opacity="0.4">
<path d="M187.736 4.62158H181.405V13.3968H187.736V4.62158Z" fill="black"/>
<path d="M198.686 0H192.013V13.3971H198.686V0Z" fill="black"/>
</g>
<path d="M235.968 39.457H228.505V46.9247H235.968V39.457Z" fill="white"/>
<g opacity="0.1">
<path d="M203.641 60.3076H207.617L233.725 21.9553L231.23 18.8228L203.641 60.3076Z" fill="black"/>
</g>
<g opacity="0.1">
<path d="M134.144 60.3081V64.4545L203.641 60.3081H134.144Z" fill="black"/>
</g>
<g opacity="0.1">
<path d="M262.83 58.4478L278.442 63.629V58.4478H262.83Z" fill="black"/>
</g>
<path d="M192.013 184.784H152.271V189.951H192.013V184.784Z" fill="#E6E6E6"/>
<path d="M190.972 184.853C190.972 184.951 182.376 185.035 171.775 185.035C161.174 185.035 152.586 184.951 152.586 184.853C152.586 184.755 161.174 184.671 171.775 184.671C182.376 184.671 190.972 184.748 190.972 184.853Z" fill="#E0E0E0"/>
<path d="M190.972 189.476C190.972 189.573 182.376 189.657 171.775 189.657C161.174 189.657 152.586 189.573 152.586 189.476C152.586 189.378 161.174 189.294 171.775 189.294C182.376 189.294 190.972 189.343 190.972 189.476Z" fill="#E0E0E0"/>
<path d="M188.973 67.4189H155.856V98.8979H188.973V67.4189Z" fill="white"/>
<path d="M170.839 67.4189C170.839 67.4189 161.447 83.4381 156.304 83.578C156.304 83.578 161.07 86.0113 161.433 98.8979H155.842V67.4329L170.839 67.4189Z" fill="#72CBD0"/>
<path d="M173.99 67.4189C173.99 67.4189 183.376 83.4381 188.526 83.578C188.526 83.578 183.753 86.0113 183.396 98.8979H188.987V67.4329L173.99 67.4189Z" fill="#72CBD0"/>
<path d="M172.67 67.1396H171.621V100.716H172.67V67.1396Z" fill="#263238"/>
<path d="M155.367 83.4034V84.4517H188.924V83.4034H155.367Z" fill="#263238"/>
<path d="M190.636 98.8979H153.648V99.6806H190.636V98.8979Z" fill="#263238"/>
<path d="M258.114 67.4189H224.997V98.8979H258.114V67.4189Z" fill="white"/>
<path d="M239.979 67.4189C239.979 67.4189 230.594 83.4381 225.444 83.578C225.444 83.578 230.217 86.0113 230.573 98.8979H224.983V67.4329L239.979 67.4189Z" fill="#72CBD0"/>
<path d="M243.131 67.4189C243.131 67.4189 252.516 83.4381 257.666 83.578C257.666 83.578 252.9 86.0113 252.537 98.8979H258.127V67.4329L243.131 67.4189Z" fill="#72CBD0"/>
<path d="M241.81 67.1396H240.762V100.716H241.81V67.1396Z" fill="#263238"/>
<path d="M224.508 83.4034V84.4517H258.065V83.4034H224.508Z" fill="#263238"/>
<path d="M259.784 98.8979H222.796V99.6806H259.784V98.8979Z" fill="#263238"/>
<path d="M258.114 133.894H224.997V165.373H258.114V133.894Z" fill="white"/>
<path d="M239.979 133.894C239.979 133.894 230.594 149.92 225.444 150.06C225.444 150.06 230.217 152.493 230.573 165.373H224.983V133.908L239.979 133.894Z" fill="#72CBD0"/>
<path d="M243.131 133.894C243.131 133.894 252.516 149.92 257.666 150.06C257.666 150.06 252.9 152.493 252.537 165.373H258.127V133.908L243.131 133.894Z" fill="#72CBD0"/>
<path d="M241.81 133.614H240.762V167.191H241.81V133.614Z" fill="#263238"/>
<path d="M224.508 149.885V150.934H258.065V149.885H224.508Z" fill="#263238"/>
<path d="M259.784 165.373H222.796V166.156H259.784V165.373Z" fill="#263238"/>
<path d="M137.498 161.709V266.817H146.513V168.772H215.102V161.709H137.498Z" fill="#455A64"/>
<path d="M146.513 168.771H143.599V266.816H146.513V168.771Z" fill="#263238"/>
<path d="M215.102 161.709H209.616V168.771H215.102V161.709Z" fill="#263238"/>
<path d="M216.716 173.917H150.538V215.675H216.716V173.917Z" fill="#72CBD0"/>
<path d="M216.716 173.917H150.538V215.675H216.716V173.917Z" fill="#72CBD0"/>
<path d="M216.723 173.917H213.068V215.675H216.723V173.917Z" fill="#72CBD0"/>
<g opacity="0.2">
<path d="M216.723 173.917H213.068V215.675H216.723V173.917Z" fill="black"/>
</g>
<path d="M209.616 212.074C209.616 212.074 209.616 211.85 209.616 211.438C209.616 211.025 209.616 210.403 209.616 209.613C209.616 208.004 209.616 205.662 209.581 202.662C209.581 196.656 209.539 188.028 209.504 177.49L209.651 177.63L154.445 177.672L154.626 177.49C154.626 189.755 154.626 201.446 154.626 212.088L154.459 211.92L194.151 211.997L205.535 212.046H208.575H209.357H209.63H208.61H205.605L194.249 212.095L154.417 212.179H154.249V212.011C154.249 201.369 154.249 189.678 154.249 177.413V177.225H154.438L209.644 177.267H209.784V177.455C209.784 188.042 209.728 196.705 209.714 202.732C209.714 205.718 209.714 208.046 209.672 209.648V211.445C209.623 211.871 209.616 212.074 209.616 212.074Z" fill="#263238"/>
<path d="M163.319 168.771H161.356V173.917H163.319V168.771Z" fill="#72CBD0"/>
<path d="M195.64 168.771H193.676V173.917H195.64V168.771Z" fill="#72CBD0"/>
<path d="M172.404 186.091V188.286H176.8V190.468H172.404V193.88H169.609V183.909H177.422V186.091H172.404Z" fill="#72CBD0"/>
<path opacity="0.2" d="M172.404 186.091V188.286H176.8V190.468H172.404V193.88H169.609V183.909H177.422V186.091H172.404Z" fill="black"/>
<path d="M178.127 188.895C178.127 185.909 180.475 183.714 183.662 183.714C186.848 183.714 189.203 185.909 189.203 188.895C189.203 191.881 186.855 194.083 183.662 194.083C180.468 194.083 178.127 191.888 178.127 188.895ZM186.352 188.895C186.322 188.369 186.139 187.862 185.824 187.439C185.51 187.016 185.079 186.694 184.583 186.513C184.088 186.333 183.551 186.301 183.038 186.422C182.525 186.544 182.059 186.813 181.697 187.197C181.336 187.58 181.094 188.061 181.003 188.581C180.911 189.1 180.974 189.635 181.183 190.119C181.392 190.603 181.738 191.015 182.179 191.305C182.619 191.594 183.135 191.748 183.662 191.748C184.03 191.752 184.395 191.679 184.734 191.535C185.072 191.391 185.378 191.178 185.63 190.91C185.883 190.642 186.078 190.325 186.202 189.978C186.326 189.631 186.377 189.263 186.352 188.895Z" fill="#72CBD0"/>
<path opacity="0.2" d="M178.127 188.895C178.127 185.909 180.475 183.714 183.662 183.714C186.848 183.714 189.203 185.909 189.203 188.895C189.203 191.881 186.855 194.083 183.662 194.083C180.468 194.083 178.127 191.888 178.127 188.895ZM186.352 188.895C186.322 188.369 186.139 187.862 185.824 187.439C185.51 187.016 185.079 186.694 184.583 186.513C184.088 186.333 183.551 186.301 183.038 186.422C182.525 186.544 182.059 186.813 181.697 187.197C181.336 187.58 181.094 188.061 181.003 188.581C180.911 189.1 180.974 189.635 181.183 190.119C181.392 190.603 181.738 191.015 182.179 191.305C182.619 191.594 183.135 191.748 183.662 191.748C184.03 191.752 184.395 191.679 184.734 191.535C185.072 191.391 185.378 191.178 185.63 190.91C185.883 190.642 186.078 190.325 186.202 189.978C186.326 189.631 186.377 189.263 186.352 188.895Z" fill="black"/>
<path d="M195.038 191.23H193.501V193.88H190.706V183.909H195.262C197.98 183.909 199.686 185.308 199.686 187.601C199.712 188.26 199.541 188.913 199.193 189.474C198.846 190.035 198.338 190.478 197.736 190.748L199.888 193.88H196.848L195.038 191.23ZM195.038 186.133H193.473V189.055H195.038C196.205 189.055 196.792 188.51 196.792 187.601C196.792 186.692 196.233 186.133 195.066 186.133H195.038Z" fill="#72CBD0"/>
<path opacity="0.2" d="M195.038 191.23H193.501V193.88H190.706V183.909H195.262C197.98 183.909 199.686 185.308 199.686 187.601C199.712 188.26 199.541 188.913 199.193 189.474C198.846 190.035 198.338 190.478 197.736 190.748L199.888 193.88H196.848L195.038 191.23ZM195.038 186.133H193.473V189.055H195.038C196.205 189.055 196.792 188.51 196.792 187.601C196.792 186.692 196.233 186.133 195.066 186.133H195.038Z" fill="black"/>
<path d="M164.48 207.158L165.451 204.977C166.481 205.635 167.674 205.991 168.896 206.005C170.119 206.005 170.601 205.662 170.601 205.159C170.601 203.501 164.654 204.711 164.654 200.823C164.654 198.956 166.178 197.432 169.287 197.432C170.607 197.411 171.911 197.726 173.075 198.348L172.167 200.544C171.282 200.038 170.285 199.759 169.266 199.733C168.03 199.733 167.582 200.152 167.582 200.677C167.582 202.271 173.508 201.082 173.508 204.935C173.508 206.753 171.985 208.305 168.882 208.305C167.336 208.344 165.81 207.946 164.48 207.158Z" fill="#72CBD0"/>
<path opacity="0.2" d="M164.48 207.158L165.451 204.977C166.481 205.635 167.674 205.991 168.896 206.005C170.119 206.005 170.601 205.662 170.601 205.159C170.601 203.501 164.654 204.711 164.654 200.823C164.654 198.956 166.178 197.432 169.287 197.432C170.607 197.411 171.911 197.726 173.075 198.348L172.167 200.544C171.282 200.038 170.285 199.759 169.266 199.733C168.03 199.733 167.582 200.152 167.582 200.677C167.582 202.271 173.508 201.082 173.508 204.935C173.508 206.753 171.985 208.305 168.882 208.305C167.336 208.344 165.81 207.946 164.48 207.158Z" fill="black"/>
<path d="M181.873 206.068H177.45L176.632 208.103H173.613L178.225 197.614H181.139L185.765 208.103H182.691L181.873 206.068ZM181.006 203.886L179.658 200.53L178.316 203.872L181.006 203.886Z" fill="#72CBD0"/>
<path opacity="0.2" d="M181.873 206.068H177.45L176.632 208.103H173.613L178.225 197.614H181.139L185.765 208.103H182.691L181.873 206.068ZM181.006 203.886L179.658 200.53L178.316 203.872L181.006 203.886Z" fill="black"/>
<path d="M186.604 197.642H189.56V205.753H194.549V208.102H186.604V197.642Z" fill="#72CBD0"/>
<path opacity="0.2" d="M186.604 197.642H189.56V205.753H194.549V208.102H186.604V197.642Z" fill="black"/>
<path d="M204.102 205.816V208.103H195.717V197.614H203.907V199.901H198.638V201.663H203.278V203.872H198.638V205.788L204.102 205.816Z" fill="#72CBD0"/>
<path opacity="0.2" d="M204.102 205.816V208.103H195.717V197.614H203.907V199.901H198.638V201.663H203.278V203.872H198.638V205.788L204.102 205.816Z" fill="black"/>
<path d="M208.316 180.336C208.281 180.336 208.274 180.203 208.197 179.994C208.096 179.71 207.908 179.465 207.659 179.294C207.481 179.167 207.274 179.086 207.057 179.06C206.84 179.033 206.619 179.061 206.415 179.141C206.171 179.234 205.96 179.4 205.811 179.616C205.663 179.832 205.584 180.088 205.584 180.35C205.585 180.612 205.666 180.867 205.814 181.083C205.962 181.299 206.172 181.465 206.415 181.56C206.62 181.636 206.84 181.662 207.056 181.635C207.273 181.609 207.48 181.53 207.659 181.406C207.906 181.233 208.093 180.989 208.197 180.707C208.274 180.497 208.281 180.371 208.316 180.371C208.351 180.371 208.372 180.497 208.316 180.742C208.257 181.092 208.07 181.409 207.792 181.63C207.584 181.799 207.336 181.912 207.072 181.958C206.808 182.005 206.536 181.983 206.283 181.896C205.968 181.783 205.695 181.576 205.502 181.302C205.31 181.029 205.206 180.702 205.206 180.368C205.206 180.033 205.31 179.707 205.502 179.433C205.695 179.16 205.968 178.952 206.283 178.84C206.536 178.752 206.808 178.731 207.072 178.777C207.336 178.824 207.584 178.937 207.792 179.106C208.07 179.327 208.257 179.643 208.316 179.994C208.372 180.203 208.33 180.336 208.316 180.336Z" fill="#263238"/>
<path d="M207.652 179.462C207.722 179.532 207.464 179.923 207.065 180.343C206.667 180.762 206.297 181.041 206.22 180.979C206.143 180.916 206.408 180.517 206.807 180.098C207.205 179.679 207.575 179.392 207.652 179.462Z" fill="#263238"/>
<path d="M207.806 180.881C207.806 180.972 207.268 180.881 206.786 180.448C206.303 180.014 206.087 179.588 206.164 179.532C206.241 179.476 206.576 179.805 207.016 180.168C207.457 180.531 207.848 180.783 207.806 180.881Z" fill="#263238"/>
<path d="M207.778 209.815C207.778 209.815 207.736 209.683 207.666 209.473C207.562 209.19 207.375 208.946 207.128 208.774C206.95 208.647 206.743 208.566 206.526 208.54C206.309 208.513 206.088 208.54 205.884 208.62C205.64 208.713 205.429 208.879 205.28 209.095C205.132 209.311 205.052 209.567 205.053 209.829C205.057 210.085 205.136 210.334 205.28 210.545C205.424 210.757 205.627 210.921 205.863 211.018C206.068 211.094 206.288 211.12 206.504 211.094C206.721 211.067 206.928 210.988 207.107 210.864C207.352 210.689 207.539 210.446 207.645 210.165C207.715 209.955 207.729 209.829 207.757 209.829C207.785 209.829 207.82 209.955 207.757 210.2C207.698 210.549 207.514 210.864 207.24 211.088C207.031 211.256 206.783 211.369 206.519 211.415C206.256 211.462 205.984 211.441 205.731 211.354C205.412 211.244 205.136 211.038 204.941 210.765C204.745 210.491 204.64 210.162 204.64 209.826C204.64 209.489 204.745 209.161 204.941 208.887C205.136 208.613 205.412 208.407 205.731 208.298C205.984 208.211 206.256 208.19 206.519 208.236C206.783 208.283 207.031 208.395 207.24 208.564C207.514 208.787 207.698 209.103 207.757 209.452C207.841 209.683 207.799 209.815 207.778 209.815Z" fill="#263238"/>
<path d="M207.114 208.921C207.191 208.991 206.933 209.382 206.534 209.801C206.136 210.221 205.766 210.5 205.689 210.437C205.612 210.374 205.877 209.976 206.269 209.557C206.66 209.137 207.044 208.872 207.114 208.921Z" fill="#263238"/>
<path d="M207.261 210.36C207.261 210.451 206.723 210.325 206.241 209.927C205.758 209.529 205.542 209.068 205.619 209.012C205.696 208.956 206.031 209.284 206.471 209.648C206.911 210.011 207.317 210.262 207.261 210.36Z" fill="#263238"/>
<path d="M158.84 209.103C158.84 209.103 158.798 208.977 158.721 208.767C158.617 208.484 158.43 208.24 158.183 208.068C158.004 207.944 157.797 207.865 157.58 207.838C157.364 207.812 157.144 207.837 156.939 207.914C156.696 208.01 156.487 208.176 156.339 208.392C156.191 208.607 156.11 208.862 156.108 209.124C156.112 209.384 156.194 209.637 156.343 209.85C156.493 210.063 156.703 210.227 156.946 210.319C157.15 210.399 157.371 210.427 157.588 210.4C157.805 210.373 158.012 210.293 158.19 210.165C158.439 209.995 158.627 209.75 158.728 209.466C158.805 209.256 158.812 209.124 158.847 209.124C158.882 209.124 158.903 209.256 158.847 209.501C158.788 209.852 158.601 210.168 158.323 210.389C158.115 210.558 157.867 210.671 157.603 210.717C157.339 210.764 157.067 210.742 156.814 210.655C156.499 210.542 156.226 210.335 156.033 210.062C155.841 209.788 155.737 209.462 155.737 209.127C155.737 208.792 155.841 208.466 156.033 208.192C156.226 207.919 156.499 207.712 156.814 207.599C157.067 207.512 157.339 207.49 157.603 207.537C157.867 207.583 158.115 207.696 158.323 207.865C158.601 208.086 158.788 208.402 158.847 208.753C158.896 208.977 158.854 209.11 158.84 209.103Z" fill="#263238"/>
<path d="M158.176 208.221C158.246 208.284 157.987 208.682 157.596 209.102C157.205 209.521 156.82 209.801 156.744 209.738C156.667 209.675 156.932 209.269 157.331 208.85C157.729 208.431 158.099 208.165 158.176 208.221Z" fill="#263238"/>
<path d="M158.344 209.654C158.309 209.745 157.806 209.612 157.324 209.221C156.842 208.829 156.625 208.354 156.702 208.305C156.779 208.256 157.114 208.578 157.554 208.934C157.995 209.291 158.344 209.556 158.344 209.654Z" fill="#263238"/>
<path d="M159.099 180.909C159.064 180.909 159.057 180.784 158.98 180.574C158.876 180.291 158.688 180.047 158.442 179.875C158.262 179.751 158.055 179.672 157.839 179.645C157.622 179.618 157.402 179.644 157.198 179.721C156.954 179.816 156.745 179.982 156.597 180.198C156.448 180.413 156.368 180.669 156.366 180.93C156.366 181.193 156.446 181.449 156.594 181.665C156.743 181.881 156.953 182.046 157.198 182.14C157.402 182.22 157.622 182.248 157.84 182.221C158.057 182.194 158.264 182.113 158.442 181.986C158.69 181.816 158.879 181.571 158.98 181.287C159.057 181.077 159.064 180.944 159.099 180.944C159.134 180.944 159.155 181.077 159.099 181.322C159.04 181.672 158.853 181.989 158.575 182.21C158.366 182.379 158.118 182.492 157.854 182.538C157.59 182.585 157.319 182.563 157.065 182.476C156.75 182.363 156.478 182.156 156.285 181.882C156.092 181.609 155.989 181.282 155.989 180.948C155.989 180.613 156.092 180.287 156.285 180.013C156.478 179.74 156.75 179.533 157.065 179.42C157.319 179.332 157.59 179.311 157.854 179.357C158.118 179.404 158.366 179.517 158.575 179.686C158.853 179.907 159.04 180.223 159.099 180.574C159.155 180.784 159.113 180.909 159.099 180.909Z" fill="#263238"/>
<path d="M158.435 180.042C158.505 180.105 158.246 180.504 157.848 180.923C157.45 181.342 157.079 181.622 157.002 181.559C156.926 181.496 157.191 181.091 157.589 180.671C157.988 180.252 158.344 179.973 158.435 180.042Z" fill="#263238"/>
<path d="M158.589 181.462C158.554 181.552 158.051 181.42 157.568 181.028C157.086 180.637 156.87 180.162 156.946 180.113C157.023 180.064 157.359 180.385 157.799 180.742C158.239 181.098 158.631 181.364 158.589 181.462Z" fill="#263238"/>
<path d="M169.602 186.091V188.286H173.997V190.468H169.602V193.88H166.807V183.909H174.626V186.091H169.602Z" fill="#FAFAFA"/>
<path d="M175.325 188.895C175.325 185.909 177.673 183.714 180.86 183.714C184.046 183.714 186.394 185.909 186.394 188.895C186.394 191.881 184.046 194.083 180.86 194.083C177.673 194.083 175.325 191.888 175.325 188.895ZM183.55 188.895C183.52 188.369 183.337 187.862 183.022 187.439C182.708 187.016 182.276 186.694 181.781 186.513C181.286 186.333 180.749 186.301 180.236 186.422C179.723 186.544 179.257 186.813 178.895 187.197C178.533 187.58 178.292 188.061 178.201 188.581C178.109 189.1 178.172 189.635 178.381 190.119C178.59 190.603 178.936 191.015 179.376 191.305C179.817 191.594 180.333 191.748 180.86 191.748C181.228 191.752 181.593 191.679 181.932 191.535C182.27 191.391 182.576 191.178 182.828 190.91C183.081 190.642 183.276 190.325 183.4 189.978C183.524 189.631 183.575 189.263 183.55 188.895Z" fill="#FAFAFA"/>
<path d="M192.236 191.23H190.699V193.88H187.904V183.909H192.46C195.178 183.909 196.89 185.308 196.89 187.601C196.917 188.26 196.746 188.913 196.398 189.474C196.051 190.035 195.543 190.478 194.941 190.748L197.086 193.88H194.067L192.236 191.23ZM192.236 186.133H190.699V189.055H192.264C193.431 189.055 194.011 188.51 194.011 187.601C194.011 186.692 193.431 186.133 192.264 186.133H192.236Z" fill="#FAFAFA"/>
<path d="M161.671 207.158L162.642 204.977C163.675 205.634 164.87 205.99 166.094 206.005C167.317 206.005 167.792 205.662 167.792 205.159C167.792 203.501 161.852 204.711 161.852 200.823C161.852 198.956 163.376 197.432 166.478 197.432C167.8 197.411 169.106 197.726 170.273 198.348L169.357 200.53C168.475 200.025 167.481 199.746 166.464 199.719C165.227 199.719 164.78 200.138 164.78 200.663C164.78 202.257 170.706 201.068 170.706 204.921C170.706 206.739 169.183 208.291 166.073 208.291C164.528 208.333 163.003 207.941 161.671 207.158Z" fill="#FAFAFA"/>
<path d="M179.064 206.068H174.647L173.823 208.103H170.811L175.423 197.614H178.337L182.963 208.103H179.888L179.064 206.068ZM178.197 203.886L176.856 200.53L175.514 203.872L178.197 203.886Z" fill="#FAFAFA"/>
<path d="M183.802 197.642H186.751V205.753H191.74V208.102H183.802V197.642Z" fill="#FAFAFA"/>
<path d="M201.293 205.816V208.103H192.907V197.614H201.105V199.901H195.835V201.663H200.476V203.872H195.835V205.788L201.293 205.816Z" fill="#FAFAFA"/>
<path d="M241.831 251.335C237.638 249.077 235.954 245.888 234.962 241.225C234.485 238.883 234.514 236.467 235.048 234.138C235.582 231.809 236.608 229.622 238.058 227.723C240.497 224.583 244.074 222.29 245.745 218.689C247.52 214.843 246.877 209.955 249.581 206.704C251.44 204.466 254.431 203.578 256.814 201.907C258.75 200.509 260.259 198.663 261.992 197.013C263.725 195.363 265.843 193.964 268.211 193.866C271.789 193.726 274.948 196.894 275.528 200.425C276.108 203.956 274.515 207.585 272.069 210.214C270.301 212.109 268.023 213.668 266.996 216.053C265.06 220.535 268.26 226.072 266.136 230.464C264.585 233.673 260.448 235.596 260.259 239.155C260.182 240.462 260.699 241.728 260.839 243.029C261.279 247.105 257.855 250.825 253.935 252.007C250.014 253.188 245.78 252.405 241.831 251.307" fill="#72CBD0"/>
<path d="M262.18 209.088C262.078 209.277 261.953 209.453 261.81 209.613L260.671 211.06C260.168 211.676 259.56 212.459 258.91 213.368C258.26 214.277 257.457 215.304 256.709 216.514C256.317 217.108 255.905 217.731 255.486 218.381C255.067 219.031 254.675 219.779 254.242 220.479C253.368 221.877 252.572 223.506 251.698 225.17C248.04 232.484 245.543 240.323 244.298 248.406C244.046 250.273 243.774 252.042 243.669 253.713C243.606 254.545 243.515 255.349 243.48 256.125C243.445 256.901 243.431 257.649 243.403 258.363C243.32 259.761 243.403 261.076 243.403 262.201C243.403 263.327 243.452 264.299 243.515 265.103C243.578 265.907 243.585 266.502 243.613 266.942C243.631 267.156 243.631 267.371 243.613 267.585C243.557 267.377 243.524 267.164 243.515 266.949C243.466 266.481 243.403 265.872 243.326 265.117C243.25 264.362 243.152 263.348 243.131 262.215C243.11 261.083 243.012 259.782 243.068 258.356C243.068 257.656 243.103 256.887 243.117 256.111C243.131 255.335 243.222 254.517 243.278 253.678C243.368 252 243.627 250.217 243.865 248.336C245.068 240.194 247.574 232.299 251.286 224.954C252.173 223.283 252.991 221.681 253.886 220.255C254.326 219.556 254.724 218.857 255.157 218.157L256.415 216.297C257.191 215.095 258.009 214.088 258.686 213.179C259.364 212.27 259.986 211.515 260.517 210.913L261.726 209.515C261.861 209.356 262.014 209.213 262.18 209.088Z" fill="#263238"/>
<path d="M223.46 236.043C224.298 236.112 225.114 236.349 225.86 236.739C226.605 237.129 227.265 237.665 227.799 238.315C228.861 239.627 229.607 241.165 229.979 242.811C230.79 245.958 230.245 249.657 229.323 252.768C225.933 251.531 223.872 247.874 222.942 245.972C221.468 242.944 220.65 236.588 223.46 236.043Z" fill="#72CBD0"/>
<path d="M234.179 256.621C233.674 255.827 233.389 254.912 233.354 253.971C233.318 253.03 233.533 252.096 233.977 251.265C234.429 250.441 235.042 249.716 235.779 249.132C236.516 248.549 237.362 248.118 238.267 247.867C238.672 247.707 239.106 247.636 239.541 247.66C239.975 247.685 240.399 247.803 240.783 248.007C241.108 248.258 241.359 248.591 241.51 248.973C241.661 249.354 241.707 249.769 241.643 250.174C241.509 250.98 241.164 251.735 240.643 252.363C238.973 254.587 236.947 256.433 234.179 256.642" fill="#72CBD0"/>
<g opacity="0.2">
<path d="M223.46 236.043C224.298 236.112 225.114 236.349 225.86 236.739C226.605 237.129 227.265 237.665 227.799 238.315C228.861 239.627 229.607 241.165 229.979 242.811C230.79 245.958 230.245 249.657 229.323 252.768C225.933 251.531 223.872 247.874 222.942 245.972C221.468 242.944 220.65 236.588 223.46 236.043Z" fill="black"/>
</g>
<g opacity="0.2">
<path d="M234.179 256.621C233.674 255.827 233.389 254.912 233.354 253.971C233.318 253.03 233.533 252.096 233.977 251.265C234.429 250.441 235.042 249.716 235.779 249.132C236.516 248.549 237.362 248.118 238.267 247.867C238.672 247.707 239.106 247.636 239.541 247.66C239.975 247.685 240.399 247.803 240.783 248.007C241.108 248.258 241.359 248.591 241.51 248.973C241.661 249.354 241.707 249.769 241.643 250.174C241.509 250.98 241.164 251.735 240.643 252.363C238.973 254.587 236.947 256.433 234.179 256.642" fill="black"/>
</g>
<g opacity="0.2">
<path d="M230.65 259.705C229.532 258.067 228.039 256.719 226.297 255.773C224.554 254.827 222.611 254.31 220.629 254.265C219.623 254.265 218.428 254.489 218.03 255.419C217.631 256.349 218.295 257.377 219.022 258.076C220.566 259.509 222.499 260.453 224.578 260.789C226.658 261.125 228.79 260.838 230.706 259.964" fill="black"/>
</g>
<path d="M230.65 259.705C229.532 258.067 228.039 256.719 226.297 255.773C224.554 254.827 222.611 254.31 220.629 254.265C219.623 254.265 218.428 254.489 218.03 255.419C217.631 256.349 218.295 257.377 219.022 258.076C220.566 259.509 222.499 260.453 224.578 260.789C226.658 261.125 228.79 260.838 230.706 259.964" fill="#72CBD0"/>
<path d="M234.207 267.411C234.118 267.201 234.062 266.98 234.04 266.753C233.956 266.32 233.844 265.698 233.732 264.921C233.406 262.891 233.354 260.826 233.578 258.782C233.825 256.715 234.632 254.754 235.912 253.112C236.299 252.62 236.748 252.181 237.247 251.804C237.422 251.655 237.617 251.532 237.827 251.44C237.209 252.002 236.636 252.613 236.115 253.265C234.941 254.919 234.203 256.844 233.97 258.859C233.759 260.873 233.777 262.905 234.026 264.914C234.133 265.742 234.194 266.576 234.207 267.411Z" fill="#263238"/>
<path d="M224.515 240.833C224.705 241.156 224.871 241.492 225.011 241.84C225.318 242.497 225.709 243.462 226.241 244.637C227.254 247.021 228.603 250.335 230 254.027C231.398 257.719 232.579 261.103 233.389 263.565C233.802 264.788 234.088 265.788 234.326 266.48C234.452 266.836 234.55 267.201 234.619 267.571C234.446 267.238 234.303 266.889 234.193 266.529C233.928 265.788 233.571 264.816 233.145 263.649C232.271 261.208 231.048 257.852 229.651 254.16C228.253 250.468 226.946 247.168 225.996 244.735L224.878 241.882C224.727 241.543 224.606 241.192 224.515 240.833Z" fill="#263238"/>
<path d="M222.362 256.733C222.578 256.703 222.797 256.703 223.012 256.733C223.268 256.744 223.523 256.775 223.774 256.824C224.111 256.874 224.444 256.944 224.773 257.034C225.63 257.253 226.463 257.556 227.261 257.936C228.234 258.419 229.152 259.005 230 259.684C230.839 260.374 231.598 261.155 232.264 262.013C232.808 262.712 233.276 263.467 233.662 264.264C233.816 264.565 233.952 264.876 234.067 265.194C234.166 265.421 234.25 265.655 234.319 265.893C234.398 266.099 234.445 266.316 234.459 266.536C234.396 266.536 234.137 265.662 233.438 264.355C233.035 263.594 232.567 262.869 232.041 262.187C231.369 261.367 230.62 260.613 229.805 259.936C228.976 259.278 228.087 258.699 227.149 258.209C226.374 257.822 225.567 257.501 224.738 257.251C223.278 256.873 222.355 256.803 222.362 256.733Z" fill="#263238"/>
<path d="M64.0044 265.167L63.8297 266.712C63.8297 266.712 59.7557 276.277 60.5104 276.997C61.0239 277.482 61.672 277.799 62.3693 277.907C63.0666 278.016 63.7804 277.911 64.4167 277.606C66.2197 276.858 73.0121 268.173 73.0121 268.173L73.2847 266.901L64.0044 265.167Z" fill="#72CBD0"/>
<path d="M60.7827 274.983C60.7827 274.983 62.9491 273.585 64.759 276.381C64.759 276.381 65.7094 275.85 68.1342 273.067C70.5591 270.284 72.8932 267.578 72.8932 267.578C72.8932 267.578 73.1447 267.306 73.0958 267.578C73.0469 267.851 72.991 268.242 72.991 268.242L68.3509 273.836C68.3509 273.836 65.5556 277.116 64.7869 277.465C63.9951 277.951 63.0468 278.114 62.1384 277.92C61.4426 277.782 60.8212 277.394 60.3914 276.829C60.3704 276.668 60.7827 274.983 60.7827 274.983Z" fill="#F0F0F0"/>
<path d="M65.2274 277.319C64.8575 276.48 64.2371 275.776 63.4513 275.304C62.6655 274.832 61.7529 274.615 60.8389 274.683C61.0995 274.584 61.379 274.546 61.6565 274.571C62.3302 274.582 62.9887 274.773 63.5642 275.123C64.1426 275.461 64.624 275.943 64.9619 276.522C65.1162 276.761 65.2076 277.035 65.2274 277.319Z" fill="#263238"/>
<path d="M73.2845 267.131C73.1566 267.321 73.0165 267.504 72.8653 267.676L71.6913 269.117L67.6451 273.808C66.9272 274.699 66.1346 275.527 65.2762 276.284C64.5498 276.904 63.6433 277.274 62.6905 277.34C62.0436 277.361 61.4098 277.153 60.9016 276.752C60.7153 276.61 60.5626 276.429 60.4543 276.221C60.6106 276.387 60.7788 276.541 60.9575 276.682C61.4584 277.043 62.0676 277.22 62.6836 277.186C63.5972 277.1 64.4606 276.728 65.1504 276.123C65.9936 275.369 66.7742 274.549 67.4844 273.669L71.5725 269.012L72.8303 267.613C72.9665 267.439 73.1185 267.277 73.2845 267.131Z" fill="#263238"/>
<path d="M65.3462 272.151C64.9597 272.056 64.5882 271.908 64.2421 271.711C63.8692 271.574 63.5129 271.396 63.1799 271.18C63.5847 271.198 63.9796 271.31 64.333 271.508C64.7151 271.643 65.0617 271.863 65.3462 272.151Z" fill="#263238"/>
<path d="M66.3037 270.711C65.8581 270.665 65.4194 270.566 64.997 270.417C64.5561 270.34 64.1265 270.209 63.7181 270.026C64.6246 270.041 65.5132 270.281 66.3037 270.725V270.711Z" fill="#263238"/>
<path d="M67.205 269.466C67.1631 269.515 66.611 269.18 65.8493 268.949C65.0876 268.719 64.4517 268.67 64.4517 268.607C64.952 268.54 65.461 268.582 65.9435 268.73C66.4261 268.878 66.8707 269.13 67.2469 269.466H67.205Z" fill="#263238"/>
<path d="M67.6242 268.081C67.5893 268.137 67.0861 267.886 66.4223 267.711C66.0098 267.637 65.6016 267.542 65.1993 267.425C65.627 267.363 66.0627 267.389 66.4797 267.502C66.8968 267.615 67.2863 267.812 67.6242 268.081Z" fill="#455A64"/>
<path d="M67.1629 266.907C66.8928 266.853 66.6377 266.741 66.4152 266.579C66.1657 266.427 65.9317 266.252 65.7164 266.054C65.5976 265.942 65.4718 265.817 65.346 265.684C65.2755 265.613 65.2144 265.533 65.1643 265.446C65.1304 265.39 65.1124 265.326 65.1124 265.261C65.1124 265.195 65.1304 265.131 65.1643 265.075C65.2367 264.987 65.3344 264.923 65.4444 264.891C65.5543 264.86 65.6712 264.863 65.7793 264.901C65.9622 264.942 66.1339 265.024 66.2824 265.138C66.5234 265.33 66.7071 265.584 66.8135 265.873C66.933 266.123 66.9813 266.401 66.9533 266.677C66.9533 266.677 66.8764 266.369 66.6738 265.935C66.5574 265.685 66.3824 265.467 66.1636 265.299C65.94 265.131 65.5137 264.992 65.346 265.194C65.2831 265.271 65.346 265.411 65.4997 265.544C65.6091 265.672 65.7257 265.793 65.8492 265.908C66.0561 266.103 66.2755 266.286 66.506 266.453C66.8974 266.74 67.1769 266.879 67.1629 266.907Z" fill="#455A64"/>
<path d="M67.0161 266.774C67.021 266.489 67.111 266.211 67.2747 265.977C67.4294 265.704 67.6387 265.466 67.8896 265.278C68.0376 265.166 68.1997 265.075 68.3718 265.005C68.4709 264.963 68.579 264.946 68.6863 264.956C68.7544 264.96 68.82 264.983 68.8756 265.023C68.9312 265.063 68.9746 265.117 69.0007 265.18C69.0275 265.288 69.0281 265.401 69.0026 265.509C68.9771 265.617 68.9261 265.718 68.854 265.802C68.7584 265.961 68.6408 266.104 68.5046 266.229C68.2765 266.44 68.0044 266.598 67.7079 266.69C67.4449 266.802 67.1519 266.822 66.8763 266.746C67.1411 266.695 67.4025 266.627 67.659 266.544C67.9191 266.436 68.1563 266.279 68.3578 266.082C68.477 265.966 68.5804 265.834 68.6653 265.691C68.7141 265.63 68.7504 265.561 68.772 265.487C68.7937 265.412 68.8001 265.334 68.7911 265.257C68.7562 265.152 68.5884 265.145 68.4347 265.208C68.2816 265.27 68.1363 265.35 68.0014 265.446C67.7643 265.605 67.5583 265.807 67.3935 266.04C67.1209 266.467 67.058 266.781 67.0161 266.774Z" fill="#455A64"/>
<path d="M71.6425 266.67C71.3822 266.662 71.1244 266.722 70.8947 266.845C70.3655 267.187 69.9629 267.693 69.7487 268.285C69.5345 268.88 69.5077 269.527 69.6718 270.138C69.7976 270.607 69.9653 270.872 69.9374 270.893C69.7393 270.702 69.5968 270.46 69.5251 270.194C69.2932 269.557 69.2932 268.859 69.5251 268.222C69.7545 267.582 70.2092 267.048 70.8039 266.719C71.321 266.467 71.6914 266.649 71.6425 266.67Z" fill="#263238"/>
<path d="M69.0149 270.697C68.8224 271.086 68.5674 271.44 68.2602 271.746C68.0057 272.097 67.6938 272.402 67.3378 272.648C67.5303 272.26 67.7853 271.905 68.0925 271.599C68.347 271.249 68.6589 270.944 69.0149 270.697Z" fill="#263238"/>
<path d="M69.9583 269.83C70.0212 269.83 70.091 269.956 70.1539 270.131C70.2168 270.305 70.2448 270.459 70.1539 270.487C70.0631 270.515 69.9792 270.396 69.9163 270.2C69.8535 270.005 69.9024 269.844 69.9583 269.83Z" fill="#263238"/>
<path d="M70.0563 268.446C70.1122 268.446 70.1052 268.628 70.0563 268.809C70.0073 268.991 69.9654 269.138 69.9025 269.131C69.8396 269.124 69.7977 268.963 69.8396 268.767C69.8816 268.572 70.0004 268.425 70.0563 268.446Z" fill="#263238"/>
<path d="M70.8668 267.327C70.9017 267.376 70.8109 267.509 70.6851 267.634C70.5593 267.76 70.4265 267.865 70.3776 267.83C70.3287 267.795 70.3776 267.634 70.5244 267.488C70.6711 267.341 70.8248 267.278 70.8668 267.327Z" fill="#455A64"/>
<path d="M72.1385 266.788C72.1385 266.851 71.9987 266.914 71.824 266.963C71.6493 267.012 71.4886 267.033 71.4676 266.963C71.4466 266.893 71.5724 266.795 71.7681 266.74C71.9638 266.684 72.1315 266.733 72.1385 266.788Z" fill="#455A64"/>
<path d="M86.4153 268.621L87.8129 262.223L75.8562 259.573L73.7598 268.9L74.4935 269.117C77.75 270.033 91.1183 273.543 93.4733 273.361C96.0659 273.166 86.4153 268.621 86.4153 268.621Z" fill="#72CBD0"/>
<path d="M78.0784 269.753C78.1317 268.705 77.7901 267.674 77.1211 266.865C76.4721 266.059 75.5445 265.525 74.5215 265.369L73.7877 268.732L78.0784 269.753Z" fill="#72CBD0"/>
<path d="M91.0903 271.019C91.0903 271.019 94.4236 272.837 93.8856 273.326C93.3475 273.816 79.6647 270.774 73.7598 268.9L73.8366 268.642L89.7276 272.32C89.7276 272.32 90.3845 270.893 91.0903 271.019Z" fill="#F0F0F0"/>
<path d="M73.62 268.593C73.6824 268.623 73.748 268.647 73.8157 268.663L74.4027 268.824L76.555 269.404C78.3719 269.879 80.8946 270.502 83.6969 271.131C86.4991 271.76 89.0428 272.264 90.8946 272.613L93.0889 273.005L93.6829 273.103H93.8926C93.8272 273.078 93.7592 273.062 93.6899 273.054L93.0959 272.928L90.9156 272.487C89.0707 272.117 86.5271 271.585 83.7318 270.963C80.9366 270.341 78.4069 269.753 76.583 269.299L74.4236 268.768L73.8296 268.628L73.62 268.593Z" fill="#263238"/>
<path d="M89.6439 272.507C89.8203 272.168 90.0336 271.849 90.2798 271.557C90.564 271.302 90.8757 271.079 91.2093 270.893C90.8063 270.947 90.4378 271.149 90.175 271.459C89.8758 271.732 89.6869 272.105 89.6439 272.507Z" fill="#263238"/>
<path d="M86.5202 269.927C86.5202 269.962 86.7648 269.795 86.9954 269.557C87.226 269.319 87.4007 269.103 87.3728 269.075C87.3448 269.047 87.1282 269.215 86.8906 269.452C86.653 269.69 86.4923 269.899 86.5202 269.927Z" fill="#263238"/>
<path d="M85.6677 269.201C85.6677 269.235 85.9053 269.152 86.1569 269.019C86.4085 268.886 86.5832 268.732 86.5692 268.697C86.5552 268.662 86.3316 268.746 86.08 268.886C85.8284 269.026 85.6677 269.166 85.6677 269.201Z" fill="#263238"/>
<path d="M85.3041 267.935C85.3041 267.977 85.5626 268.075 85.9121 268.159C86.1158 268.231 86.3334 268.255 86.548 268.229C86.3622 268.116 86.1553 268.042 85.94 268.012C85.7361 267.941 85.5191 267.914 85.3041 267.935Z" fill="#263238"/>
<path d="M85.2692 267.096C85.4437 267.279 85.6708 267.404 85.9191 267.453C86.1528 267.553 86.4126 267.575 86.6598 267.515C86.4346 267.424 86.2003 267.356 85.961 267.313C85.7367 267.222 85.5053 267.149 85.2692 267.096Z" fill="#263238"/>
<path d="M87.1561 268.977C87.4006 269.077 87.6608 269.134 87.9248 269.144C88.2108 269.169 88.4984 269.169 88.7844 269.144C88.957 269.135 89.1281 269.107 89.2945 269.061C89.3981 269.025 89.4851 268.953 89.5391 268.858C89.5632 268.804 89.5714 268.745 89.5628 268.687C89.5541 268.628 89.5289 268.574 89.4902 268.529C89.2307 268.318 88.9061 268.202 88.5712 268.202C88.2363 268.202 87.9117 268.318 87.6523 268.529C87.5015 268.657 87.3779 268.814 87.2889 268.991C87.2522 269.052 87.2307 269.122 87.226 269.193C87.3545 268.971 87.5227 268.775 87.7222 268.613C87.9393 268.458 88.1964 268.368 88.4629 268.355C88.6233 268.336 88.7858 268.35 88.9407 268.396C89.0955 268.441 89.2396 268.518 89.3644 268.62C89.4692 268.739 89.3644 268.872 89.2316 268.921C89.0796 268.969 88.9225 269 88.7634 269.012C88.4842 269.031 88.204 269.031 87.9248 269.012C87.4566 269.054 87.1631 268.956 87.1561 268.977Z" fill="#263238"/>
<path d="M87.3446 269.053C87.474 268.911 87.5483 268.728 87.5542 268.536C87.5746 268.329 87.5459 268.121 87.4703 267.928C87.4292 267.8 87.3573 267.685 87.261 267.593C87.1647 267.5 87.0469 267.433 86.9183 267.397C86.8779 267.396 86.8377 267.403 86.8001 267.417C86.7624 267.432 86.728 267.454 86.6988 267.482C86.6696 267.51 86.6462 267.543 86.6299 267.58C86.6136 267.617 86.6047 267.657 86.6038 267.697C86.5905 267.825 86.6072 267.954 86.6527 268.074C86.7164 268.266 86.8033 268.449 86.9113 268.619C87.0005 268.782 87.1276 268.921 87.2817 269.025C87.2817 269.025 87.1629 268.85 87.0021 268.564C86.913 268.394 86.8405 268.216 86.7855 268.032C86.7156 267.844 86.7086 267.536 86.9113 267.543C87.1139 267.55 87.2607 267.802 87.3446 267.984C87.4199 268.155 87.4557 268.341 87.4494 268.529C87.4313 268.706 87.3962 268.882 87.3446 269.053Z" fill="#263238"/>
<path d="M74.5914 265.376C74.5914 265.376 74.9408 265.418 75.4649 265.6C76.1518 265.836 76.7581 266.261 77.2143 266.826C77.6705 267.391 77.9579 268.074 78.0436 268.795C78.1065 269.348 78.0436 269.697 78.0436 269.697C78.0727 269.621 78.0915 269.541 78.0995 269.46C78.1267 269.227 78.1267 268.993 78.0995 268.76C78.042 268.011 77.7588 267.296 77.2873 266.711C76.8157 266.125 76.1779 265.696 75.458 265.481C75.2419 265.414 75.0194 265.369 74.7941 265.348C74.6753 265.362 74.5914 265.362 74.5914 265.376Z" fill="#263238"/>
<path d="M76.9325 260.663C76.6734 261.462 76.4564 262.274 76.2826 263.096C76.0679 263.909 75.8999 264.733 75.7794 265.565C76.0447 264.767 76.2617 263.955 76.4293 263.131C76.6495 262.32 76.8176 261.496 76.9325 260.663Z" fill="#455A64"/>
<path d="M79.8464 268.942C80.9541 269.417 82.1371 269.691 83.3405 269.753C83.3405 269.711 82.5578 269.585 81.6005 269.362C80.6431 269.138 79.8604 268.9 79.8464 268.942Z" fill="#263238"/>
<path d="M77.5055 268.418C77.4636 268.418 77.5055 268.592 77.5684 268.795C77.6313 268.998 77.6173 269.158 77.6593 269.165C77.7012 269.172 77.7641 268.991 77.7152 268.76C77.6662 268.529 77.5335 268.39 77.5055 268.418Z" fill="#263238"/>
<path d="M76.8626 267.117C76.8277 267.117 76.8626 267.285 76.9744 267.438C77.0862 267.592 77.1771 267.697 77.212 267.676C77.247 267.655 77.212 267.508 77.1002 267.355C76.9884 267.201 76.8975 267.096 76.8626 267.117Z" fill="#455A64"/>
<path d="M75.7096 266.334C75.7096 266.376 75.8703 266.411 76.0311 266.516C76.1918 266.62 76.3036 266.739 76.3385 266.718C76.3735 266.697 76.3385 266.509 76.1079 266.39C75.8773 266.271 75.7096 266.299 75.7096 266.334Z" fill="#455A64"/>
<path d="M74.8639 265.9C74.8639 265.935 74.8988 266.012 74.9897 266.068C75.0805 266.124 75.1714 266.152 75.1923 266.117C75.2133 266.082 75.1923 266.005 75.0735 265.949C74.9547 265.893 74.8918 265.865 74.8639 265.9Z" fill="#455A64"/>
<path d="M92.1106 160.395L77.9806 155.389L58.4838 158.927L59.0428 268.229L77.5474 267.984C77.5474 267.984 77.5474 266.712 77.5054 264.488L88.358 267.46C88.358 267.46 98.931 231.716 102.537 217.046C105.521 204.796 92.1106 160.395 92.1106 160.395ZM77.2818 246.679C76.9953 220.235 76.618 177.953 77.0023 172.45C77.0023 172.45 87.3657 209.355 87.4845 212.48C87.5334 214.361 81.7892 232.632 77.2818 246.679Z" fill="#263238"/>
<path d="M77.4637 245.658C77.5615 245.658 77.6454 250.552 77.6454 256.601C77.6454 262.649 77.5685 267.55 77.4707 267.55C77.3728 267.55 77.289 262.656 77.282 256.601C77.275 250.545 77.3658 245.658 77.4637 245.658Z" fill="#455A64"/>
<path d="M81.4746 265.39C81.4746 265.39 81.4746 265.306 81.5235 265.138C81.5724 264.97 81.6214 264.712 81.6982 264.439C81.859 263.775 82.0896 262.831 82.397 261.642C83.019 259.188 83.9065 255.671 85.0106 251.335C87.2538 242.616 90.3425 230.611 93.7597 217.353C94.4585 214.675 95.1574 212.053 95.7863 209.543V209.62C93.5151 198.041 91.244 187.909 89.4481 180.686L87.3516 172.198C87.107 171.219 86.9184 170.449 86.7786 169.911C86.7227 169.659 86.6738 169.464 86.6388 169.317C86.6308 169.247 86.6308 169.177 86.6388 169.107C86.6678 169.17 86.6912 169.236 86.7087 169.303L86.8764 169.89C87.0302 170.428 87.2398 171.191 87.5124 172.163C88.0504 174.141 88.8191 177.022 89.7346 180.63C91.5934 187.839 93.9274 197.971 96.1916 209.55V209.62L94.172 217.43C90.678 230.68 87.5822 242.672 85.3111 251.384L82.5857 261.663C82.2643 262.859 82.0057 263.796 81.831 264.46C81.7402 264.768 81.6773 265.005 81.6214 265.159C81.5836 265.243 81.5342 265.32 81.4746 265.39Z" fill="#455A64"/>
<path d="M66.8348 267.32C66.7369 267.32 66.6531 245.322 66.6531 218.192C66.6531 191.062 66.7369 169.065 66.8348 169.065C66.9326 169.065 67.0165 191.055 67.0165 218.192C67.0165 245.329 66.9396 267.32 66.8348 267.32Z" fill="#455A64"/>
<path d="M71.9709 100.926L83.1519 101.478C83.2707 100.178 83.3685 95.1434 83.3685 95.1434C83.3685 95.1434 88.0226 94.598 88.2602 89.9622C88.4978 85.3263 88.0855 74.6632 88.0855 74.6632C85.4989 73.425 82.6282 72.9017 79.7714 73.1476C76.9145 73.3935 74.1754 74.3996 71.8381 76.0617L71.1393 76.5651L71.9709 100.926Z" fill="#E6BBAC"/>
<path d="M85.7515 82.5844C85.6317 82.4552 85.5651 82.2854 85.5651 82.1092C85.5651 81.933 85.6317 81.7632 85.7515 81.634C85.8039 81.5403 85.8772 81.46 85.9657 81.3992C86.0541 81.3384 86.1554 81.2988 86.2617 81.2835C86.3679 81.2682 86.4762 81.2776 86.5783 81.3109C86.6803 81.3442 86.7733 81.4006 86.85 81.4756C86.9268 81.5507 86.9852 81.6424 87.0207 81.7437C87.0563 81.845 87.068 81.9531 87.0551 82.0597C87.0421 82.1662 87.0047 82.2683 86.9459 82.3581C86.8871 82.4479 86.8084 82.5229 86.7159 82.5774C86.5868 82.7022 86.4146 82.7726 86.2351 82.7739C86.0555 82.7752 85.8824 82.7074 85.7515 82.5844Z" fill="#263238"/>
<path d="M87.89 81.5712C87.8131 81.6481 87.3729 81.2847 86.7369 81.2568C86.101 81.2288 85.6258 81.5433 85.556 81.4525C85.4861 81.3616 85.5979 81.2778 85.8075 81.131C86.0874 80.9429 86.4213 80.8521 86.7579 80.8724C87.0934 80.8839 87.4156 81.0068 87.6734 81.2218C87.862 81.3896 87.9249 81.5363 87.89 81.5712Z" fill="#263238"/>
<path d="M79.8464 81.8509C79.9666 81.9239 80.062 82.0314 80.1201 82.1593C80.1782 82.2873 80.1964 82.4299 80.1723 82.5684C80.1481 82.7068 80.0828 82.8348 79.9848 82.9356C79.8867 83.0363 79.7606 83.1052 79.6229 83.1332C79.4851 83.1611 79.3421 83.1469 79.2126 83.0923C79.083 83.0378 78.9729 82.9454 78.8967 82.8273C78.8205 82.7092 78.7816 82.5709 78.7853 82.4303C78.7889 82.2898 78.8348 82.1536 78.917 82.0396C79.0198 81.897 79.1726 81.7985 79.3448 81.7635C79.5171 81.7285 79.6962 81.7597 79.8464 81.8509Z" fill="#263238"/>
<path d="M80.9435 81.8717C80.8666 81.9485 80.4263 81.5852 79.7904 81.5572C79.1545 81.5293 78.6723 81.8437 78.6094 81.7599C78.5465 81.676 78.6514 81.5782 78.861 81.4314C79.1402 81.2467 79.471 81.1559 79.8053 81.1723C80.1396 81.1886 80.46 81.3112 80.7199 81.5223C80.9155 81.662 80.9784 81.8437 80.9435 81.8717Z" fill="#263238"/>
<path d="M83.3054 87.2561C83.6366 87.1345 83.9869 87.0729 84.3397 87.0743C84.5074 87.0743 84.6401 87.0323 84.6611 86.9414C84.6673 86.7743 84.6313 86.6084 84.5563 86.459C84.4095 86.0324 84.2558 85.5989 84.102 85.1444C83.6638 84.0313 83.3407 82.8762 83.1377 81.6973C83.6827 82.7605 84.1204 83.8755 84.4445 85.0256C84.5912 85.487 84.738 85.9206 84.8777 86.3541C84.9746 86.574 84.9967 86.8196 84.9406 87.0533C84.9143 87.1163 84.8733 87.172 84.821 87.2158C84.7687 87.2596 84.7067 87.2902 84.6401 87.305C84.545 87.3176 84.4487 87.3176 84.3536 87.305C84.004 87.3489 83.6494 87.3324 83.3054 87.2561Z" fill="#263238"/>
<path d="M81.2022 87.8643C80.5523 87.4448 82.9982 88.9061 84.2979 88.8921C84.0697 89.2171 83.7385 89.4554 83.358 89.5683C82.9774 89.6813 82.5699 89.6623 82.2015 89.5145C80.8248 88.9551 81.2022 87.8643 81.2022 87.8643Z" fill="white"/>
<path d="M83.3894 95.0806C81.2494 95.0387 79.1699 94.3622 77.4146 93.1367C77.4146 93.1367 78.7213 96.5209 83.3545 96.2762L83.3894 95.0806Z" fill="#D88876"/>
<path d="M72.0128 81.6627C71.908 81.6627 68.5676 81.2711 68.9799 85.2007C69.3922 89.1304 73.2147 87.4173 73.2147 87.2984C73.2147 87.1795 72.0128 81.6627 72.0128 81.6627Z" fill="#E6BBAC"/>
<path d="M71.8662 86.0746C71.8662 86.0746 71.8033 86.1305 71.6915 86.2005C71.5356 86.2855 71.3532 86.308 71.1814 86.2634C70.9115 86.1274 70.6822 85.9227 70.5165 85.6698C70.3509 85.417 70.2548 85.1249 70.238 84.823C70.1957 84.4871 70.2267 84.1459 70.3288 83.8231C70.354 83.6967 70.409 83.578 70.4893 83.4771C70.5695 83.3762 70.6726 83.2958 70.79 83.2428C70.866 83.2134 70.9499 83.212 71.0267 83.2389C71.1035 83.2658 71.1683 83.3192 71.2093 83.3896C71.2792 83.4945 71.2582 83.5784 71.2792 83.5784C71.3002 83.5784 71.3561 83.5085 71.2792 83.3476C71.2491 83.253 71.1874 83.1715 71.1045 83.1169C70.9861 83.0488 70.8469 83.0264 70.7132 83.054C70.5538 83.1047 70.4103 83.1957 70.2965 83.3182C70.1826 83.4407 70.1023 83.5905 70.0633 83.7532C69.9316 84.1105 69.8884 84.4943 69.9375 84.8719C69.9556 85.2235 70.0765 85.5621 70.2852 85.8455C70.4939 86.1289 70.7812 86.3447 71.1115 86.4662C71.22 86.4863 71.3316 86.4816 71.4381 86.4526C71.5446 86.4235 71.6431 86.3708 71.7264 86.2984C71.8662 86.1725 71.8802 86.0816 71.8662 86.0746Z" fill="#D88876"/>
<path d="M87.4427 74.9499C88.0051 74.7694 88.4915 74.407 88.8255 73.9197C89.1594 73.4324 89.322 72.8478 89.2876 72.2579C89.2314 71.6696 89.0165 71.1076 88.6656 70.6322C88.3148 70.1568 87.8414 69.7857 87.296 69.5589C86.7481 69.3385 86.1598 69.2364 85.5697 69.2593C84.9796 69.2822 84.401 69.4296 83.8718 69.6917C83.6862 68.8329 83.2011 68.0681 82.5034 67.5345C81.8057 67.0009 80.9409 66.7333 80.0639 66.7795C79.1869 66.8258 78.355 67.183 77.7172 67.787C77.0795 68.3911 76.6774 69.2027 76.5832 70.0763C76.4504 69.1883 75.4231 68.6779 74.5287 68.6779C74.0794 68.6436 73.6283 68.712 73.2094 68.878C72.7905 69.0439 72.4148 69.3031 72.1108 69.6358C71.8206 69.9791 71.6679 70.4178 71.6821 70.8672C71.6962 71.3166 71.8764 71.7448 72.1876 72.0691C71.1767 71.9604 70.1613 72.2294 69.3365 72.8242C68.9321 73.1271 68.6097 73.5262 68.3986 73.9853C68.1875 74.4444 68.0943 74.949 68.1275 75.4533C68.1793 75.9535 68.3865 76.4249 68.72 76.8011C69.0534 77.1774 69.4963 77.4396 69.9864 77.551C70.3218 77.6139 70.7341 77.6209 70.9228 77.9076C71.01 78.0803 71.0464 78.2743 71.0276 78.467V81.7953C71.3369 81.6807 71.6783 81.6893 71.9813 81.8195C72.2843 81.9496 72.5258 82.1913 72.6559 82.4945C72.9039 83.1055 72.9836 83.772 72.8865 84.4243C73.18 84.8509 73.8997 84.704 74.2002 84.2845C74.4543 83.8345 74.5595 83.3156 74.5007 82.8022L74.4378 77.4461C74.7042 77.5868 75.0022 77.657 75.3033 77.6501C75.6045 77.6432 75.8989 77.5594 76.1586 77.4067C76.4183 77.254 76.6347 77.0375 76.7873 76.7776C76.9399 76.5177 77.0236 76.2231 77.0304 75.9218C77.4176 76.2762 77.8788 76.5399 78.3805 76.6938C78.8822 76.8477 79.4118 76.888 79.931 76.8117C80.4501 76.7354 80.9458 76.5444 81.3821 76.2526C81.8183 75.9608 82.1842 75.5755 82.4532 75.1247C83 75.57 83.5982 75.948 84.2352 76.2504C84.8833 76.5454 85.6175 76.5902 86.2967 76.3763C86.6308 76.2598 86.9216 76.0441 87.1301 75.758C87.3386 75.4719 87.455 75.129 87.4637 74.7751L87.2261 74.5793" fill="#263238"/>
<path d="M124.424 114.183C123.668 114.183 122.929 114.407 122.3 114.828C121.672 115.248 121.182 115.845 120.892 116.544C120.603 117.243 120.527 118.012 120.675 118.754C120.822 119.496 121.186 120.177 121.721 120.712C122.255 121.247 122.937 121.612 123.678 121.759C124.42 121.907 125.188 121.831 125.887 121.541C126.585 121.252 127.182 120.762 127.602 120.133C128.022 119.504 128.246 118.764 128.246 118.008C128.247 117.505 128.149 117.008 127.957 116.543C127.765 116.079 127.484 115.657 127.129 115.301C126.774 114.946 126.352 114.664 125.888 114.472C125.424 114.28 124.926 114.182 124.424 114.183ZM124.424 117.316C124.207 117.316 123.995 117.251 123.814 117.131C123.634 117.01 123.493 116.839 123.41 116.638C123.327 116.437 123.305 116.217 123.348 116.004C123.39 115.791 123.495 115.595 123.648 115.442C123.801 115.288 123.997 115.184 124.21 115.141C124.423 115.099 124.643 115.121 124.844 115.204C125.044 115.287 125.216 115.427 125.336 115.608C125.457 115.788 125.521 116.001 125.521 116.218C125.523 116.363 125.496 116.507 125.441 116.641C125.387 116.776 125.306 116.898 125.204 117.001C125.102 117.104 124.98 117.185 124.846 117.24C124.712 117.296 124.569 117.324 124.424 117.323V117.316Z" fill="#72CBD0"/>
<path d="M123.159 121.552V128.426C123.159 128.426 124.682 129.125 124.598 129.216C124.515 129.307 125.696 128.426 125.696 128.426V127.601L124.997 126.901L125.696 126.265L124.997 125.391L125.696 124.615L124.913 123.734L125.696 122.944V121.545L123.159 121.552Z" fill="#72CBD0"/>
<path d="M128.68 108.065L124.312 104.157L119.909 108.121L121.209 108.324L121.321 112.331L127.268 112.436L127.093 108.24L128.68 108.065ZM124.277 111.687C124.142 111.676 124.012 111.626 123.905 111.543C123.798 111.46 123.717 111.348 123.673 111.219C123.628 111.091 123.622 110.952 123.655 110.821C123.688 110.689 123.759 110.57 123.858 110.477C123.958 110.385 124.082 110.324 124.216 110.301C124.35 110.278 124.487 110.295 124.612 110.349C124.736 110.403 124.842 110.493 124.917 110.606C124.991 110.72 125.031 110.852 125.032 110.988C125.032 111.085 125.012 111.181 124.974 111.269C124.935 111.358 124.879 111.438 124.808 111.503C124.737 111.569 124.653 111.619 124.562 111.651C124.47 111.683 124.373 111.695 124.277 111.687Z" fill="#263238"/>
<path d="M124.864 111.428C124.864 111.428 124.731 111.463 124.522 111.463C124.229 111.44 123.935 111.486 123.662 111.596C123.264 111.744 122.919 112.007 122.67 112.351C122.366 112.772 122.229 113.29 122.285 113.805C122.347 114.319 122.595 114.792 122.984 115.134C123.302 115.417 123.696 115.601 124.116 115.665C124.522 115.69 124.929 115.657 125.325 115.567C125.158 115.71 124.963 115.815 124.752 115.876C124.541 115.938 124.32 115.954 124.102 115.924C123.615 115.893 123.149 115.706 122.775 115.393C122.306 115.004 122.007 114.447 121.943 113.84C121.88 113.235 122.053 112.629 122.425 112.148C122.721 111.761 123.136 111.481 123.606 111.351C123.914 111.254 124.242 111.242 124.557 111.316C124.752 111.365 124.871 111.407 124.864 111.428Z" fill="#455A64"/>
<path d="M126.255 114.652C126.164 114.603 126.38 114.107 126.345 113.491C126.31 112.876 126.08 112.408 126.15 112.345C126.22 112.282 126.688 112.729 126.709 113.47C126.73 114.212 126.331 114.715 126.255 114.652Z" fill="#455A64"/>
<path d="M113.383 109.065C113.815 107.78 114.37 106.539 115.039 105.359C115.644 104.422 116.519 103.691 117.547 103.261C118.889 102.751 120.385 102.954 121.81 103.163L125.248 103.674C125.717 103.744 126.311 103.961 126.297 104.429C126.274 104.565 126.211 104.692 126.117 104.793C126.022 104.894 125.9 104.964 125.766 104.995C125.491 105.048 125.209 105.048 124.934 104.995C124.174 104.899 123.406 104.875 122.642 104.925C122.097 104.96 121.419 105.156 121.328 105.695C121.237 106.233 121.761 106.59 122.244 106.604C122.733 106.57 123.203 106.398 123.599 106.107L124.948 105.31C125.185 105.123 125.486 105.035 125.786 105.065C126.283 105.177 126.401 105.89 126.136 106.324C125.821 106.727 125.423 107.059 124.969 107.296C123.236 108.471 122.432 110.372 121.636 112.89" fill="#E6BBAC"/>
<path d="M113.418 108.534L105.731 128.364L97.7362 109.855C95.2345 100.898 84.1793 100.311 84.1793 100.311L73.2428 98.9126C69.3085 97.3114 62.9354 98.6469 60.4406 100.024C57.261 101.772 54.4378 107.149 53.8089 111.114C53.8089 111.114 42.7956 139.607 44.6754 142.579C46.5552 145.551 58.3162 157.179 58.3162 157.179L56.674 163.178L75.3882 164.36L77.282 156.969L77.5056 164.877L95.1017 166.115C94.333 159.158 93.0891 152.165 92.7537 150.173L91.3561 129.762L91.5378 125.567L91.7055 125.133C93.3547 127.895 95.4301 131.426 97.9948 135.957C103.138 145.047 108.33 142.726 111.377 139.076C112.676 137.406 113.655 135.509 114.263 133.482L121.831 112.198L113.418 108.534ZM59.8117 142.558C59.8117 142.67 57.9249 139.195 57.9249 139.195L60.6782 130.105C60.6782 130.105 59.8117 142.453 59.8117 142.558Z" fill="#72CBD0"/>
<path d="M71.8102 99.1429L77.7151 121.833L83.8368 100.527L83.1589 100.471L83.3196 97.6675L71.8102 96.29V99.1429Z" fill="white"/>
<path d="M71.4957 99.3594C71.5111 99.4613 71.5111 99.5651 71.4957 99.667C71.4537 99.8978 71.4048 100.191 71.3419 100.541C71.1952 101.345 70.9855 102.443 70.727 103.792C70.4684 105.142 70.126 106.855 69.7556 108.729C69.5809 109.645 69.3154 110.701 69.8325 111.568C70.3496 112.435 71.4258 112.854 72.488 113.211L72.6906 113.281L72.5788 113.463C71.7333 114.938 71.8031 116.959 72.4251 118.7C72.8337 119.807 73.3146 120.886 73.8646 121.93C74.3818 122.974 74.8826 123.984 75.3671 124.958C76.3175 126.902 77.205 128.699 77.9946 130.293L77.7151 130.363C77.7151 127.797 77.7151 125.678 77.7151 124.147C77.7151 123.448 77.7151 122.867 77.7151 122.434C77.6986 122.234 77.6986 122.032 77.7151 121.832C77.7572 122.03 77.7759 122.232 77.771 122.434C77.771 122.867 77.8059 123.434 77.8339 124.147C77.8688 125.671 77.9247 127.79 77.9876 130.356V130.999L77.6941 130.426C76.8975 128.832 75.996 127.042 75.0177 125.112C74.5355 124.14 74.0323 123.126 73.5082 122.091C72.9493 121.032 72.4614 119.936 72.0477 118.812C71.4048 116.98 71.3489 114.889 72.2434 113.288L72.3412 113.547C71.7937 113.373 71.2628 113.151 70.7549 112.882C70.244 112.62 69.814 112.224 69.511 111.736C69.2412 111.253 69.1265 110.699 69.1826 110.148C69.2289 109.649 69.3106 109.154 69.4272 108.666C69.8255 106.799 70.1749 105.17 70.4754 103.771C70.7759 102.373 71.0135 101.338 71.1742 100.541C71.2511 100.191 71.321 99.9048 71.3769 99.674C71.4033 99.5646 71.4432 99.4589 71.4957 99.3594Z" fill="#263238"/>
<path d="M84.906 100.667C85.0124 101.012 85.0918 101.365 85.1436 101.723C85.2694 102.422 85.4441 103.408 85.6328 104.667C85.8215 105.925 86.0451 107.414 86.1779 109.121C86.1779 109.547 86.2338 109.981 86.2198 110.442C86.2236 110.942 86.0723 111.431 85.7865 111.841C85.1764 112.637 84.3796 113.271 83.4665 113.687V113.379C83.7853 113.644 84.057 113.96 84.2701 114.316C84.326 114.4 84.3749 114.491 84.4238 114.582C84.4541 114.659 84.4684 114.743 84.4658 114.826V114.994C84.4238 115.211 84.3679 115.407 84.312 115.609C83.6132 117.798 82.7467 119.805 81.985 121.616C81.2233 123.427 80.4965 125.063 79.8885 126.419C79.2806 127.776 78.7704 128.881 78.4141 129.636L77.9878 130.503C77.8899 130.699 77.834 130.796 77.8201 130.789C77.8368 130.677 77.8722 130.568 77.9249 130.468C78.0227 130.23 78.1415 129.936 78.2813 129.58L79.6789 126.321C80.2659 124.923 80.9507 123.294 81.7055 121.483C82.4602 119.672 83.2988 117.651 83.9906 115.504C84.0495 115.319 84.0962 115.13 84.1303 114.938V114.812C84.1264 114.794 84.1264 114.775 84.1303 114.756L83.9836 114.505C83.7961 114.192 83.5602 113.911 83.2848 113.673L83.0612 113.484L83.3127 113.358C84.1699 112.976 84.9207 112.39 85.5 111.652C86.0451 110.953 85.8704 110.002 85.8564 109.17C85.7516 107.484 85.5489 105.981 85.3952 104.722C85.2415 103.464 85.1087 102.52 85.0108 101.772C84.9409 101.408 84.9058 101.038 84.906 100.667Z" fill="#263238"/>
<path d="M77.282 157.835C77.1771 157.835 77.282 151.416 77.4986 143.515C77.7152 135.614 77.9808 129.209 78.1065 129.209C78.2323 129.209 78.1066 135.621 77.8899 143.529C77.6733 151.437 77.4077 157.835 77.282 157.835Z" fill="#263238"/>
<path d="M80.1539 134.936C80.112 134.936 80.3426 134.677 80.72 134.852C80.8484 134.906 80.9561 135 81.0272 135.119C81.0984 135.239 81.1292 135.379 81.1151 135.517C81.101 135.656 81.0428 135.786 80.949 135.889C80.8552 135.992 80.7308 136.062 80.5942 136.089C80.4613 136.138 80.316 136.142 80.1805 136.101C80.0451 136.059 79.9268 135.975 79.8437 135.86C79.7607 135.745 79.7173 135.607 79.7204 135.465C79.7234 135.324 79.7726 135.187 79.8604 135.076C80.098 134.74 80.4125 134.817 80.3915 134.859C80.3706 134.901 80.1889 134.95 80.0841 135.202C80.0546 135.265 80.0394 135.334 80.0394 135.404C80.0394 135.474 80.0546 135.543 80.0841 135.607C80.1276 135.67 80.1913 135.717 80.2649 135.74C80.3384 135.763 80.4175 135.76 80.4894 135.733C80.5653 135.721 80.6352 135.684 80.6883 135.629C80.7413 135.573 80.7746 135.502 80.7829 135.425C80.7802 135.356 80.7611 135.288 80.7271 135.227C80.6931 135.166 80.6451 135.114 80.5872 135.076C80.3776 134.908 80.1819 134.978 80.1539 134.936Z" fill="#263238"/>
<path d="M80.2308 142.201C80.1819 142.201 80.4125 141.95 80.7969 142.117C80.9067 142.169 81.0012 142.248 81.071 142.347C81.1409 142.447 81.1837 142.562 81.1952 142.683C81.1998 142.843 81.1497 142.999 81.053 143.126C80.9564 143.254 80.8191 143.344 80.6641 143.382C80.5145 143.425 80.3548 143.416 80.2105 143.358C80.0662 143.3 79.9455 143.195 79.8674 143.061C79.8154 142.949 79.7938 142.825 79.8048 142.703C79.8159 142.58 79.8592 142.462 79.9303 142.362C80.1749 142.019 80.4824 142.096 80.4614 142.145C80.4405 142.194 80.2588 142.236 80.1539 142.488C80.1245 142.551 80.1093 142.62 80.1093 142.69C80.1093 142.76 80.1245 142.829 80.1539 142.893C80.2027 142.951 80.2672 142.995 80.3399 143.018C80.4125 143.041 80.4903 143.042 80.5638 143.023C80.6374 143.003 80.7037 142.962 80.7549 142.906C80.8061 142.849 80.8401 142.779 80.8528 142.704C80.849 142.635 80.8294 142.567 80.7955 142.507C80.7616 142.446 80.7142 142.394 80.6571 142.355C80.4474 142.173 80.2518 142.25 80.2308 142.201Z" fill="#263238"/>
<path d="M79.9162 150.424C79.8743 150.424 80.0979 150.172 80.4823 150.34C80.5925 150.39 80.6877 150.468 80.7588 150.566C80.8299 150.664 80.8742 150.779 80.8876 150.899C80.8919 151.06 80.8407 151.217 80.7427 151.344C80.6447 151.471 80.5058 151.561 80.3495 151.598C80.1999 151.641 80.0403 151.632 79.8959 151.574C79.7516 151.516 79.6309 151.411 79.5529 151.276C79.5008 151.165 79.4792 151.041 79.4902 150.918C79.5013 150.796 79.5446 150.678 79.6157 150.577C79.8603 150.235 80.1748 150.312 80.1468 150.361C80.1189 150.41 79.9442 150.445 79.8394 150.703C79.81 150.767 79.7947 150.836 79.7947 150.906C79.7947 150.976 79.81 151.045 79.8394 151.109C79.887 151.169 79.9521 151.214 80.0258 151.236C80.0995 151.259 80.1783 151.258 80.2517 151.234C80.3277 151.22 80.3972 151.182 80.4499 151.125C80.5027 151.069 80.5361 150.997 80.5452 150.92C80.5387 150.85 80.5172 150.783 80.4822 150.723C80.4472 150.663 80.3996 150.611 80.3425 150.57C80.1329 150.396 79.9372 150.473 79.9162 150.424Z" fill="#263238"/>
<path d="M83.8367 122.636H88.98V121.833H83.5642L83.8367 122.636Z" fill="#263238"/>
<path d="M120.357 116.127C118.932 115.649 117.548 115.055 116.22 114.351C114.838 113.759 113.506 113.057 112.236 112.253C113.661 112.735 115.045 113.332 116.373 114.036C117.755 114.625 119.087 115.324 120.357 116.127Z" fill="#455A64"/>
<path d="M113.383 110.708C113.383 110.708 113.424 110.477 113.732 110.365C113.916 110.29 114.121 110.29 114.305 110.365C114.424 110.423 114.522 110.515 114.587 110.63C114.652 110.745 114.68 110.877 114.668 111.008C114.67 111.146 114.623 111.28 114.536 111.387C114.449 111.494 114.328 111.567 114.193 111.595C114.083 111.608 113.972 111.586 113.875 111.532C113.779 111.478 113.702 111.395 113.655 111.295C113.621 111.234 113.603 111.165 113.603 111.095C113.603 111.026 113.621 110.957 113.655 110.896C113.711 110.812 113.767 110.805 113.781 110.819C113.795 110.833 113.739 110.994 113.886 111.155C114.032 111.315 114.298 111.315 114.319 110.987C114.34 110.659 114.039 110.554 113.809 110.589C113.578 110.624 113.424 110.742 113.383 110.708Z" fill="#455A64"/>
<path d="M105.332 132.524C105.237 131.771 105.265 131.009 105.416 130.265C105.447 129.507 105.6 128.758 105.87 128.049C105.93 129.56 105.748 131.07 105.332 132.524Z" fill="#263238"/>
<path d="M107.114 132.307C106.726 131.7 106.438 131.034 106.262 130.335C105.977 129.67 105.807 128.96 105.759 128.238C106.44 129.504 106.899 130.878 107.114 132.3V132.307Z" fill="#263238"/>
<path d="M79.1408 98.6391C78.8872 99.6247 78.4433 100.551 77.834 101.366L78.8612 104.163H79.7348L80.4755 101.478C80.4755 101.478 79.9584 101.065 79.581 98.5552L79.1408 98.6391Z" fill="#455A64"/>
<path d="M83.1237 100.408C83.1237 100.408 83.0398 100.597 82.8162 100.891C82.5067 101.345 82.0461 101.675 81.5164 101.821C81.3188 101.868 81.113 101.87 80.9145 101.827C80.7159 101.783 80.5299 101.695 80.3704 101.569C80.0629 101.235 79.8569 100.82 79.7764 100.373C79.5052 99.4094 79.3504 98.4164 79.3152 97.4157L79.6646 97.4576C79.4969 98.031 79.3501 98.6393 79.1405 99.2476C78.9423 99.8575 78.6824 100.446 78.3648 101.003C78.1957 101.292 77.9551 101.533 77.666 101.702C77.3888 101.862 77.0698 101.935 76.7505 101.912C76.207 101.853 75.6775 101.702 75.1852 101.464C74.7585 101.262 74.3474 101.028 73.9553 100.765C73.3938 100.398 72.8526 100.002 72.334 99.5762C72.1292 99.4382 71.9436 99.2736 71.782 99.0868C71.8239 99.0309 72.6625 99.6671 74.0881 100.541C74.4779 100.775 74.8843 100.981 75.304 101.156C75.7662 101.366 76.2596 101.498 76.7645 101.548C77.0275 101.557 77.2877 101.492 77.5152 101.359C77.7426 101.227 77.9281 101.033 78.0503 100.8C78.3355 100.264 78.5695 99.7019 78.7491 99.1218C78.9448 98.5274 79.0986 97.9261 79.2733 97.3457C79.2789 97.3231 79.2891 97.3018 79.3031 97.2831C79.3172 97.2644 79.3348 97.2488 79.355 97.237C79.3752 97.2253 79.3975 97.2177 79.4207 97.2148C79.4439 97.2118 79.4674 97.2136 79.4899 97.2199C79.5264 97.2311 79.5586 97.2532 79.5823 97.2831C79.606 97.3131 79.6201 97.3496 79.6227 97.3877C79.6483 98.3648 79.7842 99.3359 80.028 100.282C80.089 100.676 80.2557 101.046 80.5101 101.352C80.6365 101.455 80.7843 101.529 80.9426 101.568C81.101 101.606 81.266 101.609 81.4256 101.576C81.9166 101.458 82.3558 101.183 82.6765 100.793C82.8089 100.647 82.9592 100.517 83.1237 100.408Z" fill="#E0E0E0"/>
<path d="M78.8612 104.156C78.7145 104.519 75.9681 115.12 75.9681 115.12L77.7082 121.832L80.9297 110.645C80.9297 110.645 79.8396 103.799 79.7906 103.981C79.7417 104.163 78.8612 104.156 78.8612 104.156Z" fill="#455A64"/>
<path d="M68.7981 153.801C67.3778 154.08 65.9218 154.127 64.4865 153.94C63.0486 153.868 61.6323 153.562 60.2936 153.032C60.2936 152.927 62.1943 153.367 64.5424 153.577C66.8904 153.787 68.7911 153.682 68.7981 153.801Z" fill="#263238"/>
<path d="M93.068 155.248C92.0794 155.368 91.0797 155.368 90.0911 155.248C89.0973 155.255 88.1066 155.138 87.1421 154.899C88.1286 154.781 89.1256 154.781 90.112 154.899C91.1077 154.898 92.1 155.015 93.068 155.248Z" fill="#263238"/>
<path d="M60.7899 120.119C60.8092 120.247 60.8092 120.376 60.7899 120.504C60.7899 120.797 60.8039 121.168 60.8319 121.615C60.8319 122.58 60.8808 123.972 60.8878 125.699C60.8878 129.146 60.7969 133.908 60.5174 139.159C60.2379 144.41 59.8186 149.158 59.4272 152.584C59.2386 154.297 59.0639 155.682 58.9311 156.64C58.8682 157.08 58.8123 157.444 58.7704 157.737C58.7551 157.865 58.7294 157.991 58.6935 158.115C58.6735 157.987 58.6735 157.858 58.6935 157.73C58.6935 157.437 58.7494 157.066 58.7843 156.619C58.8752 155.612 59.008 154.234 59.1617 152.563C59.4762 149.13 59.8605 144.389 60.147 139.138C60.4335 133.887 60.5593 129.139 60.6222 125.692C60.6222 124.007 60.6711 122.629 60.6851 121.615C60.6851 121.168 60.6851 120.797 60.6851 120.504C60.6999 120.371 60.7352 120.241 60.7899 120.119Z" fill="#263238"/>
<path d="M57.9178 139.537C58.2912 137.575 58.7813 135.637 59.3854 133.734C59.8759 131.794 60.485 129.886 61.2093 128.021C60.84 129.986 60.3523 131.926 59.7487 133.832C59.2549 135.769 58.6434 137.674 57.9178 139.537Z" fill="#263238"/>
<path d="M60.0841 143.229C59.2081 142.02 58.4299 140.744 57.7571 139.411C56.9767 138.136 56.3035 136.798 55.7445 135.412C56.6233 136.618 57.4016 137.895 58.0716 139.229C58.852 140.504 59.5252 141.842 60.0841 143.229Z" fill="#263238"/>
</svg>
