<svg width="293" height="283" viewBox="0 0 293 283" fill="none" xmlns="http://www.w3.org/2000/svg">
<path d="M45.702 32.6634C45.7166 29.1438 44.918 25.6683 43.3684 22.508C41.8189 19.3478 39.5602 16.5882 36.7687 14.4445C33.9771 12.3008 30.7281 10.831 27.2749 10.1496C23.8218 9.4682 20.258 9.59369 16.8614 10.5163C13.4647 11.4389 10.3271 13.1336 7.69323 15.4683C5.05935 17.8031 3.0004 20.7147 1.67695 23.9761C0.353493 27.2375 -0.198684 30.7605 0.0634803 34.2704C0.325644 37.7804 1.39506 41.1823 3.18833 44.2109L3.2571 44.2922C4.13238 45.7739 5.22648 46.793 6.33934 48.381L19.6061 65.9491C19.99 66.4592 20.4872 66.873 21.0585 67.158C21.6297 67.443 22.2594 67.5913 22.8978 67.5913C23.5362 67.5913 24.1658 67.443 24.7371 67.158C25.3083 66.873 25.8055 66.4592 26.1895 65.9491L39.1936 48.6686C40.3778 47.2718 41.484 45.8108 42.5072 44.2922L42.5572 44.2296C44.6227 40.7256 45.7089 36.7309 45.702 32.6634ZM22.8509 42.6166C20.8613 42.6166 18.9164 42.0266 17.2621 40.9213C15.6079 39.8159 14.3185 38.2449 13.5571 36.4067C12.7958 34.5686 12.5966 32.546 12.9847 30.5946C13.3729 28.6433 14.3309 26.8509 15.7378 25.444C17.1446 24.0372 18.937 23.0791 20.8884 22.691C22.8397 22.3028 24.8624 22.502 26.7005 23.2634C28.5386 24.0248 30.1097 25.3141 31.215 26.9684C32.3204 28.6227 32.9104 30.5676 32.9104 32.5571C32.9112 33.8784 32.6516 35.1869 32.1463 36.4077C31.6411 37.6286 30.9001 38.7378 29.9659 39.6721C29.0316 40.6064 27.9223 41.3473 26.7015 41.8526C25.4806 42.3578 24.1722 42.6174 22.8509 42.6166Z" fill="#F5F5F5"/>
<path d="M292.15 171.245C292.152 169.696 291.797 168.168 291.112 166.779C290.427 165.39 289.432 164.177 288.202 163.236C286.972 162.294 285.542 161.649 284.023 161.35C282.503 161.051 280.935 161.106 279.44 161.512C277.946 161.917 276.565 162.662 275.405 163.688C274.245 164.714 273.337 165.994 272.752 167.428C272.167 168.862 271.921 170.411 272.032 171.956C272.143 173.501 272.609 174.999 273.394 176.334V176.372C273.782 176.997 274.269 177.491 274.757 178.172L280.603 185.919C280.772 186.144 280.992 186.327 281.244 186.453C281.496 186.578 281.774 186.644 282.056 186.644C282.338 186.644 282.616 186.578 282.868 186.453C283.121 186.327 283.34 186.144 283.51 185.919L289.255 178.304C289.779 177.686 290.267 177.039 290.718 176.366V176.334C291.645 174.798 292.14 173.04 292.15 171.245ZM282.078 175.622C281.201 175.622 280.344 175.362 279.615 174.875C278.886 174.387 278.318 173.695 277.983 172.885C277.647 172.075 277.559 171.184 277.73 170.324C277.902 169.464 278.324 168.674 278.944 168.055C279.564 167.435 280.353 167.012 281.213 166.841C282.073 166.67 282.964 166.758 283.774 167.094C284.584 167.429 285.277 167.997 285.764 168.726C286.251 169.455 286.511 170.312 286.511 171.189C286.511 171.772 286.397 172.349 286.175 172.888C285.953 173.427 285.627 173.917 285.215 174.33C284.803 174.742 284.314 175.07 283.776 175.294C283.238 175.518 282.661 175.633 282.078 175.634V175.622Z" fill="#F5F5F5"/>
<path d="M257.421 250.69C267.27 240.841 267.27 224.872 257.421 215.023C247.571 205.174 231.603 205.174 221.753 215.023C211.904 224.872 211.904 240.841 221.753 250.69C231.603 260.539 247.571 260.539 257.421 250.69Z" fill="#F5F5F5"/>
<path d="M239.589 253.853C235.437 253.854 231.377 252.624 227.924 250.318C224.471 248.011 221.779 244.733 220.189 240.897C218.599 237.061 218.182 232.839 218.992 228.767C219.801 224.694 221.8 220.952 224.736 218.016C227.672 215.079 231.412 213.079 235.485 212.268C239.558 211.458 243.779 211.873 247.616 213.462C251.452 215.051 254.732 217.741 257.039 221.194C259.346 224.647 260.577 228.706 260.577 232.859C260.572 238.424 258.36 243.76 254.425 247.696C250.49 251.632 245.155 253.846 239.589 253.853ZM239.589 215.459C236.148 215.459 232.784 216.48 229.923 218.391C227.062 220.303 224.831 223.021 223.514 226.2C222.198 229.379 221.853 232.878 222.524 236.253C223.196 239.628 224.853 242.728 227.286 245.162C229.72 247.595 232.82 249.252 236.195 249.924C239.57 250.595 243.068 250.25 246.248 248.933C249.427 247.616 252.145 245.386 254.056 242.525C255.968 239.664 256.989 236.3 256.989 232.859C256.984 228.245 255.149 223.823 251.887 220.561C248.625 217.299 244.202 215.464 239.589 215.459Z" fill="white"/>
<path d="M239.446 240.036C237.916 240.036 236.42 239.582 235.148 238.732C233.876 237.882 232.885 236.674 232.3 235.26C231.715 233.847 231.562 232.291 231.861 230.791C232.16 229.291 232.897 227.913 233.979 226.831C235.061 225.75 236.44 225.014 237.941 224.716C239.441 224.418 240.997 224.573 242.41 225.159C243.823 225.745 245.03 226.737 245.879 228.01C246.728 229.283 247.181 230.779 247.179 232.308C247.178 234.358 246.362 236.324 244.912 237.773C243.462 239.222 241.496 240.036 239.446 240.036ZM239.446 228.157C238.627 228.157 237.827 228.4 237.146 228.855C236.466 229.309 235.935 229.956 235.622 230.712C235.309 231.468 235.227 232.3 235.386 233.103C235.546 233.906 235.94 234.644 236.519 235.222C237.098 235.801 237.835 236.195 238.638 236.355C239.441 236.515 240.273 236.433 241.029 236.12C241.786 235.806 242.432 235.276 242.887 234.595C243.342 233.915 243.584 233.114 243.584 232.296C243.58 231.201 243.141 230.152 242.366 229.379C241.591 228.606 240.541 228.171 239.446 228.17V228.157Z" fill="white"/>
<path d="M239.446 232.309H229.674L231.381 235.322L208.379 245.863L209.155 247.157L232.231 236.735L233.813 239.73L239.446 232.309Z" fill="#E0E0E0"/>
<path d="M208.379 245.863L208.136 245.626C207.543 245.048 206.808 244.637 206.005 244.437C205.201 244.238 204.36 244.255 203.565 244.488L194.394 247.157L199.502 249.402L197.451 254.86L206.06 251.821C207.004 251.483 207.815 250.85 208.372 250.016C208.93 249.182 209.204 248.191 209.155 247.189L208.379 245.863Z" fill="#E0E0E0"/>
<path d="M97.0812 251.152L97.2688 251.09L97.8127 250.933L99.9009 250.308L107.722 248.114L107.647 248.245C107.247 246.901 106.797 245.4 106.322 243.787V243.718L106.384 243.662C108.55 241.847 110.394 239.678 111.836 237.248C112.64 235.878 113.254 234.406 113.662 232.871C114.09 231.24 114.189 229.54 113.955 227.87C113.388 224.24 111.57 220.923 108.816 218.492C105.839 215.892 102.122 214.289 98.1878 213.909C95.2342 213.658 92.2701 214.252 89.6413 215.622C87.1079 216.855 84.9192 218.695 83.2705 220.98C81.7517 223.132 80.809 225.638 80.5321 228.257C80.4946 228.882 80.4008 229.508 80.4134 230.133C80.4259 230.758 80.4446 231.383 80.4634 231.958C80.5626 233.132 80.772 234.294 81.0886 235.428C81.3993 236.494 81.8183 237.524 82.339 238.504C82.8489 239.417 83.4523 240.274 84.1395 241.061C85.3935 242.467 86.8725 243.654 88.5159 244.575C90.9141 245.935 93.542 246.842 96.2684 247.251H96.3122V247.288L96.9374 250.127C96.9999 250.439 97.0499 250.683 97.0812 250.858C97.1125 251.033 97.1312 251.108 97.1312 251.115C97.1015 251.042 97.0805 250.967 97.0687 250.89L96.8936 250.177L96.2184 247.313L96.2747 247.363C93.5182 246.99 90.8565 246.101 88.4284 244.744C86.7622 243.822 85.2618 242.628 83.9895 241.211C83.2755 240.414 82.6469 239.545 82.1139 238.617C81.5698 237.623 81.1298 236.575 80.801 235.491C80.4875 234.339 80.2782 233.161 80.1758 231.971L80.1195 230.095C80.1195 229.47 80.2008 228.845 80.2383 228.22C80.5112 225.547 81.4671 222.989 83.0142 220.792C84.6899 218.459 86.9173 216.578 89.4975 215.316C92.1893 213.912 95.2261 213.307 98.2503 213.571C102.263 213.951 106.054 215.585 109.085 218.242C110.514 219.499 111.702 221.005 112.592 222.687C112.83 223.088 113.039 223.506 113.218 223.937C113.411 224.341 113.574 224.759 113.705 225.188C113.837 225.625 113.98 226.05 114.099 226.482C114.218 226.913 114.255 227.363 114.337 227.801C114.569 229.512 114.461 231.252 114.018 232.921C113.598 234.479 112.967 235.973 112.142 237.36C110.672 239.811 108.797 241.994 106.597 243.819L106.641 243.693L107.935 248.151L107.966 248.251L107.866 248.282L99.9571 250.383L97.8752 250.927L97.35 251.058L97.0812 251.152Z" fill="#E0E0E0"/>
<path d="M108.741 251.159C106.965 251.825 105.151 252.382 103.308 252.828C101.494 253.383 99.6487 253.828 97.7812 254.16C99.5587 253.501 101.373 252.946 103.214 252.497C105.028 251.941 106.874 251.495 108.741 251.159Z" fill="#E0E0E0"/>
<path d="M106.297 256.272C105.738 256.667 105.097 256.928 104.421 257.035C103.77 257.245 103.079 257.305 102.402 257.21C103.028 256.973 103.678 256.801 104.34 256.698C104.976 256.492 105.632 256.349 106.297 256.272Z" fill="#E0E0E0"/>
<path d="M99.3128 250.571C99.284 250.516 99.263 250.457 99.2503 250.396C99.2128 250.258 99.169 250.083 99.1065 249.864C98.9815 249.368 98.8064 248.687 98.5813 247.82C98.1312 246.013 97.4935 243.443 96.7057 240.274C96.3119 238.679 95.8867 236.935 95.4553 235.066C95.3633 234.604 95.1782 234.166 94.9114 233.778C94.7987 233.587 94.6209 233.443 94.4107 233.373C94.2004 233.303 93.9719 233.311 93.7673 233.397C93.5732 233.527 93.4167 233.705 93.3136 233.915C93.2104 234.124 93.1642 234.358 93.1796 234.591C93.1946 235.092 93.3925 235.57 93.736 235.935C94.1055 236.316 94.5618 236.602 95.0658 236.769C95.5699 236.935 96.1068 236.977 96.6307 236.891C97.1801 236.808 97.7 236.589 98.1433 236.254C98.5865 235.918 98.9391 235.478 99.169 234.972C99.6798 233.919 99.808 232.721 99.5317 231.583C99.4251 231.008 99.1536 230.476 98.7502 230.052C98.5575 229.859 98.3073 229.735 98.0377 229.698C97.768 229.661 97.4935 229.712 97.2559 229.845C97.0513 230.029 96.9129 230.275 96.862 230.545C96.8112 230.815 96.8507 231.094 96.9746 231.34C97.2489 231.849 97.6493 232.28 98.1374 232.59C99.059 233.322 100.169 233.78 101.338 233.909C101.896 233.959 102.458 233.875 102.977 233.665C103.466 233.438 103.895 233.097 104.227 232.671C104.562 232.257 104.762 231.751 104.802 231.221C104.823 230.966 104.791 230.71 104.71 230.468C104.628 230.227 104.498 230.004 104.327 229.814C104.18 229.631 103.986 229.493 103.764 229.416C103.543 229.339 103.305 229.325 103.077 229.376C102.853 229.458 102.652 229.589 102.487 229.76C102.322 229.931 102.199 230.138 102.126 230.364C101.82 231.283 102.089 232.309 102.201 233.253C102.501 235.128 102.826 236.916 103.158 238.523C103.783 241.724 104.327 244.319 104.696 246.138C104.871 247.02 105.015 247.714 105.115 248.208C105.152 248.433 105.19 248.608 105.215 248.751C105.221 248.814 105.221 248.877 105.215 248.939C105.189 248.881 105.17 248.82 105.158 248.758C105.121 248.62 105.077 248.445 105.021 248.226C104.902 247.732 104.746 247.045 104.54 246.169C104.133 244.381 103.552 241.793 102.895 238.573C102.57 236.966 102.214 235.203 101.895 233.296C101.826 232.815 101.745 232.334 101.695 231.827C101.622 231.303 101.665 230.77 101.82 230.264C101.908 229.993 102.057 229.746 102.256 229.541C102.454 229.337 102.696 229.18 102.964 229.083C103.253 229.009 103.558 229.018 103.842 229.11C104.127 229.202 104.379 229.372 104.571 229.602C104.768 229.823 104.918 230.081 105.014 230.361C105.109 230.641 105.148 230.938 105.127 231.233C105.092 231.831 104.874 232.402 104.502 232.871C104.13 233.347 103.647 233.725 103.095 233.972C102.527 234.203 101.912 234.297 101.301 234.247C100.069 234.11 98.8993 233.632 97.9249 232.865C97.3891 232.512 96.9574 232.022 96.6745 231.446C96.4946 231.137 96.4364 230.772 96.5112 230.422C96.586 230.072 96.7884 229.763 97.0789 229.555C97.3694 229.346 97.7272 229.253 98.0825 229.294C98.4377 229.335 98.7649 229.507 99.0002 229.777C99.4486 230.248 99.7524 230.838 99.8755 231.477C100.169 232.693 100.03 233.973 99.4816 235.097C99.2247 235.648 98.8359 236.128 98.3496 236.493C97.8632 236.859 97.2943 237.098 96.6932 237.191C96.1163 237.284 95.5254 237.235 94.9719 237.048C94.4184 236.86 93.919 236.54 93.5172 236.116C93.1229 235.693 92.9001 235.138 92.892 234.559C92.8755 234.27 92.9377 233.982 93.072 233.726C93.2063 233.469 93.4077 233.254 93.6548 233.103C93.7885 233.039 93.9336 233.002 94.0818 232.994C94.2299 232.987 94.378 233.009 94.5175 233.059C94.7711 233.166 94.9882 233.344 95.1427 233.572C95.4278 233.996 95.6293 234.472 95.7367 234.972C96.1806 236.848 96.5932 238.598 96.9871 240.199L98.7376 247.757C98.9315 248.633 99.0878 249.32 99.2003 249.821C99.2441 250.039 99.2816 250.214 99.3128 250.358C99.326 250.428 99.326 250.501 99.3128 250.571Z" fill="#E0E0E0"/>
<path d="M108.31 253.497C106.888 254.067 105.425 254.529 103.933 254.878C102.464 255.336 100.964 255.687 99.4442 255.929C100.866 255.358 102.329 254.896 103.821 254.547C105.29 254.09 106.79 253.739 108.31 253.497Z" fill="#E0E0E0"/>
<path d="M278.258 282.369C278.258 282.456 218.595 282.531 145.009 282.531C71.4226 282.531 11.7472 282.456 11.7472 282.369C11.7472 282.281 71.3976 282.206 145.009 282.206C218.62 282.206 278.258 282.275 278.258 282.369Z" fill="#263238"/>
<path d="M267.248 30.875H22.8884V46.53H267.248V30.875Z" fill="#E0E0E0"/>
<path d="M267.211 60.9092H22.851V197.953H267.211V60.9092Z" fill="white"/>
<path d="M22.8884 46.4115H56.443L59.7628 36.7334H114.155L117.475 46.4115H267.248V61.2413H22.8884V46.4115Z" fill="#EBEBEB"/>
<path d="M30.9535 37.1208C30.9535 37.4844 30.8457 37.8397 30.6437 38.142C30.4418 38.4443 30.1547 38.6799 29.8188 38.819C29.483 38.9581 29.1134 38.9945 28.7568 38.9236C28.4003 38.8527 28.0728 38.6776 27.8157 38.4205C27.5586 38.1635 27.3836 37.836 27.3127 37.4794C27.2417 37.1229 27.2781 36.7533 27.4173 36.4174C27.5564 36.0815 27.792 35.7945 28.0942 35.5925C28.3965 35.3905 28.7519 35.2827 29.1154 35.2827C29.357 35.2819 29.5964 35.3289 29.8198 35.421C30.0432 35.513 30.2462 35.6484 30.417 35.8192C30.5878 35.9901 30.7232 36.1931 30.8153 36.4164C30.9074 36.6398 30.9544 36.8792 30.9535 37.1208Z" fill="#263238"/>
<path d="M36.6364 37.1208C36.6364 37.4844 36.5286 37.8397 36.3266 38.142C36.1246 38.4443 35.8376 38.6799 35.5017 38.819C35.1658 38.9581 34.7963 38.9945 34.4397 38.9236C34.0831 38.8527 33.7556 38.6776 33.4986 38.4205C33.2415 38.1635 33.0664 37.836 32.9955 37.4794C32.9246 37.1229 32.961 36.7533 33.1001 36.4174C33.2392 36.0815 33.4748 35.7945 33.7771 35.5925C34.0794 35.3905 34.4348 35.2827 34.7983 35.2827C35.0399 35.2819 35.2793 35.3289 35.5027 35.421C35.7261 35.513 35.929 35.6484 36.0999 35.8192C36.2707 35.9901 36.4061 36.1931 36.4982 36.4164C36.5902 36.6398 36.6372 36.8792 36.6364 37.1208Z" fill="#263238"/>
<path d="M42.3197 37.1208C42.3197 37.4844 42.2119 37.8397 42.01 38.142C41.808 38.4443 41.5209 38.6799 41.1851 38.819C40.8492 38.9581 40.4796 38.9945 40.1231 38.9236C39.7665 38.8527 39.439 38.6776 39.1819 38.4205C38.9249 38.1635 38.7498 37.836 38.6789 37.4794C38.608 37.1229 38.6444 36.7533 38.7835 36.4174C38.9226 36.0815 39.1582 35.7945 39.4605 35.5925C39.7627 35.3905 40.1181 35.2827 40.4816 35.2827C40.7233 35.2819 40.9626 35.3289 41.186 35.421C41.4094 35.513 41.6124 35.6484 41.7832 35.8192C41.9541 35.9901 42.0894 36.1931 42.1815 36.4164C42.2736 36.6398 42.3206 36.8792 42.3197 37.1208Z" fill="#263238"/>
<path d="M240.239 58.2903H72.5918C71.3581 58.2903 70.175 57.8002 69.3027 56.9279C68.4304 56.0556 67.9403 54.8725 67.9403 53.6388C67.9403 52.4051 68.4304 51.222 69.3027 50.3497C70.175 49.4774 71.3581 48.9873 72.5918 48.9873H240.239C241.473 48.9873 242.656 49.4774 243.528 50.3497C244.401 51.222 244.891 52.4051 244.891 53.6388C244.891 54.8725 244.401 56.0556 243.528 56.9279C242.656 57.8002 241.473 58.2903 240.239 58.2903Z" fill="#FAFAFA"/>
<path d="M76.6055 54.2576V55.8331H75.8115V54.3827C75.8115 53.9388 75.6052 53.7575 75.2551 53.7575C74.9049 53.7575 74.5923 53.9951 74.5923 54.4952V55.8582H73.7983V52.0444H74.5923V53.3699C74.8312 53.1525 75.1448 53.036 75.4676 53.0448C75.6264 53.0342 75.7855 53.0589 75.9335 53.1172C76.0815 53.1755 76.2147 53.2659 76.3235 53.382C76.4324 53.498 76.5141 53.6367 76.5629 53.7881C76.6116 53.9396 76.6262 54.0999 76.6055 54.2576Z" fill="#E0E0E0"/>
<path d="M79.094 55.6957C78.9076 55.8149 78.6899 55.8758 78.4688 55.8707C78.333 55.8894 78.1948 55.877 78.0645 55.8345C77.9342 55.792 77.8153 55.7205 77.7166 55.6255C77.6179 55.5304 77.542 55.4142 77.4947 55.2855C77.4474 55.1569 77.4299 55.0193 77.4435 54.8829V53.7575H77.0183V53.1323H77.4435V52.4634H78.2375V53.1323H78.9189V53.7575H78.2375V54.8829C78.2307 54.9305 78.2347 54.979 78.2493 55.0248C78.2639 55.0706 78.2887 55.1125 78.3217 55.1473C78.3548 55.1822 78.3953 55.2091 78.4403 55.2261C78.4852 55.2432 78.5334 55.2498 78.5813 55.2455C78.6965 55.2469 78.8088 55.2095 78.9002 55.1392L79.094 55.6957Z" fill="#E0E0E0"/>
<path d="M81.232 55.6957C81.0451 55.8135 80.8278 55.8743 80.6068 55.8707C80.4711 55.8894 80.3329 55.877 80.2026 55.8345C80.0723 55.792 79.9533 55.7205 79.8546 55.6255C79.756 55.5304 79.6801 55.4142 79.6328 55.2855C79.5855 55.1569 79.568 55.0193 79.5815 54.8829V53.7575H79.1564V53.1323H79.5815V52.4634H80.3755V53.1323H81.0632V53.7575H80.3755V54.8829C80.3699 54.9303 80.3748 54.9783 80.3898 55.0235C80.4049 55.0688 80.4297 55.1102 80.4625 55.1448C80.4953 55.1794 80.5353 55.2064 80.5797 55.2238C80.6241 55.2412 80.6718 55.2486 80.7194 55.2455C80.8365 55.2469 80.9508 55.2095 81.0445 55.1392L81.232 55.6957Z" fill="#E0E0E0"/>
<path d="M84.6956 54.4578C84.707 54.6426 84.6797 54.8278 84.6155 55.0014C84.5513 55.1751 84.4516 55.3335 84.3228 55.4664C84.1939 55.5994 84.0388 55.704 83.8672 55.7736C83.6957 55.8433 83.5115 55.8764 83.3264 55.8708C83.1732 55.878 83.0201 55.8522 82.8777 55.795C82.7353 55.7378 82.6069 55.6507 82.5012 55.5394V56.7898H81.7072V53.0386H82.4824V53.3575C82.5905 53.2374 82.7241 53.1431 82.8734 53.0814C83.0227 53.0198 83.1839 52.9923 83.3452 53.0011C83.5327 52.9976 83.7188 53.0338 83.8913 53.1072C84.0639 53.1807 84.219 53.2897 84.3464 53.4272C84.4739 53.5647 84.5709 53.7276 84.6311 53.9052C84.6913 54.0828 84.7133 54.2711 84.6956 54.4578ZM83.8891 54.4578C83.877 54.3227 83.8259 54.1939 83.7419 54.0873C83.658 53.9807 83.5449 53.9007 83.4164 53.8572C83.2878 53.8136 83.1494 53.8084 83.0179 53.842C82.8865 53.8757 82.7676 53.9468 82.6759 54.0468C82.5841 54.1468 82.5233 54.2713 82.501 54.4051C82.4787 54.539 82.4957 54.6764 82.5501 54.8008C82.6044 54.9251 82.6937 55.031 82.8071 55.1056C82.9206 55.1801 83.0532 55.22 83.1889 55.2206C83.2866 55.2219 83.3836 55.2026 83.4733 55.1639C83.5631 55.1252 83.6437 55.068 83.7098 54.996C83.7759 54.924 83.826 54.8388 83.8569 54.7461C83.8878 54.6533 83.8988 54.5551 83.8891 54.4578Z" fill="#E0E0E0"/>
<path d="M85.0333 53.5386C85.047 53.4163 85.1053 53.3035 85.197 53.2215C85.2887 53.1395 85.4073 53.0942 85.5303 53.0942C85.6533 53.0942 85.772 53.1395 85.8637 53.2215C85.9553 53.3035 86.0136 53.4163 86.0273 53.5386C86.0352 53.6085 86.0282 53.6793 86.0068 53.7464C85.9854 53.8135 85.9501 53.8753 85.9032 53.9277C85.8563 53.9802 85.7988 54.0222 85.7346 54.051C85.6703 54.0797 85.6007 54.0946 85.5303 54.0946C85.4599 54.0946 85.3903 54.0797 85.3261 54.051C85.2618 54.0222 85.2043 53.9802 85.1574 53.9277C85.1105 53.8753 85.0752 53.8135 85.0538 53.7464C85.0324 53.6793 85.0254 53.6085 85.0333 53.5386ZM85.0333 55.3704C85.047 55.2482 85.1053 55.1353 85.197 55.0534C85.2887 54.9714 85.4073 54.9261 85.5303 54.9261C85.6533 54.9261 85.772 54.9714 85.8637 55.0534C85.9553 55.1353 86.0136 55.2482 86.0273 55.3704C86.0352 55.4404 86.0282 55.5112 86.0068 55.5782C85.9854 55.6453 85.9501 55.7071 85.9032 55.7596C85.8563 55.8121 85.7988 55.854 85.7346 55.8828C85.6703 55.9115 85.6007 55.9264 85.5303 55.9264C85.4599 55.9264 85.3903 55.9115 85.3261 55.8828C85.2618 55.854 85.2043 55.8121 85.1574 55.7596C85.1105 55.7071 85.0752 55.6453 85.0538 55.5782C85.0324 55.5112 85.0254 55.4404 85.0333 55.3704Z" fill="#E0E0E0"/>
<path d="M87.9844 51.5317H88.6971L87.0091 56.3395H86.3026L87.9844 51.5317Z" fill="#E0E0E0"/>
<path d="M89.616 51.5317H90.3225L88.6407 56.3395H87.928L89.616 51.5317Z" fill="#E0E0E0"/>
<path d="M240.089 85.5548H94.0236C91.8365 85.5548 89.739 84.686 88.1925 83.1395C86.646 81.593 85.7772 79.4955 85.7772 77.3084C85.7789 75.1218 86.6482 73.0253 88.1944 71.4792C89.7405 69.933 91.837 69.0637 94.0236 69.062H240.089C242.276 69.0637 244.372 69.933 245.919 71.4792C247.465 73.0253 248.334 75.1218 248.336 77.3084C248.336 79.4955 247.467 81.593 245.92 83.1395C244.374 84.686 242.276 85.5548 240.089 85.5548Z" fill="#FAFAFA"/>
<path d="M240.089 85.5548C241.254 85.5297 242.403 85.2703 243.465 84.7921C244.511 84.3107 245.445 83.6177 246.209 82.7568C246.973 81.8959 247.551 80.8858 247.904 79.7905C248.201 78.813 248.315 77.7895 248.242 76.7707C248.164 75.6303 247.849 74.5186 247.317 73.5072C246.721 72.3991 245.881 71.4412 244.86 70.7063C243.744 69.9024 242.442 69.3947 241.077 69.2308C240.352 69.1687 239.623 69.1478 238.895 69.1683H236.619H215.619L94.0361 69.2121C92.5762 69.2163 91.1443 69.6136 89.891 70.3624C88.6596 71.0977 87.6459 72.1473 86.9541 73.4036C86.2622 74.6599 85.917 76.0776 85.9539 77.5113C85.9908 78.9451 86.4085 80.3432 87.1641 81.5622C87.9197 82.7813 88.986 83.7773 90.2537 84.4482C91.5058 85.0971 92.9013 85.4196 94.3112 85.386H135.062L189.723 85.4235L226.61 85.4735H236.613H239.22C239.808 85.4735 240.108 85.4735 240.108 85.4735H239.22H236.613H226.61L189.723 85.5298L135.062 85.5611H102.776H94.3112C92.8486 85.5988 91.4005 85.2631 90.1036 84.5857C88.4434 83.7079 87.1249 82.2995 86.3582 80.5851C85.5915 78.8707 85.4207 76.949 85.8732 75.1263C86.3256 73.3036 87.3752 71.6848 88.8546 70.5279C90.334 69.3711 92.1581 68.7428 94.0361 68.7432L215.65 68.9495H236.651H238.926C239.663 68.9315 240.4 68.9545 241.133 69.0183C242.523 69.191 243.846 69.7138 244.978 70.5375C245.971 71.2491 246.794 72.1723 247.386 73.2406C247.979 74.3088 248.327 75.4954 248.404 76.7145C248.47 77.7492 248.347 78.7872 248.042 79.778C247.758 80.6428 247.336 81.4557 246.791 82.185C245.943 83.3346 244.813 84.2456 243.509 84.8296C242.715 85.1789 241.871 85.4045 241.008 85.4985C240.389 85.5548 240.089 85.5548 240.089 85.5548Z" fill="#263238"/>
<path d="M97.375 79.0651L97.6813 78.3774C98.0682 78.6425 98.5253 78.7862 98.9943 78.7901C99.5382 78.7901 99.757 78.6087 99.757 78.3649C99.757 77.6209 97.45 78.1336 97.45 76.6581C97.45 75.9829 97.9939 75.4077 99.1256 75.4077C99.6072 75.3985 100.082 75.5194 100.501 75.7578L100.22 76.4581C99.8865 76.2595 99.5071 76.1517 99.1193 76.1455C98.5754 76.1455 98.3628 76.3518 98.3628 76.6019C98.3628 77.3333 100.67 76.8269 100.67 78.2836C100.67 78.9463 100.12 79.534 98.988 79.534C98.4149 79.5473 97.8517 79.3835 97.375 79.0651Z" fill="#E0E0E0"/>
<path d="M104.208 78.1838H101.901C101.947 78.3761 102.061 78.5453 102.222 78.6602C102.383 78.7751 102.58 78.828 102.777 78.809C102.917 78.8134 103.058 78.789 103.189 78.7374C103.32 78.6858 103.439 78.6081 103.539 78.5089L104.008 79.0215C103.77 79.2509 103.472 79.4091 103.148 79.4782C102.825 79.5474 102.489 79.5248 102.177 79.413C101.866 79.3012 101.592 79.1046 101.386 78.8455C101.181 78.5863 101.052 78.2748 101.013 77.9462C101.011 77.7345 101.051 77.5245 101.133 77.3292C101.214 77.1338 101.335 76.9571 101.487 76.8101C101.639 76.6631 101.82 76.5488 102.018 76.4743C102.216 76.3998 102.428 76.3667 102.639 76.3769C102.85 76.3662 103.061 76.3998 103.258 76.4754C103.455 76.551 103.634 76.6671 103.783 76.816C103.933 76.965 104.05 77.1436 104.126 77.3404C104.202 77.5372 104.237 77.7478 104.227 77.9587C104.227 78.015 104.214 78.1088 104.208 78.1838ZM101.889 77.6649H103.389C103.357 77.4893 103.264 77.3307 103.127 77.2164C102.99 77.1022 102.817 77.0397 102.639 77.0397C102.461 77.0397 102.288 77.1022 102.151 77.2164C102.014 77.3307 101.921 77.4893 101.889 77.6649Z" fill="#E0E0E0"/>
<path d="M107.428 77.7151V79.4594H106.603V79.078C106.5 79.2258 106.359 79.3431 106.195 79.4179C106.031 79.4927 105.85 79.5221 105.671 79.5032C104.959 79.5032 104.533 79.103 104.533 78.5779C104.533 78.0527 104.915 77.6651 105.84 77.6651H106.547C106.547 77.29 106.315 77.0399 105.84 77.0399C105.526 77.0372 105.219 77.1358 104.965 77.3212L104.646 76.696C105.038 76.446 105.494 76.3177 105.959 76.3271C106.865 76.3647 107.428 76.7961 107.428 77.7151ZM106.547 78.4966V78.184H105.921C105.509 78.184 105.377 78.334 105.377 78.5404C105.377 78.7467 105.565 78.9092 105.871 78.9092C106.013 78.9232 106.156 78.8905 106.278 78.8161C106.4 78.7416 106.494 78.6295 106.547 78.4966Z" fill="#E0E0E0"/>
<path d="M110.123 76.3647V77.1775H109.923C109.812 77.1683 109.7 77.184 109.596 77.2233C109.492 77.2626 109.398 77.3247 109.321 77.4049C109.243 77.4851 109.185 77.5815 109.15 77.687C109.114 77.7926 109.103 77.9047 109.116 78.0152V79.4595H108.229V76.4085H109.073V76.8086C109.2 76.6566 109.362 76.5371 109.544 76.46C109.727 76.3828 109.925 76.3501 110.123 76.3647Z" fill="#E0E0E0"/>
<path d="M110.398 77.9341C110.398 77.7168 110.443 77.5018 110.53 77.3028C110.617 77.1037 110.745 76.9249 110.905 76.7775C111.064 76.6301 111.253 76.5174 111.458 76.4464C111.664 76.3753 111.881 76.3476 112.098 76.3648C112.377 76.3425 112.656 76.4045 112.899 76.5427C113.142 76.681 113.338 76.8891 113.461 77.1401L112.773 77.509C112.71 77.3824 112.613 77.2761 112.493 77.2021C112.372 77.128 112.233 77.0892 112.092 77.0901C111.868 77.0901 111.653 77.179 111.495 77.3373C111.337 77.4956 111.248 77.7102 111.248 77.9341C111.248 78.1579 111.337 78.3726 111.495 78.5309C111.653 78.6892 111.868 78.7781 112.092 78.7781C112.234 78.7804 112.373 78.7423 112.494 78.668C112.614 78.5938 112.711 78.4867 112.773 78.3592L113.461 78.7343C113.336 78.9831 113.139 79.189 112.896 79.3259C112.654 79.4628 112.376 79.5245 112.098 79.5033C111.881 79.5206 111.664 79.4928 111.458 79.4218C111.253 79.3508 111.064 79.238 110.905 79.0907C110.745 78.9433 110.617 78.7644 110.53 78.5654C110.443 78.3664 110.398 78.1514 110.398 77.9341Z" fill="#E0E0E0"/>
<path d="M117.069 77.7152V79.4596H116.181V77.8465C116.181 77.3526 115.956 77.1276 115.556 77.1276C115.155 77.1276 114.824 77.3901 114.824 77.9528V79.4596H113.936V75.252H114.824V76.7274C114.953 76.6057 115.106 76.5109 115.272 76.4486C115.439 76.3864 115.616 76.3579 115.793 76.3648C115.971 76.3511 116.149 76.3773 116.315 76.4414C116.481 76.5055 116.631 76.606 116.753 76.7355C116.876 76.8649 116.967 77.0201 117.022 77.1896C117.076 77.3592 117.092 77.5388 117.069 77.7152Z" fill="#E0E0E0"/>
<path d="M119.257 78.9467C119.257 78.8007 119.315 78.6608 119.418 78.5576C119.521 78.4545 119.661 78.3965 119.807 78.3965C119.953 78.3965 120.093 78.4545 120.196 78.5576C120.299 78.6608 120.357 78.8007 120.357 78.9467C120.357 79.0926 120.299 79.2325 120.196 79.3357C120.093 79.4389 119.953 79.4968 119.807 79.4968C119.661 79.4968 119.521 79.4389 119.418 79.3357C119.315 79.2325 119.257 79.0926 119.257 78.9467Z" fill="#E0E0E0"/>
<path d="M120.745 78.9468C120.746 78.8382 120.779 78.7325 120.841 78.6428C120.902 78.5532 120.988 78.4836 121.089 78.4429C121.189 78.4023 121.3 78.3922 121.406 78.4142C121.512 78.4361 121.61 78.489 121.686 78.5662C121.763 78.6434 121.814 78.7414 121.835 78.848C121.856 78.9545 121.845 79.0648 121.803 79.165C121.761 79.2651 121.69 79.3507 121.6 79.4109C121.51 79.4711 121.404 79.5032 121.295 79.5032C121.222 79.504 121.15 79.4902 121.082 79.4624C121.015 79.4347 120.953 79.3937 120.902 79.3417C120.851 79.2898 120.81 79.2281 120.783 79.1602C120.756 79.0924 120.743 79.0198 120.745 78.9468Z" fill="#E0E0E0"/>
<path d="M122.227 78.9467C122.227 78.8007 122.285 78.6608 122.388 78.5576C122.491 78.4545 122.631 78.3965 122.777 78.3965C122.923 78.3965 123.063 78.4545 123.166 78.5576C123.269 78.6608 123.327 78.8007 123.327 78.9467C123.327 79.0189 123.313 79.0905 123.285 79.1572C123.257 79.224 123.217 79.2846 123.166 79.3357C123.115 79.3868 123.054 79.4273 122.987 79.455C122.921 79.4826 122.849 79.4968 122.777 79.4968C122.704 79.4968 122.633 79.4826 122.566 79.455C122.499 79.4273 122.439 79.3868 122.388 79.3357C122.337 79.2846 122.296 79.224 122.268 79.1572C122.241 79.0905 122.227 79.0189 122.227 78.9467Z" fill="#E0E0E0"/>
<path d="M68.7719 99.8974C68.7719 99.9912 62.9075 100.06 55.6802 100.06C48.4529 100.06 42.5885 99.9912 42.5885 99.8974C42.5885 99.8036 48.4466 99.7349 55.6802 99.7349C62.9138 99.7349 68.7719 99.8224 68.7719 99.8974Z" fill="black"/>
<path d="M69.7972 107.394H42.5885V134.602H69.7972V107.394Z" fill="#72CBD0"/>
<path d="M235.125 113.808C235.125 113.896 201.365 113.971 159.701 113.971C118.038 113.971 84.2708 113.896 84.2708 113.808C84.2708 113.721 118.032 113.646 159.701 113.646C201.371 113.646 235.125 113.714 235.125 113.808Z" fill="black"/>
<path d="M125.534 124.049C125.534 124.143 116.631 124.211 105.659 124.211C94.6863 124.211 85.7772 124.143 85.7772 124.049C85.7772 123.955 94.6738 123.886 105.659 123.886C116.643 123.886 125.534 123.961 125.534 124.049Z" fill="black"/>
<path d="M211.017 133.552C211.017 133.64 182.977 133.715 148.397 133.715C113.817 133.715 85.7772 133.64 85.7772 133.552C85.7772 133.465 113.811 133.383 148.397 133.383C182.983 133.383 211.017 133.458 211.017 133.552Z" fill="#E0E0E0"/>
<path d="M68.7719 148.663C68.7719 148.751 62.9075 148.826 55.6802 148.826C48.4529 148.826 42.5885 148.751 42.5885 148.663C42.5885 148.576 48.4466 148.5 55.6802 148.5C62.9138 148.5 68.7719 148.557 68.7719 148.663Z" fill="black"/>
<path d="M69.7972 156.128H42.5885V183.337H69.7972V156.128Z" fill="#72CBD0"/>
<path d="M244.091 162.536C244.091 162.63 208.311 162.699 164.184 162.699C120.057 162.699 84.2708 162.63 84.2708 162.536C84.2708 162.442 120.045 162.374 164.184 162.374C208.323 162.374 244.091 162.449 244.091 162.536Z" fill="black"/>
<path d="M125.534 172.783C125.534 172.871 116.631 172.946 105.659 172.946C94.6863 172.946 85.7772 172.871 85.7772 172.783C85.7772 172.696 94.6738 172.621 105.659 172.621C116.643 172.621 125.534 172.696 125.534 172.783Z" fill="black"/>
<path d="M232.824 182.28C232.824 182.374 199.908 182.442 159.307 182.442C118.707 182.442 85.7772 182.374 85.7772 182.28C85.7772 182.186 118.694 182.117 159.307 182.117C199.92 182.117 232.824 182.192 232.824 182.28Z" fill="#E0E0E0"/>
<path d="M267.248 198.285C267.248 197.21 267.198 132.764 267.117 30.875L267.248 31.0063H22.9072L23.0697 30.8437C23.0697 90.6004 23.0697 147.375 23.0697 198.254L22.9197 198.104L267.279 198.254L22.9197 198.397H22.7697V198.254C22.7697 147.375 22.7697 90.6004 22.7697 30.8437V30.6812H22.951H267.292H267.423V30.8124C267.304 132.764 267.248 197.21 267.248 198.285Z" fill="#263238"/>
<path d="M107.553 43.0034C107.553 43.0972 98.9256 43.1659 88.2847 43.1659C77.6438 43.1659 69.016 43.0972 69.016 43.0034C69.016 42.9096 77.6438 42.8408 88.2847 42.8408C98.9256 42.8408 107.553 42.9158 107.553 43.0034Z" fill="black"/>
<path d="M72.7918 73.7764H38.5684V84.0859H72.7918V73.7764Z" fill="#455A64"/>
<path d="M133.393 100.779C133.393 100.873 122.764 100.941 109.635 100.941C96.5059 100.941 85.8774 100.873 85.8774 100.779C85.8774 100.685 96.5059 100.616 109.635 100.616C122.764 100.616 133.393 100.691 133.393 100.779Z" fill="#72CBD0"/>
<path d="M133.393 148.663C133.393 148.751 122.764 148.826 109.635 148.826C96.5059 148.826 85.8774 148.751 85.8774 148.663C85.8774 148.576 96.5059 148.5 109.635 148.5C122.764 148.5 133.393 148.557 133.393 148.663Z" fill="#72CBD0"/>
<path d="M236.945 80.0531C236.158 80.0544 235.388 79.8221 234.733 79.3856C234.078 78.9492 233.568 78.3282 233.266 77.6014C232.964 76.8746 232.885 76.0746 233.038 75.3027C233.191 74.5308 233.57 73.8217 234.127 73.2652C234.683 72.7087 235.392 72.3299 236.164 72.1767C236.936 72.0235 237.736 72.1027 238.463 72.4045C239.19 72.7062 239.811 73.2168 240.247 73.8717C240.684 74.5265 240.916 75.2961 240.915 76.0831C240.913 77.1355 240.494 78.1443 239.75 78.8885C239.006 79.6327 237.997 80.0515 236.945 80.0531ZM236.945 72.732C236.282 72.7308 235.633 72.9263 235.081 73.2938C234.529 73.6612 234.099 74.1842 233.844 74.7964C233.59 75.4086 233.522 76.0826 233.651 76.733C233.78 77.3835 234.098 77.9812 234.567 78.4505C235.035 78.9197 235.632 79.2395 236.282 79.3693C236.933 79.4991 237.607 79.4331 238.219 79.1797C238.832 78.9262 239.356 78.4967 239.724 77.9455C240.093 77.3943 240.29 76.7462 240.29 76.0831C240.29 75.1954 239.937 74.344 239.31 73.7158C238.683 73.0875 237.832 72.7337 236.945 72.732Z" fill="#72CBD0"/>
<path d="M241.828 81.8164C241.743 81.8162 241.662 81.7824 241.603 81.7226L239.014 79.153C238.985 79.1239 238.962 79.0893 238.946 79.0512C238.93 79.0131 238.922 78.9723 238.922 78.9311C238.922 78.8898 238.93 78.849 238.946 78.811C238.962 78.7729 238.985 78.7383 239.014 78.7091C239.043 78.68 239.078 78.6569 239.116 78.6411C239.154 78.6253 239.195 78.6172 239.236 78.6172C239.277 78.6172 239.318 78.6253 239.356 78.6411C239.394 78.6569 239.429 78.68 239.458 78.7091L242.047 81.2787C242.089 81.3232 242.117 81.3788 242.128 81.439C242.14 81.4991 242.133 81.5613 242.11 81.618C242.087 81.6747 242.048 81.7235 241.998 81.7587C241.948 81.7939 241.889 81.8139 241.828 81.8164Z" fill="#72CBD0"/>
<path d="M176.188 123.349C176.188 123.436 165.953 123.511 153.324 123.511C140.695 123.511 130.454 123.436 130.454 123.349C130.454 123.261 140.695 123.186 153.324 123.186C165.953 123.186 176.188 123.255 176.188 123.349Z" fill="black"/>
<path d="M205.741 122.642C205.741 122.736 200.383 122.805 193.781 122.805C187.179 122.805 181.815 122.736 181.815 122.642C181.815 122.548 187.173 122.479 193.781 122.479C200.389 122.479 205.741 122.555 205.741 122.642Z" fill="black"/>
<path d="M175.969 172.783C175.969 172.871 165.734 172.946 153.105 172.946C140.476 172.946 130.242 172.871 130.242 172.783C130.242 172.696 140.476 172.621 153.105 172.621C165.734 172.621 175.969 172.696 175.969 172.783Z" fill="black"/>
<path d="M53.2358 185.65C48.1591 188.276 44.2704 192.803 41.4757 197.786C38.6811 202.768 36.8742 208.226 35.0924 213.684L33.5294 241.675C39.4313 231.634 44.1578 219.83 45.4457 208.251L41.5195 207.901C44.1516 207.501 46.3648 205.594 47.7715 203.331C49.1782 201.068 49.8972 198.461 50.6037 195.891L45.8146 196.604C49.6048 194.043 52.2625 190.12 53.2358 185.65Z" fill="#455A64"/>
<g opacity="0.3">
<path d="M53.2358 185.65C48.1591 188.276 44.2704 192.803 41.4757 197.786C38.6811 202.768 36.8742 208.226 35.0924 213.684L33.5294 241.675C39.4313 231.634 44.1578 219.83 45.4457 208.251L41.5195 207.901C44.1516 207.501 46.3648 205.594 47.7715 203.331C49.1782 201.068 49.8972 198.461 50.6037 195.891L45.8146 196.604C49.6048 194.043 52.2625 190.12 53.2358 185.65Z" fill="black"/>
</g>
<path d="M32.6541 248.195C32.6541 248.195 19.8438 232.865 19.9938 218.229H25.1642C25.1642 218.229 19.5374 214.528 19.9876 212.459C20.4377 210.389 20.6128 202.555 20.6128 202.555L25.3455 203.737C25.3455 203.737 21.7944 201.962 21.3505 199.154C20.9066 196.347 22.3883 183.331 22.3883 183.331C22.3883 183.331 28.1527 189.395 29.9282 195.603C31.7038 201.811 36.3303 209.058 34.9674 227.982C33.6044 246.907 32.6541 248.195 32.6541 248.195Z" fill="#455A64"/>
<path d="M39.15 249.646C39.15 249.646 53.0295 240.399 56.1117 228.602L51.9479 227.439C51.9479 227.439 57.2809 225.701 57.3746 223.938C57.4684 222.175 59.0627 215.841 59.0627 215.841L54.9989 215.76C54.9989 215.76 58.2437 215.135 59.2127 212.947C60.1818 210.758 61.8448 200.005 61.8448 200.005C61.8448 200.005 55.8804 203.612 53.092 208.22C50.3036 212.828 44.9644 217.629 41.9322 233.147C38.9 248.664 39.15 249.646 39.15 249.646Z" fill="#455A64"/>
<path d="M25.8582 196.704C25.8802 196.754 25.897 196.806 25.9082 196.86L26.0207 197.329C26.1207 197.773 26.2583 198.379 26.4396 199.148C26.796 200.73 27.2711 203.024 27.8088 205.869C28.9029 211.552 30.197 219.455 31.2161 228.232C32.2352 237.01 32.7729 245 33.0042 250.79C33.123 253.684 33.1855 256.023 33.198 257.667C33.198 258.461 33.198 259.08 33.198 259.543C33.198 259.743 33.198 259.899 33.198 260.03C33.2073 260.084 33.2073 260.139 33.198 260.193C33.1894 260.139 33.1894 260.084 33.198 260.03C33.198 259.905 33.198 259.743 33.198 259.549C33.198 259.092 33.1605 258.473 33.1292 257.673C33.0792 256.054 32.9792 253.716 32.8291 250.827C32.5416 245.044 31.9601 237.073 30.9535 228.32C29.947 219.567 28.6841 211.652 27.6462 205.957C27.1336 203.112 26.6959 200.811 26.3958 199.223C26.2458 198.448 26.127 197.835 26.0395 197.398C26.0082 197.198 25.9769 197.041 25.9582 196.916C25.9096 196.854 25.8754 196.781 25.8582 196.704Z" fill="#263238"/>
<path d="M30.8785 257.586C30.8785 257.586 19.156 244.319 15.5111 236.242L18.262 235.073C16.2676 235.398 14.2294 234.541 12.6852 233.241C11.2017 231.867 9.92548 230.286 8.89645 228.545L12.5164 227.92C9.19225 226.975 6.35861 224.788 4.60132 221.812C8.87769 222.512 12.7289 224.857 15.9237 227.789C18.459 230.22 20.7614 232.882 22.8009 235.741C23.821 237.116 24.7125 238.581 25.4643 240.118C27.4211 244.194 30.8848 252.703 30.8785 257.586Z" fill="#455A64"/>
<path d="M56.293 207.77C56.2834 207.818 56.2666 207.864 56.243 207.907L56.0679 208.295L55.3615 209.776C54.7363 211.027 53.8547 212.902 52.7794 215.222C50.6287 219.83 47.7778 226.269 44.9894 233.509C42.201 240.749 39.9878 247.42 38.4498 252.265C37.6933 254.697 37.0993 256.641 36.6992 258.036L36.2178 259.617L36.0865 260.024C36.0865 260.111 36.0365 260.161 36.0302 260.155C36.024 260.149 36.0302 260.105 36.0302 260.011L36.1303 259.599L36.5429 258.011C36.9055 256.635 37.4682 254.653 38.1997 252.215C39.6564 247.332 41.8509 240.643 44.6518 233.39C47.4527 226.138 50.3348 219.711 52.5418 215.122C53.6422 212.827 54.5612 210.983 55.2177 209.72L55.9804 208.263L56.1867 207.895C56.2172 207.849 56.2528 207.807 56.293 207.77Z" fill="#263238"/>
<path d="M31.8726 263.287C31.7816 262.977 31.7189 262.659 31.685 262.337C31.5912 261.712 31.4349 260.843 31.2161 259.755C30.6412 256.927 29.8448 254.149 28.8341 251.446C27.8075 248.747 26.5678 246.134 25.1267 243.631C24.5702 242.675 24.1076 241.906 23.77 241.387C23.5858 241.122 23.4247 240.841 23.2886 240.549C23.507 240.785 23.7037 241.04 23.8763 241.312C24.2451 241.818 24.7453 242.562 25.3267 243.519C26.834 245.999 28.1106 248.613 29.1405 251.327C30.1624 254.046 30.9325 256.852 31.4412 259.711C31.6288 260.812 31.7538 261.699 31.8101 262.325C31.8577 262.643 31.8786 262.965 31.8726 263.287Z" fill="#263238"/>
<path d="M47.3404 260.155H21.6821V265.388H47.3404V260.155Z" fill="#72CBD0"/>
<path d="M24.1263 265.395L26.9022 282.994H42.4072L44.9955 265.395H24.1263Z" fill="#72CBD0"/>
<path d="M45.7646 265.395C45.7646 265.482 40.913 265.558 34.9236 265.558C28.9342 265.558 24.0889 265.482 24.0889 265.395C24.0889 265.307 28.9404 265.232 34.9236 265.232C40.9068 265.232 45.7646 265.301 45.7646 265.395Z" fill="#263238"/>
<path d="M157.507 270.008V282.987L183.69 282.862C183.502 280.23 169.129 274.979 169.129 274.979L169.417 269.977L157.507 270.008Z" fill="#455A64"/>
<g opacity="0.6">
<path d="M161.752 273.803C161.497 273.897 161.284 274.079 161.153 274.317C161.022 274.555 160.982 274.832 161.039 275.097C161.099 275.358 161.259 275.585 161.485 275.729C161.71 275.873 161.984 275.922 162.246 275.866C162.516 275.765 162.741 275.569 162.878 275.315C163.016 275.062 163.058 274.767 162.996 274.485C162.95 274.355 162.879 274.236 162.786 274.135C162.694 274.033 162.582 273.951 162.458 273.893C162.333 273.834 162.198 273.801 162.061 273.796C161.924 273.79 161.787 273.812 161.658 273.859" fill="white"/>
</g>
<path d="M157.507 282.987V280.918L182.515 281.212C182.515 281.212 183.815 281.993 183.696 282.862L157.507 282.987Z" fill="#263238"/>
<path d="M169.142 275.229C169.142 275.366 168.516 275.435 167.891 275.854C167.266 276.273 166.947 276.867 166.828 276.817C166.71 276.767 166.891 275.979 167.647 275.46C168.404 274.941 169.167 275.104 169.142 275.229Z" fill="#263238"/>
<path d="M172.574 276.429C172.574 276.561 172.055 276.798 171.63 277.373C171.205 277.949 171.092 278.555 170.967 278.549C170.842 278.543 170.748 277.786 171.286 277.08C171.824 276.373 172.568 276.304 172.574 276.429Z" fill="#263238"/>
<path d="M174.118 279.737C174 279.768 173.812 279.111 174.118 278.355C174.425 277.599 175.025 277.311 175.081 277.423C175.137 277.536 174.775 277.936 174.525 278.549C174.275 279.162 174.243 279.724 174.118 279.737Z" fill="#263238"/>
<path d="M168.886 271.534C168.836 271.659 168.26 271.484 167.529 271.534C166.797 271.584 166.279 271.846 166.191 271.728C166.103 271.609 166.654 271.102 167.498 271.065C168.342 271.027 168.948 271.428 168.886 271.534Z" fill="#263238"/>
<path d="M169.035 275.81C169.106 275.552 169.125 275.282 169.092 275.016C169.035 274.287 168.796 273.585 168.398 272.972C168.125 272.551 167.778 272.185 167.372 271.89C167.253 271.788 167.108 271.719 166.953 271.692C166.798 271.664 166.638 271.679 166.491 271.734C166.337 271.819 166.209 271.943 166.118 272.093C166.027 272.244 165.977 272.415 165.972 272.59C166.012 273.268 166.252 273.917 166.662 274.458C167.071 274.999 167.632 275.406 168.273 275.629C168.9 275.828 169.572 275.834 170.203 275.647C170.834 275.46 171.394 275.088 171.811 274.579C172.016 274.343 172.175 274.072 172.28 273.778C172.333 273.609 172.333 273.428 172.28 273.259C172.251 273.175 172.204 273.098 172.143 273.033C172.081 272.968 172.006 272.918 171.924 272.884C171.653 272.804 171.361 272.833 171.111 272.965C170.894 273.064 170.685 273.179 170.486 273.309C169.898 273.703 169.39 274.206 168.992 274.791C168.828 274.998 168.705 275.233 168.629 275.485C169.171 274.724 169.847 274.067 170.623 273.547C170.973 273.347 171.436 273.059 171.805 273.191C171.967 273.253 172.03 273.447 171.955 273.672C171.86 273.917 171.72 274.141 171.542 274.335C171.164 274.784 170.661 275.111 170.097 275.275C169.533 275.439 168.933 275.431 168.373 275.254C167.813 275.056 167.321 274.703 166.954 274.235C166.588 273.768 166.362 273.206 166.303 272.615C166.299 272.503 166.325 272.391 166.379 272.292C166.433 272.193 166.512 272.11 166.609 272.053C166.709 272.021 166.815 272.014 166.918 272.034C167.02 272.054 167.116 272.099 167.197 272.165C167.576 272.428 167.904 272.756 168.166 273.134C168.56 273.694 168.823 274.335 168.935 275.01C169.017 275.529 169.004 275.81 169.035 275.81Z" fill="#263238"/>
<path d="M147.947 271.884L148.391 275.229L148.097 282.762L138.282 283L137.932 275.229L139.044 270.608L147.947 271.884Z" fill="#455A64"/>
<path d="M143.246 282.193C143.183 282.193 143.327 279.893 143.558 277.048C143.79 274.203 144.033 271.89 144.09 271.884C144.146 271.878 144.008 274.191 143.777 277.035C143.546 279.88 143.302 282.193 143.246 282.193Z" fill="#263238"/>
<path d="M148.135 281.506L138.219 281.625V283L148.141 282.994L148.135 281.506Z" fill="#263238"/>
<path d="M138.244 277.173C138.244 277.173 138.313 277.017 138.494 276.779C138.754 276.439 139.047 276.124 139.37 275.842C139.843 275.413 140.376 275.055 140.951 274.779C141.958 274.286 143.096 274.13 144.199 274.334C145.301 274.538 146.308 275.091 147.072 275.91C147.361 276.231 147.603 276.591 147.791 276.98C147.871 277.116 147.924 277.267 147.947 277.423C147.642 276.941 147.3 276.483 146.922 276.054C145.94 275.087 144.618 274.543 143.24 274.541C141.858 274.582 140.533 275.099 139.488 276.004C138.682 276.673 138.282 277.211 138.244 277.173Z" fill="#263238"/>
<path d="M143.202 61.5978L143.127 95.5212L157.688 96.2152L158.113 87.9625C158.113 87.9625 163.284 88.9879 164.615 84.2113C165.472 81.1416 165.24 57.4277 165.24 57.4277L143.202 61.5978Z" fill="#B78876"/>
<path d="M167.141 59.8097C164.847 60.4661 164.346 64.1861 164.346 64.1861L160.752 72.1324C158.92 70.7007 156.456 70.7819 155.994 74.008C155.656 76.3337 158.551 76.8026 158.551 76.8026C156.863 79.6723 155.725 81.9918 153.268 84.7177C150.63 87.6874 149.129 87.9812 146.253 88.0187H143.077C143.077 88.0187 141.52 82.9733 138.644 70.363C135.456 56.3711 151.999 58.1716 155.068 54.6017C160.064 48.7936 174.387 57.7402 167.141 59.8097Z" fill="#263238"/>
<path d="M171.18 56.7586C171.053 56.0124 170.664 55.336 170.083 54.8511C169.502 54.3662 168.767 54.1048 168.01 54.114C168.246 53.7153 168.335 53.2459 168.259 52.7884C168.184 52.331 167.949 51.9148 167.597 51.6132C167.232 51.3261 166.808 51.1215 166.356 51.0136C165.904 50.9056 165.434 50.8969 164.978 50.988C164.066 51.1725 163.185 51.4884 162.364 51.9258C162.057 51.0191 161.465 50.236 160.676 49.6938C159.827 49.1963 158.852 48.9553 157.869 48.9999C153.399 48.9999 151.048 52.0571 148.647 55.1769C148.297 55.7581 147.796 56.2334 147.197 56.5523C146.761 56.6804 146.306 56.7312 145.853 56.7023C144.145 56.7565 142.481 57.2601 141.03 58.1624C139.579 59.0647 138.392 60.3337 137.588 61.8415C136.025 64.8612 134.856 71.8447 138.907 76.2211L141.345 81.6666L164.684 63.1732C164.853 63.2607 166.316 63.9734 167.441 63.3857C170.236 61.9103 169.06 59.4595 169.06 59.4595C169.285 59.3032 171.417 58.2591 171.18 56.7586Z" fill="#263238"/>
<path d="M149.579 74.958C149.774 75.8093 149.746 76.6965 149.498 77.5338C149.366 78.3982 149.011 79.213 148.466 79.8971C148.366 79.8471 148.835 78.8092 149.135 77.4526C149.435 76.0959 149.473 74.958 149.579 74.958Z" fill="#455A64"/>
<path d="M151.342 73.2891C151.464 74.1235 151.417 74.9739 151.205 75.7899C151.111 76.6217 150.85 77.4258 150.436 78.1531C150.497 77.3318 150.633 76.5178 150.842 75.7211C150.931 74.8964 151.099 74.0821 151.342 73.2891Z" fill="#455A64"/>
<path d="M156.381 67.687C156.419 67.737 156.006 68.0371 155.481 68.6498C154.812 69.4614 154.281 70.3783 153.912 71.3632C153.553 72.3592 153.263 73.3786 153.043 74.4142C152.981 74.8459 152.859 75.2668 152.68 75.6646C152.654 75.2179 152.69 74.7697 152.786 74.3329C152.935 73.266 153.197 72.218 153.568 71.2069C153.948 70.1813 154.536 69.245 155.293 68.456C155.59 68.117 155.963 67.8534 156.381 67.687Z" fill="#455A64"/>
<path d="M158.419 63.8799C158.463 63.8799 158.613 64.205 158.707 64.7927C158.813 65.5671 158.768 66.3546 158.576 67.1122C158.393 67.8711 158.059 68.5855 157.594 69.2128C157.238 69.6942 156.969 69.9256 156.913 69.8943C156.856 69.8631 157.807 68.7252 158.219 67.0246C158.632 65.3241 158.307 63.8924 158.419 63.8799Z" fill="#455A64"/>
<path d="M141.045 72.351C140.995 72.4448 140.551 72.2885 140.051 72.0071C139.551 71.7258 139.182 71.4319 139.232 71.3382C139.282 71.2444 139.726 71.4069 140.226 71.6883C140.726 71.9696 141.095 72.2635 141.045 72.351Z" fill="#455A64"/>
<path d="M148.079 68.7312C148.136 69.2578 147.988 69.786 147.666 70.2067C147.216 70.9507 146.609 71.3383 146.547 71.2633C146.484 71.1882 146.941 70.7006 147.347 70.0129C147.754 69.3251 147.972 68.7062 148.079 68.7312Z" fill="#455A64"/>
<path d="M150.242 67.5684C150.234 68.209 150.014 68.8291 149.616 69.3314C149.035 70.2192 148.303 70.6944 148.247 70.5818C148.191 70.4693 148.766 69.9566 149.31 69.1001C149.591 68.5719 149.902 68.0604 150.242 67.5684Z" fill="#455A64"/>
<path d="M160.995 53.351C160.995 53.351 160.72 53.1446 160.195 52.8445C159.443 52.4459 158.608 52.2316 157.757 52.2193C156.495 52.1859 155.251 52.5181 154.174 53.1759C152.881 54.0255 151.831 55.1978 151.13 56.577C150.592 57.5863 150.173 58.6541 149.879 59.7593L149.817 59.9718L149.623 59.8655C148.62 59.3409 147.509 59.0563 146.378 59.034C145.48 59.0136 144.585 59.1489 143.734 59.4342C142.975 59.7153 142.25 60.078 141.57 60.5158C141.711 60.3485 141.875 60.2031 142.058 60.0844C142.549 59.7264 143.088 59.4381 143.658 59.2278C144.527 58.8972 145.449 58.7297 146.378 58.7339C147.565 58.731 148.735 59.0118 149.792 59.5529L149.535 59.6655C149.824 58.5328 150.244 57.4376 150.786 56.4019C151.518 54.9662 152.621 53.7529 153.981 52.8883C155.112 52.2144 156.417 51.8903 157.732 51.9568C158.617 51.9947 159.479 52.2595 160.233 52.7258C160.434 52.853 160.62 53.0019 160.789 53.1696C160.945 53.2822 161.002 53.3447 160.995 53.351Z" fill="#455A64"/>
<path d="M168.654 55.2018C168.623 55.2018 169.054 55.0893 169.486 55.577C169.61 55.7225 169.704 55.8916 169.762 56.0742C169.82 56.2567 169.841 56.4491 169.823 56.6398C169.785 56.8941 169.689 57.1361 169.541 57.3466C169.394 57.5571 169.199 57.7304 168.973 57.8527C168.436 58.1573 167.803 58.2445 167.204 58.0965C166.545 57.9231 165.926 57.6214 165.384 57.2087C164.815 56.7547 164.218 56.3371 163.596 55.9583C162.924 55.5946 162.198 55.3393 161.446 55.2018C159.984 54.9387 158.481 55.0418 157.069 55.5019C155.91 55.884 154.816 56.4405 153.824 57.1525C152.124 58.3716 151.286 59.3969 151.23 59.3407C151.398 59.0814 151.593 58.8404 151.811 58.6217C152.384 58.0049 153.011 57.4419 153.687 56.9399C154.684 56.1795 155.796 55.5843 156.982 55.1768C158.45 54.6791 160.02 54.5629 161.546 54.8392C162.336 54.9846 163.097 55.2547 163.803 55.6395C164.431 56.0167 165.035 56.4344 165.609 56.8899C166.112 57.2854 166.688 57.5786 167.304 57.7527C167.831 57.8977 168.394 57.8374 168.879 57.5839C169.075 57.4838 169.246 57.3407 169.379 57.1654C169.513 56.99 169.604 56.7868 169.648 56.571C169.693 56.2366 169.606 55.8978 169.404 55.627C169.213 55.4008 168.947 55.2501 168.654 55.2018Z" fill="#455A64"/>
<path d="M236.488 81.2414C235.938 80.7537 228.523 83.861 228.523 83.861C228.523 83.861 222.99 88.2374 220.714 90.7694L219.308 91.9386L198.264 108.3L172.38 97.5341L166.753 111.97C166.753 111.97 195.813 123.542 200.239 121.561C205.047 119.41 222.959 100.66 223.003 100.598L225.591 98.0968C225.591 98.0968 226.96 98.0968 227.998 98.0093C229.036 97.9217 232.074 95.9273 232.074 95.9273C232.363 95.3724 232.561 94.7752 232.662 94.158C232.726 93.9123 232.705 93.6522 232.603 93.4198C232.501 93.1873 232.323 92.9959 232.099 92.8764C232.205 92.3958 232.222 91.9 232.149 91.4134C232.031 90.5881 230.899 89.6316 230.899 89.6316C231.252 89.2722 231.493 88.8183 231.593 88.3249C231.843 87.3684 230.611 86.4493 230.611 86.4493C230.611 86.4493 234.919 83.5234 235.963 83.0044C237.007 82.4855 237.038 81.729 236.488 81.2414Z" fill="#B78876"/>
<path d="M176.188 229.12C176.275 228.17 176.319 227.438 176.319 226.982L179.245 180.323C179.245 180.323 176.788 166.694 175.625 163.08L165.178 159.035L151.255 164.456C151.167 163.337 151.111 162.643 151.111 162.643L130.623 169.732C130.623 169.732 130.092 183.718 130.623 187.976C130.798 189.345 131.33 192.877 131.98 197.041C131.98 197.041 132.643 206.088 132.78 206.594C133.274 208.439 133.405 212.959 133.405 217.485C133.405 223.237 133.718 230.083 134.081 233.334C134.443 236.585 134.612 272.372 134.612 272.372H149.742L151.686 215.378C152.011 209.27 152.499 199.93 152.812 193.171L156.363 214.215C156.363 214.984 158.526 227.019 158.526 227.019C158.026 230.807 157.718 234.617 157.601 238.436C157.35 249.064 156.106 272.372 156.106 272.372H170.911C170.911 272.372 175.363 238.686 176.225 229.12H176.188Z" fill="#263238"/>
<path d="M178.764 177.529C178.278 177.345 177.817 177.099 177.394 176.797C176.344 176.124 175.364 175.347 174.469 174.478C173.573 173.611 172.765 172.658 172.055 171.633C171.736 171.224 171.477 170.772 171.286 170.289C171.629 170.67 171.947 171.073 172.237 171.496C172.99 172.471 173.811 173.392 174.694 174.253C175.576 175.105 176.518 175.892 177.513 176.61C177.951 176.886 178.369 177.193 178.764 177.529Z" fill="#455A64"/>
<path d="M152.33 186.006C152.211 185.868 152.114 185.712 152.042 185.544C151.81 185.105 151.601 184.654 151.417 184.193C150.784 182.676 150.321 181.093 150.035 179.473C149.757 177.853 149.657 176.207 149.735 174.565C149.773 173.94 149.823 173.434 149.879 173.084C149.89 172.899 149.93 172.718 149.998 172.546C150.048 172.546 149.998 173.327 149.967 174.572C149.948 176.195 150.078 177.817 150.354 179.417C150.631 181.016 151.049 182.587 151.605 184.112C152.049 185.281 152.374 185.981 152.33 186.006Z" fill="#455A64"/>
<path d="M154.531 203.575C154.438 203.311 154.373 203.039 154.337 202.762C154.229 202.17 154.091 201.426 153.924 200.53C153.599 198.573 153.162 195.997 152.674 193.146C151.836 187.913 151.267 184.35 151.005 182.693C151.344 183.673 151.583 184.684 151.717 185.713C152.08 187.588 152.53 190.208 153.005 193.09C153.48 195.972 153.874 198.598 154.149 200.492C154.268 201.393 154.374 202.143 154.456 202.743C154.512 203.017 154.537 203.295 154.531 203.575Z" fill="#455A64"/>
<path d="M118.825 125.75C118.825 125.75 116.831 139.81 116.456 144.737C116.231 147.707 119.244 151.614 121.545 151.933C123.846 152.252 131.598 152.683 131.598 152.683L132.223 143.862L132.023 142.105L129.616 141.655L130.341 127.663L118.825 125.75Z" fill="#B78876"/>
<path d="M130.041 128.138C130.103 128.387 130.135 128.643 130.135 128.9C130.173 129.394 130.198 130.107 130.216 130.995C130.26 132.758 130.216 135.202 130.066 137.872C129.916 140.542 129.698 142.999 129.529 144.749C129.435 145.625 129.36 146.337 129.297 146.825C129.283 147.081 129.239 147.335 129.166 147.581C129.138 147.326 129.138 147.068 129.166 146.812C129.197 146.25 129.241 145.562 129.291 144.724C129.41 142.892 129.56 140.498 129.729 137.847C129.898 135.196 129.96 132.733 129.979 130.97C129.979 130.145 129.979 129.444 129.979 128.882C129.974 128.632 129.995 128.383 130.041 128.138Z" fill="#AA6550"/>
<g opacity="0.3">
<path d="M130.805 169.989C134.743 171.452 139.057 171.571 143.24 171.208C147.422 170.845 151.561 170.001 155.744 169.607C162.083 169.015 168.475 169.437 174.681 170.858C175.114 170.989 175.569 171.032 176.019 170.983C176.242 170.954 176.452 170.859 176.62 170.71C176.789 170.56 176.908 170.364 176.963 170.145C177.076 169.445 176.307 168.957 175.656 168.688C168.501 165.729 160.808 164.29 153.066 164.462C145.324 164.634 137.703 166.414 130.686 169.689" fill="black"/>
</g>
<path d="M191.111 103.924L168.904 92.8704C165.402 92.4596 161.875 92.3049 158.351 92.4078H143.652C143.652 92.4078 125.846 97.6595 122.902 102.505L115.268 125.387L130.36 127.663L132.236 144.106C132.236 144.106 130.36 163.143 130.36 165.906C130.32 167.186 130.397 168.467 130.592 169.733C130.592 169.733 160.789 165.144 168.223 167.563C175.656 169.983 177.663 169.733 177.663 169.733C177.663 169.733 177.038 161.83 176.494 157.229L174.781 134.284L173.531 116.778L187.504 121.054L191.111 103.924Z" fill="#72CBD0"/>
<path d="M130.223 127.844C130.167 127.844 130.016 126.9 129.685 125.374C129.244 123.39 128.659 121.441 127.935 119.541C127.195 117.627 126.33 115.765 125.346 113.964L124.433 112.326C124.304 112.132 124.201 111.922 124.127 111.701C124.29 111.869 124.433 112.056 124.552 112.258C124.809 112.626 125.177 113.17 125.559 113.858C126.614 115.636 127.518 117.499 128.26 119.429C128.991 121.342 129.548 123.317 129.923 125.331C130.06 126.1 130.148 126.725 130.192 127.162C130.23 127.387 130.241 127.616 130.223 127.844Z" fill="#263238"/>
<path d="M158.701 134.34C158.689 134.445 158.662 134.549 158.62 134.646L158.338 135.49C158.213 135.859 158.057 136.303 157.851 136.816C157.644 137.328 157.426 137.916 157.138 138.541C156.594 139.792 155.888 141.305 155 142.918C154.112 144.531 153.062 146.244 151.874 147.982C150.686 149.72 149.373 151.289 148.191 152.677C147.01 154.065 145.828 155.234 144.815 156.184C144.321 156.672 143.84 157.078 143.434 157.435C143.027 157.791 142.658 158.11 142.358 158.354L141.658 158.904C141.579 158.973 141.493 159.034 141.402 159.085C141.402 159.085 141.47 158.998 141.62 158.854L142.277 158.229C142.564 157.979 142.902 157.66 143.315 157.278C143.727 156.897 144.177 156.484 144.659 155.991C145.647 155.028 146.772 153.827 147.966 152.452C149.16 151.076 150.398 149.488 151.611 147.769C152.824 146.05 153.862 144.331 154.737 142.768C155.612 141.205 156.356 139.704 156.925 138.447C157.225 137.822 157.457 137.241 157.676 136.741C157.894 136.24 158.076 135.803 158.22 135.44C158.363 135.078 158.463 134.815 158.557 134.615C158.593 134.518 158.642 134.425 158.701 134.34Z" fill="#263238"/>
<path d="M168.96 94.3833C168.376 95.2186 167.977 96.1694 167.791 97.1717C167.604 98.2578 167.604 99.3679 167.791 100.454C168.034 101.791 168.347 103.114 168.729 104.418C169.498 107.219 170.304 109.713 170.923 111.514C171.217 112.364 171.461 113.077 171.661 113.646C171.765 113.902 171.844 114.168 171.899 114.44C171.753 114.203 171.631 113.951 171.536 113.69C171.33 113.202 171.036 112.489 170.698 111.595C170.023 109.813 169.173 107.312 168.404 104.505C168.03 103.196 167.731 101.866 167.51 100.523C167.326 99.4054 167.343 98.2643 167.56 97.1529C167.713 96.4029 168.006 95.6883 168.423 95.046C168.56 94.7942 168.742 94.5696 168.96 94.3833Z" fill="#263238"/>
<path d="M127.059 118.472C126.73 118.828 126.324 119.104 125.872 119.279C124.809 119.767 123.627 119.932 122.472 119.756C121.316 119.579 120.238 119.068 119.369 118.285C118.991 117.985 118.687 117.602 118.482 117.166C118.525 117.128 118.851 117.572 119.52 118.11C120.39 118.813 121.431 119.273 122.538 119.441C123.644 119.609 124.775 119.48 125.815 119.066C126.584 118.754 127.028 118.429 127.059 118.472Z" fill="white"/>
<path d="M169.617 108.15C169.573 108.316 169.512 108.478 169.435 108.631C169.298 108.944 169.085 109.394 168.779 109.957C167.899 111.553 166.786 113.008 165.478 114.277C163.522 116.175 161.083 117.501 158.426 118.109C156.859 118.468 155.24 118.538 153.649 118.316C151.946 118.045 150.308 117.462 148.816 116.596C145.746 114.883 143.152 112.714 140.313 111.676C137.803 110.748 135.071 110.598 132.473 111.245C130.72 111.665 129.066 112.423 127.603 113.477C126.578 114.233 126.096 114.765 126.071 114.727C126.509 114.226 126.997 113.771 127.528 113.37C129.343 111.995 131.472 111.093 133.723 110.747C135.974 110.401 138.275 110.622 140.42 111.388C143.327 112.439 145.94 114.614 148.973 116.303C150.428 117.16 152.028 117.745 153.693 118.028C155.248 118.247 156.83 118.183 158.363 117.841C160.973 117.256 163.375 115.974 165.315 114.133C166.628 112.896 167.757 111.477 168.666 109.919C168.985 109.369 169.223 108.925 169.373 108.625C169.441 108.461 169.523 108.302 169.617 108.15Z" fill="white"/>
<path d="M183.521 100.129C183.645 100.359 183.741 100.602 183.809 100.854C184.015 101.531 184.137 102.23 184.172 102.936C184.293 105.304 183.543 107.635 182.065 109.488C181.206 110.439 180.273 111.321 179.276 112.127C178.494 112.783 177.855 113.594 177.401 114.509C177.093 115.125 176.949 115.809 176.982 116.497C177.019 116.984 177.126 117.247 177.094 117.253C177.063 117.259 177.051 117.197 177 117.072C176.93 116.891 176.881 116.702 176.857 116.509C176.771 115.794 176.886 115.069 177.188 114.415C177.628 113.457 178.267 112.604 179.064 111.914C180.034 111.105 180.947 110.23 181.796 109.294C183.223 107.494 183.977 105.252 183.928 102.955C183.88 102.002 183.744 101.056 183.521 100.129Z" fill="white"/>
<path d="M147.403 152.839C147.207 152.945 146.996 153.023 146.778 153.071C146.176 153.243 145.561 153.373 144.94 153.458C144.004 153.614 143.045 153.558 142.133 153.296C141.592 153.124 141.092 152.843 140.664 152.471C140.233 152.062 139.832 151.623 139.463 151.158C139.102 150.715 138.681 150.323 138.213 149.995C137.768 149.704 137.286 149.473 136.781 149.307C135.916 149.03 135.001 148.943 134.099 149.051C133.488 149.118 132.892 149.287 132.336 149.551C132.136 149.663 131.927 149.759 131.711 149.839C131.875 149.674 132.065 149.539 132.274 149.438C132.827 149.119 133.436 148.906 134.068 148.813C135.004 148.663 135.962 148.729 136.869 149.007C137.406 149.172 137.918 149.412 138.388 149.72C138.888 150.056 139.334 150.465 139.713 150.933C140.072 151.385 140.461 151.813 140.876 152.214C141.273 152.563 141.734 152.83 142.233 153.002C143.104 153.26 144.02 153.334 144.921 153.221C146.441 153.04 147.391 152.783 147.403 152.839Z" fill="white"/>
<path d="M176.157 151.508C176.097 151.572 176.03 151.629 175.957 151.677C175.757 151.827 175.548 151.964 175.331 152.089C174.555 152.563 173.712 152.919 172.831 153.146C171.506 153.486 170.128 153.567 168.773 153.383C167.101 153.157 165.514 152.512 164.159 151.508C162.871 150.468 161.64 149.36 160.47 148.188C159.513 147.258 158.406 146.497 157.194 145.937C156.381 145.561 155.496 145.364 154.6 145.362C153.974 145.362 153.612 145.468 153.606 145.431C153.685 145.394 153.769 145.366 153.856 145.35C154.097 145.285 154.344 145.245 154.593 145.231C155.517 145.189 156.439 145.358 157.288 145.725C158.539 146.268 159.684 147.028 160.67 147.969C161.814 148.982 162.952 150.214 164.353 151.245C165.665 152.21 167.197 152.833 168.81 153.058C170.13 153.249 171.474 153.196 172.774 152.902C173.645 152.695 174.485 152.378 175.275 151.958C175.559 151.79 175.854 151.64 176.157 151.508Z" fill="white"/>
<path d="M229.298 62.4231C224.758 60.251 220.794 57.037 217.73 53.043C214.667 49.0489 212.59 44.3877 211.669 39.439C210.748 34.4903 211.009 29.3941 212.431 24.5653C213.852 19.7366 216.394 15.3119 219.85 11.6517C223.305 7.99143 227.577 5.19913 232.316 3.50221C237.055 1.80528 242.127 1.25171 247.121 1.88658C252.114 2.52145 256.887 4.32681 261.051 7.15561C265.214 9.98442 268.651 13.7567 271.081 18.1652C274.353 24.0937 275.657 30.9084 274.805 37.6262C273.953 44.344 270.989 50.6174 266.34 55.5413C261.692 60.4653 255.599 63.7852 248.941 65.0221C242.284 66.259 235.405 65.3489 229.298 62.4231ZM255.945 6.69272C249.531 3.63129 242.235 2.96183 235.371 4.80506C228.508 6.64829 222.529 10.8829 218.512 16.7455C214.495 22.608 212.705 29.7128 213.464 36.7788C214.223 43.8448 217.482 50.4071 222.652 55.2826C227.823 60.1581 234.565 63.0261 241.663 63.3693C248.762 63.7125 255.749 61.5085 261.366 57.1546C266.983 52.8007 270.859 46.5834 272.297 39.6236C273.734 32.6638 272.638 25.4195 269.205 19.1967C266.199 13.7463 261.562 9.37373 255.945 6.69272Z" fill="#263238"/>
<path d="M283.241 97.3965C282.343 97.9483 281.264 98.122 280.238 97.8794C279.213 97.6368 278.326 96.9978 277.77 96.1023L256.87 62.2227C256.775 62.0693 256.744 61.8844 256.785 61.7086C256.826 61.5327 256.935 61.3804 257.089 61.2849L261.546 58.534C261.698 58.4412 261.88 58.4109 262.054 58.4494C262.227 58.4879 262.38 58.5921 262.478 58.7404L284.46 91.7697C284.762 92.2152 284.971 92.7174 285.073 93.2459C285.176 93.7744 285.17 94.3181 285.056 94.8443C284.942 95.3704 284.722 95.8679 284.41 96.3066C284.098 96.7453 283.7 97.1161 283.241 97.3965Z" fill="#263238"/>
<path d="M230.068 60.8098C225.524 58.6389 221.557 55.4252 218.491 51.4306C215.425 47.4361 213.346 42.7736 212.423 37.8232C211.501 32.8728 211.761 27.7744 213.182 22.9435C214.603 18.1126 217.146 13.6859 220.603 10.0239C224.059 6.36198 228.332 3.56846 233.073 1.87097C237.814 0.173478 242.889 -0.379958 247.884 0.255753C252.88 0.891464 257.654 2.69834 261.819 5.52915C265.983 8.35997 269.42 12.1346 271.85 16.5456C275.12 22.4745 276.422 29.2887 275.569 36.0056C274.717 42.7225 271.753 48.9951 267.105 53.9189C262.457 58.8426 256.366 62.1631 249.71 63.4016C243.053 64.6401 236.175 63.7326 230.068 60.8098ZM256.714 5.07943C250.3 2.01799 243.004 1.34854 236.14 3.19177C229.277 5.03499 223.298 9.26962 219.281 15.1322C215.264 20.9947 213.474 28.0995 214.233 35.1655C214.992 42.2315 218.251 48.7938 223.421 53.6693C228.592 58.5449 235.334 61.4128 242.432 61.756C249.531 62.0993 256.518 59.8952 262.135 55.5413C267.752 51.1874 271.628 44.9701 273.066 38.0103C274.503 31.0505 273.407 23.8062 269.974 17.5834C266.968 12.133 262.331 7.76044 256.714 5.07943Z" fill="#455A64"/>
<path d="M257.281 59.9874L262.884 56.531L285.109 92.5594C285.545 93.2651 285.682 94.1147 285.491 94.9214C285.3 95.7281 284.796 96.4259 284.09 96.8612L283.766 97.0614C283.06 97.4967 282.21 97.6338 281.404 97.4427C280.597 97.2515 279.899 96.7478 279.464 96.0421L257.238 60.0137L257.281 59.9874Z" fill="#455A64"/>
<path d="M219.989 24.3851C220.019 24.0513 220.078 23.7208 220.164 23.3972C220.238 23.0121 220.337 22.6321 220.458 22.2594C220.6 21.7573 220.767 21.2627 220.958 20.7776L221.277 19.9336C221.396 19.6398 221.552 19.3522 221.696 19.0396C221.978 18.4144 222.359 17.7892 222.74 17.1327C223.627 15.7247 224.654 14.4093 225.804 13.2065C226.975 12.0272 228.261 10.9675 229.642 10.0429C230.249 9.64707 230.875 9.28191 231.518 8.94884C231.818 8.79254 232.106 8.62999 232.393 8.4987L233.231 8.14233C233.709 7.93702 234.197 7.75754 234.694 7.60466C235.064 7.47155 235.442 7.36294 235.826 7.27956C236.148 7.1882 236.476 7.11926 236.807 7.07324C236.499 7.20341 236.181 7.31 235.857 7.39209C235.481 7.49566 235.112 7.6209 234.75 7.76721C234.263 7.93349 233.785 8.12549 233.319 8.3424L232.5 8.71127C232.212 8.84256 231.931 9.01136 231.637 9.16766C231.012 9.47401 230.436 9.87414 229.793 10.2743C228.444 11.1931 227.188 12.24 226.041 13.4003C224.906 14.5864 223.887 15.8781 222.997 17.2578C222.615 17.883 222.228 18.5082 221.94 19.1334C221.796 19.4335 221.634 19.7148 221.509 20.0024L221.159 20.8339C220.921 21.3528 220.777 21.853 220.621 22.2844C220.487 22.6505 220.374 23.0242 220.283 23.4035C220.212 23.738 220.113 24.0662 219.989 24.3851Z" fill="#E0E0E0"/>
</svg>
