<svg width="16" height="16" viewBox="0 0 16 16" fill="none" xmlns="http://www.w3.org/2000/svg">
<mask id="mask0_859_1368" style="mask-type:luminance" maskUnits="userSpaceOnUse" x="2" y="0" width="13" height="14">
<path d="M2.25391 1H14.445V13.6443H2.25391V1Z" fill="white" stroke="white" stroke-width="0.3"/>
</mask>
<g mask="url(#mask0_859_1368)">
<path d="M4.00832 1.00049H12.7149C13.1546 1.00049 13.5594 1.18279 13.8526 1.47745C14.1458 1.77211 14.3266 2.17912 14.3266 2.63004V11.9646C14.3266 12.4073 14.1458 12.8144 13.8526 13.109C13.5594 13.4037 13.1546 13.586 12.7149 13.586H4.00832C3.56038 13.586 3.15485 13.4037 2.86168 13.109C2.56925 12.8144 2.3877 12.4073 2.3877 11.9646V2.63004C2.3877 2.17912 2.56925 1.77211 2.86168 1.47745C3.15485 1.18279 3.56038 1.00049 4.00832 1.00049ZM12.7149 1.58088H4.00832C3.71515 1.58088 3.45695 1.69398 3.26721 1.88446C3.07746 2.07495 2.96585 2.33538 2.96585 2.63004V11.9646C2.96585 12.2511 3.07746 12.5108 3.26721 12.702C3.45695 12.8925 3.71515 13.0048 4.00832 13.0048H12.7149C12.9991 13.0048 13.2581 12.8925 13.4471 12.702C13.6368 12.5108 13.7573 12.2511 13.7573 11.9646V2.63004C13.7573 2.33538 13.6368 2.07495 13.4471 1.88446C13.2581 1.69398 12.9991 1.58088 12.7149 1.58088Z" fill="#F69F17" stroke="#F69F17" stroke-width="0.3"/>
</g>
<path d="M2.67268 4.12061H14.0423C14.1971 4.12061 14.3266 4.25082 14.3266 4.40708V10.1797C14.3266 10.336 14.1971 10.4654 14.0423 10.4654H2.67268C2.51717 10.4654 2.3877 10.336 2.3877 10.1797V4.40708C2.3877 4.25082 2.51717 4.12061 2.67268 4.12061ZM13.7573 4.70174H2.96585V9.88505H13.7573V4.70174Z" fill="#F69F17" stroke="#F69F17" stroke-width="0.3"/>
<path d="M8.64577 4.40708C8.64577 4.25082 8.5163 4.12061 8.36079 4.12061C8.19709 4.12061 8.06836 4.25082 8.06836 4.40708V10.1797C8.06836 10.336 8.19709 10.4654 8.36079 10.4654C8.5163 10.4654 8.64577 10.336 8.64577 10.1797V4.40708Z" fill="#F69F17" stroke="#F69F17" stroke-width="0.3"/>
<mask id="mask1_859_1368" style="mask-type:luminance" maskUnits="userSpaceOnUse" x="10" y="12" width="4" height="4">
<path d="M10.4443 12.8823H13.6826V15H10.4443V12.8823Z" fill="white" stroke="white" stroke-width="0.3"/>
</mask>
<g mask="url(#mask1_859_1368)">
<path d="M11.0772 13.5862V14.1145C11.0772 14.2016 11.1114 14.2797 11.1635 14.3318C11.2148 14.3921 11.2922 14.427 11.3785 14.427H12.6628C12.7491 14.427 12.8265 14.3921 12.8868 14.3318C12.8868 14.3229 12.8957 14.3229 12.8957 14.3229C12.9478 14.2618 12.982 14.1926 12.982 14.1063V13.5602C12.8957 13.5773 12.8012 13.5862 12.7149 13.5862H11.0772ZM10.499 14.1145V13.2997C10.499 13.1353 10.6285 13.0051 10.784 13.0051H12.7149C12.7834 13.0051 12.8526 13.0051 12.9218 12.988H12.93C13.0081 12.9708 13.0684 12.9448 13.1286 12.9188C13.1718 12.9016 13.2149 12.8838 13.2663 12.8838C13.4218 12.8838 13.5505 13.014 13.5505 13.1784V14.1063C13.5505 14.34 13.465 14.5565 13.3094 14.7217C13.3094 14.7217 13.3013 14.7299 13.2923 14.7388C13.1286 14.9032 12.9047 14.9992 12.6628 14.9992H11.3785C11.1375 14.9992 10.9135 14.9032 10.758 14.7388C10.5943 14.5825 10.499 14.3578 10.499 14.1145Z" fill="#F69F17"/>
<path d="M12.8868 14.3318C12.8265 14.3921 12.7491 14.427 12.6628 14.427H11.3785C11.2922 14.427 11.2148 14.3921 11.1635 14.3318C11.1114 14.2797 11.0772 14.2016 11.0772 14.1145V13.5862H12.7149C12.8012 13.5862 12.8957 13.5773 12.982 13.5602V14.1063C12.982 14.1926 12.9478 14.2618 12.8957 14.3229C12.8957 14.3229 12.8868 14.3229 12.8868 14.3318ZM12.8868 14.3318L13.0937 14.5305M10.499 14.1145V13.2997C10.499 13.1353 10.6285 13.0051 10.784 13.0051H12.7149C12.7834 13.0051 12.8526 13.0051 12.9218 12.988H12.93C13.0081 12.9708 13.0684 12.9448 13.1286 12.9188C13.1718 12.9016 13.2149 12.8838 13.2663 12.8838C13.4218 12.8838 13.5505 13.014 13.5505 13.1784V14.1063C13.5505 14.34 13.465 14.5565 13.3094 14.7217C13.3094 14.7217 13.3013 14.7299 13.2923 14.7388C13.1286 14.9032 12.9047 14.9992 12.6628 14.9992H11.3785C11.1375 14.9992 10.9135 14.9032 10.758 14.7388C10.5943 14.5825 10.499 14.3578 10.499 14.1145Z" stroke="#F69F17" stroke-width="0.3"/>
</g>
<mask id="mask2_859_1368" style="mask-type:luminance" maskUnits="userSpaceOnUse" x="2" y="12" width="5" height="4">
<path d="M3.01562 12.8823H6.25389V15H3.01562V12.8823Z" fill="white" stroke="white" stroke-width="0.3"/>
</mask>
<g mask="url(#mask2_859_1368)">
<path d="M3.74147 13.5602V14.1145C3.74147 14.2016 3.7757 14.2797 3.82779 14.3318C3.87913 14.3921 3.95726 14.4271 4.04357 14.4271H5.32787C5.41418 14.4271 5.49157 14.3832 5.55184 14.3318C5.55184 14.3229 5.56002 14.3229 5.56002 14.3229C5.61211 14.2619 5.64634 14.1927 5.64634 14.1064V13.5862H4.0086C3.9141 13.5862 3.82779 13.5773 3.74147 13.5602ZM3.16406 14.1145V13.1785C3.16406 13.1353 3.17299 13.0922 3.19011 13.0572C3.25856 12.9099 3.43119 12.8496 3.56885 12.9099C3.63805 12.9448 3.70725 12.9709 3.78463 12.988C3.85383 12.9969 3.93122 13.0051 4.0086 13.0051H5.93132C6.09502 13.0051 6.21556 13.1353 6.21556 13.2998V14.1064C6.21556 14.34 6.12925 14.5565 5.97448 14.7217C5.97448 14.7217 5.96555 14.7299 5.95662 14.7388C5.79292 14.9033 5.57788 14.9993 5.32787 14.9993H4.04357C3.80175 14.9993 3.57778 14.9033 3.42226 14.7388C3.25856 14.5826 3.16406 14.3579 3.16406 14.1145Z" fill="#F69F17" stroke="#F69F17" stroke-width="0.3"/>
</g>
<mask id="mask3_859_1368" style="mask-type:luminance" maskUnits="userSpaceOnUse" x="0" y="4" width="4" height="6">
<path d="M1 5.07227H3.01573V9.45345H1V5.07227Z" fill="white" stroke="white" stroke-width="0.3"/>
</mask>
<g mask="url(#mask3_859_1368)">
<path d="M2.38772 5.82795H1.57741V8.75742H2.38772V5.82795ZM1.29317 5.24756H2.67271C2.83641 5.24756 2.96588 5.37777 2.96588 5.54222V9.05282C2.96588 9.20833 2.83641 9.33855 2.67271 9.33855H1.29317C1.12947 9.33855 1 9.20833 1 9.05282V5.54222C1 5.37777 1.12947 5.24756 1.29317 5.24756Z" fill="#F69F17" stroke="#F69F17" stroke-width="0.3"/>
</g>
<mask id="mask4_859_1368" style="mask-type:luminance" maskUnits="userSpaceOnUse" x="13" y="4" width="3" height="6">
<path d="M13.6826 5.07227H15.714V9.45345H13.6826V5.07227Z" fill="white" stroke="white" stroke-width="0.3"/>
</mask>
<g mask="url(#mask4_859_1368)">
<path d="M15.1364 5.82795H14.3261V8.75742H15.1364V5.82795ZM14.0418 5.24756H15.4295C15.5843 5.24756 15.7138 5.37777 15.7138 5.54222V9.05282C15.7138 9.20833 15.5843 9.33855 15.4295 9.33855H14.0418C13.8781 9.33855 13.7568 9.20833 13.7568 9.05282V5.54222C13.7568 5.37777 13.8781 5.24756 14.0418 5.24756Z" fill="#F69F17" stroke="#F69F17" stroke-width="0.3"/>
</g>
<path d="M6.37018 2.56104C6.21541 2.56104 6.08594 2.69051 6.08594 2.84676C6.08594 3.01121 6.21541 3.14142 6.37018 3.14142H10.3443C10.4991 3.14142 10.6286 3.01121 10.6286 2.84676C10.6286 2.69051 10.4991 2.56104 10.3443 2.56104H6.37018Z" fill="#F69F17" stroke="#F69F17" stroke-width="0.3"/>
<path d="M4.96582 10.7261C5.21583 10.7261 5.4398 10.8213 5.59532 10.9858C5.75902 11.1509 5.86245 11.3675 5.86245 11.619C5.86245 11.8616 5.75902 12.087 5.59532 12.2515C5.43162 12.4159 5.21583 12.5111 4.96582 12.5111C4.72474 12.5111 4.50077 12.4077 4.34525 12.2515H4.33632C4.33632 12.2425 4.32814 12.2343 4.31921 12.2254C4.17262 12.0692 4.07812 11.8526 4.07812 11.619C4.07812 11.3675 4.18155 11.1509 4.33632 10.9858C4.34525 10.9776 4.35418 10.9686 4.36237 10.9686C4.51788 10.8124 4.73292 10.7261 4.96582 10.7261ZM5.18979 11.3935C5.13845 11.3325 5.05213 11.2983 4.96582 11.2983C4.88844 11.2983 4.81105 11.3325 4.75896 11.3846C4.75078 11.3846 4.75078 11.3935 4.75078 11.3935C4.68976 11.4538 4.65554 11.5319 4.65554 11.619C4.65554 11.6964 4.68158 11.7745 4.73292 11.8266C4.74185 11.8355 4.74185 11.8355 4.75078 11.8437C4.80212 11.8958 4.87951 11.9308 4.96582 11.9308C5.05213 11.9308 5.12952 11.8958 5.18979 11.8437C5.25006 11.7834 5.28503 11.7053 5.28503 11.619C5.28503 11.5319 5.25006 11.4538 5.18979 11.3935Z" fill="#F69F17"/>
<path d="M4.75078 11.8437C4.74185 11.8355 4.74185 11.8355 4.73292 11.8266C4.68158 11.7745 4.65554 11.6964 4.65554 11.619C4.65554 11.5319 4.68976 11.4538 4.75078 11.3935C4.75078 11.3935 4.75078 11.3846 4.75896 11.3846C4.81105 11.3325 4.88844 11.2983 4.96582 11.2983C5.05213 11.2983 5.13845 11.3325 5.18979 11.3935C5.25006 11.4538 5.28503 11.5319 5.28503 11.619C5.28503 11.7053 5.25006 11.7834 5.18979 11.8437M4.75078 11.8437L4.54318 12.0431M4.75078 11.8437C4.80212 11.8958 4.87951 11.9308 4.96582 11.9308C5.05213 11.9308 5.12952 11.8958 5.18979 11.8437M5.18979 11.8437L5.39665 12.0431M4.96582 10.7261C5.21583 10.7261 5.4398 10.8213 5.59532 10.9858C5.75902 11.1509 5.86245 11.3675 5.86245 11.619C5.86245 11.8616 5.75902 12.087 5.59532 12.2515C5.43162 12.4159 5.21583 12.5111 4.96582 12.5111C4.72474 12.5111 4.50077 12.4077 4.34525 12.2515H4.33632C4.33632 12.2425 4.32814 12.2343 4.31921 12.2254C4.17262 12.0692 4.07812 11.8526 4.07812 11.619C4.07812 11.3675 4.18155 11.1509 4.33632 10.9858C4.34525 10.9776 4.35418 10.9686 4.36237 10.9686C4.51788 10.8124 4.73292 10.7261 4.96582 10.7261Z" stroke="#F69F17" stroke-width="0.3"/>
<path d="M11.749 10.7261C11.9909 10.7261 12.2148 10.8213 12.3785 10.9858V10.9947C12.5422 11.1509 12.6367 11.3757 12.6367 11.619C12.6367 11.8616 12.5422 12.087 12.3785 12.2515C12.3696 12.2604 12.3614 12.2604 12.3614 12.2686C12.1977 12.4159 11.9819 12.5111 11.749 12.5111C11.499 12.5111 11.284 12.4077 11.1203 12.2515C11.1113 12.2425 11.1113 12.2343 11.1024 12.2254C10.9476 12.0692 10.8613 11.8526 10.8613 11.619C10.8613 11.3675 10.9558 11.1509 11.1203 10.9858C11.284 10.8213 11.499 10.7261 11.749 10.7261ZM11.973 11.3935C11.9127 11.3325 11.8353 11.2983 11.749 11.2983C11.6627 11.2983 11.5853 11.3325 11.5251 11.3935C11.4737 11.4538 11.4306 11.5319 11.4306 11.619C11.4306 11.6964 11.4648 11.7745 11.5161 11.8266C11.5161 11.8355 11.5251 11.8355 11.5251 11.8437C11.5853 11.8958 11.6627 11.9308 11.749 11.9308C11.8272 11.9308 11.9045 11.9047 11.9559 11.8526C11.9648 11.8526 11.9648 11.8437 11.973 11.8437C12.0251 11.7834 12.0593 11.7053 12.0593 11.619C12.0593 11.5319 12.0251 11.4538 11.973 11.3935Z" fill="#F69F17"/>
<path d="M12.1717 11.1852L11.973 11.3935M11.973 11.3935C11.9127 11.3325 11.8353 11.2983 11.749 11.2983C11.6627 11.2983 11.5853 11.3325 11.5251 11.3935C11.4737 11.4538 11.4306 11.5319 11.4306 11.619C11.4306 11.6964 11.4648 11.7745 11.5161 11.8266C11.5161 11.8355 11.5251 11.8355 11.5251 11.8437C11.5853 11.8958 11.6627 11.9308 11.749 11.9308C11.8272 11.9308 11.9045 11.9047 11.9559 11.8526C11.9648 11.8526 11.9648 11.8437 11.973 11.8437M11.973 11.3935C12.0251 11.4538 12.0593 11.5319 12.0593 11.619C12.0593 11.7053 12.0251 11.7834 11.973 11.8437M11.973 11.8437L12.1717 12.0431M11.749 10.7261C11.9909 10.7261 12.2148 10.8213 12.3785 10.9858V10.9947C12.5422 11.1509 12.6367 11.3757 12.6367 11.619C12.6367 11.8616 12.5422 12.087 12.3785 12.2515C12.3696 12.2604 12.3614 12.2604 12.3614 12.2686C12.1977 12.4159 11.9819 12.5111 11.749 12.5111C11.499 12.5111 11.284 12.4077 11.1203 12.2515C11.1113 12.2425 11.1113 12.2343 11.1024 12.2254C10.9476 12.0692 10.8613 11.8526 10.8613 11.619C10.8613 11.3675 10.9558 11.1509 11.1203 10.9858C11.284 10.8213 11.499 10.7261 11.749 10.7261Z" stroke="#F69F17" stroke-width="0.3"/>
</svg>
