<svg width="16" height="17" viewBox="0 0 16 17" fill="none" xmlns="http://www.w3.org/2000/svg">
<path d="M1 1H2.24618C3.01966 1 3.62841 1.6975 3.56396 2.5L2.96952 9.97C2.86925 11.1925 3.79313 12.2425 4.96768 12.2425H12.5951C13.6264 12.2425 14.5288 11.3575 14.6076 10.285L14.9943 4.66C15.0803 3.415 14.1779 2.4025 12.9818 2.4025H3.73585" stroke="#F69F17" stroke-miterlimit="10" stroke-linecap="round" stroke-linejoin="round"/>
<path d="M11.2058 16C11.7002 16 12.101 15.5803 12.101 15.0625C12.101 14.5447 11.7002 14.125 11.2058 14.125C10.7113 14.125 10.3105 14.5447 10.3105 15.0625C10.3105 15.5803 10.7113 16 11.2058 16Z" stroke="#F69F17" stroke-miterlimit="10" stroke-linecap="round" stroke-linejoin="round"/>
<path d="M5.47629 16C5.97072 16 6.37153 15.5803 6.37153 15.0625C6.37153 14.5447 5.97072 14.125 5.47629 14.125C4.98186 14.125 4.58105 14.5447 4.58105 15.0625C4.58105 15.5803 4.98186 16 5.47629 16Z" stroke="#F69F17" stroke-miterlimit="10" stroke-linecap="round" stroke-linejoin="round"/>
<path d="M6.01318 5.5H14.6075" stroke="#F69F17" stroke-miterlimit="10" stroke-linecap="round" stroke-linejoin="round"/>
</svg>
