<svg width="41" height="32" viewBox="0 0 41 32" fill="none" xmlns="http://www.w3.org/2000/svg">
<path d="M23.7787 19.8154C23.7778 19.7279 23.7778 19.718 23.7778 19.7351V19.745C23.7778 19.764 23.7778 19.7956 23.7787 19.8154Z" stroke="#F69F17" stroke-miterlimit="2.613"/>
<path d="M31.5654 10.0038C32.4485 10.0038 33.2566 9.55957 33.8501 8.83961C34.4797 8.07639 34.8685 7.00951 34.8685 5.82099C34.8685 4.57659 34.7449 3.47006 34.2605 2.72847C33.8204 2.05447 33.0041 1.63726 31.5654 1.63726C30.1268 1.63726 29.3105 2.05447 28.8703 2.72847C28.3869 3.47006 28.2624 4.57659 28.2624 5.82099C28.2624 7.00951 28.6521 8.07639 29.2807 8.83961C29.8742 9.55957 30.6824 10.0038 31.5654 10.0038ZM35.1111 9.87585C34.2118 10.9671 32.959 11.642 31.5654 11.642C30.1719 11.642 28.9191 10.9671 28.0198 9.87585C27.1566 8.8297 26.6235 7.39517 26.6235 5.82099C26.6235 4.30266 26.8021 2.90869 27.5003 1.84001C28.2417 0.702843 29.4873 0 31.5654 0C33.6436 0 34.8892 0.702843 35.6306 1.84001C36.3288 2.90869 36.5082 4.30266 36.5082 5.82099C36.5082 7.39517 35.9743 8.8297 35.1111 9.87585Z" fill="#F69F17"/>
<mask id="mask0_306_3195" style="mask-type:luminance" maskUnits="userSpaceOnUse" x="26" y="11" width="15" height="13">
<path d="M26.1465 11.5293H40.1758V23.5245H26.1465V11.5293Z" fill="white"/>
</mask>
<g mask="url(#mask0_306_3195)">
<path d="M38.5272 19.6262C38.492 17.3852 38.3423 15.9669 37.701 15.0884C37.1147 14.2855 36.0125 13.8178 34.0723 13.4376C33.6313 13.7809 32.8078 14.2431 31.5658 14.2431C30.3237 14.2431 29.5002 13.7809 29.0592 13.4376C27.81 13.6827 26.908 13.9638 26.2676 14.3477C26.4813 13.7106 26.6193 13.0465 26.6816 12.3761C27.3743 12.1328 28.1924 11.9337 29.1638 11.7589L29.6419 11.6724L29.9449 12.0499C29.9467 12.0508 30.3797 12.605 31.5658 12.605C32.751 12.605 33.1848 12.0508 33.1857 12.0499L33.4897 11.6724L33.9677 11.7589C36.5961 12.2319 38.1078 12.878 39.0197 14.1287C39.9162 15.3551 40.1192 17.0284 40.1597 19.6001L40.1616 19.7127C40.167 20.011 40.1715 20.3056 40.1715 20.3209L40.0759 20.7012C40.0714 20.7093 38.704 23.4477 31.5658 23.4477C31.3096 23.4477 31.0625 23.4441 30.8207 23.4369C30.708 22.8647 30.5519 22.3069 30.3373 21.7834C30.7215 21.8005 31.1301 21.8104 31.5658 21.8104C36.6908 21.8104 38.179 20.5111 38.5326 20.0786C38.5317 19.8857 38.5299 19.8127 38.529 19.7388L38.5272 19.6262Z" fill="#F69F17"/>
</g>
<path d="M20.0903 16.1951C21.2123 16.1951 22.2379 15.6328 22.9883 14.7227C23.7748 13.7685 24.261 12.4385 24.261 10.9589C24.261 9.42436 24.105 8.05381 23.4961 7.12209C22.9324 6.25796 21.8987 5.72271 20.0903 5.72271C18.2809 5.72271 17.2482 6.25796 16.6835 7.12209C16.0747 8.05381 15.9187 9.42436 15.9187 10.9589C15.9187 12.4385 16.4057 13.7685 17.1914 14.7227C17.9418 15.6328 18.9673 16.1951 20.0903 16.1951ZM24.2493 15.759C23.1931 17.0403 21.7238 17.8332 20.0903 17.8332C18.4568 17.8332 16.9866 17.0403 15.9304 15.759C14.9103 14.5218 14.2798 12.8241 14.2798 10.9589C14.2798 9.14953 14.4908 7.49244 15.3134 6.23273C16.1793 4.90633 17.6414 4.08545 20.0903 4.08545C22.5382 4.08545 24.0003 4.90633 24.8671 6.23273C25.6897 7.49244 25.9008 9.14953 25.9008 10.9589C25.9008 12.8241 25.2694 14.5218 24.2493 15.759Z" fill="#F69F17"/>
<mask id="mask1_306_3195" style="mask-type:luminance" maskUnits="userSpaceOnUse" x="9" y="17" width="22" height="15">
<path d="M9.75195 17.9883H30.5334V32.0001H9.75195V17.9883Z" fill="white"/>
</mask>
<g mask="url(#mask1_306_3195)">
<path d="M28.6887 27.5473C28.6454 24.8008 28.4587 23.0563 27.6551 21.9561C26.9091 20.9334 25.5219 20.3486 23.0803 19.8764C22.5887 20.2765 21.6091 20.8613 20.0902 20.8613C18.5704 20.8613 17.5918 20.2765 17.0993 19.8764C14.6847 20.3432 13.3002 20.9207 12.5488 21.9237C11.7434 22.9977 11.544 24.6936 11.4944 27.3581L11.4926 27.4572C11.489 27.65 11.4854 27.8248 11.4845 28.1546C11.8796 28.6664 13.6745 30.3668 20.0902 30.3668C26.5051 30.3668 28.3 28.6664 28.695 28.1546C28.6941 27.9086 28.6932 27.7987 28.6905 27.6888L28.6887 27.5473ZM28.9746 20.9964C30.0318 22.4454 30.2726 24.4431 30.3213 27.5221L30.324 27.6635C30.3294 28.0014 30.3348 28.3321 30.3348 28.3916L30.2383 28.7719C30.2338 28.7809 28.6256 32.004 20.0902 32.004C11.5549 32.004 9.94575 28.7809 9.94034 28.7719L9.84473 28.3916C9.84473 28.2096 9.85104 27.8456 9.85916 27.432L9.86186 27.3328C9.91779 24.325 10.1758 22.367 11.2419 20.9451C12.3206 19.507 14.1129 18.7545 17.2129 18.1959L17.6892 18.1094L17.994 18.486C17.9958 18.4887 18.5713 19.224 20.0902 19.224C21.6082 19.224 22.1837 18.4887 22.1855 18.486L22.4904 18.1094L22.9666 18.1959C26.1019 18.7609 27.8995 19.525 28.9746 20.9964Z" fill="#F69F17"/>
</g>
<path d="M8.61273 10.0038C7.7297 10.0038 6.92153 9.55957 6.32803 8.83961C5.69936 8.07639 5.30971 7.00951 5.30971 5.82099C5.30971 4.57659 5.43328 3.47006 5.91764 2.72847C6.3578 2.05447 7.17408 1.63726 8.61273 1.63726C10.0514 1.63726 10.8677 2.05447 11.3078 2.72847C11.7922 3.47006 11.9157 4.57659 11.9157 5.82099C11.9157 7.00951 11.5261 8.07639 10.8974 8.83961C10.3039 9.55957 9.49576 10.0038 8.61273 10.0038ZM5.06708 9.87585C5.96634 10.9671 7.21918 11.642 8.61273 11.642C10.0063 11.642 11.2591 10.9671 12.1584 9.87585C13.0216 8.8297 13.5546 7.39517 13.5546 5.82099C13.5546 4.30266 13.376 2.90869 12.6779 1.84001C11.9365 0.702843 10.6909 0 8.61273 0C6.53458 0 5.28896 0.702843 4.54754 1.84001C3.84941 2.90869 3.66992 4.30266 3.66992 5.82099C3.66992 7.39517 4.20389 8.8297 5.06708 9.87585Z" fill="#F69F17"/>
<mask id="mask2_306_3195" style="mask-type:luminance" maskUnits="userSpaceOnUse" x="0" y="11" width="15" height="13">
<path d="M0 11.5293H14.1393V23.5245H0V11.5293Z" fill="white"/>
</mask>
<g mask="url(#mask2_306_3195)">
<path d="M1.65162 19.6262C1.6868 17.3852 1.83652 15.9669 2.47783 15.0884C3.06411 14.2855 4.16632 13.8178 6.10646 13.4376C6.54752 13.7809 7.37102 14.2431 8.61304 14.2431C9.85505 14.2431 10.6786 13.7809 11.1196 13.4376C12.3688 13.6827 13.2708 13.9638 13.9121 14.3477C13.6975 13.7106 13.5595 13.0465 13.4972 12.3761C12.8045 12.1328 11.9864 11.9337 11.015 11.7589L10.5378 11.6724L10.233 12.0499C10.2321 12.0508 9.79913 12.605 8.61304 12.605C7.42785 12.605 6.994 12.0508 6.9931 12.0499L6.68913 11.6724L6.21109 11.7589C3.58274 12.2319 2.07104 12.878 1.15914 14.1287C0.262582 15.3551 0.0596388 17.0284 0.0190499 19.6001L0.0172459 19.7127C0.011834 20.011 0.00732422 20.3056 0.00732422 20.3209L0.102933 20.7012C0.107443 20.7093 1.47483 23.4477 8.61304 23.4477C8.8692 23.4477 9.11634 23.4441 9.35807 23.4369C9.47081 22.8647 9.62685 22.3069 9.84152 21.7834C9.45728 21.8005 9.04869 21.8104 8.61304 21.8104C3.48803 21.8104 1.99978 20.5111 1.64621 20.0786C1.64711 19.8857 1.64891 19.8127 1.64982 19.7388L1.65162 19.6262Z" fill="#F69F17"/>
</g>
</svg>
