<svg width="33" height="33" viewBox="0 0 33 33" fill="none" xmlns="http://www.w3.org/2000/svg">
<mask id="mask0_306_3172" style="mask-type:luminance" maskUnits="userSpaceOnUse" x="0" y="0" width="33" height="33">
<path d="M0 0H32.0711V32.0403H0V0Z" fill="white"/>
</mask>
<g mask="url(#mask0_306_3172)">
<path d="M31.5369 17.0878H23.5187V5.14275L26.3524 4.27184C26.462 4.2362 26.5507 4.17188 26.6177 4.07801C26.6856 3.98501 26.7195 3.87984 26.7195 3.76511C26.7195 3.64951 26.6856 3.54521 26.6177 3.45221C26.5507 3.35834 26.462 3.29402 26.3524 3.25752L16.1965 0.0537487C16.0895 0.0146358 15.9825 0.0146358 15.8755 0.0537487L5.71958 3.25752C5.61344 3.29054 5.52557 3.35139 5.45683 3.43917C5.38897 3.52696 5.35156 3.62691 5.34547 3.73817V10.8828L4.57027 11.273C4.48066 11.3182 4.40932 11.3834 4.35624 11.4686C4.30317 11.5546 4.2762 11.6476 4.2762 11.7485V14.4177C4.2762 14.489 4.29012 14.5567 4.31709 14.6228C4.34406 14.688 4.38235 14.7454 4.43281 14.7958C4.48327 14.8453 4.54069 14.8844 4.60594 14.9114C4.67207 14.9383 4.73993 14.9522 4.8104 14.9522H6.94894C7.01941 14.9522 7.08814 14.9383 7.15339 14.9114C7.21865 14.8844 7.27694 14.8453 7.32653 14.7958C7.37699 14.7454 7.41527 14.688 7.44311 14.6228C7.47009 14.5567 7.48314 14.489 7.48314 14.4177V11.7485C7.48314 11.6476 7.45616 11.5546 7.40396 11.4686C7.35089 11.3834 7.27955 11.3182 7.18907 11.273L6.41474 10.8828V4.47523L8.5524 5.15318V17.0878H0.535069C0.463727 17.0878 0.395864 17.1017 0.329742 17.1286C0.264489 17.1556 0.207067 17.1947 0.156606 17.2442C0.106144 17.2946 0.0678625 17.352 0.0408915 17.4181C0.0139204 17.4832 0 17.551 0 17.6223V31.5056C0 31.5769 0.0139204 31.6447 0.0408915 31.7099C0.0678625 31.7759 0.106144 31.8333 0.156606 31.8837C0.207067 31.9332 0.264489 31.9723 0.329742 31.9993C0.395864 32.0262 0.463727 32.0401 0.535069 32.0401H31.5369C31.6074 32.0401 31.6761 32.0262 31.7413 31.9993C31.8066 31.9723 31.8649 31.9332 31.9145 31.8837C31.9649 31.8333 32.0032 31.7759 32.0302 31.7099C32.058 31.6447 32.0711 31.5769 32.0711 31.5056V17.6223C32.0711 17.551 32.058 17.4832 32.0302 17.4181C32.0032 17.352 31.9649 17.2946 31.9145 17.2442C31.8649 17.1947 31.8066 17.1556 31.7413 17.1286C31.6761 17.1017 31.6074 17.0878 31.5369 17.0878ZM6.41474 13.884H5.34547V12.0796L5.87967 11.8119L6.41474 12.0796V13.884ZM16.0355 1.09502L24.4174 3.73817L16.0355 6.40826L7.65453 3.73817L16.0355 1.09502ZM15.8755 7.47648C15.9825 7.51298 16.0895 7.51298 16.1965 7.47648L22.4503 5.47912V9.7511L16.0355 11.7485L9.62167 9.7511V5.47912L15.8755 7.47648ZM1.06927 18.156H8.5524V30.9719H1.06927V18.156ZM9.62167 17.6223V10.8671L15.8807 12.8158C15.9842 12.8453 16.0877 12.8453 16.1904 12.8158L22.4503 10.8671V30.9719H20.8468V24.0299C20.8468 23.9594 20.8329 23.8908 20.8059 23.8256C20.7789 23.7604 20.7398 23.7022 20.6902 23.6526C20.6397 23.6022 20.5823 23.564 20.5162 23.5362C20.4509 23.5092 20.3831 23.4962 20.3117 23.4962H11.7593C11.6889 23.4962 11.6201 23.5092 11.5549 23.5362C11.4896 23.564 11.4313 23.6022 11.3817 23.6526C11.3313 23.7022 11.293 23.7604 11.266 23.8256C11.2382 23.8908 11.2251 23.9594 11.2251 24.0299V30.9719H9.62167V17.6223ZM12.2944 24.5635H15.5013V30.9719H12.2944V24.5635ZM16.5706 30.9719V24.5635H19.7775V30.9719H16.5706ZM31.0027 30.9719H23.5187V18.156H31.0027V30.9719Z" fill="#F69F17"/>
</g>
<path d="M15.5015 8.54395H16.5707V9.61216H15.5015V8.54395Z" fill="#F69F17"/>
<path d="M17.6392 8.54395H18.7084V9.61216H17.6392V8.54395Z" fill="#F69F17"/>
<path d="M13.3628 8.54395H14.4321V9.61216H13.3628V8.54395Z" fill="#F69F17"/>
<path d="M11.7593 18.1564H14.9662C15.0376 18.1564 15.1054 18.1425 15.1716 18.1156C15.2368 18.0886 15.2942 18.0504 15.3447 18C15.3943 17.9495 15.4334 17.8922 15.4604 17.827C15.4874 17.7609 15.5013 17.6931 15.5013 17.6227V15.4863C15.5013 15.4159 15.4874 15.3472 15.4604 15.2821C15.4334 15.2169 15.3943 15.1586 15.3447 15.1091C15.2942 15.0587 15.2368 15.0204 15.1716 14.9935C15.1054 14.9657 15.0376 14.9526 14.9662 14.9526H11.7593C11.6888 14.9526 11.6201 14.9657 11.5548 14.9935C11.4896 15.0204 11.4313 15.0587 11.3817 15.1091C11.3312 15.1586 11.293 15.2169 11.266 15.2821C11.2381 15.3472 11.2251 15.4159 11.2251 15.4863V17.6227C11.2251 17.6931 11.2381 17.7609 11.266 17.827C11.293 17.8922 11.3312 17.9495 11.3817 18C11.4313 18.0504 11.4896 18.0886 11.5548 18.1156C11.6201 18.1425 11.6888 18.1564 11.7593 18.1564ZM12.2944 16.0208H14.432V17.0882H12.2944V16.0208Z" fill="#F69F17"/>
<path d="M17.105 18.1564H20.3119C20.3833 18.1564 20.4511 18.1425 20.5164 18.1156C20.5825 18.0886 20.6399 18.0504 20.6904 18C20.74 17.9495 20.7791 17.8922 20.8061 17.827C20.8331 17.7609 20.847 17.6931 20.847 17.6227V15.4863C20.847 15.4159 20.8331 15.3472 20.8061 15.2821C20.7791 15.2169 20.74 15.1586 20.6904 15.1091C20.6399 15.0587 20.5825 15.0204 20.5164 14.9935C20.4511 14.9657 20.3833 14.9526 20.3119 14.9526H17.105C17.0337 14.9526 16.9658 14.9657 16.9005 14.9935C16.8353 15.0204 16.777 15.0587 16.7274 15.1091C16.6769 15.1586 16.6387 15.2169 16.6108 15.2821C16.5839 15.3472 16.5708 15.4159 16.5708 15.4863V17.6227C16.5708 17.6931 16.5839 17.7609 16.6108 17.827C16.6387 17.8922 16.6769 17.9495 16.7274 18C16.777 18.0504 16.8353 18.0886 16.9005 18.1156C16.9658 18.1425 17.0337 18.1564 17.105 18.1564ZM17.6392 16.0208H19.7777V17.0882H17.6392V16.0208Z" fill="#F69F17"/>
<path d="M11.7593 22.4279H14.9662C15.0376 22.4279 15.1054 22.414 15.1716 22.387C15.2368 22.3601 15.2942 22.3218 15.3447 22.2714C15.3943 22.221 15.4334 22.1637 15.4604 22.0985C15.4874 22.0324 15.5013 21.9646 15.5013 21.8942V19.7578C15.5013 19.6874 15.4874 19.6187 15.4604 19.5535C15.4334 19.4883 15.3943 19.4301 15.3447 19.3806C15.2942 19.3302 15.2368 19.2919 15.1716 19.265C15.1054 19.2372 15.0376 19.2241 14.9662 19.2241H11.7593C11.6888 19.2241 11.6201 19.2372 11.5548 19.265C11.4896 19.2919 11.4313 19.3302 11.3817 19.3806C11.3312 19.4301 11.293 19.4883 11.266 19.5535C11.2381 19.6187 11.2251 19.6874 11.2251 19.7578V21.8942C11.2251 21.9646 11.2381 22.0324 11.266 22.0985C11.293 22.1637 11.3312 22.221 11.3817 22.2714C11.4313 22.3218 11.4896 22.3601 11.5548 22.387C11.6201 22.414 11.6888 22.4279 11.7593 22.4279ZM12.2944 20.2923H14.432V21.3597H12.2944V20.2923Z" fill="#F69F17"/>
<path d="M17.105 22.4279H20.3119C20.3833 22.4279 20.4511 22.414 20.5164 22.387C20.5825 22.3601 20.6399 22.3218 20.6904 22.2714C20.74 22.221 20.7791 22.1637 20.8061 22.0985C20.8331 22.0324 20.847 21.9646 20.847 21.8942V19.7578C20.847 19.6874 20.8331 19.6187 20.8061 19.5535C20.7791 19.4883 20.74 19.4301 20.6904 19.3806C20.6399 19.3302 20.5825 19.2919 20.5164 19.265C20.4511 19.2372 20.3833 19.2241 20.3119 19.2241H17.105C17.0337 19.2241 16.9658 19.2372 16.9005 19.265C16.8353 19.2919 16.777 19.3302 16.7274 19.3806C16.6769 19.4301 16.6387 19.4883 16.6108 19.5535C16.5839 19.6187 16.5708 19.6874 16.5708 19.7578V21.8942C16.5708 21.9646 16.5839 22.0324 16.6108 22.0985C16.6387 22.1637 16.6769 22.221 16.7274 22.2714C16.777 22.3218 16.8353 22.3601 16.9005 22.387C16.9658 22.414 17.0337 22.4279 17.105 22.4279ZM17.6392 20.2923H19.7777V21.3597H17.6392V20.2923Z" fill="#F69F17"/>
<path d="M6.41485 19.2241H3.20705C3.13658 19.2241 3.06872 19.2372 3.00259 19.265C2.93734 19.2919 2.87992 19.3302 2.82946 19.3806C2.779 19.4301 2.74071 19.4883 2.71374 19.5535C2.68677 19.6187 2.67285 19.6874 2.67285 19.7578V21.8942C2.67285 21.9646 2.68677 22.0324 2.71374 22.0985C2.74071 22.1637 2.779 22.221 2.82946 22.2714C2.87992 22.3218 2.93734 22.3601 3.00259 22.387C3.06872 22.414 3.13658 22.4279 3.20705 22.4279H6.41485C6.48533 22.4279 6.55319 22.414 6.61931 22.387C6.68456 22.3601 6.74199 22.3218 6.79245 22.2714C6.84291 22.221 6.88119 22.1637 6.90816 22.0985C6.93513 22.0324 6.94905 21.9646 6.94905 21.8942V19.7578C6.94905 19.6874 6.93513 19.6187 6.90816 19.5535C6.88119 19.4883 6.84291 19.4301 6.79245 19.3806C6.74199 19.3302 6.68456 19.2919 6.61931 19.265C6.55319 19.2372 6.48533 19.2241 6.41485 19.2241ZM5.87979 21.3597H3.74212V20.2923H5.87979V21.3597Z" fill="#F69F17"/>
<path d="M6.41485 23.4961H3.20705C3.13658 23.4961 3.06872 23.5091 3.00259 23.5361C2.93734 23.5639 2.87992 23.6021 2.82946 23.6525C2.779 23.7021 2.74071 23.7603 2.71374 23.8255C2.68677 23.8907 2.67285 23.9594 2.67285 24.0298V26.1662C2.67285 26.2366 2.68677 26.3044 2.71374 26.3704C2.74071 26.4356 2.779 26.493 2.82946 26.5434C2.87992 26.5938 2.93734 26.6321 3.00259 26.659C3.06872 26.686 3.13658 26.6999 3.20705 26.6999H6.41485C6.48533 26.6999 6.55319 26.686 6.61931 26.659C6.68456 26.6321 6.74199 26.5938 6.79245 26.5434C6.84291 26.493 6.88119 26.4356 6.90816 26.3704C6.93513 26.3044 6.94905 26.2366 6.94905 26.1662V24.0298C6.94905 23.9594 6.93513 23.8907 6.90816 23.8255C6.88119 23.7603 6.84291 23.7021 6.79245 23.6525C6.74199 23.6021 6.68456 23.5639 6.61931 23.5361C6.55319 23.5091 6.48533 23.4961 6.41485 23.4961ZM5.87979 25.6316H3.74212V24.5634H5.87979V25.6316Z" fill="#F69F17"/>
<path d="M26.1914 22.4279H29.3984C29.4697 22.4279 29.5376 22.414 29.6037 22.387C29.6689 22.3601 29.7264 22.3218 29.7768 22.2714C29.8264 22.221 29.8656 22.1637 29.8925 22.0985C29.9195 22.0324 29.9334 21.9646 29.9334 21.8942V19.7578C29.9334 19.6874 29.9195 19.6187 29.8925 19.5535C29.8656 19.4883 29.8264 19.4301 29.7768 19.3806C29.7264 19.3302 29.6689 19.2919 29.6037 19.265C29.5376 19.2372 29.4697 19.2241 29.3984 19.2241H26.1914C26.121 19.2241 26.0522 19.2372 25.987 19.265C25.9217 19.2919 25.8634 19.3302 25.8138 19.3806C25.7634 19.4301 25.7251 19.4883 25.6981 19.5535C25.6703 19.6187 25.6572 19.6874 25.6572 19.7578V21.8942C25.6572 21.9646 25.6703 22.0324 25.6981 22.0985C25.7251 22.1637 25.7634 22.221 25.8138 22.2714C25.8634 22.3218 25.9217 22.3601 25.987 22.387C26.0522 22.414 26.121 22.4279 26.1914 22.4279ZM26.7265 20.2923H28.8642V21.3597H26.7265V20.2923Z" fill="#F69F17"/>
<path d="M26.1914 26.6999H29.3984C29.4697 26.6999 29.5376 26.686 29.6037 26.659C29.6689 26.6321 29.7264 26.5938 29.7768 26.5434C29.8264 26.493 29.8656 26.4356 29.8925 26.3704C29.9195 26.3044 29.9334 26.2366 29.9334 26.1662V24.0298C29.9334 23.9594 29.9195 23.8907 29.8925 23.8255C29.8656 23.7603 29.8264 23.7021 29.7768 23.6525C29.7264 23.6021 29.6689 23.5639 29.6037 23.5361C29.5376 23.5091 29.4697 23.4961 29.3984 23.4961H26.1914C26.121 23.4961 26.0522 23.5091 25.987 23.5361C25.9217 23.5639 25.8634 23.6021 25.8138 23.6525C25.7634 23.7021 25.7251 23.7603 25.6981 23.8255C25.6703 23.8907 25.6572 23.9594 25.6572 24.0298V26.1662C25.6572 26.2366 25.6703 26.3044 25.6981 26.3704C25.7251 26.4356 25.7634 26.493 25.8138 26.5434C25.8634 26.5938 25.9217 26.6321 25.987 26.659C26.0522 26.686 26.121 26.6999 26.1914 26.6999ZM26.7265 24.5634H28.8642V25.6316H26.7265V24.5634Z" fill="#F69F17"/>
<path d="M2.67285 27.7681H6.94905V28.8354H2.67285V27.7681Z" fill="#F69F17"/>
<path d="M25.6572 27.7681H29.9334V28.8354H25.6572V27.7681Z" fill="#F69F17"/>
</svg>
