<svg width="12" height="26" viewBox="0 0 12 26" fill="none" xmlns="http://www.w3.org/2000/svg">
<mask id="mask0_859_1273" style="mask-type:luminance" maskUnits="userSpaceOnUse" x="0" y="11" width="12" height="15">
<path d="M1 11.1402H0.9V11.2402V25.0283V25.1283H1H11H11.1V25.0283V11.2402V11.1402H11H1Z" fill="white" stroke="white" stroke-width="0.2"/>
</mask>
<g mask="url(#mask0_859_1273)">
<path d="M2.45089 25.0983H9.54986C10.4057 25.0983 11.1015 24.3986 11.1015 23.5406V12.6989C11.1015 11.8401 10.4056 11.1412 9.54986 11.1412H2.45089C1.59505 11.1412 0.9 11.8402 0.9 12.6989V23.5406C0.9 24.3986 1.59501 25.0983 2.45089 25.0983ZM1.65937 12.6989C1.65937 12.26 2.01508 11.9036 2.45089 11.9036H9.54986C9.98568 11.9036 10.3414 12.26 10.3414 12.6989V23.5406C10.3414 23.9793 9.98579 24.3351 9.54986 24.3351H2.45089C2.01502 24.3351 1.65937 23.9786 1.65937 23.5406V12.6989Z" fill="#F69F17" stroke="#F69F17" stroke-width="0.2"/>
</g>
<path d="M2.75746 18.5008H9.24346C9.58215 18.5008 9.85678 18.2247 9.85678 17.8852V13.4472C9.85678 13.1086 9.58225 12.8316 9.24346 12.8316H2.75746C2.41868 12.8316 2.14414 13.1086 2.14414 13.4472V17.8852C2.14414 18.2247 2.41877 18.5008 2.75746 18.5008ZM9.09666 13.5948V17.7384H2.90351V13.5948H9.09666Z" fill="#F69F17" stroke="#F69F17" stroke-width="0.2"/>
<path d="M4.41797 10.179H7.58095C8.9939 10.179 10.1419 9.0249 10.1419 7.60678V3.47226C10.1419 2.05414 8.9939 0.9 7.58095 0.9H4.41797C3.00579 0.9 1.85703 2.05412 1.85703 3.47226V7.60678C1.85703 9.02492 3.00579 10.179 4.41797 10.179ZM2.61716 3.47226C2.61716 2.47403 3.4258 1.66315 4.41797 1.66315H7.58095C8.57384 1.66315 9.38175 2.474 9.38175 3.47226V7.60753C9.38175 8.60506 8.57382 9.41665 7.58095 9.41665H4.41797C3.42585 9.41665 2.61716 8.60506 2.61716 7.60678V3.47226Z" fill="#F69F17" stroke="#F69F17" stroke-width="0.2"/>
<path d="M2.24295 8.13864H9.75711C9.96744 8.13864 10.1372 7.96745 10.1372 7.75782C10.1372 7.54761 9.96761 7.37625 9.75711 7.37625H2.24295C2.03245 7.37625 1.86289 7.54761 1.86289 7.75782C1.86289 7.96745 2.03262 8.13864 2.24295 8.13864ZM2.24295 3.70292H9.75711C9.96761 3.70292 10.1372 3.53156 10.1372 3.32135C10.1372 3.11172 9.96744 2.94053 9.75711 2.94053H2.24295C2.03262 2.94053 1.86289 3.11172 1.86289 3.32135C1.86289 3.53156 2.03245 3.70292 2.24295 3.70292Z" fill="#F69F17" stroke="#F69F17" stroke-width="0.2"/>
<path d="M9.67444 5.348C8.07105 5.88699 6.12873 5.08153 6.10306 5.0702C4.5329 4.45195 2.67436 5.03699 2.14217 5.23099C1.99723 5.28383 1.92249 5.44538 1.97458 5.59183L9.67444 5.348ZM9.67444 5.348C9.82089 5.29893 9.97941 5.3782 10.0285 5.5254M9.67444 5.348L10.0285 5.5254M10.0285 5.5254C10.0775 5.6726 9.99828 5.83188 9.85184 5.88171L10.0285 5.5254ZM2.36785 5.85423L2.36823 5.85409C2.60691 5.76686 3.1436 5.59114 3.79008 5.50439C4.4372 5.41755 5.18542 5.42111 5.85353 5.68352C5.93829 5.72005 7.09619 6.1976 8.43189 6.1976C8.90507 6.1976 9.40235 6.13772 9.8836 5.97653L9.88404 5.97638C10.0825 5.90885 10.1898 5.69317 10.1233 5.49378C10.0569 5.29437 9.84178 5.18647 9.64267 5.25318L9.64257 5.25321C8.86479 5.51467 7.9984 5.45134 7.31638 5.31734C6.97655 5.25058 6.68523 5.16682 6.47743 5.0991C6.37358 5.06526 6.29074 5.03547 6.2333 5.01389C6.20458 5.0031 6.18224 4.99437 6.16682 4.98822C6.15255 4.98253 6.14497 4.97936 6.14364 4.9788C6.14347 4.97873 6.1434 4.9787 6.14343 4.97871L6.14346 4.97864L6.1397 4.97715C5.33297 4.65951 4.457 4.65244 3.72066 4.74681C2.98342 4.8413 2.37817 5.03852 2.10792 5.13704L2.10791 5.13704C1.91042 5.20904 1.81021 5.42811 1.88036 5.62534L1.88036 5.62534L1.88057 5.62593C1.95218 5.82336 2.1694 5.92584 2.36785 5.85423Z" fill="#F69F17" stroke="#F69F17" stroke-width="0.2"/>
<path d="M7.07088 11.5226C7.07088 11.7324 7.24154 11.9034 7.45094 11.9034C7.66127 11.9034 7.831 11.7322 7.831 11.5226V9.79693C7.831 9.5873 7.66127 9.41611 7.45094 9.41611C7.24154 9.41611 7.07088 9.58713 7.07088 9.79693V11.5226ZM4.16758 11.5226C4.16758 11.7322 4.33731 11.9034 4.54764 11.9034C4.75797 11.9034 4.9277 11.7322 4.9277 11.5226V9.79693C4.9277 9.5873 4.75797 9.41611 4.54764 9.41611C4.33731 9.41611 4.16758 9.5873 4.16758 9.79693V11.5226Z" fill="#F69F17" stroke="#F69F17" stroke-width="0.2"/>
<path d="M5.67827 14.5278H6.32143L6.93817 13.8081H7.03817V13.808V13.2132C7.03817 13.0032 6.86879 12.8316 6.65887 12.8316H5.34083C5.13091 12.8316 4.96152 13.0032 4.96152 13.2132V13.8081C4.96152 14.2049 5.28294 14.5278 5.67827 14.5278ZM6.2788 13.7654H5.72165V13.5948H6.2788V13.7654Z" fill="#F69F17" stroke="#F69F17" stroke-width="0.2"/>
<path d="M5.61973 14.7376C5.61973 14.9478 5.78929 15.1192 5.99979 15.1192C6.21029 15.1192 6.37985 14.9478 6.37985 14.7376V14.1473C6.37985 13.9371 6.21029 13.7657 5.99979 13.7657C5.78929 13.7657 5.61973 13.9371 5.61973 14.1473V14.7376Z" fill="#F69F17" stroke="#F69F17" stroke-width="0.2"/>
<path d="M4.58537 15.9138L4.58536 15.9138L4.58546 15.9146L4.81943 18.1585L4.91893 18.1486L4.81947 18.1589L4.81945 18.1587C4.83901 18.3531 5.00273 18.5007 5.19673 18.5007H6.80162C6.99672 18.5007 7.15922 18.3529 7.17963 18.159L7.17964 18.1589L7.4129 15.9146L7.4129 15.9146L7.41299 15.9138C7.42313 15.8073 7.38879 15.7003 7.3171 15.6203C7.24534 15.5395 7.14273 15.4933 7.03488 15.4933H4.96347C4.85507 15.4933 4.7529 15.5406 4.68169 15.6198C4.60839 15.7005 4.57528 15.8079 4.58537 15.9138ZM6.61291 16.2564L6.45861 17.7383H5.53975L5.38544 16.2564H6.61291Z" fill="#F69F17" stroke="#F69F17" stroke-width="0.2"/>
</svg>
