<svg width="17" height="18" viewBox="0 0 17 18" fill="none" xmlns="http://www.w3.org/2000/svg">
<mask id="mask0_827_810" style="mask-type:luminance" maskUnits="userSpaceOnUse" x="0" y="0" width="17" height="18">
<path d="M0 0H17V18H0V0Z" fill="white"/>
</mask>
<g mask="url(#mask0_827_810)">
<path d="M1.29721 4.62117L0.830298 5.9249H0.418957C0.198225 5.9249 0.019043 6.1036 0.019043 6.32374C0.019043 6.54387 0.198225 6.72257 0.418957 6.72257H0.778361L2.53643 16.3118C2.64134 16.8831 3.12228 17.298 3.68008 17.298H5.79339C5.79443 17.298 5.79599 17.2975 5.79703 17.2975H6.50129C6.80668 17.731 7.2871 17.9998 7.80231 17.9998H15.2911C15.9175 17.9998 16.4971 17.6057 16.7672 16.996L16.8736 16.7562C16.9822 16.5101 16.9604 16.2299 16.8144 16.0067C16.7272 15.8736 16.603 15.7751 16.4618 15.7218V14.705C16.5651 14.6449 16.6591 14.5667 16.7386 14.4709C16.95 14.2135 17.0325 13.8737 16.965 13.5396C16.5184 11.3216 14.7582 9.77239 12.6844 9.77239H10.4085C10.3472 9.77239 10.2875 9.77808 10.2267 9.78067L10.8063 6.72257H11.1673C11.388 6.72257 11.5667 6.54387 11.5667 6.32374C11.5667 6.1036 11.388 5.9249 11.1673 5.9249H10.757L10.2901 4.62117C10.1255 4.16276 9.69957 3.85457 9.23006 3.85457H7.6813L10.0372 0.690287C10.1686 0.513659 10.1317 0.263997 9.95458 0.132433C9.77696 0.000868276 9.52662 0.0381621 9.39522 0.21479L6.68567 3.85457H5.79911C5.79703 3.85457 5.79495 3.85405 5.79287 3.85405H2.35724C1.88721 3.85405 1.46133 4.16224 1.29721 4.62117ZM16.0359 16.6738C15.8915 16.9996 15.6058 17.2022 15.2911 17.2022H7.80231C7.48706 17.2022 7.2014 16.9996 7.05754 16.6738L6.96301 16.4734H16.1247L16.0359 16.6738ZM7.43096 15.6757V14.8371H8.49671L7.81322 15.6757H7.43096ZM8.58604 15.6757L9.26953 14.8371H10.5004L9.81695 15.6757H8.58604ZM10.5898 15.6757L11.2733 14.8371H12.5042L11.8207 15.6757H10.5898ZM12.5935 15.6757L13.277 14.8371H14.5063L13.8244 15.6757H12.5935ZM14.5967 15.6757L15.2786 14.8371H15.6625V15.6757H14.5967ZM10.4085 10.5701H12.6844C14.3723 10.5701 15.8105 11.8557 16.1813 13.6965C16.201 13.7939 16.1777 13.8944 16.12 13.9648C16.092 13.999 16.0447 14.0394 15.9782 14.0394H7.11519C7.04819 14.0394 7.00093 13.999 6.9734 13.9648C6.91523 13.8944 6.89238 13.7939 6.91212 13.6965C7.28243 11.8557 8.72056 10.5701 10.4085 10.5701ZM9.38951 9.90447C7.77842 10.3188 6.49922 11.6966 6.12787 13.5391C6.06035 13.8737 6.14293 14.2129 6.35431 14.4704C6.43378 14.5667 6.52778 14.6449 6.63114 14.705V15.7218C6.48987 15.7751 6.36574 15.873 6.279 16.0062C6.18188 16.1548 6.14085 16.3283 6.15539 16.4998H5.79235C5.7908 16.4998 5.78976 16.5003 5.7882 16.5003H3.68008C3.50869 16.5003 3.35859 16.3605 3.32327 16.1683L1.59117 6.72257H9.99301L9.38951 9.90447ZM5.79235 4.65225H9.23006C9.36458 4.65225 9.48507 4.74548 9.53701 4.88999L9.90784 5.9249H1.67895L2.04978 4.88948C2.10171 4.74496 2.22221 4.65173 2.35724 4.65173H5.78664C5.7882 4.65173 5.79028 4.65225 5.79235 4.65225Z" fill="#F69F17"/>
</g>
</svg>
