<svg width="58" height="58" viewBox="0 0 58 58" fill="none" xmlns="http://www.w3.org/2000/svg">
<g clip-path="url(#clip0_859_1343)">
<rect width="58" height="58" rx="29" fill="url(#paint0_linear_859_1343)"/>
<path d="M18.3668 40.5582C21.9111 43.1359 25.4557 45.1982 29.0001 45.1982C32.5445 45.1982 36.0891 43.1359 39.6334 40.5582C36.7119 39.6689 35.2297 38.3413 35.1868 36.5756C35.1868 36.2608 35.1891 35.8138 35.1912 34.9746C35.1912 34.8413 35.1915 34.7048 35.1922 34.5651C35.198 32.3147 35.2075 29.3451 35.2208 26.3291C37.9916 22.7375 36.9737 18.5269 36.1055 18.6319C35.041 18.7614 25.8184 10.0096 24.0494 9.56091C22.2804 9.11218 17.7868 10.5608 17.0134 14.5967C16.2401 18.6325 15.9168 28.8053 18.8501 32.8667C19.6848 34.0224 20.9995 34.4745 22.7941 34.2229C22.7966 35.0676 22.8016 35.5416 22.8134 36.4982C22.7904 38.3444 21.3083 39.6699 18.3668 40.5582Z" fill="url(#paint1_linear_859_1343)"/>
<path d="M22.8135 34.2199C27.0668 33.7366 29.7735 31.8999 29.7735 31.8999C29.7735 31.8999 26.6801 35.7666 22.8135 36.5399V34.2199Z" fill="#FC9F6A"/>
<path d="M36.6366 26.3901C37.9687 23.1866 43.3066 16.6621 38.7053 12.6021C37.1586 5.06214 28.6133 5.89676 22.91 7.63676C19.0767 8.80623 16.182 11.1168 15.5633 9.37676C11.6966 12.6021 13.6331 15.7568 16.182 16.6621C18.4954 17.4838 22.4073 18.3055 29.0591 17.5321C30.2474 17.3939 29.9985 21.033 30.6334 21.4265C31.586 22.0167 32.3253 18.3055 34.9368 19.4198C37.5484 20.5342 35.9986 25.7012 33.1953 25.7012C32.2286 25.7012 31.7453 28.359 34.3553 29.6157C36.25 30.5468 35.7711 28.4717 36.6366 26.3901Z" fill="url(#paint2_linear_859_1343)"/>
<path d="M49.2998 46.4595C51.1403 50.2018 52.1998 58.8328 52.1998 58.8328H5.7998C5.7998 58.8328 6.85966 50.2008 8.6998 46.4595C10.54 42.7181 21.2858 39.2479 21.2858 39.2479C27.2237 41.5666 30.8574 41.5666 36.7082 39.2466C36.7082 39.2466 47.4593 42.7171 49.2998 46.4595Z" fill="url(#paint3_linear_859_1343)"/>
<path d="M30.353 40.6L31.3197 58.3866H26.6797L27.6464 40.6C27.6464 40.6 28.5486 39.6333 28.9997 39.6333C29.4507 39.6333 30.353 40.6 30.353 40.6Z" fill="url(#paint4_linear_859_1343)"/>
<path d="M30.5734 44.2138L27.5332 42.4571L27.6465 40.6C28.248 39.9555 28.6991 39.6333 28.9998 39.6333C29.3005 39.6333 29.7516 39.9555 30.3532 40.6L30.5736 44.2138H30.5734Z" fill="#645050"/>
<path d="M28.9999 39.6319L27.0666 43.1134L21.0732 39.4401L22.8132 36.9268L28.9999 39.2122L35.1866 36.9268L36.9266 39.4401L30.9332 43.1134L28.9999 39.6319Z" fill="white"/>
</g>
<defs>
<linearGradient id="paint0_linear_859_1343" x1="29" y1="0" x2="29" y2="58" gradientUnits="userSpaceOnUse">
<stop stop-color="#FFF2F2"/>
<stop offset="1" stop-color="#FFE0DC"/>
</linearGradient>
<linearGradient id="paint1_linear_859_1343" x1="28.057" y1="9.48242" x2="28.057" y2="45.1982" gradientUnits="userSpaceOnUse">
<stop stop-color="#F7B186"/>
<stop offset="1" stop-color="#FFC299"/>
</linearGradient>
<linearGradient id="paint2_linear_859_1343" x1="26.9584" y1="6.45508" x2="26.9584" y2="29.8446" gradientUnits="userSpaceOnUse">
<stop stop-color="#1D0024"/>
<stop offset="1" stop-color="#100014"/>
</linearGradient>
<linearGradient id="paint3_linear_859_1343" x1="28.9998" y1="39.2466" x2="28.9998" y2="58.8328" gradientUnits="userSpaceOnUse">
<stop stop-color="#1D0024"/>
<stop offset="1" stop-color="#100014"/>
</linearGradient>
<linearGradient id="paint4_linear_859_1343" x1="28.9997" y1="39.6333" x2="28.9997" y2="58.3866" gradientUnits="userSpaceOnUse">
<stop stop-color="#806A6A"/>
<stop offset="1" stop-color="#665654"/>
</linearGradient>
<clipPath id="clip0_859_1343">
<rect width="58" height="58" rx="29" fill="white"/>
</clipPath>
</defs>
</svg>
