<svg width="13" height="22" viewBox="0 0 13 22" fill="none" xmlns="http://www.w3.org/2000/svg">
<mask id="mask0_859_1236" style="mask-type:luminance" maskUnits="userSpaceOnUse" x="0" y="0" width="13" height="21">
<path d="M1 0.85H0.85V1V20.0814V20.2314H1H12.6957H12.8457V20.0814V1V0.85H12.6957H1Z" fill="white" stroke="white" stroke-width="0.3"/>
</mask>
<g mask="url(#mask0_859_1236)">
<path d="M12.8351 18.7284V18.7283V2.24444C12.8351 1.47537 12.2084 0.850488 11.4387 0.850488H2.25224C1.48253 0.850488 0.855859 1.47537 0.855859 2.24444V18.7277C0.855859 19.4967 1.48253 20.1216 2.25224 20.1216H11.4387C12.2085 20.1216 12.8344 19.4967 12.8351 18.7284ZM1.7821 2.24444C1.7821 1.98582 1.99244 1.77551 2.25224 1.77551H11.4387C11.698 1.77551 11.9088 1.98591 11.9088 2.24444V18.7283C11.9088 18.9863 11.6979 19.1972 11.4387 19.1972H2.25224C1.99253 19.1972 1.7821 18.9864 1.7821 18.7283V2.24444Z" fill="#F69F17" stroke="#F69F17" stroke-width="0.3"/>
</g>
<path d="M4.09938 6.23316H4.3974C4.68736 6.23316 4.93315 6.03207 4.93315 5.77303V4.02425C4.93315 3.76566 4.68738 3.56412 4.3974 3.56412H4.09888C3.80937 3.56412 3.56363 3.76568 3.56363 4.02425V5.77303C3.56363 6.03207 3.80942 6.23316 4.09938 6.23316ZM4.34213 4.07649V5.72079H4.15466V4.07649H4.34213Z" fill="#F69F17" stroke="#F69F17" stroke-width="0.07"/>
<path d="M4.08155 14.0302H4.41475C4.7038 14.0302 4.93315 13.7727 4.93315 13.4635V10.6289C4.93315 10.3192 4.70382 10.0617 4.41475 10.0617H4.08155C3.79294 10.0617 3.56363 10.3192 3.56363 10.6289V13.4635C3.56363 13.7727 3.79296 14.0302 4.08155 14.0302ZM4.36017 10.6855V13.4069H4.13612V10.6855H4.36017Z" fill="#F69F17" stroke="#F69F17" stroke-width="0.07"/>
<mask id="mask1_859_1236" style="mask-type:luminance" maskUnits="userSpaceOnUse" x="0" y="7" width="13" height="2">
<path d="M1 7.29922H0.85V7.44922V8.22897V8.37897H1H12.6957H12.8457V8.22897V7.44922V7.29922H12.6957H1Z" fill="white" stroke="white" stroke-width="0.3"/>
</mask>
<g mask="url(#mask1_859_1236)">
<path d="M1.31898 8.22863H12.3714C12.627 8.22863 12.8345 8.02155 12.8345 7.76612C12.8345 7.50989 12.6268 7.30361 12.3714 7.30361H1.31898C1.06351 7.30361 0.855859 7.50989 0.855859 7.76612C0.855859 8.02155 1.06332 8.22863 1.31898 8.22863Z" fill="#F69F17" stroke="#F69F17" stroke-width="0.3"/>
</g>
<mask id="mask2_859_1236" style="mask-type:luminance" maskUnits="userSpaceOnUse" x="2" y="19" width="4" height="3">
<path d="M2.45703 19.2518H2.40703V19.3018V21.0002V21.0502H2.45703H5.88794H5.93794V21.0002V19.3018V19.2518H5.88794H2.45703Z" fill="white" stroke="white" stroke-width="0.1"/>
</mask>
<g mask="url(#mask2_859_1236)">
<path d="M2.47839 19.8095L2.47836 19.8094C2.42748 19.6971 2.43737 19.5664 2.5038 19.4633L2.50385 19.4632C2.57098 19.3593 2.68613 19.2972 2.80901 19.2972H5.56372C5.68705 19.2972 5.8023 19.3592 5.86891 19.4632C5.93612 19.5667 5.94513 19.6973 5.89437 19.8094L5.89435 19.8095L5.42833 20.8366L5.42824 20.8368C5.36895 20.9659 5.23976 21.0493 5.09709 21.0493H3.27564C3.13302 21.0493 3.00371 20.966 2.94502 20.8366L2.47839 19.8095ZM2.47839 19.8095L2.94501 20.8366L2.47839 19.8095ZM5.00055 20.0222L4.86325 20.3242H3.50947L3.37217 20.0222H5.00055Z" fill="#F69F17" stroke="#F69F17" stroke-width="0.1"/>
</g>
<mask id="mask3_859_1236" style="mask-type:luminance" maskUnits="userSpaceOnUse" x="7" y="19" width="5" height="3">
<path d="M7.76074 19.2518H7.71074V19.3018V21.0002V21.0502H7.76074H11.3476H11.3976V21.0002V19.3018V19.2518H11.3476H7.76074Z" fill="white" stroke="white" stroke-width="0.1"/>
</mask>
<g mask="url(#mask3_859_1236)">
<path d="M7.86244 19.4903L7.82044 19.4632C7.88754 19.3594 8.00206 19.2972 8.1256 19.2972H10.8803C11.0032 19.2972 11.1183 19.3593 11.1855 19.4632C11.1855 19.4632 11.1855 19.4632 11.1855 19.4632L11.1435 19.4903M7.86244 19.4903L11.1654 19.7888C11.2093 19.692 11.2014 19.5793 11.1435 19.4903M7.86244 19.4903L7.82053 19.4631C7.75321 19.5665 7.74416 19.6973 7.79496 19.8094L7.79498 19.8095L8.2616 20.8366L11.1435 19.4903M7.86244 19.4903C7.92031 19.4008 8.019 19.3472 8.1256 19.3472H10.8803C10.9863 19.3472 11.0856 19.4008 11.1435 19.4903M10.3172 20.0222L10.1799 20.3242H8.82607L8.68877 20.0222H10.3172Z" fill="#F69F17" stroke="#F69F17" stroke-width="0.1"/>
</g>
</svg>
