<svg width="16" height="16" viewBox="0 0 16 16" fill="none" xmlns="http://www.w3.org/2000/svg">
<mask id="mask0_859_282" style="mask-type:luminance" maskUnits="userSpaceOnUse" x="0" y="0" width="16" height="16">
<path d="M1 1H14.9963V15H1V1Z" fill="white" stroke="white" stroke-width="0.25"/>
</mask>
<g mask="url(#mask0_859_282)">
<path d="M8.00037 12.1837C8.79697 12.1825 9.5611 11.8657 10.1255 11.3013C10.6898 10.7369 11.0066 9.97404 11.0079 9.17622V8.14308C11.0079 7.99908 11.1237 7.88327 11.2664 7.88327C11.4092 7.88327 11.5263 7.99908 11.5263 8.14308V9.17622C11.5263 10.4361 10.854 11.5997 9.7627 12.2297C8.67258 12.8584 7.32754 12.8584 6.23681 12.2297C5.14669 11.5997 4.47387 10.4361 4.47387 9.17622V8.14308C4.47387 7.99908 4.58968 7.88327 4.73368 7.88327C4.87707 7.88327 4.99227 7.99908 4.99227 8.14308V9.17622C4.9935 9.97404 5.31091 10.7369 5.87466 11.3013C6.4378 11.8657 7.20254 12.1825 8.00037 12.1837ZM12.435 14.4804H3.56574L2.71521 6.83665H13.2837L12.435 14.4804ZM2.28198 4.66315C2.31384 4.49893 2.4174 4.35738 2.56263 4.27527C2.60369 4.24892 2.64719 4.22808 2.69192 4.21092C2.82245 4.15945 2.96767 4.16742 3.09329 4.22931C3.21278 4.28875 3.32063 4.36841 3.41254 4.46522L3.41867 4.47135C3.70116 4.75507 4.05534 5.29798 4.45548 6.31886H2.90211C2.29791 5.42115 2.22806 4.92419 2.28198 4.66315ZM4.31148 3.65637C4.36112 3.61654 4.41198 3.58038 4.46651 3.54668C4.70304 3.40513 4.84704 3.14899 4.84582 2.87324V2.55889H6.40655V2.87324C6.40839 3.14777 6.55116 3.40268 6.78463 3.54668L6.81833 3.57058C6.63082 3.7299 6.49908 3.94437 6.44025 4.18458C6.38204 4.42417 6.40042 4.67541 6.49356 4.90397C6.20188 4.9824 5.95677 5.18278 5.82013 5.45118C5.68348 5.72079 5.66755 6.03637 5.77539 6.31886H5.01127C4.64544 5.34639 4.2741 4.64967 3.88744 4.21338C3.90766 4.16864 3.9285 4.12391 3.9524 4.08163C4.04431 3.91741 4.16564 3.77341 4.31148 3.65637ZM6.40655 1.51841V2.03926H4.84459V1.51841H6.40655ZM7.64986 3.80159C7.72278 3.80772 7.79509 3.78444 7.8484 3.7348C7.90232 3.68639 7.93296 3.61654 7.93296 3.543L7.93174 3.49705C7.93174 2.68941 8.31349 2.12627 8.65665 2.12627C8.78104 2.13485 8.89747 2.19245 8.9808 2.2856C9.22714 2.53377 9.37972 2.99764 9.37972 3.49705C9.37849 3.62757 9.36869 3.75809 9.34724 3.88738C9.33008 3.99339 9.38094 4.09879 9.47408 4.15332C9.56723 4.20664 9.68304 4.19683 9.7676 4.13004C9.85829 4.05528 9.96798 4.00565 10.0844 3.98971C10.2027 3.97194 10.3222 3.98665 10.43 4.03261C10.1653 4.47687 9.9116 4.9438 9.67323 5.41502L9.66956 5.42237C9.51637 5.72079 9.37114 6.02167 9.23204 6.31886H6.37959C6.26622 6.20182 6.20924 6.0425 6.22517 5.88134C6.24171 5.72079 6.3275 5.57434 6.46047 5.48365C6.59344 5.39112 6.76134 5.36294 6.91637 5.40522C7.03464 5.43708 7.15781 5.38254 7.21357 5.2747C7.27056 5.16624 7.24359 5.03449 7.15107 4.95667C7.13391 4.94257 7.11798 4.92664 7.10266 4.9101C6.98868 4.78877 6.92495 4.627 6.92495 4.46032C6.92618 4.3249 6.96723 4.19438 7.04444 4.08408C7.12165 3.97317 7.2295 3.88861 7.35512 3.84142C7.44949 3.80527 7.55059 3.79301 7.64986 3.80159ZM12.4883 2.15017L13.1409 3.44496C13.2065 3.57058 13.3609 3.61899 13.4865 3.55587C13.6134 3.49214 13.6654 3.33956 13.6029 3.21149L12.9007 1.81682C13.3296 1.52698 13.7212 1.44794 14.0619 1.59316C14.231 1.66424 14.3603 1.80579 14.4136 1.98105C14.6661 2.69186 14.2047 4.23053 13.1182 6.31886H9.80498C10.1169 5.66626 10.4239 5.07677 10.726 4.55101L11.264 5.61785C11.294 5.67974 11.3486 5.72692 11.4129 5.74837C11.4791 5.77043 11.5514 5.76553 11.612 5.73428C11.6739 5.70364 11.7217 5.64849 11.7426 5.58292C11.7634 5.51674 11.7573 5.44627 11.7266 5.38377L11.0403 4.0228C11.2144 3.74093 11.3859 3.48234 11.5551 3.24765L12.2009 4.5314C12.2322 4.59207 12.2855 4.63925 12.3517 4.66192C12.4172 4.68398 12.4895 4.67786 12.5502 4.64844C12.6127 4.61597 12.6587 4.56266 12.6807 4.49648C12.7022 4.43091 12.696 4.3586 12.6648 4.29794L11.9031 2.78623C12.0833 2.56134 12.2781 2.34749 12.4883 2.15017ZM13.6875 6.34582C14.7911 4.17967 15.2017 2.65326 14.902 1.80702C14.8015 1.49635 14.5687 1.24388 14.2666 1.11704C13.0723 0.603537 11.8081 1.85298 10.7045 3.58651C10.4551 3.46396 10.169 3.4327 9.89812 3.49827V3.49705C9.89812 2.85731 9.69284 2.2666 9.3503 1.921C9.17076 1.72736 8.92014 1.614 8.65665 1.60787C8.00527 1.60787 7.48564 2.33278 7.42007 3.29238C7.39005 3.29728 7.3588 3.30341 7.32877 3.31076C7.24482 3.23355 7.15229 3.16554 7.05547 3.10426C6.97459 3.05462 6.92618 2.96761 6.92495 2.87324V1.25982C6.92495 1.19057 6.89799 1.12439 6.84958 1.07598C6.80056 1.02757 6.73499 1 6.66636 1H4.586C4.44323 1 4.32619 1.11581 4.32619 1.25982V2.87324C4.32741 2.96761 4.27778 3.05585 4.19689 3.10426C4.12336 3.14899 4.05289 3.19924 3.98671 3.25255C3.7894 3.41126 3.62395 3.60673 3.50078 3.82672L3.48485 3.85797C3.42909 3.82059 3.37026 3.78689 3.3096 3.75809C3.15641 3.68639 2.98912 3.65269 2.81999 3.66004L2.54915 1.65873C2.52893 1.51718 2.39841 1.41914 2.25808 1.43874C2.11776 1.45774 2.01849 1.58704 2.03565 1.72736L2.28811 3.60183L1.42655 2.87692C1.31748 2.785 1.15325 2.79849 1.06134 2.90817C0.969423 3.01725 0.982904 3.18147 1.0932 3.27338L2.02462 4.05651C1.89655 4.19806 1.81076 4.37208 1.77338 4.55837C1.67779 5.02836 1.85181 5.61785 2.30527 6.3495L2.30404 6.35072C2.20967 6.39913 2.15636 6.50147 2.16862 6.60564L3.07613 14.7702C3.09084 14.9007 3.20114 15 3.33288 15H12.6672C12.799 15 12.9099 14.9007 12.9246 14.7702L13.8321 6.60564C13.8444 6.49779 13.7874 6.39301 13.6875 6.34582Z" fill="#F69F17" stroke="#F69F17" stroke-width="0.25"/>
</g>
</svg>
