<svg width="26" height="25" viewBox="0 0 26 25" fill="none" xmlns="http://www.w3.org/2000/svg">
<path d="M22.5651 6.02286L15.3642 0.984787C13.4015 -0.390368 10.3887 -0.31536 8.50096 1.14731L2.23775 6.03536C0.987612 7.01047 0 9.01069 0 10.5859V19.2118C0 22.3997 2.58779 25 5.77565 25H19.2522C22.44 25 25.0278 22.4122 25.0278 19.2243V10.7484C25.0278 9.0607 23.9402 6.98546 22.5651 6.02286ZM13.4515 19.9994C13.4515 20.512 13.0265 20.937 12.5139 20.937C12.0014 20.937 11.5763 20.512 11.5763 19.9994V16.249C11.5763 15.7365 12.0014 15.3114 12.5139 15.3114C13.0265 15.3114 13.4515 15.7365 13.4515 16.249V19.9994Z" fill="#F69F17"/>
</svg>
