<svg width="25" height="25" viewBox="0 0 25 25" fill="none" xmlns="http://www.w3.org/2000/svg">
<path d="M8.45264 20.4915H7.87936C3.29312 20.4915 1 19.345 1 13.6122V7.87936C1 3.29312 3.29312 1 7.87936 1H17.0518C21.6381 1 23.9312 3.29312 23.9312 7.87936V13.6122C23.9312 18.1984 21.6381 20.4915 17.0518 20.4915H16.4786C16.1231 20.4915 15.7792 20.6635 15.5613 20.9501L13.8415 23.2433C13.0847 24.2522 11.8465 24.2522 11.0897 23.2433L9.36989 20.9501C9.18644 20.6979 8.76221 20.4915 8.45264 20.4915Z" stroke="#808385" stroke-width="1.5" stroke-miterlimit="10" stroke-linecap="round" stroke-linejoin="round"/>
<path d="M17.0472 11.3191H17.0586M12.4598 11.3191H12.4712M7.87354 11.3191H7.88271" stroke="#808385" stroke-width="2" stroke-linecap="round" stroke-linejoin="round"/>
</svg>
