<svg width="8" height="10" viewBox="0 0 8 10" fill="none" xmlns="http://www.w3.org/2000/svg">
<path d="M7.88733 3.01973C7.41409 0.937467 5.59775 0 4.00225 0H3.99775C2.40676 0 0.585907 0.93296 0.112667 3.01522C-0.414659 5.34086 1.00957 7.31044 2.29859 8.54988C2.75548 8.99211 3.3664 9.23938 4.00225 9.23946C4.61521 9.23946 5.22817 9.0096 5.70141 8.54988C6.99043 7.31044 8.41466 5.34537 7.88733 3.01973ZM4.00225 5.27776C3.81581 5.27776 3.6312 5.24104 3.45895 5.16969C3.2867 5.09834 3.13019 4.99377 2.99836 4.86193C2.86653 4.7301 2.76195 4.57359 2.6906 4.40134C2.61925 4.22909 2.58253 4.04448 2.58253 3.85804C2.58253 3.6716 2.61925 3.48698 2.6906 3.31473C2.76195 3.14249 2.86653 2.98598 2.99836 2.85414C3.13019 2.72231 3.2867 2.61773 3.45895 2.54639C3.6312 2.47504 3.81581 2.43832 4.00225 2.43832C4.37879 2.43832 4.7399 2.58789 5.00615 2.85414C5.2724 3.12039 5.42198 3.4815 5.42198 3.85804C5.42198 4.23457 5.2724 4.59568 5.00615 4.86193C4.7399 5.12818 4.37879 5.27776 4.00225 5.27776Z" fill="black"/>
</svg>
