<svg width="9" height="10" viewBox="0 0 9 10" fill="none" xmlns="http://www.w3.org/2000/svg">
<path d="M8.87325 3.26829C8.34085 1.01463 6.29747 0 4.50253 0H4.49746C2.7076 0 0.659145 1.00976 0.12675 3.26341C-0.466491 5.78049 1.13577 7.9122 2.58591 9.25366C3.09991 9.73229 3.7872 9.99992 4.50253 10C5.19211 10 5.88169 9.75122 6.41409 9.25366C7.86423 7.9122 9.46649 5.78537 8.87325 3.26829ZM4.50253 5.7122C4.29279 5.7122 4.0851 5.67245 3.89132 5.59523C3.69754 5.51801 3.52147 5.40482 3.37315 5.26214C3.22484 5.11945 3.10719 4.95006 3.02693 4.76364C2.94666 4.57721 2.90535 4.3774 2.90535 4.17561C2.90535 3.97382 2.94666 3.77401 3.02693 3.58758C3.10719 3.40116 3.22484 3.23177 3.37315 3.08908C3.52147 2.94639 3.69754 2.83321 3.89132 2.75599C4.0851 2.67877 4.29279 2.63902 4.50253 2.63902C4.92614 2.63902 5.33239 2.80091 5.63192 3.08908C5.93145 3.37725 6.09972 3.76808 6.09972 4.17561C6.09972 4.58314 5.93145 4.97397 5.63192 5.26214C5.33239 5.55031 4.92614 5.7122 4.50253 5.7122Z" fill="#EB9309"/>
</svg>
