<svg width="14" height="12" viewBox="0 0 14 12" fill="none" xmlns="http://www.w3.org/2000/svg">
<mask id="path-1-inside-1_306_3351" fill="white">
<path d="M13.087 1.71429H0.913044C0.413913 1.71429 0 1.32571 0 0.857143C0 0.388571 0.413913 0 0.913044 0H13.087C13.5861 0 14 0.388571 14 0.857143C14 1.32571 13.5861 1.71429 13.087 1.71429ZM13.087 6.85714H0.913044C0.413913 6.85714 0 6.46857 0 6C0 5.53143 0.413913 5.14286 0.913044 5.14286H13.087C13.5861 5.14286 14 5.53143 14 6C14 6.46857 13.5861 6.85714 13.087 6.85714ZM13.087 12H0.913044C0.413913 12 0 11.6114 0 11.1429C0 10.6743 0.413913 10.2857 0.913044 10.2857H13.087C13.5861 10.2857 14 10.6743 14 11.1429C14 11.6114 13.5861 12 13.087 12Z"/>
</mask>
<path d="M13.087 1.71429H0.913044C0.413913 1.71429 0 1.32571 0 0.857143C0 0.388571 0.413913 0 0.913044 0H13.087C13.5861 0 14 0.388571 14 0.857143C14 1.32571 13.5861 1.71429 13.087 1.71429ZM13.087 6.85714H0.913044C0.413913 6.85714 0 6.46857 0 6C0 5.53143 0.413913 5.14286 0.913044 5.14286H13.087C13.5861 5.14286 14 5.53143 14 6C14 6.46857 13.5861 6.85714 13.087 6.85714ZM13.087 12H0.913044C0.413913 12 0 11.6114 0 11.1429C0 10.6743 0.413913 10.2857 0.913044 10.2857H13.087C13.5861 10.2857 14 10.6743 14 11.1429C14 11.6114 13.5861 12 13.087 12Z" fill="white"/>
<path d="M13.087 -0.285714H0.913044V3.71429H13.087V-0.285714ZM0.913044 -0.285714C1.39757 -0.285714 2 0.103991 2 0.857143H-2C-2 2.54744 -0.569745 3.71429 0.913044 3.71429V-0.285714ZM2 0.857143C2 1.61029 1.39757 2 0.913044 2V-2C-0.569745 -2 -2 -0.833152 -2 0.857143H2ZM0.913044 2H13.087V-2H0.913044V2ZM13.087 2C12.6024 2 12 1.61029 12 0.857143H16C16 -0.83315 14.5697 -2 13.087 -2V2ZM12 0.857143C12 0.103992 12.6024 -0.285714 13.087 -0.285714V3.71429C14.5697 3.71429 16 2.54744 16 0.857143H12ZM13.087 4.85714H0.913044V8.85714H13.087V4.85714ZM0.913044 4.85714C1.39757 4.85714 2 5.24685 2 6H-2C-2 7.69029 -0.569745 8.85714 0.913044 8.85714V4.85714ZM2 6C2 6.75315 1.39757 7.14286 0.913044 7.14286V3.14286C-0.569745 3.14286 -2 4.30971 -2 6H2ZM0.913044 7.14286H13.087V3.14286H0.913044V7.14286ZM13.087 7.14286C12.6024 7.14286 12 6.75315 12 6H16C16 4.30971 14.5697 3.14286 13.087 3.14286V7.14286ZM12 6C12 5.24685 12.6024 4.85714 13.087 4.85714V8.85714C14.5697 8.85714 16 7.69029 16 6H12ZM13.087 10H0.913044V14H13.087V10ZM0.913044 10C1.39757 10 2 10.3897 2 11.1429H-2C-2 12.8331 -0.569746 14 0.913044 14V10ZM2 11.1429C2 11.896 1.39757 12.2857 0.913044 12.2857V8.28571C-0.569744 8.28571 -2 9.45256 -2 11.1429H2ZM0.913044 12.2857H13.087V8.28571H0.913044V12.2857ZM13.087 12.2857C12.6024 12.2857 12 11.896 12 11.1429H16C16 9.45256 14.5697 8.28571 13.087 8.28571V12.2857ZM12 11.1429C12 10.3897 12.6024 10 13.087 10V14C14.5697 14 16 12.8331 16 11.1429H12Z" fill="white" mask="url(#path-1-inside-1_306_3351)"/>
</svg>
