<svg width="12" height="16" viewBox="0 0 12 16" fill="none" xmlns="http://www.w3.org/2000/svg">
<mask id="mask0_859_1399" style="mask-type:luminance" maskUnits="userSpaceOnUse" x="0" y="0" width="12" height="13">
<path d="M0 0H12V12.5505H0V0Z" fill="white"/>
</mask>
<g mask="url(#mask0_859_1399)">
<path d="M9.8535 0H2.12782C0.961649 0 0.0224609 0.958377 0.0224609 2.10865V10.3864C0.0224609 11.5543 0.979193 12.4951 2.12782 12.4951H9.87105C11.0367 12.4951 11.9764 11.5367 11.9764 10.3864V2.10865C11.9764 0.958377 11.0191 0 9.8535 0ZM1.06637 2.10865C1.06637 1.53351 1.53624 1.04555 2.12782 1.04555H9.87105C10.4451 1.04555 10.932 1.51652 10.932 2.10865V5.89062C10.932 6.77937 10.2017 7.51131 9.314 7.51131H2.68431C1.79721 7.51131 1.06637 6.77937 1.06637 5.89062V2.10865ZM9.8535 11.4495H2.12782C1.55378 11.4495 1.06637 10.9791 1.06637 10.3864V7.54585C1.48415 7.94664 2.05819 8.20816 2.68431 8.20816H9.29646C9.92313 8.20816 10.4972 7.96418 10.915 7.54585V10.3864C10.915 10.9791 10.4451 11.4495 9.8535 11.4495Z" fill="#F69F17"/>
</g>
<path d="M2.82415 8.81787C2.23256 8.81787 1.7627 9.28884 1.7627 9.88097C1.7627 10.4736 2.23256 10.9441 2.82415 10.9441C3.41573 10.9441 3.8856 10.4736 3.8856 9.88097C3.8856 9.28884 3.39873 8.81787 2.82415 8.81787ZM2.82415 10.2297C2.6328 10.2297 2.47654 10.0729 2.47654 9.88097C2.47654 9.68962 2.6328 9.53282 2.82415 9.53282C3.01549 9.53282 3.1723 9.68962 3.1723 9.88097C3.1723 10.0729 3.01549 10.2297 2.82415 10.2297Z" fill="#F69F17"/>
<path d="M9.15716 8.81787C8.56557 8.81787 8.0957 9.28884 8.0957 9.88097C8.0957 10.4736 8.56557 10.9441 9.15716 10.9441C9.74874 10.9441 10.2186 10.4736 10.2186 9.88097C10.2186 9.28884 9.74874 8.81787 9.15716 8.81787ZM9.15716 10.2297C8.96581 10.2297 8.80955 10.0729 8.80955 9.88097C8.80955 9.68962 8.96581 9.53282 9.15716 9.53282C9.3485 9.53282 9.50531 9.68962 9.50531 9.88097C9.50531 10.0729 9.3485 10.2297 9.15716 10.2297Z" fill="#F69F17"/>
<mask id="mask1_859_1399" style="mask-type:luminance" maskUnits="userSpaceOnUse" x="0" y="12" width="4" height="4">
<path d="M0.262695 12.5503H3.35056V15.6842H0.262695V12.5503Z" fill="white"/>
</mask>
<g mask="url(#mask1_859_1399)">
<path d="M2.45929 12.8436L0.510184 14.7779C0.301293 14.9868 0.301293 15.3179 0.510184 15.5274C0.614904 15.6316 0.754164 15.6842 0.87588 15.6842C1.01514 15.6842 1.1544 15.6316 1.24103 15.5274L3.19013 13.5931C3.39902 13.3836 3.39902 13.0525 3.19013 12.8436C2.99878 12.6342 2.65063 12.6342 2.45929 12.8436Z" fill="#F69F17"/>
</g>
<mask id="mask2_859_1399" style="mask-type:luminance" maskUnits="userSpaceOnUse" x="8" y="12" width="4" height="4">
<path d="M8.54395 12.5503H11.6318V15.6842H8.54395V12.5503Z" fill="white"/>
</mask>
<g mask="url(#mask2_859_1399)">
<path d="M9.52322 12.8436C9.31433 12.6342 8.98372 12.6342 8.77483 12.8436C8.56594 13.0525 8.56594 13.3836 8.77483 13.5931L10.7064 15.5274C10.8106 15.6316 10.9498 15.6842 11.0715 15.6842C11.2108 15.6842 11.3501 15.6316 11.4372 15.5274C11.6461 15.3179 11.6461 14.9868 11.4372 14.7779L9.52322 12.8436Z" fill="#F69F17"/>
</g>
</svg>
