<svg width="18" height="25" viewBox="0 0 18 25" fill="none" xmlns="http://www.w3.org/2000/svg">
<path d="M8.99413 11.2988C8.87683 11.2872 8.73607 11.2872 8.60704 11.2988C7.26065 11.2536 5.98492 10.6914 5.05001 9.73142C4.11509 8.77142 3.59442 7.48896 3.59824 6.15562C3.59824 3.3112 5.92082 1.00084 8.80645 1.00084C9.48963 0.988641 10.1686 1.10975 10.8044 1.35724C11.4403 1.60473 12.0208 1.97376 12.5126 2.44326C13.0043 2.91277 13.3979 3.47354 13.6707 4.09358C13.9436 4.71361 14.0903 5.38076 14.1026 6.05694C14.115 6.73311 13.9926 7.40507 13.7425 8.03444C13.4925 8.66381 13.1196 9.23827 12.6453 9.72502C12.1709 10.2118 11.6043 10.6013 10.9778 10.8713C10.3514 11.1413 9.67732 11.2866 8.99413 11.2988ZM3.12903 15.5828C0.290323 17.4636 0.290323 20.5286 3.12903 22.3978C6.35484 24.5341 11.6452 24.5341 14.871 22.3978C17.7097 20.517 17.7097 17.452 14.871 15.5828C11.6569 13.4582 6.36657 13.4582 3.12903 15.5828Z" stroke="#808385" stroke-width="1.5" stroke-linecap="round" stroke-linejoin="round"/>
</svg>
