<svg width="12" height="18" viewBox="0 0 12 18" fill="none" xmlns="http://www.w3.org/2000/svg">
<mask id="mask0_859_1417" style="mask-type:luminance" maskUnits="userSpaceOnUse" x="2" y="11" width="3" height="7">
<path d="M2.55957 11.8521H4.03344V17H2.55957V11.8521Z" fill="white" stroke="white" stroke-width="0.2"/>
</mask>
<g mask="url(#mask0_859_1417)">
<path d="M4.01464 12.1846C4.04201 12.0501 3.95502 11.9182 3.82059 11.8908C3.68555 11.8634 3.55416 11.9504 3.52679 12.0848L2.57848 16.7017C2.5505 16.8367 2.63748 16.9681 2.77252 16.9955C2.90695 17.0229 3.03834 16.9359 3.06571 16.8015L4.01464 12.1846Z" fill="#F69F17" stroke="#F69F17" stroke-width="0.2"/>
</g>
<mask id="mask1_859_1417" style="mask-type:luminance" maskUnits="userSpaceOnUse" x="8" y="11" width="3" height="7">
<path d="M8.75879 11.8521H10.2321V17H8.75879V11.8521Z" fill="white" stroke="white" stroke-width="0.2"/>
</mask>
<g mask="url(#mask1_859_1417)">
<path d="M9.27157 12.0848C9.24419 11.9504 9.11281 11.8634 8.97837 11.8908C8.84394 11.9182 8.75696 12.0501 8.78433 12.1846L9.73326 16.8015C9.76063 16.9359 9.89202 17.0229 10.0264 16.9955C10.1615 16.9681 10.2479 16.8367 10.2205 16.7017L9.27157 12.0848Z" fill="#F69F17" stroke="#F69F17" stroke-width="0.2"/>
</g>
<path d="M2.7035 3.95312H10.0315C10.1696 3.95312 10.2815 4.06505 10.2815 4.20313V6.89783C10.2815 7.03591 10.1696 7.14783 10.0315 7.14783H2.7035C2.56542 7.14783 2.4541 7.03591 2.4541 6.89783V4.20313C2.4541 4.06505 2.56542 3.95312 2.7035 3.95312ZM9.7821 4.45313H2.95289V6.64782H9.7821V4.45313Z" fill="#F69F17" stroke="#F69F17" stroke-width="0.2"/>
<path d="M3.33739 8.1748C3.58618 8.1748 3.81125 8.27578 3.97427 8.4388C4.13729 8.60243 4.23826 8.82749 4.23826 9.07689C4.23826 9.32629 4.13729 9.55135 3.97427 9.71498C3.81125 9.878 3.58618 9.97898 3.33739 9.97898C3.0886 9.97898 2.86354 9.878 2.70052 9.71498C2.5375 9.55135 2.43652 9.32629 2.43652 9.07689C2.43652 8.82749 2.5375 8.60243 2.70052 8.4388C2.86354 8.27578 3.0886 8.1748 3.33739 8.1748ZM3.62146 8.79221C3.54907 8.71983 3.44871 8.67481 3.33739 8.67481C3.22668 8.67481 3.12632 8.71983 3.05332 8.79221C2.98094 8.86521 2.93592 8.96557 2.93592 9.07689C2.93592 9.18821 2.98094 9.28857 3.05332 9.36157C3.12632 9.43395 3.22668 9.47897 3.33739 9.47897C3.44871 9.47897 3.54907 9.43395 3.62146 9.36157C3.69385 9.28857 3.73886 9.18821 3.73886 9.07689C3.73886 8.96557 3.69385 8.86521 3.62146 8.79221Z" fill="#F69F17" stroke="#F69F17" stroke-width="0.2"/>
<path d="M9.39892 8.1748C9.6477 8.1748 9.87277 8.27578 10.0364 8.4388C10.1994 8.60243 10.2998 8.82749 10.2998 9.07689C10.2998 9.32629 10.1994 9.55135 10.0364 9.71498C9.87277 9.878 9.6477 9.97898 9.39892 9.97898C9.15013 9.97898 8.92506 9.878 8.76204 9.71498C8.59902 9.55135 8.49805 9.32629 8.49805 9.07689C8.49805 8.82749 8.59902 8.60243 8.76204 8.4388C8.92506 8.27578 9.15013 8.1748 9.39892 8.1748ZM9.68298 8.79221C9.6106 8.71983 9.50962 8.67481 9.39892 8.67481C9.28821 8.67481 9.18784 8.71983 9.11485 8.79221C9.04246 8.86521 8.99745 8.96557 8.99745 9.07689C8.99745 9.18821 9.04246 9.28857 9.11485 9.36157C9.18784 9.43395 9.28821 9.47897 9.39892 9.47897C9.50962 9.47897 9.6106 9.43395 9.68298 9.36157C9.75598 9.28857 9.80038 9.18821 9.80038 9.07689C9.80038 8.96557 9.75598 8.86521 9.68298 8.79221Z" fill="#F69F17" stroke="#F69F17" stroke-width="0.2"/>
<path d="M5.35914 8.15235C5.35914 8.01427 5.24783 7.90234 5.10975 7.90234C4.97167 7.90234 4.86035 8.01427 4.86035 8.15235V10.7899C4.86035 10.9279 4.97167 11.0399 5.10975 11.0399C5.24783 11.0399 5.35914 10.9279 5.35914 10.7899V8.15235Z" fill="#F69F17" stroke="#F69F17" stroke-width="0.2"/>
<path d="M6.44667 8.15235C6.44667 8.01427 6.33474 7.90234 6.19666 7.90234C6.05919 7.90234 5.94727 8.01427 5.94727 8.15235V10.7899C5.94727 10.9279 6.05919 11.0399 6.19666 11.0399C6.33474 11.0399 6.44667 10.9279 6.44667 10.7899V8.15235Z" fill="#F69F17" stroke="#F69F17" stroke-width="0.2"/>
<path d="M7.53553 8.15235C7.53553 8.01427 7.42361 7.90234 7.28614 7.90234C7.14806 7.90234 7.03613 8.01427 7.03613 8.15235V10.7899C7.03613 10.9279 7.14806 11.0399 7.28614 11.0399C7.42361 11.0399 7.53553 10.9279 7.53553 10.7899V8.15235Z" fill="#F69F17" stroke="#F69F17" stroke-width="0.2"/>
<mask id="mask2_859_1417" style="mask-type:luminance" maskUnits="userSpaceOnUse" x="0" y="1" width="12" height="12">
<path d="M1 2.04199H11.7356V12.367H1V2.04199Z" fill="white" stroke="white" stroke-width="0.2"/>
</mask>
<g mask="url(#mask2_859_1417)">
<path d="M2.49455 2.04639H10.2417C10.6529 2.04639 11.0263 2.21488 11.297 2.48618C11.5677 2.75686 11.7356 3.13157 11.7356 3.54337V10.8543C11.7356 11.2661 11.5677 11.6402 11.297 11.9115C11.0263 12.1828 10.6529 12.3507 10.2417 12.3507H2.49455C2.08335 12.3507 1.70926 12.1828 1.43857 11.9115C1.16789 11.6402 1 11.2661 1 10.8543V3.54337C1 3.13157 1.16789 2.75686 1.43857 2.48618C1.70926 2.21488 2.08335 2.04639 2.49455 2.04639ZM10.2417 2.5464H2.49455C2.22083 2.5464 1.97204 2.65893 1.79199 2.83959C1.61133 3.02025 1.4994 3.26904 1.4994 3.54337V10.8543C1.4994 11.1281 1.61133 11.3769 1.79199 11.5581C1.97204 11.7388 2.22083 11.8507 2.49455 11.8507H10.2417C10.5148 11.8507 10.7636 11.7388 10.9442 11.5581C11.1249 11.3769 11.2368 11.1281 11.2368 10.8543V3.54337C11.2368 3.26904 11.1249 3.02025 10.9442 2.83959C10.7636 2.65893 10.5148 2.5464 10.2417 2.5464Z" fill="#F69F17" stroke="#F69F17" stroke-width="0.2"/>
</g>
<mask id="mask3_859_1417" style="mask-type:luminance" maskUnits="userSpaceOnUse" x="3" y="0" width="7" height="3">
<path d="M3.86426 1H9.00304V2.5566H3.86426V1Z" fill="white" stroke="white" stroke-width="0.2"/>
</mask>
<g mask="url(#mask3_859_1417)">
<path d="M4.1244 1H8.61049C8.74857 1 8.8605 1.11192 8.8605 1.25V2.29686C8.8605 2.43494 8.74857 2.54687 8.61049 2.54687H4.1244C3.98632 2.54687 3.875 2.43494 3.875 2.29686V1.25C3.875 1.11192 3.98632 1 4.1244 1ZM8.36109 1.50062H4.3744V2.04686H8.36109V1.50062Z" fill="#F69F17" stroke="#F69F17" stroke-width="0.2"/>
</g>
<path d="M3.63574 12.9067H9.1766V13.4067H3.63574V12.9067Z" fill="#F69F17" stroke="#F69F17" stroke-width="0.2"/>
<path d="M3.30957 14.187H9.50251V14.687H3.30957V14.187Z" fill="#F69F17" stroke="#F69F17" stroke-width="0.2"/>
<path d="M3.04688 15.4673H9.76537V15.9673H3.04688V15.4673Z" fill="#F69F17" stroke="#F69F17" stroke-width="0.2"/>
</svg>
