<svg width="67" height="11" viewBox="0 0 67 11" fill="none" xmlns="http://www.w3.org/2000/svg">
<path d="M52.9383 8.107V7.419L55.6263 3.563H56.7303V7.315H57.4743V8.107H56.7303V9.323H55.8343V8.107H52.9383ZM55.8743 4.491L53.9863 7.315H55.8743V4.491ZM58.718 9.379C58.5527 9.379 58.414 9.323 58.302 9.211C58.19 9.099 58.134 8.96033 58.134 8.795C58.134 8.62966 58.19 8.491 58.302 8.379C58.414 8.267 58.5527 8.211 58.718 8.211C58.878 8.211 59.014 8.267 59.126 8.379C59.238 8.491 59.294 8.62966 59.294 8.795C59.294 8.96033 59.238 9.099 59.126 9.211C59.014 9.323 58.878 9.379 58.718 9.379ZM60.1437 4.931C60.1757 4.435 60.365 4.04833 60.7117 3.771C61.0637 3.49366 61.5117 3.355 62.0557 3.355C62.429 3.355 62.7517 3.42166 63.0237 3.555C63.2957 3.68833 63.501 3.86966 63.6397 4.099C63.7784 4.32833 63.8477 4.587 63.8477 4.875C63.8477 5.20566 63.7597 5.48833 63.5837 5.723C63.4077 5.95766 63.197 6.115 62.9517 6.195V6.227C63.2664 6.323 63.5117 6.499 63.6877 6.755C63.8637 7.00566 63.9517 7.32833 63.9517 7.723C63.9517 8.03766 63.8797 8.31766 63.7357 8.563C63.5917 8.80833 63.3784 9.003 63.0957 9.147C62.813 9.28566 62.4744 9.355 62.0797 9.355C61.5037 9.355 61.029 9.20833 60.6557 8.915C60.2877 8.61633 60.0904 8.18966 60.0637 7.635H60.9437C60.965 7.91766 61.0744 8.14966 61.2717 8.331C61.469 8.507 61.7357 8.595 62.0717 8.595C62.397 8.595 62.6477 8.507 62.8237 8.331C62.9997 8.14966 63.0877 7.91766 63.0877 7.635C63.0877 7.26166 62.9677 6.99766 62.7277 6.843C62.493 6.683 62.1304 6.603 61.6397 6.603H61.4317V5.851H61.6477C62.0797 5.84566 62.4077 5.77366 62.6317 5.635C62.861 5.49633 62.9757 5.27766 62.9757 4.979C62.9757 4.723 62.893 4.52033 62.7277 4.371C62.5624 4.21633 62.3277 4.139 62.0237 4.139C61.725 4.139 61.493 4.21633 61.3277 4.371C61.1624 4.52033 61.0637 4.707 61.0317 4.931H60.1437Z" fill="#808385"/>
<path d="M17.1584 5.49364L16.2311 6.37302C16.1037 6.49357 16.016 6.73604 16.0408 6.91027L16.1754 7.95078C16.263 8.61663 15.8483 8.90175 15.2548 8.58704L14.2483 8.04968C14.0798 7.96011 13.8032 7.96265 13.638 8.05906L12.7494 8.56923C12.0476 8.97124 11.6329 8.66036 11.8252 7.87519L12.0939 6.77833C12.1432 6.57847 12.0572 6.30361 11.9081 6.16652L11.0775 5.4041C10.4835 4.85814 10.6543 4.36841 11.4606 4.31293L12.4815 4.24487C12.6723 4.2321 12.9047 4.08378 12.9943 3.91524L13.5317 2.90398C13.8488 2.31292 14.3518 2.31936 14.6497 2.92015L15.1141 3.85842C15.1939 4.01641 15.3977 4.17063 15.5715 4.19825L16.8333 4.41345C17.5142 4.53337 17.6605 5.0185 17.1584 5.49364Z" fill="#F69F17"/>
<path d="M7.82634 5.47899L6.89902 6.35837C6.7717 6.47893 6.68392 6.72139 6.70874 6.89562L6.84339 7.93613C6.931 8.60198 6.51627 8.8871 5.92281 8.5724L4.91632 8.03503C4.74777 7.94547 4.47121 7.948 4.30594 8.04442L3.41736 8.55458C2.7156 8.95659 2.30091 8.64571 2.49319 7.86054L2.76188 6.76368C2.81118 6.56382 2.72518 6.28896 2.5761 6.15187L1.74545 5.38945C1.15147 4.84349 1.3223 4.35376 2.12854 4.29828L3.14944 4.23022C3.34027 4.21745 3.57271 4.06913 3.66228 3.90059L4.19968 2.88933C4.51675 2.29827 5.01972 2.30471 5.31765 2.9055L5.78212 3.84377C5.8619 4.00176 6.06568 4.15598 6.23949 4.1836L7.50128 4.3988C8.18214 4.51872 8.32842 5.00385 7.82634 5.47899Z" fill="#F69F17"/>
<path d="M45.1545 5.47899L44.2271 6.35837C44.0998 6.47893 44.012 6.72139 44.0369 6.89562L44.1715 7.93613C44.2591 8.60198 43.8444 8.8871 43.2509 8.5724L42.2444 8.03503C42.0759 7.94547 41.7993 7.948 41.6341 8.04442L40.7455 8.55458C40.0437 8.95659 39.629 8.64571 39.8213 7.86054L40.09 6.76368C40.1393 6.56382 40.0533 6.28896 39.9042 6.15187L39.0736 5.38945C38.4796 4.84349 38.6504 4.35376 39.4567 4.29828L40.4776 4.23022C40.6684 4.21745 40.9008 4.06913 40.9904 3.90059L41.5278 2.88933C41.8449 2.29827 42.3478 2.30471 42.6458 2.9055L43.1102 3.84377C43.19 4.00176 43.3938 4.15598 43.5676 4.1836L44.8294 4.3988C45.5103 4.51872 45.6565 5.00385 45.1545 5.47899Z" fill="#F69F17"/>
<path d="M35.8224 5.47899L34.8951 6.35837C34.7678 6.47893 34.68 6.72139 34.7048 6.89562L34.8395 7.93613C34.9271 8.60198 34.5124 8.8871 33.9189 8.5724L32.9124 8.03503C32.7439 7.94547 32.4673 7.948 32.302 8.04442L31.4134 8.55458C30.7117 8.95659 30.297 8.64571 30.4893 7.86054L30.758 6.76368C30.8073 6.56382 30.7213 6.28896 30.5722 6.15187L29.7415 5.38945C29.1476 4.84349 29.3184 4.35376 30.1246 4.29828L31.1455 4.23022C31.3364 4.21745 31.5688 4.06913 31.6584 3.90059L32.1958 2.88933C32.5128 2.29827 33.0158 2.30471 33.3137 2.9055L33.7782 3.84377C33.858 4.00176 34.0618 4.15598 34.2356 4.1836L35.4974 4.3988C36.1782 4.51872 36.3245 5.00385 35.8224 5.47899Z" fill="#F69F17"/>
<path d="M26.4904 5.47899L25.5631 6.35837C25.4358 6.47893 25.348 6.72139 25.3728 6.89562L25.5075 7.93613C25.5951 8.60198 25.1803 8.8871 24.5869 8.5724L23.5804 8.03503C23.4118 7.94547 23.1353 7.948 22.97 8.04442L22.0814 8.55458C21.3797 8.95659 20.965 8.64571 21.1572 7.86054L21.4259 6.76368C21.4752 6.56382 21.3892 6.28896 21.2402 6.15187L20.4095 5.38945C19.8155 4.84349 19.9864 4.35376 20.7926 4.29828L21.8135 4.23022C22.0043 4.21745 22.2368 4.06913 22.3263 3.90059L22.8637 2.88933C23.1808 2.29827 23.6838 2.30471 23.9817 2.9055L24.4462 3.84377C24.526 4.00176 24.7297 4.15598 24.9036 4.1836L26.1653 4.3988C26.8462 4.51872 26.9925 5.00385 26.4904 5.47899Z" fill="#F69F17"/>
</svg>
