<svg width="8" height="7" viewBox="0 0 8 7" fill="none" xmlns="http://www.w3.org/2000/svg">
<path d="M7.06423 3.0383L6.15381 3.90166C6.0288 4.02003 5.94262 4.25807 5.96699 4.42913L6.09919 5.45069C6.18521 6.10441 5.77803 6.38434 5.19537 6.07536L4.20721 5.54779C4.04174 5.45985 3.77021 5.46235 3.60795 5.557L2.73556 6.05788C2.04658 6.45257 1.63944 6.14735 1.82822 5.37648L2.09202 4.29959C2.14042 4.10337 2.05599 3.83352 1.90962 3.69893L1.09411 2.95039C0.510939 2.41438 0.678656 1.93357 1.47021 1.87909L2.47252 1.81228C2.65987 1.79974 2.88808 1.65412 2.97602 1.48865L3.50363 0.495815C3.81492 -0.0844821 4.30874 -0.0781611 4.60124 0.511684L5.05725 1.43287C5.13558 1.58798 5.33565 1.73939 5.50629 1.76651L6.7451 1.97779C7.41356 2.09552 7.55718 2.57182 7.06423 3.0383Z" fill="#F69F17"/>
</svg>
