<svg width="33" height="32" viewBox="0 0 33 32" fill="none" xmlns="http://www.w3.org/2000/svg">
<mask id="mask0_306_3145" style="mask-type:luminance" maskUnits="userSpaceOnUse" x="4" y="0" width="19" height="4">
<path d="M4.95703 0H22.9774V3.33674H4.95703V0Z" fill="white"/>
</mask>
<g mask="url(#mask0_306_3145)">
<path d="M6.57611 3.00015H21.2455C22.0803 3.00015 22.763 2.32536 22.763 1.50008C22.763 0.674792 22.0803 0 21.2455 0H6.57611C5.74123 0 5.05859 0.674792 5.05859 1.50008C5.05859 2.32536 5.74123 3.00015 6.57611 3.00015ZM6.57611 1.00005H21.2455C21.5238 1.00005 21.7513 1.22498 21.7513 1.50008C21.7513 1.77517 21.5238 2.0001 21.2455 2.0001H6.57611C6.29782 2.0001 6.07027 1.77517 6.07027 1.50008C6.07027 1.22498 6.29782 1.00005 6.57611 1.00005Z" fill="#F69F17"/>
</g>
<path d="M13.1517 5.50005C13.1517 4.94986 12.6966 4.5 12.14 4.5H10.1167C9.56007 4.5 9.10498 4.94986 9.10498 5.50005V7.50015C9.10498 8.05034 9.56007 8.5002 10.1167 8.5002H12.14C12.6966 8.5002 13.1517 8.05034 13.1517 7.50015V5.50005ZM10.1167 7.50015V5.50005H12.14V7.50015H10.1167Z" fill="#F69F17"/>
<path d="M18.7161 5.50005C18.7161 4.94986 18.2611 4.5 17.7045 4.5H15.6811C15.1245 4.5 14.6694 4.94986 14.6694 5.50005V7.50015C14.6694 8.05034 15.1245 8.5002 15.6811 8.5002H17.7045C18.2611 8.5002 18.7161 8.05034 18.7161 7.50015V5.50005ZM15.6811 7.50015V5.50005H17.7045V7.50015H15.6811Z" fill="#F69F17"/>
<path d="M24.7861 18.4992H27.8211C28.3761 18.4992 28.8328 18.0494 28.8328 17.4992V15.4991C28.8328 14.9505 28.3761 14.499 27.8211 14.499H24.7861C24.2295 14.499 23.7744 14.9505 23.7744 15.4991V17.4992C23.7744 18.0494 24.2295 18.4992 24.7861 18.4992ZM24.7861 15.4991H27.8211V17.4992H24.7861V15.4991Z" fill="#F69F17"/>
<path d="M24.7861 23.9997H27.8211C28.3761 23.9997 28.8328 23.5499 28.8328 22.9997V20.9996C28.8328 20.4494 28.3761 19.9995 27.8211 19.9995H24.7861C24.2295 19.9995 23.7744 20.4494 23.7744 20.9996V22.9997C23.7744 23.5499 24.2295 23.9997 24.7861 23.9997ZM24.7861 20.9996H27.8211V22.9997H24.7861V20.9996Z" fill="#F69F17"/>
<path d="M24.7861 29.4997H27.8211C28.3761 29.4997 28.8328 29.0499 28.8328 28.4997V26.4996C28.8328 25.9494 28.3761 25.4995 27.8211 25.4995H24.7861C24.2295 25.4995 23.7744 25.9494 23.7744 26.4996V28.4997C23.7744 29.0499 24.2295 29.4997 24.7861 29.4997ZM24.7861 26.4996H27.8211V28.4997H24.7861V26.4996Z" fill="#F69F17"/>
<path d="M13.1517 11.0005C13.1517 10.4503 12.6966 10.0005 12.14 10.0005H10.1167C9.56007 10.0005 9.10498 10.4503 9.10498 11.0005V13.0006C9.10498 13.5492 9.56007 14.0007 10.1167 14.0007H12.14C12.6966 14.0007 13.1517 13.5492 13.1517 13.0006V11.0005ZM10.1167 13.0006V11.0005H12.14V13.0006H10.1167Z" fill="#F69F17"/>
<path d="M18.7161 11.0005C18.7161 10.4503 18.2611 10.0005 17.7045 10.0005H15.6811C15.1245 10.0005 14.6694 10.4503 14.6694 11.0005V13.0006C14.6694 13.5492 15.1245 14.0007 15.6811 14.0007H17.7045C18.2611 14.0007 18.7161 13.5492 18.7161 13.0006V11.0005ZM15.6811 13.0006V11.0005H17.7045V13.0006H15.6811Z" fill="#F69F17"/>
<path d="M12.14 15.499H10.1167C9.56007 15.499 9.10498 15.9505 9.10498 16.4991V18.4992C9.10498 19.0494 9.56007 19.4992 10.1167 19.4992H12.14C12.6966 19.4992 13.1517 19.0494 13.1517 18.4992V16.4991C13.1517 15.9505 12.6966 15.499 12.14 15.499ZM10.1167 18.4992V16.4991H12.14V18.4992H10.1167Z" fill="#F69F17"/>
<path d="M17.7045 15.499H15.6811C15.1245 15.499 14.6694 15.9505 14.6694 16.4991V18.4992C14.6694 19.0494 15.1245 19.4992 15.6811 19.4992H17.7045C18.2611 19.4992 18.7161 19.0494 18.7161 18.4992V16.4991C18.7161 15.9505 18.2611 15.499 17.7045 15.499ZM15.6811 18.4992V16.4991H17.7045V18.4992H15.6811Z" fill="#F69F17"/>
<mask id="mask1_306_3145" style="mask-type:luminance" maskUnits="userSpaceOnUse" x="0" y="3" width="33" height="29">
<path d="M0 3.75098H32.3721V32H0V3.75098Z" fill="white"/>
</mask>
<g mask="url(#mask1_306_3145)">
<path d="M31.8663 12.0004H21.2453V4H20.2336V30.9997H17.9565V22.4993C17.9565 21.9491 17.5014 21.4993 16.9448 21.4993H10.8764C10.3198 21.4993 9.86469 21.9491 9.86469 22.4993V30.9997H7.58759V24.3247C7.4861 24.4751 7.36005 24.5997 7.2078 24.7001L6.57591 25.1499V30.9997H4.04672V25.7503L6.62666 23.8991C6.85421 23.7502 6.90496 23.4249 6.72816 23.2C6.57591 22.9751 6.24687 22.9249 6.01933 23.0997L4.04672 24.5253V21.7242C4.72935 21.0996 7.08175 18.8244 7.08175 15.999C7.08175 12.7739 3.99597 10.2252 3.86992 10.1249C3.69312 9.97441 3.41483 9.97441 3.23803 10.1249C3.08578 10.2252 0 12.7739 0 15.999C0 18.8244 2.3524 21.1255 3.03504 21.7242V24.5253L1.06243 23.0997C0.834881 22.9492 0.532032 22.9751 0.355234 23.2C0.202991 23.4249 0.227546 23.7243 0.456729 23.8991L3.03504 25.7503V30.9997H0.50584C0.227546 30.9997 0 31.2247 0 31.4998C0 31.7749 0.227546 31.9998 0.50584 31.9998H31.8663C32.1445 31.9998 32.3721 31.7749 32.3721 31.4998V12.5004C32.3721 12.2253 32.1445 12.0004 31.8663 12.0004ZM4.90779 15.9003C4.7048 15.6996 4.40195 15.6996 4.19896 15.9003L3.54088 16.5492L2.88443 15.9003C2.68144 15.6996 2.37859 15.6996 2.1756 15.9003C1.97261 16.0993 1.97261 16.4003 2.1756 16.5993L3.03504 17.4489C3.03504 17.4748 3.03504 17.4748 3.03504 17.4991V20.3002C2.20179 19.4005 1.01168 17.7742 1.01168 15.999C1.01168 13.7998 2.80749 11.8742 3.54088 11.1751C4.27426 11.8742 6.07007 13.7998 6.07007 15.999C6.07007 17.7742 4.8816 19.4005 4.04672 20.3002V17.4991C4.04672 17.4748 4.04672 17.4748 4.04672 17.4489L4.90779 16.5993C5.10914 16.4003 5.10914 16.0993 4.90779 15.9003ZM13.4056 30.9997H10.8764V22.4993H13.4056V30.9997ZM16.9448 30.9997H14.4156V22.4993H16.9448V30.9997ZM31.3604 30.9997H21.2453V13.0005H31.3604V30.9997Z" fill="#F69F17"/>
</g>
<path d="M6.57568 11.6497C6.95547 12.1999 7.30907 12.8246 7.58736 13.5252V4.00049H6.57568V11.6497Z" fill="#F69F17"/>
<path d="M6.57568 22.0251C6.95547 22.0995 7.30907 22.3002 7.56281 22.6238C7.58736 22.6497 7.58736 22.674 7.58736 22.674V18.499C7.30907 19.1997 6.95547 19.8243 6.57568 20.3745V22.0251Z" fill="#F69F17"/>
</svg>
