<svg width="22" height="15" viewBox="0 0 22 15" fill="none" xmlns="http://www.w3.org/2000/svg">
<mask id="mask0_859_1263" style="mask-type:luminance" maskUnits="userSpaceOnUse" x="0" y="0" width="22" height="15">
<path d="M1 1H21V14.6848H1V1Z" fill="white" stroke="white" stroke-width="0.1"/>
</mask>
<g mask="url(#mask0_859_1263)">
<path d="M18.3802 9.5073C17.7058 9.5073 17.0826 9.7659 16.5901 10.2301L16.3826 10.1268C16.8496 9.79149 17.2909 9.43054 17.757 9.09427L17.9132 8.99101C19.8843 7.49423 19.2876 6.22864 19.0546 5.73794C18.7174 5.01513 17.8612 4.6021 16.7719 4.6021H14.333C13.1396 4.6021 12.5173 5.09281 12.2322 5.50584C11.7909 6.0998 11.6876 6.95144 11.9727 7.85518C11.9983 7.98402 12.0248 8.01052 12.0248 8.03611C12.0504 8.08728 12.0504 8.08728 12.1546 8.44914C12.2578 8.73332 12.2322 9.0431 12.1281 9.24961C12.0248 9.45613 11.7909 9.58497 11.5058 9.66264H11.4537C10.6761 9.84357 9.0678 10.2301 8.41902 9.48171C7.66697 8.60357 7.20003 7.98402 7.45954 6.48724C7.51071 6.12538 7.5628 5.89328 7.69256 5.42816L7.71814 5.32491C7.95207 4.3435 7.69256 3.77604 7.35537 3.46627C7.38096 3.46627 7.38096 3.44068 7.40746 3.44068C7.5893 3.31093 7.71814 3.1565 7.82231 2.94998L9.19756 3.02765C9.19756 3.02765 9.19756 3.02765 9.22315 3.02765C9.43058 3.02765 9.61242 2.87231 9.61242 2.66579C9.61242 2.45928 9.45616 2.27835 9.24873 2.25276L7.92649 2.20068C7.89999 2.12392 7.8744 2.04625 7.8479 1.94299C7.45954 1.14252 6.3959 1.03926 5.64294 1.01367C5.5141 1.01367 5.38434 1.06484 5.28017 1.1681C5.17599 1.27136 5.12482 1.4002 5.12482 1.52996V3.1565C5.12482 3.3886 5.25458 3.59511 5.46201 3.67278C5.46201 3.69837 5.43551 3.69837 5.40992 3.72396C5.09832 4.29233 4.03468 6.25423 4.03468 7.62308C4.03468 8.01052 4.16444 8.37146 4.42395 8.68124L4.89089 9.22403L4.47604 9.66264C4.19094 9.55938 3.90492 9.5073 3.59423 9.5073C2.1669 9.5073 1 10.6696 1 12.0897C1 13.5097 2.1669 14.6711 3.59423 14.6711C5.02065 14.6711 6.18847 13.5097 6.18847 12.0897C6.18847 11.7534 6.13638 11.4436 6.00662 11.1338L6.29173 10.8241L6.65541 11.2371C7.17353 11.8311 7.92649 12.1673 8.70412 12.1673H11.0388C11.1165 12.1673 11.1942 12.1673 11.2728 12.1673C12.1546 12.1673 13.2182 12.1152 14.333 11.5734L15.8115 12.1929C15.8636 13.5608 17.0049 14.6711 18.4058 14.6711C19.8322 14.6711 21 13.5097 21 12.0897C21 10.6696 19.8066 9.5073 18.3802 9.5073ZM3.80166 12.2706C3.64632 12.425 3.43798 12.4506 3.33472 12.3473C3.28263 12.2962 3.25705 12.2185 3.25705 12.1673C3.25705 12.0641 3.30913 11.9608 3.3868 11.8566L5.35784 9.79149L5.72152 10.2301L3.80166 12.2706ZM5.35784 12.0897C5.35784 13.0966 4.55371 13.8971 3.54215 13.8971C2.53059 13.8971 1.72646 13.0966 1.72646 12.0897C1.72646 11.0827 2.53059 10.2822 3.54215 10.2822C3.64632 10.2822 3.72399 10.2822 3.80166 10.3078L2.81569 11.3404C2.58267 11.5734 2.45292 11.8831 2.45292 12.1929C2.45292 12.4771 2.55617 12.7348 2.7636 12.9157C2.94545 13.0966 3.20496 13.1999 3.46448 13.1999C3.77608 13.1999 4.08676 13.0701 4.32069 12.8125L5.30575 11.7799C5.35784 11.8831 5.35784 11.9864 5.35784 12.0897ZM12.8545 5.94445C13.1396 5.55701 13.6587 5.35049 14.333 5.35049H16.7719C17.4984 5.35049 17.9388 5.58351 18.1983 5.8412L12.7769 7.804C12.7769 7.804 12.7769 7.804 12.7769 7.7775C12.7769 7.75192 12.7513 7.70075 12.7248 7.57099C12.4918 6.95144 12.5438 6.3319 12.8545 5.94445ZM5.85128 1.78765C6.55124 1.83973 6.9661 1.99416 7.09586 2.25276C7.22561 2.51045 7.04377 2.69138 6.91401 2.76905C6.681 2.9244 6.16197 2.97557 5.82478 2.9244V1.78765H5.85128ZM5.4876 5.73794C5.56527 5.89328 5.56527 6.04771 5.5141 6.20305C5.43551 6.46074 5.20249 6.61608 4.94298 6.61608C5.04715 6.28073 5.17599 5.91887 5.33225 5.53142C5.40992 5.58351 5.46201 5.66027 5.4876 5.73794ZM11.0132 11.3924H8.67853C8.10742 11.3924 7.5893 11.1603 7.20003 10.7208L5.66944 8.96542L5.38434 8.65565L4.96857 8.16495C4.83881 8.01052 4.76114 7.82959 4.76114 7.62308C4.76114 7.5454 4.76114 7.46773 4.78764 7.36447C4.83881 7.36447 4.89089 7.36447 4.94298 7.36447C5.51409 7.36447 6.05871 7.00353 6.26614 6.40957C6.3959 6.04771 6.34381 5.68677 6.18847 5.35049C6.05871 5.11839 5.87687 4.93746 5.66944 4.78303C5.7992 4.52443 5.92895 4.29233 6.05871 4.06023C6.13638 3.93047 6.29173 3.82721 6.44707 3.82721C6.52565 3.82721 6.57683 3.85371 6.65541 3.8793C6.78426 3.93047 7.17353 4.13699 6.94051 5.11839L6.91401 5.24724C6.81076 5.71235 6.75867 5.97095 6.681 6.35748C6.3694 8.16495 6.9926 9.0431 7.82231 9.97241C8.78179 11.0827 10.7272 10.6175 11.6355 10.3854H11.6876C12.3355 10.2301 12.6727 9.86916 12.8289 9.58497C12.9843 9.2752 13.062 8.91425 13.0108 8.52681L18.5099 6.53841C18.5876 6.97703 18.4579 7.59749 17.4198 8.34588L17.2644 8.44914C16.4082 9.09427 15.6041 9.71381 14.7488 10.3854C13.4256 11.418 12.1025 11.418 11.0132 11.3924ZM15.7083 10.6696L18.5099 11.8566C18.6653 11.9087 18.7174 12.0897 18.6653 12.2185C18.6397 12.2962 18.5876 12.3473 18.5099 12.3738C18.4323 12.3994 18.3537 12.3994 18.3025 12.3738L15.1637 11.0827L15.7083 10.6696ZM18.3802 13.8706C17.5495 13.8706 16.824 13.3032 16.6157 12.5283L17.9909 13.0966C18.1207 13.1478 18.2504 13.1734 18.3802 13.1734C18.5099 13.1734 18.6653 13.1478 18.795 13.0966C19.0546 12.9934 19.262 12.7869 19.3662 12.5027C19.5736 11.9608 19.3141 11.3404 18.7695 11.1338L17.3686 10.5408C17.6537 10.3599 17.9909 10.2566 18.3281 10.2566C19.3397 10.2566 20.1438 11.0571 20.1438 12.0641C20.1438 13.0701 19.3662 13.8706 18.3802 13.8706Z" fill="#F69F17" stroke="#F69F17" stroke-width="0.1"/>
</g>
</svg>
