<svg width="13" height="14" viewBox="0 0 13 14" fill="none" xmlns="http://www.w3.org/2000/svg">
<path d="M12 13L10.9 11.8M6.225 12.4C6.91116 12.4 7.59059 12.2526 8.22452 11.9661C8.85845 11.6797 9.43445 11.2598 9.91963 10.7305C10.4048 10.2012 10.7897 9.57285 11.0523 8.8813C11.3149 8.18974 11.45 7.44853 11.45 6.7C11.45 5.95147 11.3149 5.21026 11.0523 4.5187C10.7897 3.82715 10.4048 3.19879 9.91963 2.66949C9.43445 2.1402 8.85845 1.72034 8.22452 1.43389C7.59059 1.14743 6.91116 1 6.225 1C4.83924 1 3.51024 1.60053 2.53037 2.66949C1.55049 3.73845 1 5.18827 1 6.7C1 8.21173 1.55049 9.66155 2.53037 10.7305C3.51024 11.7995 4.83924 12.4 6.225 12.4Z" stroke="#EB9309" stroke-width="1.5" stroke-linecap="round" stroke-linejoin="round"/>
</svg>
