<svg width="15" height="15" viewBox="0 0 15 15" fill="none" xmlns="http://www.w3.org/2000/svg">
<path d="M14.0003 3.29408C14.0003 4.56107 13.0303 5.58817 11.8337 5.58817C10.637 5.58817 9.66699 4.56107 9.66699 3.29408C9.66699 2.0271 10.637 1 11.8337 1C13.0303 1 14.0003 2.0271 14.0003 3.29408Z" stroke="white" stroke-width="1.3"/>
<path d="M5.33333 7.50014C5.33333 8.76716 4.36328 9.79422 3.16667 9.79422C1.97005 9.79422 1 8.76716 1 7.50014C1 6.23312 1.97005 5.20605 3.16667 5.20605C4.36328 5.20605 5.33333 6.23312 5.33333 7.50014Z" stroke="white" stroke-width="1.3"/>
<path d="M13.9993 11.7062C13.9993 12.9732 13.0293 14.0003 11.8327 14.0003C10.636 14.0003 9.66602 12.9732 9.66602 11.7062C9.66602 10.4392 10.636 9.41211 11.8327 9.41211C13.0293 9.41211 13.9993 10.4392 13.9993 11.7062Z" stroke="white" stroke-width="1.3"/>
<path d="M5.13672 6.5437L9.83115 4.25M5.13672 8.45582L9.83115 10.7495" stroke="white" stroke-width="1.3"/>
</svg>
