<svg width="268" height="248" viewBox="0 0 268 248" fill="none" xmlns="http://www.w3.org/2000/svg">
<path d="M197.787 217.829C197.787 217.829 230.686 215.773 253.303 175.335C275.921 134.897 271.809 73.212 243.708 38.9425C215.607 4.6731 171.742 -6.9785 129.933 3.98772C109.564 9.3269 95.9793 23.1786 84.2386 39.8884C74.0126 54.446 62.5117 68.4691 47.0357 77.6807C31.7104 86.7964 15.9533 94.0752 8.21524 111.402C-10.6192 153.594 3.1365 202.668 47.6868 219.2C95.664 237.02 175.854 227.424 197.787 217.829Z" fill="#72CBD0"/>
<path opacity="0.7" d="M197.787 217.829C197.787 217.829 230.686 215.773 253.303 175.335C275.921 134.897 271.809 73.212 243.708 38.9425C215.607 4.6731 171.742 -6.9785 129.933 3.98772C109.564 9.3269 95.9793 23.1786 84.2386 39.8884C74.0126 54.446 62.5117 68.4691 47.0357 77.6807C31.7104 86.7964 15.9533 94.0752 8.21524 111.402C-10.6192 153.594 3.1365 202.668 47.6868 219.2C95.664 237.02 175.854 227.424 197.787 217.829Z" fill="white"/>
<path d="M138.274 248C202.939 248 255.359 243.397 255.359 237.719C255.359 232.041 202.939 227.438 138.274 227.438C73.6102 227.438 21.1895 232.041 21.1895 237.719C21.1895 243.397 73.6102 248 138.274 248Z" fill="#72CBD0"/>
<path opacity="0.5" d="M138.274 248C202.939 248 255.359 243.397 255.359 237.719C255.359 232.041 202.939 227.438 138.274 227.438C73.6102 227.438 21.1895 232.041 21.1895 237.719C21.1895 243.397 73.6102 248 138.274 248Z" fill="white"/>
<path d="M18.8799 107.687V113.766" stroke="#263238" stroke-linecap="round" stroke-linejoin="round"/>
<path d="M21.923 110.73H15.8436" stroke="#263238" stroke-linecap="round" stroke-linejoin="round"/>
<path d="M226.327 55.5972V61.6766" stroke="#263238" stroke-linecap="round" stroke-linejoin="round"/>
<path d="M229.363 58.6406H223.283" stroke="#263238" stroke-linecap="round" stroke-linejoin="round"/>
<path d="M139.968 8.53906V14.6185" stroke="#263238" stroke-linecap="round" stroke-linejoin="round"/>
<path d="M143.004 11.5752H136.924" stroke="#263238" stroke-linecap="round" stroke-linejoin="round"/>
<path d="M39.9008 175.773V181.853" stroke="#263238" stroke-linecap="round" stroke-linejoin="round"/>
<path d="M42.937 178.81H36.8576" stroke="#263238" stroke-linecap="round" stroke-linejoin="round"/>
<path d="M223.606 33.6855C223.607 34.6808 223.313 35.6541 222.761 36.4823C222.209 37.3105 221.424 37.9564 220.505 38.3382C219.586 38.72 218.574 38.8206 217.598 38.6273C216.621 38.434 215.724 37.9554 215.02 37.2521C214.316 36.5488 213.836 35.6524 213.641 34.6763C213.447 33.7003 213.546 32.6884 213.926 31.7688C214.307 30.8491 214.952 30.063 215.779 29.5099C216.607 28.9568 217.579 28.6616 218.575 28.6616C219.908 28.6616 221.186 29.1907 222.13 30.1327C223.073 31.0746 223.604 32.3525 223.606 33.6855Z" stroke="#263238" stroke-linecap="round" stroke-linejoin="round"/>
<path d="M8.48659 154.393C11.05 153.331 12.2673 150.392 11.2055 147.829C10.1437 145.266 7.20488 144.048 4.64146 145.11C2.07805 146.172 0.86075 149.111 1.92255 151.674C2.98435 154.238 5.92317 155.455 8.48659 154.393Z" stroke="#263238" stroke-linecap="round" stroke-linejoin="round"/>
<path d="M246.449 85.0898C246.462 85.2471 246.441 85.4052 246.389 85.5542C246.338 85.7032 246.256 85.8399 246.148 85.9557C246.041 86.0715 245.911 86.1639 245.767 86.2271C245.622 86.2903 245.466 86.3229 245.308 86.3229C245.151 86.3229 244.994 86.2903 244.85 86.2271C244.705 86.1639 244.575 86.0715 244.468 85.9557C244.361 85.8399 244.279 85.7032 244.227 85.5542C244.175 85.4052 244.155 85.2471 244.167 85.0898C244.189 84.8024 244.319 84.534 244.531 84.3382C244.742 84.1424 245.02 84.0337 245.308 84.0337C245.597 84.0337 245.874 84.1424 246.086 84.3382C246.297 84.534 246.427 84.8024 246.449 85.0898Z" stroke="#263238" stroke-linecap="round" stroke-linejoin="round"/>
<path d="M72.1346 68.6397C72.136 68.8664 72.07 69.0883 71.9451 69.2775C71.8201 69.4666 71.6419 69.6144 71.4328 69.702C71.2238 69.7897 70.9935 69.8134 70.771 69.77C70.5485 69.7266 70.3439 69.6181 70.1831 69.4583C70.0224 69.2985 69.9127 69.0946 69.868 68.8724C69.8232 68.6502 69.8455 68.4197 69.9319 68.2101C70.0184 68.0006 70.1651 67.8214 70.3534 67.6953C70.5418 67.5693 70.7634 67.502 70.99 67.502C71.2924 67.5019 71.5825 67.6216 71.797 67.8348C72.0114 68.0479 72.1328 68.3373 72.1346 68.6397Z" stroke="#263238" stroke-linecap="round" stroke-linejoin="round"/>
<path d="M264.215 136.042V136.007H264.174V135.973C263.221 135.877 253.358 135.034 244.359 139.709C248.334 134.715 250.168 128.348 249.458 122.005C247.286 100.278 226.786 87.8452 225.202 86.9131V86.9199H225.154H225.106C223.523 87.8521 203.023 100.285 200.85 122.012C200.386 126.218 201.034 130.472 202.728 134.349C191.187 127.447 177.725 128.612 176.485 128.736V128.694V128.742H176.437V128.777C175.827 130.182 168.123 148.708 177.376 164.451C185.655 178.529 203.016 174.807 207.732 173.485C211.693 177.645 218.917 187.117 222.125 203.278H217.629L219.719 233.929H229.836L232.056 203.32H226.758C229.186 192.365 233.564 181.936 239.685 172.532C244.407 173.711 257.183 175.698 263.481 164.993C270.966 152.21 264.715 137.186 264.215 136.042ZM224.832 135.925L214.14 121.073C214.117 121.042 214.101 121.008 214.092 120.971C214.083 120.934 214.081 120.895 214.087 120.858C214.092 120.82 214.106 120.784 214.125 120.752C214.145 120.719 214.171 120.691 214.202 120.668C214.265 120.622 214.343 120.603 214.42 120.614C214.497 120.626 214.567 120.668 214.613 120.73L224.853 134.952V119.908L214.161 105.062C214.115 104.999 214.095 104.921 214.107 104.844C214.118 104.767 214.16 104.697 214.222 104.651C214.287 104.607 214.365 104.59 214.442 104.603C214.518 104.615 214.587 104.657 214.634 104.719L224.873 118.941V97.0089C224.873 96.9711 224.881 96.9336 224.895 96.8987C224.91 96.8638 224.931 96.832 224.958 96.8053C224.984 96.7786 225.016 96.7574 225.051 96.7429C225.086 96.7284 225.123 96.721 225.161 96.721C225.238 96.721 225.311 96.7513 225.365 96.8053C225.419 96.8593 225.449 96.9325 225.449 97.0089V118.181L236.552 104.103C236.6 104.042 236.669 104.002 236.746 103.992C236.822 103.983 236.899 104.004 236.96 104.051C237.021 104.098 237.061 104.168 237.07 104.244C237.08 104.321 237.059 104.398 237.012 104.459L225.449 119.119V134.198L236.552 120.113C236.601 120.053 236.671 120.014 236.748 120.005C236.825 119.996 236.903 120.018 236.964 120.065C236.993 120.089 237.018 120.118 237.037 120.151C237.055 120.184 237.067 120.22 237.071 120.258C237.076 120.295 237.073 120.333 237.063 120.37C237.052 120.406 237.035 120.44 237.012 120.47L225.449 135.137V147.92L236.552 133.842C236.6 133.781 236.669 133.741 236.746 133.732C236.822 133.722 236.899 133.743 236.96 133.79C237.021 133.838 237.061 133.907 237.07 133.984C237.08 134.06 237.059 134.137 237.012 134.198L225.449 148.859V149.14H224.517L214.174 134.746C214.128 134.684 214.109 134.605 214.12 134.528C214.132 134.451 214.174 134.382 214.236 134.335C214.3 134.291 214.379 134.274 214.456 134.287C214.532 134.3 214.601 134.341 214.647 134.404L224.853 148.605V135.898L224.832 135.925ZM207.841 172.175L206.793 170.736L191.714 166.542C191.654 166.521 191.604 166.479 191.573 166.423C191.543 166.367 191.534 166.302 191.55 166.24C191.567 166.177 191.609 166.124 191.665 166.092C191.722 166.06 191.789 166.052 191.851 166.069L206.299 170.099L200.014 161.504L184.936 157.309C184.873 157.292 184.82 157.25 184.788 157.194C184.756 157.137 184.748 157.071 184.764 157.008C184.785 156.948 184.827 156.897 184.883 156.867C184.939 156.836 185.004 156.828 185.066 156.843L199.521 160.873L192.091 150.702L177.013 146.508C176.982 146.5 176.953 146.486 176.928 146.467C176.903 146.447 176.883 146.423 176.867 146.396C176.852 146.368 176.842 146.338 176.839 146.306C176.836 146.275 176.839 146.243 176.848 146.213C176.856 146.182 176.87 146.153 176.889 146.128C176.908 146.103 176.932 146.082 176.96 146.066C176.987 146.05 177.017 146.04 177.049 146.035C177.08 146.031 177.112 146.033 177.143 146.042L191.598 150.072L181.146 135.774C181.108 135.722 181.092 135.656 181.103 135.592C181.113 135.528 181.148 135.47 181.2 135.432C181.226 135.412 181.255 135.398 181.286 135.39C181.317 135.383 181.349 135.381 181.38 135.386C181.412 135.391 181.442 135.403 181.469 135.42C181.495 135.438 181.518 135.46 181.536 135.487L192.352 150.277L192.304 135.617C192.305 135.552 192.332 135.49 192.378 135.444C192.424 135.398 192.486 135.372 192.55 135.37C192.615 135.372 192.676 135.399 192.72 135.445C192.765 135.491 192.79 135.553 192.79 135.617L192.9 150.922L200.33 161.086L200.22 146.425C200.214 146.39 200.216 146.354 200.225 146.319C200.235 146.285 200.252 146.252 200.275 146.225C200.298 146.198 200.327 146.176 200.359 146.161C200.392 146.145 200.427 146.138 200.463 146.138C200.499 146.138 200.535 146.145 200.567 146.161C200.6 146.176 200.628 146.198 200.652 146.225C200.675 146.252 200.692 146.285 200.701 146.319C200.711 146.354 200.713 146.39 200.707 146.425L200.816 161.737L207.094 170.325L206.985 155.664C206.987 155.6 207.013 155.539 207.059 155.494C207.105 155.45 207.167 155.425 207.231 155.425C207.295 155.425 207.356 155.45 207.401 155.495C207.446 155.54 207.471 155.601 207.471 155.664L207.581 170.976L208.479 172.203L207.841 172.175ZM209.555 172.175C211.748 168.838 218.081 157.878 214.298 147.33C217.239 149.27 220.386 150.879 223.681 152.128V199.721C220.206 185.136 213.667 176.418 209.678 172.175H209.555ZM226.004 196.788V152.347C229.14 151.208 232.147 149.743 234.976 147.974C228.938 157.652 235.703 168.831 237.485 171.469C232.412 179.286 228.542 187.821 226.004 196.788ZM263.646 150.394L251.439 153.821L245.408 162.045L257.135 158.776C257.16 158.768 257.186 158.765 257.213 158.767C257.239 158.77 257.265 158.778 257.288 158.791C257.311 158.803 257.331 158.821 257.348 158.842C257.364 158.863 257.375 158.887 257.381 158.913C257.394 158.963 257.387 159.016 257.361 159.061C257.336 159.106 257.294 159.139 257.244 159.153L245.038 162.58L239.938 169.55L251.665 166.281C251.715 166.268 251.768 166.276 251.813 166.301C251.858 166.327 251.891 166.369 251.905 166.418C251.918 166.469 251.911 166.523 251.886 166.569C251.86 166.615 251.818 166.649 251.768 166.665L239.561 170.092L238.917 170.969C238.8 170.901 238.691 170.839 238.581 170.764L238.944 170.263L239.04 157.844C239.035 157.815 239.036 157.786 239.043 157.757C239.051 157.729 239.064 157.703 239.083 157.68C239.101 157.658 239.125 157.64 239.151 157.627C239.178 157.615 239.206 157.608 239.236 157.608C239.265 157.608 239.294 157.615 239.32 157.627C239.347 157.64 239.37 157.658 239.389 157.68C239.407 157.703 239.421 157.729 239.428 157.757C239.435 157.786 239.436 157.815 239.431 157.844L239.349 169.742L244.393 162.738L244.482 150.318C244.482 150.293 244.488 150.267 244.498 150.243C244.508 150.22 244.522 150.198 244.541 150.18C244.56 150.162 244.581 150.148 244.606 150.139C244.63 150.13 244.655 150.126 244.681 150.126C244.707 150.126 244.733 150.132 244.757 150.142C244.781 150.152 244.803 150.166 244.822 150.185C244.84 150.203 244.855 150.225 244.865 150.249C244.875 150.273 244.88 150.299 244.88 150.325L244.791 162.217L250.822 153.992L250.911 141.573C250.911 141.547 250.916 141.521 250.926 141.497C250.936 141.473 250.951 141.451 250.97 141.432C250.988 141.414 251.01 141.399 251.034 141.389C251.058 141.379 251.084 141.374 251.11 141.374C251.136 141.374 251.161 141.379 251.185 141.389C251.209 141.399 251.23 141.414 251.248 141.433C251.266 141.451 251.28 141.473 251.289 141.497C251.299 141.521 251.303 141.547 251.302 141.573L251.22 153.464L259.993 141.463C260.024 141.422 260.07 141.395 260.121 141.387C260.173 141.379 260.225 141.392 260.267 141.422C260.288 141.437 260.306 141.456 260.32 141.478C260.333 141.5 260.342 141.525 260.346 141.55C260.35 141.576 260.348 141.602 260.342 141.627C260.335 141.652 260.324 141.676 260.308 141.696L251.83 153.3L263.557 150.031C263.607 150.018 263.66 150.025 263.704 150.051C263.749 150.076 263.782 150.118 263.797 150.168C263.803 150.192 263.803 150.218 263.799 150.243C263.794 150.269 263.785 150.292 263.771 150.314C263.757 150.335 263.738 150.353 263.717 150.367C263.695 150.381 263.671 150.39 263.646 150.394Z" fill="#263238"/>
<path d="M197.026 29.4019H91.2022C88.6472 29.4019 86.5759 31.4732 86.5759 34.0282V232.167C86.5759 234.722 88.6472 236.794 91.2022 236.794H197.026C199.581 236.794 201.653 234.722 201.653 232.167V34.0282C201.653 31.4732 199.581 29.4019 197.026 29.4019Z" fill="#263238" stroke="#263238" stroke-linecap="round" stroke-linejoin="round"/>
<path d="M193.373 29.4019H87.549C84.994 29.4019 82.9227 31.4732 82.9227 34.0282V232.167C82.9227 234.722 84.994 236.794 87.549 236.794H193.373C195.928 236.794 197.999 234.722 197.999 232.167V34.0282C197.999 31.4732 195.928 29.4019 193.373 29.4019Z" fill="white"/>
<mask id="mask0_183_164" style="mask-type:luminance" maskUnits="userSpaceOnUse" x="82" y="29" width="116" height="208">
<path d="M193.373 29.4019H87.549C84.994 29.4019 82.9227 31.4732 82.9227 34.0282V232.167C82.9227 234.722 84.994 236.794 87.549 236.794H193.373C195.928 236.794 197.999 234.722 197.999 232.167V34.0282C197.999 31.4732 195.928 29.4019 193.373 29.4019Z" fill="white"/>
</mask>
<g mask="url(#mask0_183_164)">
<path d="M197.999 107.659L96.8087 236.8H193.38C194.606 236.798 195.781 236.31 196.647 235.443C197.513 234.575 197.999 233.4 197.999 232.174V107.659Z" fill="#72CBD0"/>
<path opacity="0.5" d="M197.999 107.659L96.8087 236.8H193.38C194.606 236.798 195.781 236.31 196.647 235.443C197.513 234.575 197.999 233.4 197.999 232.174V107.659Z" fill="white"/>
</g>
<path d="M193.373 29.4019H87.549C84.994 29.4019 82.9227 31.4732 82.9227 34.0282V232.167C82.9227 234.722 84.994 236.794 87.549 236.794H193.373C195.928 236.794 197.999 234.722 197.999 232.167V34.0282C197.999 31.4732 195.928 29.4019 193.373 29.4019Z" stroke="#263238" stroke-linecap="round" stroke-linejoin="round"/>
<path d="M148.439 41.7939H134.114C133.724 41.7939 133.349 41.6386 133.072 41.3622C132.796 41.0859 132.641 40.7111 132.641 40.3203C132.641 40.1271 132.679 39.9358 132.753 39.7574C132.827 39.579 132.936 39.417 133.073 39.2807C133.21 39.1444 133.372 39.0365 133.551 38.9632C133.73 38.8899 133.921 38.8526 134.114 38.8535H148.439C148.828 38.8535 149.201 39.0081 149.476 39.2831C149.751 39.5582 149.906 39.9313 149.906 40.3203C149.907 40.5134 149.869 40.7049 149.796 40.8837C149.723 41.0624 149.615 41.2249 149.479 41.3618C149.342 41.4988 149.18 41.6074 149.002 41.6816C148.824 41.7557 148.632 41.7939 148.439 41.7939Z" fill="#263238" stroke="#263238" stroke-linecap="round" stroke-linejoin="round"/>
<path d="M190.728 218.261H90.181V41.9648H114.012L116.692 44.1855C117.627 44.9644 118.806 45.3912 120.023 45.3918H162.071C163.334 45.3867 164.551 44.924 165.498 44.0895L167.925 41.9648H190.728V218.261Z" fill="#263238" stroke="#263238" stroke-linecap="round" stroke-linejoin="round"/>
<path d="M109.056 180.249H171.866" stroke="white" stroke-linecap="round" stroke-linejoin="round"/>
<path d="M109.056 188.515H171.866" stroke="white" stroke-linecap="round" stroke-linejoin="round"/>
<path d="M109.056 196.781H171.866" stroke="white" stroke-linecap="round" stroke-linejoin="round"/>
<path d="M114.855 103.506C110.908 109.225 108.991 116.102 109.41 123.039C109.83 129.975 112.562 136.571 117.171 141.773C121.779 146.975 127.997 150.482 134.833 151.735C141.668 152.987 148.726 151.913 154.879 148.684C161.033 145.455 165.927 140.257 168.779 133.92C171.632 127.583 172.278 120.473 170.616 113.726C168.954 106.978 165.078 100.983 159.608 96.6962C154.138 92.4098 147.39 90.0801 140.44 90.0791C138.535 90.0792 136.633 90.2513 134.759 90.5931" stroke="white" stroke-linecap="round" stroke-linejoin="round"/>
<path d="M120.153 97.6323C119.109 98.5361 118.124 99.5068 117.206 100.538" stroke="white" stroke-linecap="round" stroke-linejoin="round"/>
<path d="M164.726 131.503C170.433 118.102 164.197 102.611 150.796 96.9032C137.395 91.1955 121.904 97.4322 116.197 110.833C110.489 124.234 116.726 139.725 130.127 145.432C143.527 151.14 159.018 144.903 164.726 131.503Z" fill="#72CBD0"/>
<path d="M128.282 118.427L138.288 129.798L154.655 106.611" stroke="#263238" stroke-width="6" stroke-linecap="round" stroke-linejoin="round"/>
<path d="M165.526 44.0895C164.579 44.924 163.361 45.3867 162.099 45.3918H120.037C118.819 45.3912 117.641 44.9644 116.706 44.1855L114.026 41.9648H90.181V59.9974H190.728V41.9648H167.952L165.526 44.0895Z" fill="#72CBD0" stroke="#263238" stroke-linecap="round" stroke-linejoin="round"/>
<path d="M143.676 223.696C143.677 223.243 143.544 222.799 143.293 222.422C143.042 222.044 142.684 221.75 142.266 221.575C141.847 221.401 141.386 221.355 140.941 221.444C140.497 221.532 140.088 221.75 139.768 222.07C139.447 222.391 139.229 222.799 139.141 223.244C139.053 223.689 139.099 224.15 139.273 224.568C139.447 224.987 139.741 225.344 140.119 225.595C140.496 225.846 140.94 225.98 141.393 225.978C141.998 225.976 142.577 225.735 143.005 225.308C143.433 224.88 143.674 224.301 143.676 223.696Z" fill="#263238" stroke="#263238" stroke-linecap="round" stroke-linejoin="round"/>
<path d="M54.253 153.581L45.2881 233.772C45.2881 233.772 38.7152 239.488 39.2909 241.797C39.8667 244.107 47.4539 240.427 48.5026 238.521C49.2468 236.935 49.7769 235.257 50.079 233.532L68.9546 173.217L83.4711 237.898C83.4711 237.898 89.6396 242.963 93.0666 242.791C96.4935 242.62 95.2735 241.27 93.3201 238.795C91.3668 236.321 86.946 234.909 86.946 234.909L84.7665 151.545L54.253 153.581Z" fill="#263238" stroke="#263238" stroke-linecap="round" stroke-linejoin="round"/>
<path d="M84.2744 150.143L54.1562 151.674L54.365 155.781L84.4832 154.25L84.2744 150.143Z" fill="#263238" stroke="#263238" stroke-linecap="round" stroke-linejoin="round"/>
<path d="M72.8406 152.751C72.8885 153.772 71.5932 154.664 69.9345 154.753C68.2759 154.842 66.8777 154.088 66.8777 153.06C66.8777 152.032 68.132 151.147 69.7837 151.065C71.4355 150.983 72.7857 151.737 72.8406 152.751Z" fill="white"/>
<path d="M67.6797 110.614L56.357 113.931L57.7621 151.778L84.3209 151.12L80.9625 111.998L67.6797 110.614Z" fill="white" stroke="#263238" stroke-linecap="round" stroke-linejoin="round"/>
<path d="M62.7242 111.039L61.2026 175.623L46.782 168.639L53.1219 148.241L48.7971 113.801L62.7242 111.039Z" fill="#72CBD0" stroke="#263238" stroke-linecap="round" stroke-linejoin="round"/>
<path d="M74.1908 110.456L82.251 174.554L95.8971 166.144L87.5216 146.494L88.3304 111.793L74.1908 110.456Z" fill="#72CBD0" stroke="#263238" stroke-linecap="round" stroke-linejoin="round"/>
<path d="M65.6098 118.27L67.8579 121.93L66.0622 147.412L70.3253 152.457L72.5322 146.398L69.119 121.978L71.2231 118.441L68.1663 114.479L65.6098 118.27Z" fill="#263238" stroke="#263238" stroke-linecap="round" stroke-linejoin="round"/>
<path d="M68.3924 117.783L64.1499 120.977L60.7504 112.683L62.6626 109.723L73.0462 109.195L75.4999 112.505L73.478 120.045L68.3924 117.783Z" fill="white" stroke="#263238" stroke-linecap="round" stroke-linejoin="round"/>
<path d="M63.5262 106.536L64.4789 111.806L68.3925 117.783L71.9771 110.737L71.7509 106.289L63.5262 106.536Z" fill="white" stroke="#263238" stroke-linecap="round" stroke-linejoin="round"/>
<path d="M48.7972 113.801L29.5652 137.083L42.3477 152.217L47.4949 148.872L41.1757 135.98L50.6066 129.153L48.7972 113.801Z" fill="#72CBD0" stroke="#263238" stroke-linecap="round" stroke-linejoin="round"/>
<path d="M47.495 148.872L48.2626 150.544L43.9309 152.998L43.3484 151.655L47.495 148.872Z" fill="white" stroke="#263238" stroke-linecap="round" stroke-linejoin="round"/>
<path d="M48.2625 150.544L52.6764 156.329L51.2234 158.118L50.1679 157.659L48.0294 159.482C48.0294 159.482 46.4668 159.043 46.268 158.543C46.0692 158.043 43.9514 156.768 43.9034 155.918C43.8554 155.068 43.9034 152.998 43.9034 152.998L48.2625 150.544Z" fill="white" stroke="#263238" stroke-linecap="round" stroke-linejoin="round"/>
<path d="M99.0431 116.337C99.3036 115.657 99.3608 114.917 99.2076 114.205C98.8923 113.39 98.1932 110.566 98.3303 109.634C98.4674 108.702 99.8793 107.345 100.003 106.138C100.126 104.932 100.003 103.829 100.003 103.177C100.014 102.999 100.083 102.829 100.198 102.693C100.314 102.557 100.47 102.462 100.644 102.422C100.818 102.382 101.001 102.399 101.164 102.471C101.328 102.543 101.463 102.666 101.552 102.821C102.237 103.616 102.648 104.432 102.319 105.275C102.095 106.217 101.989 107.184 102.004 108.153C102.004 108.153 103.101 109.668 103.704 110.655C104.307 111.642 104.252 114.226 103.848 115.261C103.471 116.045 102.939 116.744 102.285 117.317L102.354 119.099L99.0431 116.337Z" fill="white" stroke="#263238" stroke-linecap="round" stroke-linejoin="round"/>
<path d="M101.044 106.728C101.044 106.728 100.565 108.14 101.408 108.462C102.251 108.784 105.698 109.264 105.732 108.153C105.767 107.043 105.835 106.488 105.28 106.515C104.725 106.543 102.141 106.515 102.141 106.515C102.141 106.515 100.941 106.454 101.044 106.728Z" fill="white" stroke="#263238" stroke-linecap="round" stroke-linejoin="round"/>
<path d="M101.435 113.65C101.435 113.65 101.092 114.699 101.702 114.939C102.312 115.178 104.793 115.542 104.814 114.712C104.835 113.883 104.882 113.472 104.485 113.492C104.087 113.513 102.223 113.492 102.223 113.492C102.223 113.492 101.36 113.431 101.435 113.65Z" fill="white" stroke="#263238" stroke-linecap="round" stroke-linejoin="round"/>
<path d="M100.976 111.409C100.976 111.409 100.578 112.629 101.284 112.91C101.99 113.191 104.862 113.595 104.889 112.649C104.917 111.704 104.972 111.21 104.506 111.231C104.04 111.251 101.887 111.231 101.887 111.231C101.887 111.231 100.887 111.176 100.976 111.409Z" fill="white" stroke="#263238" stroke-linecap="round" stroke-linejoin="round"/>
<path d="M100.709 109.236C100.709 109.236 100.229 110.648 101.079 110.97C101.928 111.292 105.362 111.772 105.397 110.662C105.431 109.551 105.499 108.996 104.944 109.024C104.389 109.051 101.805 109.024 101.805 109.024C101.805 109.024 100.606 108.969 100.709 109.236Z" fill="white" stroke="#263238" stroke-linecap="round" stroke-linejoin="round"/>
<path d="M98.6524 117.742L99.187 115.59L102.902 117.804L102.278 120.141L98.6524 117.742Z" fill="white" stroke="#263238" stroke-linecap="round" stroke-linejoin="round"/>
<path d="M88.3303 111.793L95.4446 126.933L98.9401 117.194L102.367 120.456L98.8578 138.509C98.7484 139.065 98.4789 139.577 98.0825 139.982C97.6861 140.386 97.1801 140.666 96.6266 140.787C96.0732 140.908 95.4965 140.865 94.9674 140.662C94.4384 140.46 93.9801 140.107 93.6489 139.647L87.967 131.717L88.3303 111.793Z" fill="#72CBD0" stroke="#263238" stroke-linecap="round" stroke-linejoin="round"/>
<path d="M60.2158 100.381C60.2158 100.381 58.7765 98.8455 58.5915 99.9696C58.4064 101.094 58.989 103.033 59.8937 103.726C60.7984 104.418 61.5935 103.273 61.5935 103.273L60.2158 100.381Z" fill="white" stroke="#263238" stroke-linecap="round" stroke-linejoin="round"/>
<path d="M73.8207 99.6887C73.8207 99.6887 75.0887 98.0163 75.3971 99.113C75.7055 100.21 75.308 102.204 74.4787 102.985C73.6494 103.767 72.7378 102.704 72.7378 102.704L73.8207 99.6887Z" fill="white" stroke="#263238" stroke-linecap="round" stroke-linejoin="round"/>
<path d="M60.7915 101.957L59.4207 99.0581C58.3174 97.5053 57.5537 95.7374 57.1795 93.8697C56.4941 90.6895 57.625 88.0439 59.0643 87.2282C59.8732 86.7441 60.8282 86.5642 61.7579 86.7211C61.7579 86.7211 62.032 84.8568 66.5556 83.2941C71.0791 81.7314 76.0002 84.5484 75.9248 85.5353C75.8494 86.5223 74.6432 86.9609 74.6432 86.9609C74.6432 86.9609 78.1661 88.2632 76.8912 89.9287C76.1051 90.9461 75.0877 91.7614 73.9235 92.307C74.179 93.1468 74.3872 94.0003 74.5472 94.8635C74.7254 95.967 73.7316 100.71 73.7316 100.71L71.2985 94.041L63.6632 94.4317C63.6632 94.4317 63.2109 97.6667 62.4021 98.8182C61.8859 99.6922 61.5983 100.682 61.5659 101.697C61.5659 101.697 61.2095 102.917 60.7915 101.957Z" fill="#263238" stroke="#263238" stroke-linecap="round" stroke-linejoin="round"/>
<path d="M62.1485 89.9082C62.1354 91.8986 61.9912 93.886 61.7167 95.8574C61.5516 96.9544 60.9849 97.9509 60.1266 98.6538C60.1266 98.6538 61.0999 103.17 62.3336 105.576C63.5673 107.982 66.1306 109.956 68.7145 109.689C71.2984 109.421 73.3615 106.488 73.6082 104.007C73.8549 101.526 72.6418 92.355 72.6418 92.355C72.6418 92.355 64.5679 93.7738 62.1485 89.9082Z" fill="white" stroke="#263238" stroke-linecap="round" stroke-linejoin="round"/>
<path d="M62.8339 99.1814C63.2455 98.9378 63.7101 98.7981 64.1878 98.7742C64.6654 98.7503 65.1417 98.843 65.5755 99.0443" stroke="#263238" stroke-linecap="round" stroke-linejoin="round"/>
<path d="M62.7242 97.125C62.7242 97.125 62.8818 95.7542 65.171 95.6309" stroke="#263238" stroke-linecap="round" stroke-linejoin="round"/>
<path d="M68.8173 95.3297C69.3353 95.1175 69.9076 95.0769 70.4504 95.2138C70.9931 95.3507 71.4777 95.658 71.833 96.0905" stroke="#263238" stroke-linecap="round" stroke-linejoin="round"/>
<path d="M68.0155 97.5435C68.0155 97.5435 68.3788 100.285 68.3993 100.621C68.4199 100.957 69.5645 101.018 69.2561 101.717C68.9476 102.417 67.9538 103.157 67.1245 102.629" stroke="#263238" stroke-linecap="round" stroke-linejoin="round"/>
<path d="M69.3039 104.925C69.3039 104.925 68.4335 105.768 66.6789 105.055" stroke="#263238" stroke-linecap="round" stroke-linejoin="round"/>
<path d="M71.0381 98.421C71.0381 98.9282 70.8256 99.3532 70.5103 99.3669C70.1951 99.3806 69.9209 98.983 69.8935 98.4827C69.8661 97.9824 70.106 97.5574 70.4212 97.5369C70.7365 97.5163 70.9901 97.9207 71.0381 98.421Z" fill="#263238"/>
</svg>
