<svg width="19" height="16" viewBox="0 0 19 16" fill="none" xmlns="http://www.w3.org/2000/svg">
<path d="M9.75415 15H4.5C1.87292 15 1 13.2542 1 11.5V4.5C1 1.87292 1.87292 1 4.5 1H9.75415C12.3812 1 13.2541 1.87292 13.2541 4.5V11.5C13.2541 14.1271 12.3729 15 9.75415 15Z" stroke="#F69F17" stroke-linecap="round" stroke-linejoin="round"/>
<path d="M15.5656 12.2397L13.2544 10.6186V5.37275L15.5656 3.75161C16.6962 2.96183 17.6273 3.44401 17.6273 4.83237V11.1673C17.6273 12.5557 16.6962 13.0378 15.5656 12.2397Z" stroke="#F69F17" stroke-linecap="round" stroke-linejoin="round"/>
<path d="M8.89791 7.16838C9.5866 7.16838 10.1449 6.61004 10.1449 5.92135C10.1449 5.23263 9.5866 4.67432 8.89791 4.67432C8.20922 4.67432 7.65088 5.23263 7.65088 5.92135C7.65088 6.61004 8.20922 7.16838 8.89791 7.16838Z" stroke="#F69F17" stroke-linecap="round" stroke-linejoin="round"/>
</svg>
