<svg width="9" height="10" viewBox="0 0 9 10" fill="none" xmlns="http://www.w3.org/2000/svg">
<path d="M0.191484 4.4811C0.191273 5.24318 0.390398 5.9873 0.769031 6.64317L0.155273 8.8841L2.44859 8.28279C3.08289 8.6281 3.79357 8.80903 4.51577 8.80908H4.51767C6.90179 8.80908 8.84252 6.86905 8.84354 4.48451C8.844 3.32903 8.39442 2.24249 7.5776 1.42503C6.76092 0.607652 5.67477 0.157266 4.5175 0.156738C2.13309 0.156738 0.192504 2.09666 0.19152 4.4811" fill="url(#paint0_linear_859_1351)"/>
<path d="M0.716371 6.70868L0.708102 6.73887L0.106658 8.93482L2.35652 8.34491L2.38531 8.33736L2.41145 8.35161C3.05495 8.70247 3.77955 8.88749 4.51691 8.88777C4.51692 8.88777 4.51693 8.88777 4.51694 8.88777H4.51884C6.94708 8.88777 8.92396 6.91152 8.925 4.48302C8.92541 3.30592 8.46756 2.1994 7.63562 1.36673C6.80358 0.534182 5.69767 0.0754914 4.51884 0.075L0.716371 6.70868ZM0.716371 6.70868L0.700722 6.68157M0.716371 6.70868L0.700722 6.68157M0.700722 6.68157C0.315197 6.01366 0.112375 5.25588 0.112617 4.47949M0.700722 6.68157L0.112617 4.47949M0.112617 4.47949C0.113585 2.05098 2.09016 0.0750168 4.51881 0.075L0.112617 4.47949ZM1.37124 6.61409L1.00359 7.95619L0.969258 8.0815L1.09494 8.04855L2.47432 7.6869L2.5834 7.75159C2.58341 7.75159 2.58341 7.7516 2.58342 7.7516C3.16676 8.09772 3.83553 8.28081 4.51733 8.28117H4.51737H4.51884C6.61311 8.28117 8.31747 6.57715 8.3184 4.48281C8.31865 3.46792 7.9238 2.51334 7.20651 1.7955L7.2065 1.7955C6.48918 1.07775 5.5351 0.681993 4.52028 0.681563H4.52025C2.4244 0.681563 0.72004 2.38535 0.719215 4.47972C0.718928 5.1973 0.919684 5.89628 1.30012 6.50119L1.30015 6.50124L1.37124 6.61409Z" fill="white" stroke="#5FD568" stroke-width="0.15"/>
<path d="M3.3982 2.60671C3.31432 2.42028 3.22604 2.41652 3.14627 2.41325C3.08095 2.41044 3.00628 2.41065 2.93168 2.41065C2.85701 2.41065 2.73568 2.43874 2.63313 2.55071C2.53048 2.66279 2.24121 2.93363 2.24121 3.4845C2.24121 4.03539 2.64245 4.56777 2.69838 4.64254C2.75439 4.71718 3.47298 5.8838 4.61106 6.33261C5.5569 6.70558 5.74938 6.6314 5.95466 6.6127C6.15997 6.59407 6.61714 6.34193 6.71041 6.08047C6.80375 5.81905 6.80375 5.59496 6.77577 5.54813C6.74779 5.50148 6.67311 5.47346 6.56114 5.41749C6.44913 5.36149 5.89866 5.09061 5.79603 5.05324C5.69338 5.0159 5.61874 4.99727 5.54407 5.10938C5.4694 5.22132 5.25498 5.47346 5.18962 5.54813C5.12434 5.62298 5.05898 5.6323 4.94705 5.57629C4.835 5.52011 4.47441 5.40202 4.04659 5.02061C3.71373 4.72382 3.48901 4.35732 3.42369 4.24521C3.35837 4.13327 3.4167 4.07259 3.47284 4.0168C3.52315 3.96663 3.58485 3.88605 3.64089 3.8207C3.69671 3.7553 3.71535 3.70865 3.75268 3.63398C3.79005 3.55924 3.77135 3.49385 3.7434 3.43784C3.71535 3.38184 3.49777 2.82809 3.3982 2.60671Z" fill="white"/>
<defs>
<linearGradient id="paint0_linear_859_1351" x1="434.569" y1="872.893" x2="434.569" y2="0.156738" gradientUnits="userSpaceOnUse">
<stop stop-color="#1FAF38"/>
<stop offset="1" stop-color="#60D669"/>
</linearGradient>
</defs>
</svg>
