<svg width="14" height="14" viewBox="0 0 14 14" fill="none" xmlns="http://www.w3.org/2000/svg">
<path d="M6.29696 1.23704L1.21189 6.45187C1.13484 6.53088 1.08014 6.61647 1.04778 6.70866C1.01542 6.80084 0.999498 6.8996 1.00001 7.00495C1.00001 7.1103 1.01619 7.20907 1.04855 7.30125C1.08091 7.39343 1.13536 7.47903 1.21189 7.55804L6.29696 12.7729C6.43821 12.9177 6.6149 12.9933 6.82703 12.9996C7.03917 13.006 7.22203 12.9304 7.37561 12.7729C7.5297 12.628 7.61008 12.4468 7.61676 12.2293C7.62344 12.0117 7.54947 11.8242 7.39487 11.6667L3.61959 7.79508H12.2295C12.4478 7.79508 12.6309 7.71923 12.7789 7.56752C12.9268 7.41582 13.0005 7.2283 13 7.00495C13 6.78108 12.9263 6.5933 12.7789 6.44159C12.6315 6.28989 12.4483 6.2143 12.2295 6.21483H3.61959L7.39487 2.34321C7.53612 2.19836 7.61008 2.01399 7.61676 1.79012C7.62344 1.56626 7.54947 1.38189 7.39487 1.23704C7.25362 1.07901 7.07384 1 6.85554 1C6.63724 1 6.45105 1.07901 6.29696 1.23704Z" fill="white" stroke="white" stroke-width="0.2"/>
</svg>
