<svg width="18" height="14" viewBox="0 0 18 14" fill="none" xmlns="http://www.w3.org/2000/svg">
<mask id="mask0_859_1189" style="mask-type:luminance" maskUnits="userSpaceOnUse" x="0" y="0" width="18" height="14">
<path d="M0 0H18.0003V14H0V0Z" fill="white"/>
</mask>
<g mask="url(#mask0_859_1189)">
<path d="M17.0514 5.0785C16.8097 5.0785 16.6034 4.99308 16.4326 4.82223C12.3385 0.726096 5.67659 0.726096 1.58253 4.82223C1.50023 4.90349 1.40544 4.96599 1.29814 5.00975C1.19084 5.0535 1.08041 5.07538 0.964778 5.07434C0.849145 5.07434 0.737678 5.05246 0.63142 5.00766C0.524121 4.96287 0.430364 4.90036 0.348066 4.81807C0.26681 4.73681 0.203264 4.64201 0.15951 4.53575C0.114715 4.42845 0.0917969 4.31803 0.0917969 4.2024C0.0917969 4.08676 0.113674 3.9753 0.157427 3.868C0.20118 3.7607 0.263685 3.6659 0.344941 3.5836C2.65657 1.27301 5.7318 0 9.00809 0C12.2833 0 15.3596 1.27301 17.6702 3.5836C17.7962 3.70965 17.8754 3.85862 17.9098 4.03259C17.9442 4.20552 17.9275 4.37428 17.8598 4.53784C17.7921 4.70139 17.6848 4.83265 17.5379 4.93058C17.391 5.02954 17.2285 5.0785 17.0514 5.0785ZM15.196 7.29742C15.2783 7.21616 15.3419 7.12136 15.3867 7.01406C15.4304 6.90676 15.4523 6.7953 15.4523 6.67862C15.4523 6.56299 15.4304 6.45048 15.3867 6.34422C15.3419 6.23692 15.2783 6.14212 15.196 6.05983C11.7843 2.64707 6.23288 2.64707 2.82117 6.05983C2.73991 6.14212 2.67741 6.23692 2.63365 6.34318C2.5899 6.45048 2.56802 6.56195 2.56802 6.67758C2.56906 6.79321 2.59094 6.90468 2.63574 7.01094C2.67949 7.11824 2.74304 7.212 2.82429 7.29429C2.90659 7.37555 3.00035 7.4391 3.10765 7.48285C3.2139 7.52764 3.32537 7.54952 3.441 7.55056C3.55664 7.55056 3.6681 7.52869 3.77436 7.48493C3.88166 7.44118 3.97646 7.37867 4.05876 7.29742C6.78813 4.56701 11.2291 4.56701 13.9585 7.29742C14.0408 7.37972 14.1355 7.44326 14.2428 7.48806C14.3501 7.53181 14.4616 7.55473 14.5772 7.55473C14.6939 7.55473 14.8054 7.53181 14.9127 7.48806C15.02 7.44326 15.1148 7.37972 15.196 7.29742ZM12.7209 9.77364C12.8032 9.69135 12.8667 9.59655 12.9105 9.49029C12.9553 9.38299 12.9771 9.27048 12.9771 9.15485C12.9771 9.03817 12.9553 8.92671 12.9105 8.81941C12.8667 8.71211 12.8032 8.61835 12.7209 8.53605C10.6738 6.48798 7.34338 6.48798 5.29635 8.53605C5.21614 8.61835 5.15572 8.71315 5.113 8.81941C5.07029 8.92566 5.04946 9.03713 5.0505 9.15172C5.05154 9.26632 5.07446 9.37674 5.11925 9.48196C5.16301 9.58821 5.22551 9.68093 5.30677 9.76219C5.38802 9.84344 5.48178 9.90595 5.587 9.95074C5.69325 9.99554 5.80368 10.0174 5.91827 10.0185C6.03286 10.0205 6.14329 9.9997 6.24955 9.95699C6.3558 9.91428 6.4506 9.85386 6.5329 9.77364C6.69645 9.61113 6.87251 9.46633 7.06419 9.33924C7.25483 9.2111 7.45693 9.1038 7.66944 9.0163C7.88196 8.92775 8.10073 8.86212 8.32574 8.81732C8.5518 8.77253 8.7789 8.74961 9.00913 8.74961C9.23831 8.74961 9.46645 8.77253 9.69147 8.81732C9.91649 8.86212 10.1353 8.92775 10.3478 9.0163C10.5603 9.1038 10.7624 9.2111 10.953 9.33924C11.1447 9.46633 11.3208 9.61113 11.4843 9.77364C11.5656 9.85594 11.6604 9.91949 11.7677 9.96324C11.875 10.008 11.9864 10.0299 12.1021 10.0299C12.2187 10.0299 12.3302 10.008 12.4375 9.96324C12.5448 9.91949 12.6396 9.85594 12.7209 9.77364ZM10.2457 13.4875C10.3405 13.3927 10.4238 13.2874 10.4947 13.1739C10.5655 13.0593 10.6228 12.9395 10.6665 12.8114C10.7093 12.6843 10.7374 12.5541 10.7509 12.4207C10.7645 12.2863 10.7624 12.153 10.7447 12.0196C10.727 11.8863 10.6947 11.7571 10.6478 11.6311C10.6009 11.505 10.5394 11.3863 10.4655 11.2748C10.3905 11.1623 10.304 11.0602 10.2061 10.9685C10.1082 10.8769 10.0009 10.7966 9.88419 10.73C9.76856 10.6623 9.64563 10.6091 9.5175 10.5706C9.38832 10.531 9.25706 10.507 9.12268 10.4977C8.98933 10.4893 8.85599 10.4956 8.72265 10.5174C8.59035 10.5393 8.46221 10.5758 8.33824 10.6279C8.21323 10.6789 8.09656 10.7435 7.98718 10.8216C7.87779 10.8998 7.77883 10.9894 7.69028 11.0904C7.60173 11.1915 7.52568 11.3019 7.46214 11.4206C7.39963 11.5384 7.34963 11.6634 7.31525 11.7925C7.28087 11.9228 7.26108 12.0551 7.25587 12.1895C7.2517 12.3238 7.26316 12.4561 7.28921 12.5884C7.31525 12.7207 7.35588 12.8478 7.41109 12.9697C7.46735 13.0926 7.53506 13.2072 7.61736 13.3135C7.69861 13.4208 7.79237 13.5166 7.8955 13.6021C7.99968 13.6864 8.11218 13.7594 8.23199 13.8187C8.35283 13.8781 8.47888 13.9229 8.61014 13.9542C8.74036 13.9844 8.87266 14 9.00809 14C9.23935 14 9.46333 13.9552 9.67688 13.8667C9.89148 13.7781 10.0811 13.651 10.2457 13.4875Z" fill="#F69F17"/>
</g>
</svg>
